<svg xmlns="http://www.w3.org/2000/svg" xmlns:xlink="http://www.w3.org/1999/xlink" width="500" zoomAndPan="magnify" viewBox="0 0 375 374.999991" height="500" preserveAspectRatio="xMidYMid meet" version="1.0"><defs><clipPath id="c3238a0aad"><path d="M 122.234375 123.488281 L 134.234375 123.488281 L 134.234375 130.238281 L 122.234375 130.238281 Z M 122.234375 123.488281 " clip-rule="nonzero"/></clipPath><clipPath id="aae4d99048"><path d="M 122.234375 124 L 134 124 L 134 130 L 122.234375 130 Z M 122.234375 124 " clip-rule="nonzero"/></clipPath><clipPath id="f0ab3c2fdd"><path d="M 7 37.5 L 371 37.5 L 371 334.5 L 7 334.5 Z M 7 37.5 " clip-rule="nonzero"/></clipPath></defs><g clip-path="url(#c3238a0aad)"><path fill="#353535" d="M 134.257812 127.402344 C 133.507812 127.613281 133.273438 127.035156 133.023438 126.703125 C 132.597656 126.148438 132.105469 126.078125 131.445312 126.148438 C 128.273438 126.464844 125.429688 127.410156 123.25 129.714844 C 122.988281 129.996094 122.628906 130.09375 122.261719 130.179688 L 122.257812 130.179688 C 122.753906 128.820312 123.914062 127.980469 125.117188 127.285156 C 126.960938 126.226562 128.929688 125.402344 131.195312 125.578125 C 131.960938 125.636719 132.527344 125.496094 132.613281 124.585938 C 132.660156 124.039062 133.144531 123.703125 133.929688 123.535156 C 133.105469 124.957031 133.6875 126.152344 134.257812 127.402344 Z M 122.234375 130.210938 L 122.261719 130.179688 C 122.261719 130.179688 122.257812 130.179688 122.257812 130.179688 C 122.261719 130.179688 122.234375 130.210938 122.234375 130.210938 Z M 122.234375 130.210938 " fill-opacity="1" fill-rule="nonzero"/></g><g clip-path="url(#aae4d99048)"><path fill="#ffffff" d="M 126.09375 127.09375 C 126.101562 127.09375 126.113281 127.09375 126.121094 127.089844 C 126.121094 127.105469 126.121094 127.125 126.121094 127.140625 C 126.117188 127.140625 126.113281 127.140625 126.105469 127.144531 C 126.101562 127.128906 126.097656 127.113281 126.09375 127.09375 Z M 125.542969 127.15625 C 125.597656 127.152344 125.640625 127.152344 125.695312 127.152344 C 125.609375 127.105469 125.59375 127.105469 125.542969 127.15625 Z M 125.847656 127.667969 C 125.847656 127.671875 125.855469 127.679688 125.863281 127.6875 C 125.871094 127.675781 125.882812 127.671875 125.890625 127.664062 C 125.875 127.652344 125.871094 127.648438 125.863281 127.644531 C 125.855469 127.652344 125.847656 127.660156 125.847656 127.667969 Z M 125.65625 127.703125 C 125.660156 127.703125 125.675781 127.707031 125.675781 127.707031 C 125.679688 127.695312 125.679688 127.675781 125.6875 127.664062 C 125.679688 127.664062 125.671875 127.664062 125.667969 127.660156 C 125.660156 127.671875 125.65625 127.691406 125.65625 127.703125 Z M 125.660156 127.523438 C 125.652344 127.523438 125.640625 127.523438 125.632812 127.523438 C 125.636719 127.542969 125.640625 127.5625 125.640625 127.585938 C 125.652344 127.585938 125.65625 127.585938 125.667969 127.582031 C 125.667969 127.566406 125.667969 127.542969 125.660156 127.523438 Z M 127.734375 126.136719 C 127.738281 126.15625 127.746094 126.179688 127.753906 126.199219 C 127.757812 126.199219 127.761719 126.199219 127.765625 126.195312 C 127.761719 126.171875 127.753906 126.152344 127.746094 126.128906 C 127.742188 126.132812 127.738281 126.136719 127.734375 126.136719 Z M 125.359375 127.898438 C 125.320312 127.902344 125.292969 127.902344 125.269531 127.90625 C 125.292969 127.933594 125.324219 127.949219 125.359375 127.898438 Z M 128.175781 126.722656 C 128.242188 126.730469 128.242188 126.730469 128.277344 126.707031 C 128.265625 126.703125 128.257812 126.695312 128.246094 126.699219 C 128.226562 126.699219 128.207031 126.707031 128.175781 126.722656 Z M 126.992188 126.800781 C 127.03125 126.804688 127.066406 126.808594 127.105469 126.8125 C 127.066406 126.738281 127.0625 126.734375 126.992188 126.800781 Z M 126.464844 126.929688 C 126.492188 126.933594 126.523438 126.933594 126.546875 126.9375 C 126.59375 126.941406 126.585938 126.914062 126.578125 126.875 C 126.542969 126.90625 126.488281 126.863281 126.464844 126.929688 Z M 126.214844 127.007812 C 126.226562 127.011719 126.230469 127.019531 126.234375 127.023438 C 126.25 127.011719 126.257812 126.996094 126.269531 126.984375 C 126.269531 126.984375 126.257812 126.972656 126.253906 126.96875 C 126.246094 126.984375 126.230469 126.992188 126.214844 127.007812 Z M 126.875 127.113281 C 126.890625 127.070312 126.894531 127.042969 126.910156 127 C 126.851562 127.046875 126.851562 127.046875 126.875 127.113281 Z M 123.324219 129.519531 C 123.371094 129.519531 123.378906 129.480469 123.375 129.445312 C 123.328125 129.441406 123.289062 129.433594 123.238281 129.433594 C 123.242188 129.496094 123.285156 129.519531 123.324219 129.519531 Z M 123.398438 128.710938 C 123.402344 128.71875 123.410156 128.726562 123.410156 128.734375 C 123.429688 128.722656 123.449219 128.71875 123.460938 128.710938 C 123.457031 128.699219 123.449219 128.6875 123.449219 128.6875 C 123.433594 128.695312 123.414062 128.699219 123.398438 128.710938 Z M 128.34375 126.679688 C 128.34375 126.691406 128.363281 126.699219 128.371094 126.707031 C 128.378906 126.699219 128.390625 126.691406 128.394531 126.679688 C 128.394531 126.671875 128.382812 126.660156 128.375 126.644531 C 128.359375 126.660156 128.34375 126.671875 128.34375 126.679688 Z M 123.105469 129.789062 C 123.113281 129.789062 123.125 129.789062 123.128906 129.792969 C 123.132812 129.773438 123.140625 129.753906 123.140625 129.734375 C 123.113281 129.738281 123.105469 129.746094 123.101562 129.757812 C 123.101562 129.765625 123.105469 129.78125 123.105469 129.789062 Z M 122.917969 129.328125 C 122.9375 129.339844 122.957031 129.34375 122.980469 129.351562 C 122.980469 129.34375 122.988281 129.339844 122.988281 129.328125 C 122.96875 129.324219 122.949219 129.316406 122.929688 129.3125 C 122.921875 129.316406 122.917969 129.320312 122.917969 129.328125 Z M 122.640625 129.886719 C 122.667969 129.839844 122.6875 129.804688 122.71875 129.761719 C 122.640625 129.773438 122.628906 129.792969 122.640625 129.886719 Z M 124.617188 127.964844 C 124.621094 127.980469 124.628906 127.992188 124.632812 128.007812 C 124.632812 128.007812 124.644531 128.007812 124.652344 128.007812 C 124.648438 127.988281 124.644531 127.96875 124.636719 127.957031 C 124.632812 127.960938 124.621094 127.960938 124.617188 127.964844 Z M 124.441406 128.347656 C 124.460938 128.292969 124.460938 128.292969 124.414062 128.265625 C 124.421875 128.296875 124.433594 128.324219 124.441406 128.347656 Z M 124.769531 128.386719 C 124.78125 128.355469 124.789062 128.328125 124.804688 128.289062 C 124.765625 128.304688 124.734375 128.320312 124.703125 128.332031 C 124.730469 128.351562 124.746094 128.371094 124.769531 128.386719 Z M 124.289062 128.613281 C 124.292969 128.617188 124.292969 128.628906 124.300781 128.632812 C 124.320312 128.621094 124.339844 128.613281 124.359375 128.605469 C 124.355469 128.601562 124.347656 128.59375 124.347656 128.585938 C 124.328125 128.59375 124.308594 128.605469 124.289062 128.613281 Z M 123.90625 128.472656 C 123.914062 128.488281 123.914062 128.507812 123.917969 128.527344 C 123.925781 128.527344 123.933594 128.523438 123.941406 128.523438 C 123.9375 128.503906 123.933594 128.484375 123.933594 128.464844 C 123.921875 128.464844 123.917969 128.472656 123.90625 128.472656 Z M 124.171875 128.367188 C 124.167969 128.367188 124.164062 128.375 124.15625 128.382812 C 124.183594 128.394531 124.207031 128.40625 124.242188 128.425781 C 124.234375 128.367188 124.210938 128.359375 124.171875 128.367188 Z M 132.769531 125.007812 C 132.769531 124.996094 132.773438 124.980469 132.773438 124.964844 C 132.761719 124.964844 132.753906 124.964844 132.75 124.964844 C 132.75 124.976562 132.75 124.992188 132.75 125.003906 C 132.753906 125.003906 132.761719 125.003906 132.769531 125.007812 Z M 133.140625 125.777344 C 133.140625 125.785156 133.148438 125.796875 133.15625 125.808594 C 133.164062 125.804688 133.175781 125.792969 133.195312 125.785156 C 133.179688 125.769531 133.171875 125.761719 133.160156 125.757812 C 133.15625 125.753906 133.140625 125.765625 133.140625 125.777344 Z M 133.058594 125.496094 C 133.046875 125.523438 133.042969 125.550781 133.101562 125.570312 C 133.089844 125.535156 133.085938 125.515625 133.082031 125.492188 C 133.070312 125.492188 133.0625 125.496094 133.058594 125.496094 Z M 133.050781 125.136719 C 133.023438 125.148438 132.992188 125.152344 132.953125 125.160156 C 133 125.203125 133.027344 125.210938 133.050781 125.164062 C 133.058594 125.164062 133.050781 125.152344 133.050781 125.136719 Z M 132.636719 126.183594 C 132.671875 126.179688 132.691406 126.179688 132.714844 126.179688 C 132.710938 126.160156 132.703125 126.144531 132.699219 126.117188 C 132.675781 126.144531 132.660156 126.15625 132.636719 126.183594 Z M 132.75 125.175781 C 132.808594 125.1875 132.851562 125.179688 132.871094 125.105469 C 132.75 125.085938 132.75 125.085938 132.75 125.175781 Z M 133.347656 124.957031 C 133.347656 124.972656 133.347656 124.980469 133.347656 124.996094 C 133.351562 125.007812 133.355469 125.019531 133.359375 125.03125 C 133.367188 125.03125 133.371094 125.027344 133.375 125.027344 C 133.371094 125.003906 133.371094 124.980469 133.367188 124.964844 C 133.359375 124.957031 133.351562 124.957031 133.347656 124.957031 Z M 133.40625 125.691406 C 133.410156 125.699219 133.414062 125.703125 133.417969 125.710938 C 133.4375 125.699219 133.457031 125.679688 133.480469 125.664062 C 133.472656 125.660156 133.464844 125.652344 133.457031 125.648438 C 133.445312 125.660156 133.425781 125.675781 133.40625 125.691406 Z M 133.222656 124.578125 C 133.222656 124.582031 133.222656 124.589844 133.222656 124.59375 C 133.242188 124.59375 133.269531 124.59375 133.308594 124.59375 C 133.277344 124.578125 133.269531 124.566406 133.257812 124.566406 C 133.25 124.566406 133.234375 124.578125 133.222656 124.578125 Z M 129.238281 126.207031 C 129.246094 126.207031 129.25 126.207031 129.261719 126.210938 C 129.261719 126.199219 129.265625 126.179688 129.265625 126.167969 C 129.261719 126.167969 129.25 126.167969 129.246094 126.160156 C 129.242188 126.175781 129.242188 126.195312 129.238281 126.207031 Z M 133.449219 126.546875 C 133.453125 126.546875 133.464844 126.546875 133.46875 126.546875 C 133.472656 126.519531 133.472656 126.488281 133.480469 126.460938 C 133.46875 126.460938 133.457031 126.460938 133.449219 126.460938 C 133.449219 126.492188 133.449219 126.519531 133.449219 126.546875 Z M 133.003906 124.828125 C 133.03125 124.855469 133.050781 124.871094 133.082031 124.898438 C 133.085938 124.835938 133.066406 124.824219 133.003906 124.828125 Z M 129.757812 125.679688 C 129.75 125.714844 129.75 125.75 129.820312 125.777344 C 129.800781 125.730469 129.789062 125.703125 129.777344 125.675781 C 129.769531 125.679688 129.765625 125.679688 129.757812 125.679688 Z M 129.644531 126.03125 C 129.65625 126.042969 129.671875 126.050781 129.6875 126.058594 C 129.6875 126.058594 129.699219 126.046875 129.707031 126.039062 C 129.6875 126.027344 129.675781 126.019531 129.65625 126.019531 C 129.65625 126.015625 129.648438 126.027344 129.644531 126.03125 Z M 129.628906 125.832031 C 129.632812 125.796875 129.636719 125.78125 129.644531 125.742188 C 129.59375 125.78125 129.589844 125.796875 129.628906 125.832031 Z M 129.859375 126.265625 C 129.875 126.289062 129.882812 126.304688 129.898438 126.328125 C 129.914062 126.304688 129.921875 126.28125 129.9375 126.261719 C 129.933594 126.257812 129.925781 126.253906 129.925781 126.25 C 129.902344 126.25 129.878906 126.257812 129.859375 126.265625 Z M 129.203125 125.914062 C 129.230469 125.925781 129.230469 125.980469 129.300781 125.945312 C 129.265625 125.921875 129.238281 125.910156 129.210938 125.894531 C 129.207031 125.902344 129.203125 125.910156 129.203125 125.914062 Z M 129.90625 125.691406 C 129.914062 125.699219 129.917969 125.703125 129.921875 125.707031 C 129.945312 125.691406 129.976562 125.679688 130.019531 125.660156 C 129.984375 125.648438 129.957031 125.628906 129.945312 125.636719 C 129.925781 125.648438 129.921875 125.671875 129.90625 125.691406 Z M 132.453125 125.21875 C 132.453125 125.226562 132.453125 125.234375 132.453125 125.238281 C 132.472656 125.238281 132.492188 125.238281 132.511719 125.238281 C 132.511719 125.234375 132.511719 125.230469 132.511719 125.226562 C 132.492188 125.226562 132.472656 125.226562 132.453125 125.21875 Z M 131.195312 126.039062 C 131.25 126.050781 131.28125 126.058594 131.3125 126.070312 C 131.289062 126.039062 131.265625 126.015625 131.195312 126.039062 Z M 131.382812 125.757812 C 131.441406 125.691406 131.441406 125.691406 131.363281 125.679688 C 131.367188 125.703125 131.371094 125.71875 131.382812 125.757812 Z M 130.367188 126.046875 C 130.398438 126.058594 130.417969 126.070312 130.445312 126.078125 C 130.453125 126.046875 130.457031 126.019531 130.460938 125.992188 C 130.457031 125.988281 130.453125 125.988281 130.445312 125.980469 C 130.417969 126 130.398438 126.019531 130.367188 126.046875 Z M 130.367188 126.046875 " fill-opacity="1" fill-rule="nonzero"/></g><g clip-path="url(#f0ab3c2fdd)"><path fill="#a6a6a6" d="M 370.832031 196.28125 C 369.160156 269.207031 340.929688 305.765625 340.648438 306.132812 C 340.460938 306.367188 340.203125 306.492188 339.933594 306.515625 C 339.816406 306.695312 339.761719 306.796875 339.761719 306.796875 C 339.761719 306.796875 339.769531 306.695312 339.785156 306.515625 C 339.582031 306.5 339.378906 306.4375 339.207031 306.304688 C 338.753906 305.945312 338.675781 305.296875 339.035156 304.84375 C 339.066406 304.804688 339.386719 304.394531 339.933594 303.605469 C 340.117188 298.59375 340.1875 288.355469 338.449219 277.925781 C 338.160156 279.058594 337.855469 280.160156 337.542969 281.234375 C 335.820312 289.507812 332.828125 298.242188 327.726562 305.71875 C 319.601562 317.636719 313.324219 324.21875 309.570312 324.738281 C 309.398438 324.761719 309.242188 324.769531 309.09375 324.769531 C 308.367188 324.769531 307.957031 324.503906 307.800781 324.382812 C 307.355469 324.015625 307.300781 323.359375 307.667969 322.921875 C 307.824219 322.734375 308.027344 322.625 308.246094 322.578125 C 301.703125 291.484375 282.042969 267.90625 278.09375 263.089844 C 275.996094 270.894531 274.683594 281.78125 278.359375 293.214844 C 278.53125 293.761719 278.234375 294.347656 277.6875 294.519531 C 277.585938 294.550781 277.476562 294.566406 277.367188 294.566406 C 276.929688 294.566406 276.527344 294.285156 276.378906 293.847656 C 276.300781 293.613281 276.246094 293.378906 276.167969 293.144531 C 271.03125 291.523438 266.339844 289.40625 262.0625 286.902344 C 262.21875 287.277344 262.140625 287.730469 261.828125 288.035156 C 261.625 288.238281 261.359375 288.332031 261.09375 288.332031 C 260.828125 288.332031 260.558594 288.230469 260.355469 288.027344 C 258.542969 286.191406 256.871094 284.3125 255.328125 282.390625 C 222.734375 257.625 218.019531 208.582031 217.371094 197.773438 C 214.453125 207.511719 211.714844 220.640625 213.640625 231.628906 C 213.742188 232.191406 213.359375 232.730469 212.800781 232.832031 C 212.777344 232.839844 212.746094 232.839844 212.722656 232.839844 C 214.367188 249.960938 220.050781 266.625 225.621094 279.488281 C 230.625 291.03125 235.542969 299.523438 237.367188 302.558594 C 237.679688 302.628906 237.992188 302.707031 238.3125 302.761719 C 238.875 302.871094 239.25 303.410156 239.140625 303.972656 C 239.046875 304.472656 238.609375 304.8125 238.117188 304.8125 C 238.054688 304.8125 237.984375 304.804688 237.921875 304.796875 C 225.621094 302.464844 216.007812 294.933594 209.542969 288.128906 C 214.710938 298.75 224.296875 313.21875 229.78125 321.210938 C 231.195312 323.28125 232.335938 324.910156 233.042969 325.925781 C 233.644531 326.027344 233.988281 326.074219 234.011719 326.082031 C 234.582031 326.152344 234.980469 326.675781 234.910156 327.246094 C 234.847656 327.769531 234.394531 328.152344 233.878906 328.152344 C 233.832031 328.152344 233.792969 328.152344 233.746094 328.144531 C 233.535156 328.113281 212.105469 325.230469 187.660156 309.050781 C 187.042969 308.648438 186.433594 308.234375 185.832031 307.828125 C 187.535156 313.195312 193.429688 320.425781 195.777344 323.171875 C 196.128906 323.203125 196.480469 323.234375 196.832031 323.257812 C 197.398438 323.296875 197.835938 323.796875 197.789062 324.367188 C 197.75 324.910156 197.300781 325.332031 196.753906 325.332031 C 196.730469 325.332031 196.707031 325.332031 196.683594 325.332031 C 168.21875 323.335938 150.0625 311.097656 149.886719 310.972656 C 149.457031 310.675781 149.332031 310.121094 149.558594 309.660156 C 129.265625 299.453125 116.175781 286.144531 107.738281 273.445312 C 107.722656 273.453125 107.714844 273.46875 107.699219 273.476562 C 107.535156 273.578125 107.355469 273.617188 107.175781 273.617188 C 106.816406 273.617188 106.472656 273.4375 106.28125 273.109375 C 98.769531 260.390625 94.449219 246.917969 92.011719 234.664062 C 87.390625 262.761719 96.359375 295.457031 98.4375 302.441406 C 98.714844 302.582031 98.996094 302.722656 99.285156 302.855469 C 99.808594 303.097656 100.035156 303.714844 99.792969 304.238281 C 99.613281 304.621094 99.238281 304.835938 98.847656 304.835938 C 98.699219 304.835938 98.550781 304.804688 98.414062 304.742188 C 89.070312 300.414062 83.136719 293.355469 79.382812 285.746094 C 77.871094 292.832031 79.054688 300.648438 81.140625 307.65625 C 84.566406 319.246094 90.445312 328.648438 90.699219 329.0625 C 82.351562 325.488281 78.199219 318.574219 76.238281 313.773438 C 76.988281 319.246094 78.613281 327.699219 81.867188 332.753906 C 82.179688 333.238281 82.039062 333.878906 81.554688 334.191406 C 81.382812 334.300781 81.1875 334.355469 80.992188 334.355469 C 80.648438 334.355469 80.3125 334.191406 80.117188 333.878906 C 79.859375 333.480469 79.609375 333.050781 79.375 332.621094 C 71.75 329.226562 65.226562 324.445312 59.675781 318.980469 C 59.472656 319.183594 59.214844 319.285156 58.941406 319.285156 C 58.703125 319.285156 58.460938 319.199219 58.265625 319.027344 C 43.105469 305.789062 34.960938 283.734375 30.816406 267.71875 C 26.023438 292.996094 36.160156 314.625 36.941406 316.257812 C 18.828125 284.6875 10.351562 252.140625 9.164062 221.0625 C 9.148438 221.0625 9.140625 221.0625 9.125 221.0625 C 8.585938 221.0625 8.132812 220.648438 8.085938 220.109375 C 4.230469 171.945312 31.175781 119.519531 31.445312 118.996094 C 31.710938 118.492188 32.335938 118.289062 32.84375 118.554688 C 32.851562 118.554688 32.851562 118.5625 32.859375 118.570312 C 44.535156 97.105469 59.730469 79.222656 76.738281 66.667969 C 76.402344 66.214844 76.488281 65.574219 76.933594 65.230469 C 107.246094 41.917969 139.832031 37.5 161.855469 37.914062 C 183.945312 38.320312 200.109375 43.539062 202.488281 44.34375 C 204.855469 43.78125 219.691406 40.636719 240.804688 43.992188 C 261.617188 47.304688 292.59375 57.894531 321.988281 89.542969 C 322.378906 89.964844 322.355469 90.613281 321.941406 91 C 327.859375 97.191406 333.8125 104.136719 339.746094 111.957031 C 340.382812 112.792969 341 113.636719 341.609375 114.480469 C 342.046875 114.167969 342.65625 114.222656 343.007812 114.644531 C 343.21875 114.890625 364.070312 140.164062 368.761719 176.433594 C 368.832031 176.988281 368.449219 177.496094 367.894531 177.589844 C 368.832031 183.535156 369.394531 189.429688 369.636719 195.226562 C 369.691406 195.21875 369.746094 195.210938 369.808594 195.21875 C 370.386719 195.234375 370.839844 195.710938 370.832031 196.28125 Z M 370.832031 196.28125 " fill-opacity="1" fill-rule="nonzero"/></g><path fill="#d9d9d9" d="M 339.832031 306.523438 C 339.863281 306.523438 339.894531 306.515625 339.925781 306.515625 C 339.808594 306.695312 339.753906 306.796875 339.753906 306.796875 C 339.753906 306.796875 339.761719 306.695312 339.777344 306.515625 C 339.792969 306.515625 339.808594 306.523438 339.832031 306.523438 Z M 368.753906 196.234375 C 367.273438 261.007812 344.730469 296.699219 339.917969 303.597656 C 340.101562 298.585938 340.171875 288.347656 338.433594 277.917969 C 338.144531 279.050781 337.839844 280.152344 337.527344 281.226562 C 340.78125 265.617188 339.535156 251.640625 339.449219 250.757812 C 339.394531 250.1875 338.886719 249.765625 338.316406 249.820312 C 337.746094 249.875 337.324219 250.382812 337.378906 250.953125 C 337.410156 251.28125 340.296875 283.554688 325.992188 304.542969 C 313.457031 322.9375 309.328125 322.742188 308.984375 322.679688 C 308.75 322.539062 308.484375 322.507812 308.238281 322.5625 C 301.695312 291.46875 282.035156 267.890625 278.085938 263.074219 C 279.992188 255.996094 282.535156 251.460938 282.589844 251.367188 C 282.878906 250.867188 282.707031 250.234375 282.207031 249.945312 C 281.707031 249.65625 281.074219 249.828125 280.792969 250.328125 C 280.675781 250.53125 269.328125 270.707031 276.175781 293.136719 C 271.039062 291.515625 266.347656 289.398438 262.070312 286.894531 C 262.023438 286.769531 261.945312 286.652344 261.84375 286.550781 C 239.429688 263.902344 239.171875 233.097656 239.171875 231.792969 C 239.171875 231.222656 238.710938 230.753906 238.132812 230.753906 C 237.554688 230.753906 237.09375 231.222656 237.09375 231.792969 C 237.09375 233.027344 237.320312 259.96875 255.34375 282.375 C 222.75 257.609375 218.035156 208.566406 217.386719 197.757812 C 219.839844 189.585938 222.414062 183.792969 222.46875 183.667969 C 222.703125 183.144531 222.46875 182.527344 221.945312 182.292969 C 221.421875 182.058594 220.808594 182.292969 220.574219 182.816406 C 220.058594 183.964844 207.945312 211.140625 211.605469 231.972656 C 211.691406 232.480469 212.136719 232.832031 212.628906 232.832031 C 212.660156 232.832031 212.699219 232.824219 212.730469 232.824219 C 214.375 249.945312 220.058594 266.609375 225.628906 279.472656 C 230.632812 291.015625 235.550781 299.507812 237.375 302.542969 C 223.609375 299.578125 213.242188 289.570312 207.382812 282.421875 C 206.992188 281.773438 206.765625 281.34375 206.695312 281.210938 C 206.757812 281.40625 206.828125 281.617188 206.898438 281.820312 C 203.699219 277.839844 201.972656 274.890625 201.917969 274.804688 C 201.628906 274.304688 201 274.132812 200.5 274.421875 C 200 274.710938 199.828125 275.34375 200.117188 275.84375 C 200.390625 276.320312 203.660156 281.914062 209.550781 288.121094 C 214.71875 298.742188 224.304688 313.210938 229.789062 321.203125 C 231.203125 323.273438 232.34375 324.902344 233.050781 325.917969 C 228.675781 325.167969 209.941406 321.296875 188.816406 307.304688 C 148.339844 280.503906 148.847656 254.589844 148.855469 254.332031 C 148.878906 253.761719 148.433594 253.277344 147.863281 253.246094 C 147.339844 253.238281 146.808594 253.667969 146.785156 254.238281 C 146.738281 255.324219 146.136719 280.738281 185.847656 307.804688 C 187.550781 313.171875 193.441406 320.402344 195.792969 323.148438 C 187.566406 322.492188 180.246094 320.976562 174.03125 319.175781 C 173.976562 319.160156 173.921875 319.144531 173.867188 319.128906 C 173.417969 318.996094 172.980469 318.863281 172.542969 318.730469 C 172.308594 318.660156 172.082031 318.589844 171.847656 318.519531 C 158.8125 314.4375 151.195312 309.316406 151.085938 309.238281 C 150.609375 308.917969 149.96875 309.035156 149.644531 309.511719 C 149.613281 309.550781 149.613281 309.605469 149.589844 309.644531 C 129.296875 299.4375 116.207031 286.128906 107.769531 273.429688 C 108.230469 273.125 108.386719 272.519531 108.097656 272.042969 C 86.472656 235.398438 91.707031 192.308594 91.769531 191.878906 C 91.839844 191.308594 91.441406 190.785156 90.871094 190.714844 C 90.296875 190.644531 89.78125 191.042969 89.710938 191.613281 C 89.671875 191.902344 87.34375 211 92.042969 234.648438 C 87.421875 262.746094 96.390625 295.441406 98.464844 302.425781 C 71.617188 289.164062 75.394531 251.359375 75.441406 250.96875 C 75.503906 250.398438 75.089844 249.882812 74.523438 249.820312 C 73.9375 249.757812 73.4375 250.171875 73.375 250.742188 C 73.34375 251.015625 71.476562 269.597656 79.421875 285.722656 C 77.910156 292.808594 79.09375 300.625 81.179688 307.632812 C 84.605469 319.222656 90.484375 328.625 90.738281 329.039062 C 82.390625 325.464844 78.238281 318.550781 76.277344 313.75 C 75.855469 310.683594 75.714844 308.546875 75.707031 308.492188 C 75.667969 307.921875 75.191406 307.484375 74.609375 307.523438 C 74.039062 307.5625 73.601562 308.054688 73.640625 308.625 C 73.679688 309.277344 74.675781 323.992188 79.421875 332.605469 C 71.796875 329.210938 65.273438 324.429688 59.722656 318.964844 C 59.738281 318.949219 59.761719 318.933594 59.777344 318.917969 C 60.152344 318.488281 60.113281 317.832031 59.675781 317.449219 C 34.523438 295.496094 29.105469 248.308594 29.050781 247.839844 C 28.988281 247.269531 28.480469 246.855469 27.902344 246.917969 C 27.332031 246.980469 26.921875 247.496094 26.984375 248.066406 C 27.007812 248.261719 27.949219 256.511719 30.855469 267.71875 C 26.0625 292.996094 36.199219 314.625 36.980469 316.257812 C 18.828125 284.6875 10.351562 252.140625 9.164062 221.0625 C 9.179688 221.0625 9.195312 221.0625 9.210938 221.0625 C 9.78125 221.015625 10.210938 220.515625 10.164062 219.945312 C 7.546875 187.265625 19.320312 152.527344 27.03125 133.828125 C 58.75 156.03125 103.890625 176.285156 162.152344 174.839844 C 167.40625 174.707031 172.441406 174.449219 177.304688 174.089844 C 177.234375 186.117188 178.535156 199.175781 181.8125 213.195312 C 181.921875 213.667969 182.351562 213.996094 182.820312 213.996094 C 182.898438 213.996094 182.976562 213.988281 183.054688 213.972656 C 183.617188 213.839844 183.960938 213.289062 183.828125 212.726562 C 180.574219 198.816406 179.292969 185.863281 179.371094 173.945312 C 289.292969 165.015625 298.917969 99.515625 298.917969 99.515625 C 260.574219 103.886719 227.980469 102.804688 200.601562 98.652344 C 211.269531 81.183594 222.070312 71.785156 222.195312 71.675781 C 222.632812 71.300781 222.679688 70.648438 222.304688 70.210938 C 221.929688 69.773438 221.273438 69.726562 220.839844 70.101562 C 220.707031 70.210938 209.378906 80.058594 198.375 98.308594 C 179.910156 95.363281 163.863281 91.03125 150.0625 86.0625 C 160.421875 77.71875 175.492188 68.539062 194.113281 65.550781 C 194.683594 65.457031 195.066406 64.925781 194.972656 64.363281 C 194.878906 63.792969 194.347656 63.410156 193.785156 63.503906 C 174.171875 66.652344 158.40625 76.515625 147.808594 85.242188 C 146.636719 84.804688 145.484375 84.359375 144.34375 83.921875 C 165.285156 55.730469 197.59375 51.035156 197.976562 50.988281 C 198.546875 50.910156 198.945312 50.386719 198.867188 49.816406 C 198.789062 49.246094 198.265625 48.847656 197.695312 48.925781 C 197.308594 48.980469 163.808594 53.820312 142.335938 83.132812 C 120.3125 74.308594 104.703125 64.058594 94.671875 56.113281 C 119.382812 42.535156 144.0625 39.683594 161.742188 39.988281 C 185.257812 40.410156 201.917969 46.351562 202.082031 46.40625 C 202.277344 46.476562 202.496094 46.484375 202.699219 46.4375 C 202.855469 46.398438 218.316406 42.527344 240.484375 46.046875 C 260.96875 49.308594 291.480469 59.742188 320.464844 90.960938 C 320.667969 91.179688 320.949219 91.289062 321.222656 91.289062 C 321.480469 91.289062 321.730469 91.195312 321.933594 91.015625 C 321.933594 91.015625 321.933594 91.007812 321.941406 91.007812 C 327.859375 97.199219 333.8125 104.144531 339.746094 111.964844 C 340.382812 112.800781 341 113.644531 341.609375 114.488281 C 341.585938 114.503906 341.5625 114.503906 341.546875 114.519531 C 341.109375 114.882812 341.046875 115.539062 341.414062 115.976562 C 341.617188 116.226562 362.097656 141.054688 366.703125 176.699219 C 366.773438 177.222656 367.21875 177.605469 367.730469 177.605469 C 367.777344 177.605469 367.824219 177.605469 367.863281 177.597656 C 367.871094 177.597656 367.886719 177.589844 367.894531 177.589844 C 368.832031 183.535156 369.394531 189.429688 369.636719 195.226562 C 369.144531 195.289062 368.761719 195.71875 368.753906 196.234375 Z M 322.558594 143.160156 C 322.644531 143.667969 323.082031 144.019531 323.582031 144.019531 C 323.644531 144.019531 323.699219 144.011719 323.761719 144.003906 C 324.320312 143.902344 324.703125 143.363281 324.601562 142.800781 C 317 99.25 288.085938 76.03125 265.167969 64.222656 C 240.398438 51.460938 217.085938 48.925781 216.851562 48.902344 C 216.28125 48.832031 215.773438 49.261719 215.710938 49.832031 C 215.648438 50.402344 216.070312 50.910156 216.640625 50.972656 C 216.867188 50.996094 239.796875 53.484375 264.226562 66.074219 C 286.71875 77.664062 315.105469 100.445312 322.558594 143.160156 Z M 322.558594 143.160156 " fill-opacity="1" fill-rule="nonzero"/><path fill="#ffffff" d="M 195.105469 108.476562 C 196.894531 104.957031 198.75 101.679688 200.609375 98.644531 C 227.988281 102.796875 260.582031 103.878906 298.925781 99.507812 C 298.925781 99.507812 289.300781 165.007812 179.378906 173.9375 C 179.574219 146.035156 187.300781 123.820312 195.105469 108.476562 Z M 147.808594 85.226562 C 146.636719 84.789062 145.484375 84.34375 144.34375 83.90625 C 141.902344 87.191406 139.613281 90.792969 137.554688 94.75 C 140.066406 92.109375 143.515625 88.761719 147.808594 85.226562 Z M 33.289062 119.957031 C 33.203125 120.121094 30.535156 125.3125 27.03125 133.828125 C 58.75 156.03125 103.890625 176.285156 162.152344 174.839844 C 167.40625 174.707031 172.441406 174.449219 177.304688 174.089844 C 177.46875 145.683594 185.34375 123.0625 193.304688 107.453125 C 194.964844 104.199219 196.675781 101.148438 198.390625 98.300781 C 179.925781 95.355469 163.878906 91.023438 150.078125 86.054688 C 140.074219 94.117188 134.46875 101.398438 134.351562 101.546875 C 134.148438 101.8125 133.839844 101.960938 133.527344 101.960938 C 133.355469 101.960938 133.175781 101.914062 133.011719 101.820312 C 132.558594 101.5625 132.371094 101 132.574219 100.515625 C 135.328125 93.921875 138.667969 88.160156 142.359375 83.117188 C 120.335938 74.292969 104.726562 64.042969 94.695312 56.097656 C 89.179688 59.128906 83.660156 62.6875 78.222656 66.871094 C 77.769531 67.21875 77.113281 67.136719 76.761719 66.683594 C 76.761719 66.675781 76.753906 66.667969 76.753906 66.667969 C 59.753906 79.222656 44.550781 97.105469 32.875 118.570312 C 33.359375 118.832031 33.554688 119.449219 33.289062 119.957031 Z M 33.289062 119.957031 " fill-opacity="1" fill-rule="nonzero"/></svg>