<svg xmlns="http://www.w3.org/2000/svg" xmlns:xlink="http://www.w3.org/1999/xlink" width="500" zoomAndPan="magnify" viewBox="0 0 375 374.999991" height="500" preserveAspectRatio="xMidYMid meet" version="1.0"><defs><clipPath id="863e6aead7"><path d="M 160.589844 232.839844 L 172.589844 232.839844 L 172.589844 239.589844 L 160.589844 239.589844 Z M 160.589844 232.839844 " clip-rule="nonzero"/></clipPath><clipPath id="9a113d0048"><path d="M 160.589844 233 L 172 233 L 172 239.589844 L 160.589844 239.589844 Z M 160.589844 233 " clip-rule="nonzero"/></clipPath><clipPath id="656e1b24b6"><path d="M 66 6.742188 L 309 6.742188 L 309 374.992188 L 66 374.992188 Z M 66 6.742188 " clip-rule="nonzero"/></clipPath><clipPath id="6dadf4bd26"><path d="M 68 6.742188 L 307 6.742188 L 307 374.992188 L 68 374.992188 Z M 68 6.742188 " clip-rule="nonzero"/></clipPath></defs><g clip-path="url(#863e6aead7)"><path fill="#353535" d="M 172.617188 236.753906 C 171.867188 236.964844 171.632812 236.386719 171.382812 236.054688 C 170.957031 235.5 170.464844 235.429688 169.804688 235.5 C 166.628906 235.816406 163.789062 236.761719 161.609375 239.066406 C 161.347656 239.347656 160.988281 239.441406 160.621094 239.53125 L 160.617188 239.53125 C 161.109375 238.171875 162.273438 237.332031 163.476562 236.636719 C 165.316406 235.578125 167.285156 234.753906 169.554688 234.929688 C 170.320312 234.988281 170.886719 234.847656 170.96875 233.9375 C 171.019531 233.390625 171.503906 233.054688 172.289062 232.886719 C 171.464844 234.308594 172.046875 235.503906 172.617188 236.753906 Z M 160.589844 239.5625 L 160.621094 239.53125 C 160.621094 239.53125 160.617188 239.53125 160.617188 239.53125 C 160.621094 239.53125 160.589844 239.5625 160.589844 239.5625 Z M 160.589844 239.5625 " fill-opacity="1" fill-rule="nonzero"/></g><g clip-path="url(#9a113d0048)"><path fill="#ffffff" d="M 164.453125 236.445312 C 164.460938 236.445312 164.472656 236.445312 164.480469 236.441406 C 164.480469 236.457031 164.480469 236.476562 164.480469 236.492188 C 164.476562 236.492188 164.472656 236.492188 164.464844 236.496094 C 164.460938 236.480469 164.457031 236.464844 164.453125 236.445312 Z M 163.902344 236.507812 C 163.957031 236.503906 164 236.503906 164.054688 236.503906 C 163.964844 236.457031 163.953125 236.457031 163.902344 236.507812 Z M 164.207031 237.019531 C 164.207031 237.023438 164.214844 237.03125 164.222656 237.035156 C 164.230469 237.027344 164.242188 237.023438 164.25 237.015625 C 164.234375 237.003906 164.230469 237 164.222656 236.996094 C 164.214844 237.003906 164.207031 237.007812 164.207031 237.019531 Z M 164.015625 237.054688 C 164.019531 237.054688 164.035156 237.058594 164.035156 237.058594 C 164.039062 237.046875 164.039062 237.027344 164.042969 237.015625 C 164.039062 237.015625 164.03125 237.015625 164.023438 237.007812 C 164.019531 237.023438 164.015625 237.042969 164.015625 237.054688 Z M 164.019531 236.875 C 164.011719 236.875 164 236.875 163.992188 236.875 C 163.996094 236.894531 164 236.914062 164 236.9375 C 164.011719 236.9375 164.015625 236.9375 164.023438 236.929688 C 164.023438 236.917969 164.023438 236.894531 164.019531 236.875 Z M 166.09375 235.488281 C 166.097656 235.507812 166.105469 235.53125 166.113281 235.550781 C 166.117188 235.550781 166.121094 235.550781 166.125 235.542969 C 166.121094 235.523438 166.113281 235.503906 166.105469 235.480469 C 166.101562 235.484375 166.097656 235.488281 166.09375 235.488281 Z M 163.714844 237.25 C 163.675781 237.253906 163.652344 237.253906 163.628906 237.257812 C 163.652344 237.285156 163.683594 237.296875 163.714844 237.25 Z M 166.53125 236.074219 C 166.601562 236.082031 166.601562 236.082031 166.636719 236.058594 C 166.625 236.054688 166.617188 236.046875 166.605469 236.050781 C 166.585938 236.050781 166.566406 236.058594 166.53125 236.074219 Z M 165.351562 236.152344 C 165.390625 236.15625 165.425781 236.160156 165.464844 236.164062 C 165.425781 236.089844 165.421875 236.085938 165.351562 236.152344 Z M 164.824219 236.28125 C 164.851562 236.285156 164.882812 236.285156 164.90625 236.289062 C 164.949219 236.292969 164.945312 236.265625 164.9375 236.222656 C 164.902344 236.257812 164.847656 236.214844 164.824219 236.28125 Z M 164.574219 236.359375 C 164.582031 236.363281 164.589844 236.371094 164.59375 236.375 C 164.609375 236.363281 164.617188 236.347656 164.628906 236.335938 C 164.628906 236.335938 164.617188 236.324219 164.613281 236.320312 C 164.601562 236.335938 164.589844 236.34375 164.574219 236.359375 Z M 165.234375 236.464844 C 165.25 236.421875 165.253906 236.394531 165.269531 236.351562 C 165.210938 236.398438 165.210938 236.398438 165.234375 236.464844 Z M 161.683594 238.871094 C 161.726562 238.871094 161.738281 238.832031 161.734375 238.796875 C 161.6875 238.792969 161.648438 238.785156 161.59375 238.785156 C 161.601562 238.847656 161.644531 238.871094 161.683594 238.871094 Z M 161.757812 238.0625 C 161.761719 238.070312 161.765625 238.078125 161.765625 238.085938 C 161.785156 238.074219 161.804688 238.070312 161.820312 238.0625 C 161.816406 238.050781 161.804688 238.039062 161.804688 238.039062 C 161.792969 238.046875 161.773438 238.050781 161.757812 238.0625 Z M 166.703125 236.03125 C 166.703125 236.039062 166.722656 236.050781 166.730469 236.058594 C 166.738281 236.050781 166.75 236.039062 166.753906 236.03125 C 166.753906 236.023438 166.742188 236.011719 166.734375 235.996094 C 166.71875 236.011719 166.703125 236.023438 166.703125 236.03125 Z M 161.464844 239.140625 C 161.472656 239.140625 161.484375 239.140625 161.488281 239.144531 C 161.492188 239.125 161.496094 239.101562 161.496094 239.085938 C 161.472656 239.089844 161.464844 239.097656 161.457031 239.109375 C 161.457031 239.117188 161.464844 239.132812 161.464844 239.140625 Z M 161.277344 238.679688 C 161.296875 238.691406 161.316406 238.695312 161.339844 238.703125 C 161.339844 238.695312 161.347656 238.691406 161.347656 238.679688 C 161.328125 238.675781 161.308594 238.667969 161.285156 238.664062 C 161.28125 238.667969 161.277344 238.671875 161.277344 238.679688 Z M 161 239.238281 C 161.027344 239.191406 161.046875 239.152344 161.078125 239.113281 C 161 239.125 160.988281 239.144531 161 239.238281 Z M 162.976562 237.316406 C 162.980469 237.332031 162.988281 237.34375 162.992188 237.359375 C 162.992188 237.359375 163 237.359375 163.011719 237.359375 C 163.007812 237.339844 163 237.320312 162.996094 237.308594 C 162.992188 237.3125 162.980469 237.3125 162.976562 237.316406 Z M 162.800781 237.699219 C 162.820312 237.644531 162.820312 237.644531 162.769531 237.617188 C 162.78125 237.648438 162.789062 237.675781 162.800781 237.699219 Z M 163.128906 237.738281 C 163.136719 237.707031 163.148438 237.679688 163.164062 237.636719 C 163.125 237.65625 163.09375 237.671875 163.058594 237.683594 C 163.089844 237.703125 163.105469 237.722656 163.128906 237.738281 Z M 162.648438 237.964844 C 162.652344 237.96875 162.652344 237.976562 162.660156 237.984375 C 162.679688 237.972656 162.699219 237.964844 162.71875 237.957031 C 162.710938 237.949219 162.707031 237.945312 162.707031 237.9375 C 162.6875 237.945312 162.667969 237.957031 162.648438 237.964844 Z M 162.265625 237.824219 C 162.273438 237.839844 162.273438 237.859375 162.277344 237.878906 C 162.285156 237.878906 162.292969 237.871094 162.300781 237.871094 C 162.296875 237.855469 162.292969 237.835938 162.292969 237.816406 C 162.28125 237.816406 162.277344 237.824219 162.265625 237.824219 Z M 162.53125 237.714844 C 162.527344 237.714844 162.519531 237.726562 162.515625 237.734375 C 162.539062 237.746094 162.566406 237.757812 162.601562 237.777344 C 162.59375 237.714844 162.570312 237.710938 162.53125 237.714844 Z M 171.128906 234.359375 C 171.128906 234.347656 171.132812 234.332031 171.132812 234.3125 C 171.121094 234.3125 171.113281 234.3125 171.109375 234.3125 C 171.109375 234.328125 171.109375 234.339844 171.109375 234.355469 C 171.113281 234.355469 171.121094 234.355469 171.128906 234.359375 Z M 171.5 235.125 C 171.5 235.136719 171.507812 235.148438 171.515625 235.160156 C 171.523438 235.15625 171.535156 235.144531 171.554688 235.136719 C 171.539062 235.121094 171.527344 235.113281 171.519531 235.109375 C 171.515625 235.105469 171.5 235.117188 171.5 235.125 Z M 171.417969 234.847656 C 171.40625 234.875 171.402344 234.902344 171.460938 234.921875 C 171.449219 234.886719 171.445312 234.863281 171.441406 234.84375 C 171.429688 234.84375 171.421875 234.847656 171.417969 234.847656 Z M 171.410156 234.488281 C 171.382812 234.496094 171.351562 234.503906 171.3125 234.511719 C 171.355469 234.554688 171.386719 234.5625 171.410156 234.515625 C 171.417969 234.515625 171.410156 234.503906 171.410156 234.488281 Z M 170.996094 235.535156 C 171.027344 235.53125 171.046875 235.53125 171.074219 235.53125 C 171.066406 235.511719 171.0625 235.496094 171.058594 235.464844 C 171.035156 235.496094 171.019531 235.507812 170.996094 235.535156 Z M 171.109375 234.523438 C 171.167969 234.539062 171.210938 234.53125 171.230469 234.457031 C 171.109375 234.4375 171.109375 234.4375 171.109375 234.523438 Z M 171.703125 234.308594 C 171.703125 234.324219 171.703125 234.332031 171.703125 234.347656 C 171.710938 234.359375 171.714844 234.371094 171.71875 234.382812 C 171.726562 234.382812 171.730469 234.378906 171.734375 234.378906 C 171.730469 234.355469 171.730469 234.332031 171.726562 234.3125 C 171.71875 234.308594 171.710938 234.308594 171.703125 234.308594 Z M 171.765625 235.042969 C 171.769531 235.046875 171.773438 235.054688 171.777344 235.0625 C 171.796875 235.046875 171.816406 235.03125 171.835938 235.015625 C 171.832031 235.011719 171.824219 235.003906 171.816406 235 C 171.804688 235.011719 171.785156 235.027344 171.765625 235.042969 Z M 171.582031 233.929688 C 171.582031 233.933594 171.582031 233.941406 171.582031 233.945312 C 171.601562 233.945312 171.625 233.945312 171.664062 233.945312 C 171.636719 233.929688 171.625 233.917969 171.617188 233.917969 C 171.605469 233.917969 171.59375 233.929688 171.582031 233.929688 Z M 167.59375 235.558594 C 167.605469 235.558594 167.609375 235.558594 167.621094 235.5625 C 167.621094 235.550781 167.625 235.53125 167.625 235.515625 C 167.621094 235.515625 167.609375 235.515625 167.605469 235.511719 C 167.601562 235.527344 167.601562 235.542969 167.59375 235.558594 Z M 171.808594 235.898438 C 171.8125 235.898438 171.824219 235.898438 171.828125 235.898438 C 171.832031 235.871094 171.832031 235.839844 171.835938 235.8125 C 171.828125 235.8125 171.816406 235.8125 171.808594 235.8125 C 171.808594 235.84375 171.808594 235.871094 171.808594 235.898438 Z M 171.363281 234.179688 C 171.390625 234.207031 171.410156 234.222656 171.441406 234.25 C 171.445312 234.183594 171.425781 234.175781 171.363281 234.179688 Z M 168.113281 235.03125 C 168.109375 235.066406 168.109375 235.097656 168.179688 235.125 C 168.160156 235.082031 168.148438 235.054688 168.132812 235.027344 C 168.128906 235.03125 168.125 235.03125 168.113281 235.03125 Z M 168.003906 235.382812 C 168.015625 235.394531 168.03125 235.402344 168.046875 235.410156 C 168.046875 235.410156 168.054688 235.398438 168.066406 235.386719 C 168.046875 235.378906 168.035156 235.371094 168.015625 235.371094 C 168.015625 235.367188 168.007812 235.378906 168.003906 235.382812 Z M 167.988281 235.183594 C 167.992188 235.148438 167.996094 235.132812 168.003906 235.09375 C 167.953125 235.132812 167.949219 235.148438 167.988281 235.183594 Z M 168.21875 235.617188 C 168.230469 235.640625 168.242188 235.65625 168.257812 235.679688 C 168.273438 235.65625 168.28125 235.632812 168.296875 235.613281 C 168.292969 235.609375 168.285156 235.605469 168.285156 235.601562 C 168.261719 235.601562 168.238281 235.609375 168.21875 235.617188 Z M 167.5625 235.265625 C 167.589844 235.277344 167.589844 235.332031 167.660156 235.296875 C 167.625 235.273438 167.59375 235.261719 167.570312 235.246094 C 167.566406 235.253906 167.5625 235.261719 167.5625 235.265625 Z M 168.265625 235.042969 C 168.273438 235.046875 168.277344 235.054688 168.28125 235.058594 C 168.304688 235.042969 168.335938 235.03125 168.378906 235.011719 C 168.34375 235 168.316406 234.980469 168.304688 234.988281 C 168.285156 235 168.28125 235.019531 168.265625 235.042969 Z M 170.8125 234.570312 C 170.8125 234.574219 170.8125 234.585938 170.8125 234.589844 C 170.832031 234.589844 170.851562 234.589844 170.871094 234.589844 C 170.871094 234.585938 170.871094 234.582031 170.871094 234.574219 C 170.851562 234.574219 170.832031 234.574219 170.8125 234.570312 Z M 169.554688 235.386719 C 169.609375 235.402344 169.636719 235.410156 169.671875 235.421875 C 169.648438 235.386719 169.625 235.367188 169.554688 235.386719 Z M 169.742188 235.109375 C 169.800781 235.042969 169.800781 235.042969 169.722656 235.03125 C 169.726562 235.054688 169.730469 235.070312 169.742188 235.109375 Z M 168.726562 235.398438 C 168.757812 235.410156 168.777344 235.421875 168.804688 235.429688 C 168.808594 235.398438 168.816406 235.371094 168.820312 235.34375 C 168.816406 235.339844 168.808594 235.339844 168.804688 235.332031 C 168.777344 235.351562 168.757812 235.371094 168.726562 235.398438 Z M 168.726562 235.398438 " fill-opacity="1" fill-rule="nonzero"/></g><g clip-path="url(#656e1b24b6)"><path fill="#ddadab" d="M 306.140625 369.664062 C 306.027344 370.082031 305.648438 370.351562 305.242188 370.351562 C 305.195312 370.351562 305.15625 370.34375 305.113281 370.335938 C 304.902344 371.882812 304.683594 373.429688 304.457031 374.96875 L 258.628906 374.96875 C 259.472656 352.234375 260.378906 321.9375 260.261719 299.609375 L 260.261719 299.601562 C 259.375 303.886719 258.558594 308.316406 257.796875 312.828125 C 256.816406 321.855469 256.171875 329.574219 256.164062 329.714844 C 256.128906 330.207031 255.710938 330.578125 255.226562 330.578125 C 255.207031 330.578125 255.175781 330.578125 255.152344 330.578125 C 255.136719 330.578125 255.121094 330.5625 255.101562 330.5625 C 254.648438 333.90625 254.214844 337.246094 253.816406 340.558594 C 254.320312 340.621094 254.691406 341.074219 254.640625 341.578125 L 251.445312 373.144531 C 251.390625 373.628906 250.988281 373.988281 250.515625 373.988281 C 250.484375 373.988281 250.460938 373.988281 250.4375 373.980469 C 250.410156 374.3125 250.386719 374.644531 250.355469 374.96875 L 122.410156 374.96875 C 122.378906 374.644531 122.347656 374.304688 122.324219 373.980469 C 122.296875 373.980469 122.273438 373.988281 122.242188 373.988281 C 121.773438 373.988281 121.367188 373.636719 121.3125 373.160156 C 121.269531 372.730469 116.554688 330.109375 113.984375 313.363281 C 113.605469 310.902344 113.085938 307.984375 112.472656 304.800781 C 112.414062 325.542969 112.503906 353.523438 112.609375 374.976562 L 69.417969 374.976562 C 68.90625 369.847656 68.503906 364.691406 68.210938 359.691406 C 68.195312 359.691406 68.171875 359.691406 68.15625 359.691406 C 67.691406 359.691406 67.28125 359.335938 67.230469 358.859375 C 64.902344 338.441406 69.871094 314.027344 69.917969 313.785156 C 70.023438 313.289062 70.5 312.972656 71.007812 313.0625 C 74.285156 294.882812 74.796875 277.730469 76.832031 234.175781 C 77.066406 229.074219 77.667969 224.480469 78.539062 220.3125 C 78.046875 220.207031 77.722656 219.738281 77.804688 219.242188 C 82.8125 190.558594 104.550781 182.800781 104.769531 182.726562 L 118.714844 176.410156 C 119.183594 176.199219 119.726562 176.402344 119.945312 176.863281 C 130.792969 171.753906 145.707031 164.507812 154.878906 159.121094 C 159.027344 156.683594 161.714844 133.804688 162.976562 120.011719 L 155.476562 114.09375 C 155.378906 114.035156 151.359375 111.394531 148.941406 106.59375 C 148.164062 105.046875 147.414062 102.925781 146.765625 100.753906 C 133.921875 98.300781 125.507812 73.875 128.957031 69.359375 C 131.445312 66.117188 137.980469 72.257812 141.871094 76.476562 C 141.234375 72.832031 140.714844 69.464844 140.320312 66.726562 C 139.867188 64.5 139.566406 62.222656 139.40625 59.890625 C 139.40625 59.859375 139.398438 59.835938 139.398438 59.835938 C 139.316406 58.644531 139.261719 57.453125 139.261719 56.238281 C 139.261719 28.90625 160.128906 6.742188 185.875 6.742188 C 211.613281 6.742188 232.488281 28.90625 232.488281 56.238281 C 232.488281 58.878906 232.292969 61.476562 231.914062 64.011719 C 231.914062 64.011719 231.507812 67.089844 230.699219 71.753906 C 234.378906 68.25 238.738281 65.121094 240.671875 67.640625 C 243.910156 71.867188 236.734375 93.554688 225.257812 98.308594 C 224.519531 100.925781 223.453125 104.375 222.652344 105.808594 C 221.246094 108.3125 217.039062 113.144531 213.730469 115.617188 C 211.613281 117.203125 208.398438 119.398438 206.378906 120.757812 C 206.417969 121.066406 206.449219 121.367188 206.484375 121.6875 C 208.042969 134.972656 211.214844 154.789062 216.59375 157.394531 C 233.144531 165.386719 251.519531 173.980469 258.734375 177.34375 C 258.953125 176.886719 259.496094 176.679688 259.964844 176.886719 C 260.3125 177.042969 268.441406 180.710938 272.082031 183.972656 C 277.175781 188.527344 294.058594 205.667969 297.511719 235.003906 C 297.574219 235.503906 297.21875 235.957031 296.726562 236.03125 C 301.085938 263.921875 300.851562 281.269531 301.304688 294.507812 C 301.34375 294.507812 301.378906 294.492188 301.417969 294.492188 C 301.933594 294.535156 302.316406 294.988281 302.273438 295.503906 C 302.257812 295.636719 301.136719 309.378906 305.601562 317.273438 C 310.4375 325.851562 308.527344 361.027344 306.140625 369.664062 Z M 306.140625 369.664062 " fill-opacity="1" fill-rule="nonzero"/></g><g clip-path="url(#6dadf4bd26)"><path fill="#fbdad7" d="M 304.992188 370.316406 C 305.035156 370.320312 305.074219 370.320312 305.121094 370.328125 C 304.910156 371.875 304.6875 373.421875 304.460938 374.964844 L 258.636719 374.964844 C 259.480469 352.226562 260.386719 321.929688 260.265625 299.601562 L 260.265625 299.59375 C 259.382812 303.878906 258.566406 308.308594 257.804688 312.820312 C 258.660156 304.957031 259.769531 296.105469 260.933594 290.410156 C 263.457031 278.101562 267.914062 247.027344 267.957031 246.71875 C 268.035156 246.203125 267.679688 245.726562 267.164062 245.660156 C 266.652344 245.59375 266.175781 245.949219 266.105469 246.453125 C 266.0625 246.761719 261.621094 277.785156 259.105469 290.039062 C 256.574219 302.378906 254.328125 329.292969 254.308594 329.566406 C 254.269531 330.0625 254.625 330.492188 255.113281 330.5625 C 254.660156 333.90625 254.230469 337.246094 253.832031 340.558594 C 253.824219 340.558594 253.824219 340.554688 253.816406 340.554688 C 253.292969 340.507812 252.839844 340.878906 252.789062 341.390625 L 249.59375 372.957031 C 249.539062 373.46875 249.917969 373.929688 250.429688 373.980469 C 250.4375 373.980469 250.4375 373.980469 250.445312 373.980469 C 250.417969 374.3125 250.394531 374.644531 250.363281 374.96875 L 122.410156 374.96875 C 122.378906 374.644531 122.347656 374.304688 122.324219 373.980469 C 122.332031 373.980469 122.339844 373.980469 122.347656 373.980469 C 122.863281 373.921875 123.230469 373.460938 123.179688 372.949219 C 123.132812 372.519531 118.417969 329.851562 115.835938 313.078125 C 113.253906 296.28125 104.101562 258.535156 104.011719 258.15625 C 103.890625 257.652344 103.386719 257.34375 102.878906 257.46875 C 102.375 257.589844 102.070312 258.097656 102.191406 258.601562 C 102.265625 258.925781 108.914062 286.363281 112.464844 304.808594 C 112.40625 325.550781 112.496094 353.53125 112.601562 374.984375 L 69.417969 374.984375 C 68.90625 369.855469 68.503906 364.699219 68.210938 359.699219 C 68.226562 359.699219 68.25 359.699219 68.261719 359.699219 C 68.777344 359.636719 69.148438 359.175781 69.085938 358.664062 C 66.796875 338.546875 71.699219 314.421875 71.753906 314.179688 C 71.859375 313.671875 71.535156 313.175781 71.027344 313.078125 C 71.019531 313.078125 71.011719 313.078125 71.007812 313.078125 C 74.285156 294.898438 74.796875 277.746094 76.832031 234.191406 C 77.066406 229.089844 77.667969 224.492188 78.539062 220.328125 C 78.554688 220.328125 78.5625 220.335938 78.566406 220.34375 C 78.621094 220.351562 78.675781 220.359375 78.726562 220.359375 C 79.171875 220.359375 79.574219 220.042969 79.648438 219.582031 C 84.460938 192.03125 105.167969 184.582031 105.457031 184.476562 L 119.492188 178.101562 C 119.960938 177.890625 120.171875 177.332031 119.960938 176.863281 C 119.960938 176.855469 119.953125 176.855469 119.953125 176.847656 C 130.800781 171.738281 145.714844 164.496094 154.886719 159.105469 C 159.035156 156.667969 161.722656 133.789062 162.984375 119.996094 L 167.757812 123.761719 C 167.933594 123.898438 168.136719 123.964844 168.339844 123.964844 C 168.425781 123.964844 168.5 123.949219 168.582031 123.925781 C 172.351562 129.828125 177.761719 136.964844 182.808594 138.753906 C 183.875 139.140625 185.058594 139.15625 186.292969 138.882812 L 186.292969 216.617188 L 186.292969 138.890625 C 193.484375 137.359375 202.835938 126.3125 206.484375 121.6875 C 208.042969 134.972656 211.214844 154.789062 216.59375 157.394531 C 233.144531 165.386719 251.519531 173.980469 258.734375 177.34375 C 258.734375 177.351562 258.726562 177.351562 258.726562 177.351562 C 258.515625 177.820312 258.726562 178.378906 259.195312 178.589844 C 259.277344 178.628906 267.40625 182.304688 270.828125 185.359375 C 275.800781 189.804688 292.277344 206.535156 295.644531 235.214844 C 295.699219 235.691406 296.105469 236.046875 296.574219 236.046875 C 296.613281 236.046875 296.652344 236.046875 296.6875 236.039062 C 296.703125 236.039062 296.710938 236.03125 296.726562 236.03125 C 301.085938 263.921875 300.851562 281.269531 301.304688 294.507812 C 300.828125 294.523438 300.445312 294.867188 300.40625 295.34375 C 300.351562 295.933594 299.21875 309.792969 303.972656 318.203125 C 308.40625 326.050781 306.5625 361.167969 304.347656 369.175781 C 304.199219 369.664062 304.492188 370.179688 304.992188 370.316406 Z M 145.003906 94.023438 C 145.421875 95.816406 146.03125 98.308594 146.765625 100.746094 C 133.921875 98.292969 125.507812 73.867188 128.957031 69.351562 C 131.445312 66.109375 137.980469 72.25 141.871094 76.46875 C 141.234375 72.824219 140.714844 69.457031 140.320312 66.71875 C 139.867188 64.492188 139.566406 62.214844 139.40625 59.882812 C 139.40625 59.851562 139.398438 59.832031 139.398438 59.832031 C 139.316406 58.636719 139.261719 57.445312 139.261719 56.230469 C 139.261719 28.90625 160.128906 6.742188 185.875 6.742188 C 211.613281 6.742188 232.488281 28.90625 232.488281 56.238281 C 232.488281 58.878906 232.292969 61.476562 231.914062 64.011719 C 231.914062 64.011719 231.507812 67.089844 230.699219 71.753906 C 234.378906 68.25 238.738281 65.121094 240.671875 67.640625 C 243.910156 71.867188 236.734375 93.554688 225.257812 98.308594 C 225.757812 96.542969 226.113281 95.152344 226.148438 95.019531 C 226.277344 94.519531 225.976562 94.007812 225.476562 93.878906 C 224.972656 93.75 224.464844 94.050781 224.335938 94.550781 C 223.761719 96.8125 222.039062 103.078125 221.019531 104.886719 C 219.730469 107.183594 215.695312 111.808594 212.605469 114.117188 C 209.394531 116.515625 203.554688 120.386719 203.492188 120.425781 C 203.070312 120.703125 202.957031 121.261719 203.214844 121.6875 C 195.449219 126.386719 187.417969 129.984375 183.738281 129.984375 C 180.648438 129.984375 175.269531 127.335938 169.203125 123.324219 C 169.332031 122.960938 169.226562 122.539062 168.90625 122.289062 L 156.5625 112.554688 C 156.527344 112.53125 152.800781 110.085938 150.609375 105.734375 C 148.359375 101.273438 146.289062 91.167969 146.265625 91.0625 C 146.160156 90.558594 145.667969 90.234375 145.164062 90.332031 C 144.65625 90.4375 144.332031 90.925781 144.429688 91.433594 C 144.445312 91.515625 144.550781 92.007812 144.710938 92.753906 L 140.464844 86.695312 C 141.082031 85.976562 141.839844 84.640625 141.621094 82.519531 C 141.296875 79.3125 135.765625 75.429688 135.128906 74.996094 C 134.699219 74.703125 134.117188 74.808594 133.832031 75.238281 C 133.542969 75.667969 133.640625 76.25 134.074219 76.539062 C 136.171875 77.984375 139.582031 80.9375 139.761719 82.710938 C 139.988281 84.914062 138.78125 85.742188 138.742188 85.765625 C 138.523438 85.902344 138.371094 86.121094 138.320312 86.371094 C 138.265625 86.617188 138.320312 86.882812 138.46875 87.09375 L 143.402344 94.132812 C 143.585938 94.390625 143.878906 94.535156 144.171875 94.535156 C 144.363281 94.535156 144.542969 94.480469 144.710938 94.367188 C 144.847656 94.292969 144.9375 94.164062 145.003906 94.023438 Z M 232.171875 82.394531 L 227.707031 88.769531 C 227.410156 89.191406 227.519531 89.773438 227.941406 90.074219 C 228.105469 90.1875 228.289062 90.242188 228.476562 90.242188 C 228.773438 90.242188 229.066406 90.105469 229.246094 89.839844 L 234.179688 82.800781 C 234.324219 82.597656 234.371094 82.332031 234.324219 82.082031 C 234.277344 81.835938 234.128906 81.617188 233.917969 81.472656 C 233.863281 81.433594 232.65625 80.605469 232.882812 78.410156 C 233.0625 76.636719 236.460938 73.683594 238.570312 72.234375 C 238.992188 71.941406 239.105469 71.359375 238.8125 70.9375 C 238.515625 70.515625 237.9375 70.402344 237.511719 70.695312 C 236.886719 71.125 231.347656 75.011719 231.023438 78.21875 C 230.796875 80.339844 231.542969 81.675781 232.171875 82.394531 Z M 232.171875 82.394531 " fill-opacity="1" fill-rule="nonzero"/></g></svg>