<svg xmlns="http://www.w3.org/2000/svg" xmlns:xlink="http://www.w3.org/1999/xlink" width="500" zoomAndPan="magnify" viewBox="0 0 375 374.999991" height="500" preserveAspectRatio="xMidYMid meet" version="1.0"><defs><clipPath id="8cf275270b"><path d="M 122.234375 123.488281 L 134.234375 123.488281 L 134.234375 130.238281 L 122.234375 130.238281 Z M 122.234375 123.488281 " clip-rule="nonzero"/></clipPath><clipPath id="34e45f6663"><path d="M 122.234375 124 L 134 124 L 134 130 L 122.234375 130 Z M 122.234375 124 " clip-rule="nonzero"/></clipPath><clipPath id="b004db1722"><path d="M 0 29 L 375 29 L 375 320.304688 L 0 320.304688 Z M 0 29 " clip-rule="nonzero"/></clipPath></defs><g clip-path="url(#8cf275270b)"><path fill="#353535" d="M 134.257812 127.402344 C 133.507812 127.613281 133.273438 127.035156 133.023438 126.703125 C 132.597656 126.148438 132.105469 126.078125 131.445312 126.148438 C 128.273438 126.464844 125.429688 127.410156 123.25 129.714844 C 122.988281 129.996094 122.628906 130.09375 122.261719 130.179688 L 122.257812 130.179688 C 122.753906 128.820312 123.914062 127.980469 125.117188 127.285156 C 126.960938 126.226562 128.929688 125.402344 131.195312 125.578125 C 131.960938 125.636719 132.527344 125.496094 132.613281 124.585938 C 132.660156 124.039062 133.144531 123.703125 133.929688 123.535156 C 133.105469 124.957031 133.6875 126.152344 134.257812 127.402344 Z M 122.234375 130.210938 L 122.261719 130.179688 C 122.261719 130.179688 122.257812 130.179688 122.257812 130.179688 C 122.261719 130.179688 122.234375 130.210938 122.234375 130.210938 Z M 122.234375 130.210938 " fill-opacity="1" fill-rule="nonzero"/></g><g clip-path="url(#34e45f6663)"><path fill="#ffffff" d="M 126.09375 127.09375 C 126.101562 127.09375 126.113281 127.09375 126.121094 127.089844 C 126.121094 127.105469 126.121094 127.125 126.121094 127.140625 C 126.117188 127.140625 126.113281 127.140625 126.105469 127.144531 C 126.101562 127.128906 126.097656 127.113281 126.09375 127.09375 Z M 125.542969 127.15625 C 125.597656 127.152344 125.640625 127.152344 125.695312 127.152344 C 125.609375 127.105469 125.59375 127.105469 125.542969 127.15625 Z M 125.847656 127.667969 C 125.847656 127.671875 125.855469 127.679688 125.863281 127.6875 C 125.871094 127.675781 125.882812 127.671875 125.890625 127.664062 C 125.875 127.652344 125.871094 127.648438 125.863281 127.644531 C 125.855469 127.652344 125.847656 127.660156 125.847656 127.667969 Z M 125.65625 127.703125 C 125.660156 127.703125 125.675781 127.707031 125.675781 127.707031 C 125.679688 127.695312 125.679688 127.675781 125.6875 127.664062 C 125.679688 127.664062 125.671875 127.664062 125.667969 127.660156 C 125.660156 127.671875 125.65625 127.691406 125.65625 127.703125 Z M 125.660156 127.523438 C 125.652344 127.523438 125.640625 127.523438 125.632812 127.523438 C 125.636719 127.542969 125.640625 127.5625 125.640625 127.585938 C 125.652344 127.585938 125.65625 127.585938 125.667969 127.582031 C 125.667969 127.566406 125.667969 127.542969 125.660156 127.523438 Z M 127.734375 126.136719 C 127.738281 126.15625 127.746094 126.179688 127.753906 126.199219 C 127.757812 126.199219 127.761719 126.199219 127.765625 126.195312 C 127.761719 126.171875 127.753906 126.152344 127.746094 126.128906 C 127.742188 126.132812 127.738281 126.136719 127.734375 126.136719 Z M 125.359375 127.898438 C 125.320312 127.902344 125.292969 127.902344 125.269531 127.90625 C 125.292969 127.933594 125.324219 127.949219 125.359375 127.898438 Z M 128.175781 126.722656 C 128.242188 126.730469 128.242188 126.730469 128.277344 126.707031 C 128.265625 126.703125 128.257812 126.695312 128.246094 126.699219 C 128.226562 126.699219 128.207031 126.707031 128.175781 126.722656 Z M 126.992188 126.800781 C 127.03125 126.804688 127.066406 126.808594 127.105469 126.8125 C 127.066406 126.738281 127.0625 126.734375 126.992188 126.800781 Z M 126.464844 126.929688 C 126.492188 126.933594 126.523438 126.933594 126.546875 126.9375 C 126.59375 126.941406 126.585938 126.914062 126.578125 126.875 C 126.542969 126.90625 126.488281 126.863281 126.464844 126.929688 Z M 126.214844 127.007812 C 126.226562 127.011719 126.230469 127.019531 126.234375 127.023438 C 126.25 127.011719 126.257812 126.996094 126.269531 126.984375 C 126.269531 126.984375 126.257812 126.972656 126.253906 126.96875 C 126.246094 126.984375 126.230469 126.992188 126.214844 127.007812 Z M 126.875 127.113281 C 126.890625 127.070312 126.894531 127.042969 126.910156 127 C 126.851562 127.046875 126.851562 127.046875 126.875 127.113281 Z M 123.324219 129.519531 C 123.371094 129.519531 123.378906 129.480469 123.375 129.445312 C 123.328125 129.441406 123.289062 129.433594 123.238281 129.433594 C 123.242188 129.496094 123.285156 129.519531 123.324219 129.519531 Z M 123.398438 128.710938 C 123.402344 128.71875 123.410156 128.726562 123.410156 128.734375 C 123.429688 128.722656 123.449219 128.71875 123.460938 128.710938 C 123.457031 128.699219 123.449219 128.6875 123.449219 128.6875 C 123.433594 128.695312 123.414062 128.699219 123.398438 128.710938 Z M 128.34375 126.679688 C 128.34375 126.691406 128.363281 126.699219 128.371094 126.707031 C 128.378906 126.699219 128.390625 126.691406 128.394531 126.679688 C 128.394531 126.671875 128.382812 126.660156 128.375 126.644531 C 128.359375 126.660156 128.34375 126.671875 128.34375 126.679688 Z M 123.105469 129.789062 C 123.113281 129.789062 123.125 129.789062 123.128906 129.792969 C 123.132812 129.773438 123.140625 129.753906 123.140625 129.734375 C 123.113281 129.738281 123.105469 129.746094 123.101562 129.757812 C 123.101562 129.765625 123.105469 129.78125 123.105469 129.789062 Z M 122.917969 129.328125 C 122.9375 129.339844 122.957031 129.34375 122.980469 129.351562 C 122.980469 129.34375 122.988281 129.339844 122.988281 129.328125 C 122.96875 129.324219 122.949219 129.316406 122.929688 129.3125 C 122.921875 129.316406 122.917969 129.320312 122.917969 129.328125 Z M 122.640625 129.886719 C 122.667969 129.839844 122.6875 129.804688 122.71875 129.761719 C 122.640625 129.773438 122.628906 129.792969 122.640625 129.886719 Z M 124.617188 127.964844 C 124.621094 127.980469 124.628906 127.992188 124.632812 128.007812 C 124.632812 128.007812 124.644531 128.007812 124.652344 128.007812 C 124.648438 127.988281 124.644531 127.96875 124.636719 127.957031 C 124.632812 127.960938 124.621094 127.960938 124.617188 127.964844 Z M 124.441406 128.347656 C 124.460938 128.292969 124.460938 128.292969 124.414062 128.265625 C 124.421875 128.296875 124.433594 128.324219 124.441406 128.347656 Z M 124.769531 128.386719 C 124.78125 128.355469 124.789062 128.328125 124.804688 128.289062 C 124.765625 128.304688 124.734375 128.320312 124.703125 128.332031 C 124.730469 128.351562 124.746094 128.371094 124.769531 128.386719 Z M 124.289062 128.613281 C 124.292969 128.617188 124.292969 128.628906 124.300781 128.632812 C 124.320312 128.621094 124.339844 128.613281 124.359375 128.605469 C 124.355469 128.601562 124.347656 128.59375 124.347656 128.585938 C 124.328125 128.59375 124.308594 128.605469 124.289062 128.613281 Z M 123.90625 128.472656 C 123.914062 128.488281 123.914062 128.507812 123.917969 128.527344 C 123.925781 128.527344 123.933594 128.523438 123.941406 128.523438 C 123.9375 128.503906 123.933594 128.484375 123.933594 128.464844 C 123.921875 128.464844 123.917969 128.472656 123.90625 128.472656 Z M 124.171875 128.367188 C 124.167969 128.367188 124.164062 128.375 124.15625 128.382812 C 124.183594 128.394531 124.207031 128.40625 124.242188 128.425781 C 124.234375 128.367188 124.210938 128.359375 124.171875 128.367188 Z M 132.769531 125.007812 C 132.769531 124.996094 132.773438 124.980469 132.773438 124.964844 C 132.761719 124.964844 132.753906 124.964844 132.75 124.964844 C 132.75 124.976562 132.75 124.992188 132.75 125.003906 C 132.753906 125.003906 132.761719 125.003906 132.769531 125.007812 Z M 133.140625 125.777344 C 133.140625 125.785156 133.148438 125.796875 133.15625 125.808594 C 133.164062 125.804688 133.175781 125.792969 133.195312 125.785156 C 133.179688 125.769531 133.171875 125.761719 133.160156 125.757812 C 133.15625 125.753906 133.140625 125.765625 133.140625 125.777344 Z M 133.058594 125.496094 C 133.046875 125.523438 133.042969 125.550781 133.101562 125.570312 C 133.089844 125.535156 133.085938 125.515625 133.082031 125.492188 C 133.070312 125.492188 133.0625 125.496094 133.058594 125.496094 Z M 133.050781 125.136719 C 133.023438 125.148438 132.992188 125.152344 132.953125 125.160156 C 133 125.203125 133.027344 125.210938 133.050781 125.164062 C 133.058594 125.164062 133.050781 125.152344 133.050781 125.136719 Z M 132.636719 126.183594 C 132.671875 126.179688 132.691406 126.179688 132.714844 126.179688 C 132.710938 126.160156 132.703125 126.144531 132.699219 126.117188 C 132.675781 126.144531 132.660156 126.15625 132.636719 126.183594 Z M 132.75 125.175781 C 132.808594 125.1875 132.851562 125.179688 132.871094 125.105469 C 132.75 125.085938 132.75 125.085938 132.75 125.175781 Z M 133.347656 124.957031 C 133.347656 124.972656 133.347656 124.980469 133.347656 124.996094 C 133.351562 125.007812 133.355469 125.019531 133.359375 125.03125 C 133.367188 125.03125 133.371094 125.027344 133.375 125.027344 C 133.371094 125.003906 133.371094 124.980469 133.367188 124.964844 C 133.359375 124.957031 133.351562 124.957031 133.347656 124.957031 Z M 133.40625 125.691406 C 133.410156 125.699219 133.414062 125.703125 133.417969 125.710938 C 133.4375 125.699219 133.457031 125.679688 133.480469 125.664062 C 133.472656 125.660156 133.464844 125.652344 133.457031 125.648438 C 133.445312 125.660156 133.425781 125.675781 133.40625 125.691406 Z M 133.222656 124.578125 C 133.222656 124.582031 133.222656 124.589844 133.222656 124.59375 C 133.242188 124.59375 133.269531 124.59375 133.308594 124.59375 C 133.277344 124.578125 133.269531 124.566406 133.257812 124.566406 C 133.25 124.566406 133.234375 124.578125 133.222656 124.578125 Z M 129.238281 126.207031 C 129.246094 126.207031 129.25 126.207031 129.261719 126.210938 C 129.261719 126.199219 129.265625 126.179688 129.265625 126.167969 C 129.261719 126.167969 129.25 126.167969 129.246094 126.160156 C 129.242188 126.175781 129.242188 126.195312 129.238281 126.207031 Z M 133.449219 126.546875 C 133.453125 126.546875 133.464844 126.546875 133.46875 126.546875 C 133.472656 126.519531 133.472656 126.488281 133.480469 126.460938 C 133.46875 126.460938 133.457031 126.460938 133.449219 126.460938 C 133.449219 126.492188 133.449219 126.519531 133.449219 126.546875 Z M 133.003906 124.828125 C 133.03125 124.855469 133.050781 124.871094 133.082031 124.898438 C 133.085938 124.835938 133.066406 124.824219 133.003906 124.828125 Z M 129.757812 125.679688 C 129.75 125.714844 129.75 125.75 129.820312 125.777344 C 129.800781 125.730469 129.789062 125.703125 129.777344 125.675781 C 129.769531 125.679688 129.765625 125.679688 129.757812 125.679688 Z M 129.644531 126.03125 C 129.65625 126.042969 129.671875 126.050781 129.6875 126.058594 C 129.6875 126.058594 129.699219 126.046875 129.707031 126.039062 C 129.6875 126.027344 129.675781 126.019531 129.65625 126.019531 C 129.65625 126.015625 129.648438 126.027344 129.644531 126.03125 Z M 129.628906 125.832031 C 129.632812 125.796875 129.636719 125.78125 129.644531 125.742188 C 129.59375 125.78125 129.589844 125.796875 129.628906 125.832031 Z M 129.859375 126.265625 C 129.875 126.289062 129.882812 126.304688 129.898438 126.328125 C 129.914062 126.304688 129.921875 126.28125 129.9375 126.261719 C 129.933594 126.257812 129.925781 126.253906 129.925781 126.25 C 129.902344 126.25 129.878906 126.257812 129.859375 126.265625 Z M 129.203125 125.914062 C 129.230469 125.925781 129.230469 125.980469 129.300781 125.945312 C 129.265625 125.921875 129.238281 125.910156 129.210938 125.894531 C 129.207031 125.902344 129.203125 125.910156 129.203125 125.914062 Z M 129.90625 125.691406 C 129.914062 125.699219 129.917969 125.703125 129.921875 125.707031 C 129.945312 125.691406 129.976562 125.679688 130.019531 125.660156 C 129.984375 125.648438 129.957031 125.628906 129.945312 125.636719 C 129.925781 125.648438 129.921875 125.671875 129.90625 125.691406 Z M 132.453125 125.21875 C 132.453125 125.226562 132.453125 125.234375 132.453125 125.238281 C 132.472656 125.238281 132.492188 125.238281 132.511719 125.238281 C 132.511719 125.234375 132.511719 125.230469 132.511719 125.226562 C 132.492188 125.226562 132.472656 125.226562 132.453125 125.21875 Z M 131.195312 126.039062 C 131.25 126.050781 131.28125 126.058594 131.3125 126.070312 C 131.289062 126.039062 131.265625 126.015625 131.195312 126.039062 Z M 131.382812 125.757812 C 131.441406 125.691406 131.441406 125.691406 131.363281 125.679688 C 131.367188 125.703125 131.371094 125.71875 131.382812 125.757812 Z M 130.367188 126.046875 C 130.398438 126.058594 130.417969 126.070312 130.445312 126.078125 C 130.453125 126.046875 130.457031 126.019531 130.460938 125.992188 C 130.457031 125.988281 130.453125 125.988281 130.445312 125.980469 C 130.417969 126 130.398438 126.019531 130.367188 126.046875 Z M 130.367188 126.046875 " fill-opacity="1" fill-rule="nonzero"/></g><g clip-path="url(#b004db1722)"><path fill="#723e0d" d="M 374.441406 206.105469 C 374.441406 206.105469 374.21875 206.964844 373.738281 208.464844 C 370.960938 216.992188 359.566406 245.953125 331.660156 249.695312 C 331.660156 249.695312 331.550781 250.78125 331.496094 252.609375 C 331.296875 258.566406 331.503906 272.4375 336.902344 282.839844 C 337.453125 283.195312 338.015625 283.523438 338.597656 283.820312 C 339.171875 284.121094 339.402344 284.835938 339.105469 285.417969 C 338.898438 285.824219 338.484375 286.054688 338.054688 286.054688 C 337.867188 286.054688 337.683594 286.015625 337.507812 285.921875 C 333.820312 284.007812 330.785156 281.175781 328.382812 278.316406 C 328.148438 280.511719 327.742188 287.992188 332.164062 293.765625 C 332.863281 294.050781 333.574219 294.328125 334.304688 294.585938 C 334.917969 294.800781 335.238281 295.476562 335.023438 296.089844 C 334.972656 296.234375 334.886719 296.359375 334.792969 296.472656 C 334.808594 296.480469 334.816406 296.496094 334.832031 296.503906 C 334.824219 296.503906 334.800781 296.488281 334.785156 296.480469 C 334.5625 296.726562 334.25 296.878906 333.921875 296.878906 C 333.789062 296.878906 333.660156 296.855469 333.527344 296.8125 C 318.125 291.367188 309.953125 280.417969 305.605469 270.441406 C 301.339844 280.226562 295.605469 288.652344 289.742188 295.605469 C 289.742188 295.605469 289.742188 295.605469 289.746094 295.605469 C 290.246094 296.027344 290.300781 296.78125 289.878906 297.269531 C 289.304688 297.9375 275.695312 313.703125 264.261719 319.898438 C 264.085938 319.996094 263.894531 320.042969 263.703125 320.042969 C 263.304688 320.042969 262.917969 319.84375 262.695312 319.484375 C 262.367188 318.953125 262.503906 318.257812 263.011719 317.894531 C 263.058594 317.859375 269.328125 312.851562 274.828125 287.511719 C 277.679688 274.375 278.8125 258.273438 279.105469 243.125 C 279 243.109375 278.890625 243.085938 278.785156 243.03125 C 246.019531 228.050781 216.453125 184.820312 216.164062 184.382812 C 215.804688 183.847656 215.933594 183.125 216.460938 182.757812 C 210.648438 174.574219 205.46875 166.515625 201.019531 159.195312 C 199.570312 163.980469 197.292969 168.832031 193.726562 172.175781 C 193.5 172.390625 193.207031 172.5 192.921875 172.5 C 192.609375 172.5 192.292969 172.375 192.0625 172.121094 C 191.621094 171.648438 191.644531 170.894531 192.117188 170.449219 C 192.394531 170.191406 192.664062 169.921875 192.921875 169.636719 C 192.617188 157.699219 186.3125 144.398438 182.671875 136.835938 C 181.078125 145.140625 176.332031 161.742188 162.589844 178.300781 C 156.578125 185.539062 149.753906 192.328125 142.953125 198.398438 C 136.742188 204.171875 130.59375 209.035156 125.097656 212.984375 C 124.03125 213.789062 122.980469 214.5625 121.96875 215.304688 C 121.9375 215.328125 121.914062 215.351562 121.882812 215.382812 C 121.847656 215.414062 121.800781 215.429688 121.761719 215.453125 C 112.183594 222.445312 105.316406 226.613281 105.160156 226.699219 C 104.96875 226.816406 104.761719 226.867188 104.554688 226.867188 C 104.410156 226.867188 104.265625 226.828125 104.125 226.777344 C 104.019531 227.042969 103.910156 227.3125 103.8125 227.582031 C 101.480469 236.507812 99.410156 250.828125 104.082031 265.71875 C 104.273438 266.339844 103.925781 267.007812 103.304688 267.199219 C 103.191406 267.238281 103.066406 267.253906 102.953125 267.253906 C 102.453125 267.253906 101.988281 266.929688 101.824219 266.425781 C 101.625 265.78125 101.441406 265.136719 101.257812 264.492188 C 95.609375 258.871094 92.894531 251.910156 91.613281 246.058594 C 91.84375 253.789062 93.140625 263.734375 97.0625 274.46875 C 97.285156 275.082031 96.972656 275.757812 96.359375 275.984375 C 96.351562 275.984375 96.34375 275.984375 96.335938 275.984375 C 98.996094 283.628906 102.117188 290.921875 105.0625 297.179688 C 105.136719 297.117188 105.214844 297.054688 105.308594 297.011719 C 105.890625 296.71875 106.601562 296.949219 106.894531 297.53125 L 116.019531 315.664062 C 116.257812 316.132812 116.15625 316.691406 115.773438 317.054688 C 115.550781 317.269531 115.257812 317.375 114.960938 317.375 C 114.753906 317.375 114.554688 317.320312 114.371094 317.214844 C 113.773438 316.867188 99.671875 308.617188 93.539062 298.683594 C 93.230469 298.183594 93.347656 297.539062 93.773438 297.171875 C 89.320312 291.949219 84.550781 285.585938 79.867188 277.941406 C 78.679688 282.289062 76.53125 287.265625 72.636719 291.160156 C 68.34375 295.453125 62.675781 297.632812 55.8125 297.632812 C 55.144531 297.65625 54.578125 297.117188 54.578125 296.449219 C 54.578125 295.796875 55.109375 295.269531 55.761719 295.269531 C 55.773438 295.261719 55.796875 295.269531 55.8125 295.269531 C 56.089844 295.269531 56.359375 295.261719 56.632812 295.253906 C 60.667969 289.410156 61.449219 283.023438 61.503906 279.289062 C 59.484375 283.292969 55.730469 287.71875 48.773438 288.8125 C 48.714844 288.820312 48.652344 288.828125 48.589844 288.828125 C 48.023438 288.828125 47.515625 288.414062 47.425781 287.832031 C 47.324219 287.1875 47.761719 286.582031 48.40625 286.484375 C 49.011719 286.382812 49.585938 286.253906 50.140625 286.097656 C 60.75 274.707031 54.554688 260.476562 54.554688 260.476562 C 27.621094 264.039062 12.007812 242.308594 7.09375 234.015625 C 5.953125 232.089844 5.382812 230.886719 5.382812 230.886719 C 12.976562 231.523438 28.578125 221.882812 34.75 217.851562 C 36.382812 216.785156 37.359375 216.101562 37.359375 216.101562 C 23.164062 215.886719 12.746094 203.867188 6.988281 194.988281 C 4.734375 191.527344 3.183594 188.554688 2.394531 186.929688 C 1.886719 186.84375 1.574219 186.773438 1.496094 186.757812 C 0.859375 186.605469 0.476562 185.96875 0.621094 185.332031 C 0.777344 184.695312 1.414062 184.304688 2.042969 184.460938 C 2.164062 184.484375 14.792969 187.328125 28.042969 177.558594 C 28.570312 177.175781 29.308594 177.28125 29.691406 177.8125 C 29.699219 177.820312 29.707031 177.835938 29.707031 177.84375 C 33.96875 174.835938 37.878906 171.0625 40.886719 166.617188 C 40.355469 166.265625 40.195312 165.566406 40.53125 165.023438 C 43.445312 160.269531 44.703125 155.652344 46.789062 148.007812 C 47.832031 144.175781 49.011719 139.835938 50.699219 134.390625 C 52.730469 127.828125 55.4375 123.234375 57.96875 119.976562 C 47.785156 117.796875 39.351562 111.734375 39.351562 111.734375 C 41.925781 111.824219 44.527344 111.558594 47.15625 110.996094 C 47.027344 110.40625 47.347656 109.808594 47.929688 109.617188 C 48.070312 109.570312 62.175781 104.863281 80.632812 92.050781 C 81.167969 91.675781 81.898438 91.8125 82.273438 92.34375 C 93.238281 84.707031 105.230469 75.988281 118.695312 68.34375 C 118.378906 67.800781 118.542969 67.101562 119.078125 66.765625 C 119.308594 66.617188 140.847656 53.03125 169.132812 54.601562 C 162.691406 43.332031 144.21875 34.667969 138.339844 32.128906 C 137.402344 32.296875 136.957031 32.460938 136.949219 32.46875 C 136.34375 32.695312 135.664062 32.40625 135.425781 31.800781 C 135.1875 31.195312 135.472656 30.519531 136.078125 30.273438 C 136.292969 30.183594 141.566406 28.144531 155.71875 30.425781 C 167.238281 32.289062 177.472656 43.300781 181.285156 47.871094 C 181.453125 47.640625 181.621094 47.425781 181.796875 47.203125 C 181.351562 46.84375 181.214844 46.199219 181.523438 45.6875 C 181.972656 44.917969 192.929688 27.023438 226.574219 35.808594 C 227.203125 35.972656 227.585938 36.621094 227.417969 37.25 C 227.257812 37.878906 226.613281 38.257812 225.976562 38.09375 C 224.875 37.804688 223.800781 37.550781 222.742188 37.320312 C 214.308594 38.945312 207.539062 45.792969 202.9375 52.117188 C 208.527344 51.03125 216.867188 50.417969 227.519531 52.511719 C 246.65625 56.273438 263.832031 65.582031 273.515625 73.042969 C 274.015625 73.425781 274.121094 74.132812 273.761719 74.644531 C 278.90625 78.195312 287.347656 83.769531 296.902344 89.054688 C 296.910156 89.046875 296.910156 89.03125 296.917969 89.023438 C 297.246094 88.460938 297.976562 88.269531 298.535156 88.609375 C 298.789062 88.753906 323.875 103.414062 342.324219 101.367188 C 342.96875 101.296875 343.558594 101.765625 343.628906 102.410156 C 343.695312 103.0625 343.230469 103.644531 342.585938 103.714844 C 341.996094 103.773438 341.402344 103.820312 340.804688 103.859375 C 336.160156 107.402344 322.257812 116.832031 306.9375 116.21875 C 313.800781 119.945312 323.078125 126.425781 328.339844 136.15625 C 333.023438 144.832031 335.445312 152.699219 337.394531 159.019531 C 339.089844 164.523438 340.550781 169.277344 342.9375 172.707031 C 343.3125 173.242188 343.175781 173.976562 342.644531 174.347656 C 342.609375 174.367188 342.570312 174.382812 342.53125 174.398438 C 349.046875 185.894531 358.355469 190.484375 371.246094 185.617188 C 371.199219 185.730469 370.746094 186.644531 369.949219 188.015625 C 367.175781 192.777344 360.027344 203.121094 349.339844 205.8125 C 348.925781 205.921875 348.488281 206.011719 348.066406 206.097656 C 348.050781 206.105469 363.234375 210.105469 374.441406 206.105469 Z M 374.441406 206.105469 " fill-opacity="1" fill-rule="nonzero"/></g><path fill="#d87416" d="M 125.082031 212.988281 C 130.585938 208.855469 136.75 203.925781 142.9375 198.40625 C 136.726562 204.179688 130.578125 209.042969 125.082031 212.988281 Z M 103.796875 227.597656 C 103.894531 227.328125 104.011719 227.058594 104.109375 226.792969 C 104.082031 226.777344 104.050781 226.769531 104.019531 226.753906 C 103.949219 227.027344 103.875 227.304688 103.796875 227.597656 Z M 334.824219 296.503906 C 334.808594 296.496094 334.800781 296.480469 334.785156 296.472656 C 334.785156 296.472656 334.777344 296.480469 334.777344 296.480469 C 334.785156 296.488281 334.816406 296.503906 334.824219 296.503906 Z M 348.050781 206.105469 C 348.472656 206.019531 348.910156 205.929688 349.324219 205.820312 C 337.632812 203.789062 338.144531 193.761719 338.144531 193.761719 C 349.859375 196.535156 363.15625 191.3125 369.933594 188.023438 C 370.738281 186.652344 371.183594 185.746094 371.230469 185.625 C 358.339844 190.492188 349.03125 185.902344 342.515625 174.40625 C 342.339844 174.507812 342.148438 174.5625 341.957031 174.5625 C 341.582031 174.5625 341.210938 174.382812 340.980469 174.054688 C 338.382812 170.328125 336.871094 165.40625 335.117188 159.707031 C 333.101562 153.167969 330.824219 145.746094 326.246094 137.273438 C 317.832031 121.695312 297.746094 114.585938 297.539062 114.515625 C 296.925781 114.300781 296.59375 113.628906 296.808594 113.015625 C 297.023438 112.402344 297.699219 112.070312 298.3125 112.285156 C 298.664062 112.410156 302.222656 113.664062 306.921875 116.21875 C 322.242188 116.839844 336.144531 107.402344 340.789062 103.859375 C 340.0625 103.898438 339.324219 103.929688 338.589844 103.929688 C 320.066406 103.929688 298.304688 91.222656 297.324219 90.648438 C 296.769531 90.324219 296.585938 89.621094 296.894531 89.0625 C 287.339844 83.777344 278.898438 78.203125 273.753906 74.652344 C 273.746094 74.667969 273.738281 74.683594 273.722656 74.707031 C 273.492188 75.007812 273.140625 75.167969 272.789062 75.167969 C 272.535156 75.167969 272.28125 75.089844 272.066406 74.921875 C 262.597656 67.628906 245.796875 58.519531 227.058594 54.839844 C 207.660156 51.03125 196.011719 56.648438 195.898438 56.710938 C 195.316406 57.003906 194.601562 56.765625 194.320312 56.183594 C 194.027344 55.601562 194.265625 54.894531 194.847656 54.601562 C 195.085938 54.488281 197.890625 53.117188 202.945312 52.132812 C 207.546875 45.800781 214.316406 38.953125 222.75 37.335938 C 193.351562 30.925781 183.660156 46.730469 183.5625 46.898438 C 183.339844 47.273438 182.949219 47.480469 182.542969 47.480469 C 182.335938 47.480469 182.136719 47.425781 181.945312 47.320312 C 181.890625 47.289062 181.851562 47.25 181.804688 47.21875 C 181.636719 47.441406 181.460938 47.65625 181.292969 47.886719 C 182.210938 48.984375 182.757812 49.71875 182.855469 49.847656 C 183.246094 50.371094 183.132812 51.113281 182.609375 51.503906 C 182.394531 51.667969 182.148438 51.734375 181.90625 51.734375 C 181.542969 51.734375 181.183594 51.574219 180.953125 51.261719 C 180.832031 51.097656 168.679688 34.9375 155.34375 32.773438 C 145.890625 31.246094 140.632812 31.722656 138.347656 32.144531 C 144.226562 34.683594 162.699219 43.347656 169.140625 54.617188 C 171.0625 54.726562 173.027344 54.902344 175.011719 55.15625 C 175.65625 55.238281 176.117188 55.828125 176.03125 56.480469 C 175.949219 57.125 175.347656 57.570312 174.707031 57.5 C 163.265625 56.015625 152.753906 57.242188 144.082031 59.339844 C 164.347656 70.488281 208.585938 89.335938 251.296875 70.941406 C 251.296875 70.941406 256.914062 94.265625 234.003906 106.320312 C 211.09375 118.390625 179.375 129.144531 136.507812 122.804688 C 112.8125 119.300781 94.75 106.597656 82.136719 93.859375 C 82.089844 93.90625 82.035156 93.953125 81.984375 93.992188 C 63.21875 107.019531 48.8125 111.816406 48.675781 111.863281 C 48.550781 111.902344 48.429688 111.925781 48.308594 111.925781 C 47.808594 111.925781 47.347656 111.609375 47.1875 111.113281 C 47.171875 111.074219 47.171875 111.042969 47.164062 111.003906 C 44.527344 111.566406 41.925781 111.832031 39.359375 111.742188 C 39.359375 111.742188 47.792969 117.804688 57.976562 119.984375 C 60.175781 117.148438 62.246094 115.3125 63.625 114.101562 C 64.101562 113.6875 64.632812 113.222656 64.839844 112.976562 C 64.890625 112.515625 65.207031 112.109375 65.675781 111.972656 C 66.292969 111.789062 66.953125 112.140625 67.136719 112.769531 C 67.460938 113.863281 66.601562 114.625 65.175781 115.875 C 62.375 118.335938 56.542969 123.464844 52.945312 135.097656 C 51.273438 140.507812 50.09375 144.828125 49.058594 148.636719 C 46.996094 156.21875 45.632812 161.226562 42.542969 166.265625 C 42.320312 166.625 41.925781 166.832031 41.535156 166.832031 C 41.328125 166.832031 41.113281 166.777344 40.921875 166.65625 C 40.90625 166.648438 40.898438 166.640625 40.886719 166.625 C 37.878906 171.070312 33.96875 174.84375 29.707031 177.851562 C 30.066406 178.371094 29.949219 179.09375 29.4375 179.46875 C 20.589844 186.007812 12.101562 187.273438 6.847656 187.273438 C 4.832031 187.273438 3.300781 187.089844 2.402344 186.945312 C 3.191406 188.570312 4.742188 191.542969 6.996094 195.003906 C 19.921875 200.707031 39.773438 207.261719 51.511719 200.386719 C 51.511719 200.386719 49.21875 213.351562 34.757812 217.859375 C 28.585938 221.898438 12.984375 231.53125 5.390625 230.894531 C 5.390625 230.894531 5.960938 232.097656 7.101562 234.023438 C 16.410156 238.746094 36.109375 245.761719 51.519531 230.953125 C 51.519531 230.953125 60.03125 243.789062 54.5625 260.488281 C 54.5625 260.488281 60.757812 274.722656 50.148438 286.113281 C 60.09375 283.386719 61.378906 272.152344 61.386719 272.03125 C 61.457031 271.386719 62.03125 270.925781 62.683594 270.980469 C 63.335938 271.046875 63.804688 271.625 63.734375 272.273438 C 63.726562 272.34375 63.34375 275.648438 61.503906 279.304688 C 61.449219 283.046875 60.667969 289.433594 56.632812 295.269531 C 62.476562 295.109375 67.292969 293.175781 70.957031 289.519531 C 78.863281 281.628906 78.960938 268.21875 78.960938 268.082031 C 78.960938 267.429688 79.492188 266.898438 80.140625 266.898438 C 80.792969 266.898438 81.324219 267.429688 81.324219 268.082031 C 81.324219 268.402344 81.292969 272.710938 79.859375 277.964844 C 84.542969 285.609375 89.304688 291.972656 93.765625 297.195312 C 93.8125 297.15625 93.859375 297.117188 93.914062 297.078125 C 94.472656 296.734375 95.195312 296.910156 95.539062 297.460938 C 99.527344 303.925781 107.378906 309.824219 111.960938 312.914062 L 104.761719 298.613281 C 104.515625 298.121094 104.648438 297.539062 105.046875 297.195312 C 102.109375 290.9375 98.980469 283.644531 96.320312 276 C 96.191406 276.046875 96.066406 276.070312 95.9375 276.070312 C 95.453125 276.070312 95 275.769531 94.824219 275.296875 C 85.832031 250.707031 90.15625 230.671875 90.339844 229.835938 C 90.484375 229.199219 91.113281 228.800781 91.75 228.9375 C 92.386719 229.078125 92.785156 229.710938 92.648438 230.347656 C 92.625 230.457031 91.3125 236.597656 91.597656 246.074219 C 92.878906 251.925781 95.585938 258.886719 101.242188 264.507812 C 94.433594 240.070312 104.316406 218.296875 104.753906 217.359375 C 105.03125 216.769531 105.730469 216.515625 106.320312 216.785156 C 106.910156 217.0625 107.171875 217.757812 106.894531 218.355469 C 106.863281 218.425781 105.898438 220.566406 104.769531 224.167969 C 106.878906 222.851562 112.789062 219.078125 120.433594 213.496094 C 161.25 176.738281 156.519531 143.761719 156.464844 143.429688 C 156.363281 142.785156 156.800781 142.179688 157.445312 142.082031 C 158.097656 141.980469 158.695312 142.417969 158.796875 143.0625 C 158.996094 144.296875 162.722656 170.296875 134.871094 202.242188 C 143.628906 194.949219 152.898438 186.269531 160.75 176.808594 C 179.273438 154.480469 181.054688 131.5 181.078125 131.269531 C 181.121094 130.617188 181.683594 130.136719 182.335938 130.171875 C 182.984375 130.21875 183.476562 130.78125 183.429688 131.429688 C 183.414062 131.699219 183.261719 133.664062 182.648438 136.851562 C 186.289062 144.414062 192.59375 157.707031 192.898438 169.652344 C 200.789062 161.148438 201.195312 143.414062 201.203125 143.230469 C 201.210938 142.578125 201.777344 142.097656 202.40625 142.074219 C 203.058594 142.082031 203.582031 142.617188 203.566406 143.277344 C 203.558594 143.785156 203.382812 151.398438 201.003906 159.210938 C 205.445312 166.53125 210.636719 174.589844 216.445312 182.773438 C 216.453125 182.765625 216.460938 182.765625 216.460938 182.757812 C 217 182.390625 217.734375 182.535156 218.101562 183.070312 C 218.394531 183.5 247.214844 225.632812 279.128906 240.609375 C 279.464844 215.488281 277.585938 193.636719 277.558594 193.277344 C 277.503906 192.625 277.976562 192.058594 278.628906 191.996094 C 279.289062 191.925781 279.855469 192.417969 279.910156 193.070312 C 279.964844 193.652344 284.964844 251.855469 277.121094 288.023438 C 274.097656 301.964844 270.816406 309.96875 268.332031 314.46875 C 278.0625 307.332031 287.945312 295.882812 288.0625 295.746094 C 288.484375 295.253906 289.226562 295.191406 289.726562 295.613281 C 295.582031 288.660156 301.324219 280.242188 305.589844 270.449219 C 300.859375 259.578125 300.675781 249.855469 300.675781 249.671875 C 300.667969 249.019531 301.195312 248.492188 301.847656 248.484375 C 301.847656 248.484375 301.855469 248.484375 301.855469 248.484375 C 302.5 248.484375 303.027344 249.003906 303.035156 249.65625 C 303.035156 249.984375 303.671875 282.1875 332.15625 293.78125 C 327.734375 288.007812 328.140625 280.523438 328.375 278.332031 C 324.136719 273.28125 321.921875 268.140625 321.773438 267.804688 C 321.523438 267.207031 321.796875 266.507812 322.402344 266.257812 C 323 266.003906 323.699219 266.277344 323.953125 266.886719 C 324 267 328.539062 277.503906 336.894531 282.855469 C 331.496094 272.460938 331.289062 258.582031 331.488281 252.625 C 327.402344 241.238281 327.289062 225.441406 327.289062 225.441406 C 348.773438 235.066406 367.617188 215.78125 373.738281 208.480469 C 374.21875 206.980469 374.441406 206.121094 374.441406 206.121094 C 363.234375 210.105469 348.050781 206.105469 348.050781 206.105469 Z M 348.050781 206.105469 " fill-opacity="1" fill-rule="nonzero"/><path fill="#ffffff" d="M 82.296875 92.351562 C 93.261719 84.714844 105.253906 75.988281 118.710938 68.351562 C 118.71875 68.367188 118.726562 68.382812 118.734375 68.398438 C 118.957031 68.75 119.339844 68.941406 119.730469 68.941406 C 119.953125 68.941406 120.167969 68.878906 120.367188 68.757812 C 120.511719 68.664062 129.796875 62.800781 144.089844 59.335938 C 164.355469 70.484375 208.59375 89.328125 251.304688 70.933594 C 251.304688 70.933594 256.921875 94.257812 234.011719 106.3125 C 211.101562 118.382812 179.382812 129.136719 136.511719 122.796875 C 112.820312 119.292969 94.757812 106.589844 82.144531 93.851562 C 82.558594 93.460938 82.625 92.824219 82.296875 92.351562 Z M 82.296875 92.351562 " fill-opacity="1" fill-rule="nonzero"/></svg>