<svg xmlns="http://www.w3.org/2000/svg" xmlns:xlink="http://www.w3.org/1999/xlink" width="500" zoomAndPan="magnify" viewBox="0 0 375 374.999991" height="500" preserveAspectRatio="xMidYMid meet" version="1.0"><defs><clipPath id="1ee7a476b8"><path d="M 122.234375 123.488281 L 134.234375 123.488281 L 134.234375 130.238281 L 122.234375 130.238281 Z M 122.234375 123.488281 " clip-rule="nonzero"/></clipPath><clipPath id="d2f931d7ad"><path d="M 122.234375 124 L 134 124 L 134 130 L 122.234375 130 Z M 122.234375 124 " clip-rule="nonzero"/></clipPath><clipPath id="1a79b83a7d"><path d="M 5 42 L 374 42 L 374 327 L 5 327 Z M 5 42 " clip-rule="nonzero"/></clipPath><clipPath id="31515114a4"><path d="M 5 44 L 374 44 L 374 327 L 5 327 Z M 5 44 " clip-rule="nonzero"/></clipPath></defs><g clip-path="url(#1ee7a476b8)"><path fill="#353535" d="M 134.257812 127.402344 C 133.507812 127.613281 133.273438 127.035156 133.023438 126.703125 C 132.597656 126.148438 132.105469 126.078125 131.445312 126.148438 C 128.273438 126.464844 125.429688 127.410156 123.25 129.714844 C 122.988281 129.996094 122.628906 130.09375 122.261719 130.179688 L 122.257812 130.179688 C 122.753906 128.820312 123.914062 127.980469 125.117188 127.285156 C 126.960938 126.226562 128.929688 125.402344 131.195312 125.578125 C 131.960938 125.636719 132.527344 125.496094 132.613281 124.585938 C 132.660156 124.039062 133.144531 123.703125 133.929688 123.535156 C 133.105469 124.957031 133.6875 126.152344 134.257812 127.402344 Z M 122.234375 130.210938 L 122.261719 130.179688 C 122.261719 130.179688 122.257812 130.179688 122.257812 130.179688 C 122.261719 130.179688 122.234375 130.210938 122.234375 130.210938 Z M 122.234375 130.210938 " fill-opacity="1" fill-rule="nonzero"/></g><g clip-path="url(#d2f931d7ad)"><path fill="#ffffff" d="M 126.09375 127.09375 C 126.101562 127.09375 126.113281 127.09375 126.121094 127.089844 C 126.121094 127.105469 126.121094 127.125 126.121094 127.140625 C 126.117188 127.140625 126.113281 127.140625 126.105469 127.144531 C 126.101562 127.128906 126.097656 127.113281 126.09375 127.09375 Z M 125.542969 127.15625 C 125.597656 127.152344 125.640625 127.152344 125.695312 127.152344 C 125.609375 127.105469 125.59375 127.105469 125.542969 127.15625 Z M 125.847656 127.667969 C 125.847656 127.671875 125.855469 127.679688 125.863281 127.6875 C 125.871094 127.675781 125.882812 127.671875 125.890625 127.664062 C 125.875 127.652344 125.871094 127.648438 125.863281 127.644531 C 125.855469 127.652344 125.847656 127.660156 125.847656 127.667969 Z M 125.65625 127.703125 C 125.660156 127.703125 125.675781 127.707031 125.675781 127.707031 C 125.679688 127.695312 125.679688 127.675781 125.6875 127.664062 C 125.679688 127.664062 125.671875 127.664062 125.667969 127.660156 C 125.660156 127.671875 125.65625 127.691406 125.65625 127.703125 Z M 125.660156 127.523438 C 125.652344 127.523438 125.640625 127.523438 125.632812 127.523438 C 125.636719 127.542969 125.640625 127.5625 125.640625 127.585938 C 125.652344 127.585938 125.65625 127.585938 125.667969 127.582031 C 125.667969 127.566406 125.667969 127.542969 125.660156 127.523438 Z M 127.734375 126.136719 C 127.738281 126.15625 127.746094 126.179688 127.753906 126.199219 C 127.757812 126.199219 127.761719 126.199219 127.765625 126.195312 C 127.761719 126.171875 127.753906 126.152344 127.746094 126.128906 C 127.742188 126.132812 127.738281 126.136719 127.734375 126.136719 Z M 125.359375 127.898438 C 125.320312 127.902344 125.292969 127.902344 125.269531 127.90625 C 125.292969 127.933594 125.324219 127.949219 125.359375 127.898438 Z M 128.175781 126.722656 C 128.242188 126.730469 128.242188 126.730469 128.277344 126.707031 C 128.265625 126.703125 128.257812 126.695312 128.246094 126.699219 C 128.226562 126.699219 128.207031 126.707031 128.175781 126.722656 Z M 126.992188 126.800781 C 127.03125 126.804688 127.066406 126.808594 127.105469 126.8125 C 127.066406 126.738281 127.0625 126.734375 126.992188 126.800781 Z M 126.464844 126.929688 C 126.492188 126.933594 126.523438 126.933594 126.546875 126.9375 C 126.59375 126.941406 126.585938 126.914062 126.578125 126.875 C 126.542969 126.90625 126.488281 126.863281 126.464844 126.929688 Z M 126.214844 127.007812 C 126.226562 127.011719 126.230469 127.019531 126.234375 127.023438 C 126.25 127.011719 126.257812 126.996094 126.269531 126.984375 C 126.269531 126.984375 126.257812 126.972656 126.253906 126.96875 C 126.246094 126.984375 126.230469 126.992188 126.214844 127.007812 Z M 126.875 127.113281 C 126.890625 127.070312 126.894531 127.042969 126.910156 127 C 126.851562 127.046875 126.851562 127.046875 126.875 127.113281 Z M 123.324219 129.519531 C 123.371094 129.519531 123.378906 129.480469 123.375 129.445312 C 123.328125 129.441406 123.289062 129.433594 123.238281 129.433594 C 123.242188 129.496094 123.285156 129.519531 123.324219 129.519531 Z M 123.398438 128.710938 C 123.402344 128.71875 123.410156 128.726562 123.410156 128.734375 C 123.429688 128.722656 123.449219 128.71875 123.460938 128.710938 C 123.457031 128.699219 123.449219 128.6875 123.449219 128.6875 C 123.433594 128.695312 123.414062 128.699219 123.398438 128.710938 Z M 128.34375 126.679688 C 128.34375 126.691406 128.363281 126.699219 128.371094 126.707031 C 128.378906 126.699219 128.390625 126.691406 128.394531 126.679688 C 128.394531 126.671875 128.382812 126.660156 128.375 126.644531 C 128.359375 126.660156 128.34375 126.671875 128.34375 126.679688 Z M 123.105469 129.789062 C 123.113281 129.789062 123.125 129.789062 123.128906 129.792969 C 123.132812 129.773438 123.140625 129.753906 123.140625 129.734375 C 123.113281 129.738281 123.105469 129.746094 123.101562 129.757812 C 123.101562 129.765625 123.105469 129.78125 123.105469 129.789062 Z M 122.917969 129.328125 C 122.9375 129.339844 122.957031 129.34375 122.980469 129.351562 C 122.980469 129.34375 122.988281 129.339844 122.988281 129.328125 C 122.96875 129.324219 122.949219 129.316406 122.929688 129.3125 C 122.921875 129.316406 122.917969 129.320312 122.917969 129.328125 Z M 122.640625 129.886719 C 122.667969 129.839844 122.6875 129.804688 122.71875 129.761719 C 122.640625 129.773438 122.628906 129.792969 122.640625 129.886719 Z M 124.617188 127.964844 C 124.621094 127.980469 124.628906 127.992188 124.632812 128.007812 C 124.632812 128.007812 124.644531 128.007812 124.652344 128.007812 C 124.648438 127.988281 124.644531 127.96875 124.636719 127.957031 C 124.632812 127.960938 124.621094 127.960938 124.617188 127.964844 Z M 124.441406 128.347656 C 124.460938 128.292969 124.460938 128.292969 124.414062 128.265625 C 124.421875 128.296875 124.433594 128.324219 124.441406 128.347656 Z M 124.769531 128.386719 C 124.78125 128.355469 124.789062 128.328125 124.804688 128.289062 C 124.765625 128.304688 124.734375 128.320312 124.703125 128.332031 C 124.730469 128.351562 124.746094 128.371094 124.769531 128.386719 Z M 124.289062 128.613281 C 124.292969 128.617188 124.292969 128.628906 124.300781 128.632812 C 124.320312 128.621094 124.339844 128.613281 124.359375 128.605469 C 124.355469 128.601562 124.347656 128.59375 124.347656 128.585938 C 124.328125 128.59375 124.308594 128.605469 124.289062 128.613281 Z M 123.90625 128.472656 C 123.914062 128.488281 123.914062 128.507812 123.917969 128.527344 C 123.925781 128.527344 123.933594 128.523438 123.941406 128.523438 C 123.9375 128.503906 123.933594 128.484375 123.933594 128.464844 C 123.921875 128.464844 123.917969 128.472656 123.90625 128.472656 Z M 124.171875 128.367188 C 124.167969 128.367188 124.164062 128.375 124.15625 128.382812 C 124.183594 128.394531 124.207031 128.40625 124.242188 128.425781 C 124.234375 128.367188 124.210938 128.359375 124.171875 128.367188 Z M 132.769531 125.007812 C 132.769531 124.996094 132.773438 124.980469 132.773438 124.964844 C 132.761719 124.964844 132.753906 124.964844 132.75 124.964844 C 132.75 124.976562 132.75 124.992188 132.75 125.003906 C 132.753906 125.003906 132.761719 125.003906 132.769531 125.007812 Z M 133.140625 125.777344 C 133.140625 125.785156 133.148438 125.796875 133.15625 125.808594 C 133.164062 125.804688 133.175781 125.792969 133.195312 125.785156 C 133.179688 125.769531 133.171875 125.761719 133.160156 125.757812 C 133.15625 125.753906 133.140625 125.765625 133.140625 125.777344 Z M 133.058594 125.496094 C 133.046875 125.523438 133.042969 125.550781 133.101562 125.570312 C 133.089844 125.535156 133.085938 125.515625 133.082031 125.492188 C 133.070312 125.492188 133.0625 125.496094 133.058594 125.496094 Z M 133.050781 125.136719 C 133.023438 125.148438 132.992188 125.152344 132.953125 125.160156 C 133 125.203125 133.027344 125.210938 133.050781 125.164062 C 133.058594 125.164062 133.050781 125.152344 133.050781 125.136719 Z M 132.636719 126.183594 C 132.671875 126.179688 132.691406 126.179688 132.714844 126.179688 C 132.710938 126.160156 132.703125 126.144531 132.699219 126.117188 C 132.675781 126.144531 132.660156 126.15625 132.636719 126.183594 Z M 132.75 125.175781 C 132.808594 125.1875 132.851562 125.179688 132.871094 125.105469 C 132.75 125.085938 132.75 125.085938 132.75 125.175781 Z M 133.347656 124.957031 C 133.347656 124.972656 133.347656 124.980469 133.347656 124.996094 C 133.351562 125.007812 133.355469 125.019531 133.359375 125.03125 C 133.367188 125.03125 133.371094 125.027344 133.375 125.027344 C 133.371094 125.003906 133.371094 124.980469 133.367188 124.964844 C 133.359375 124.957031 133.351562 124.957031 133.347656 124.957031 Z M 133.40625 125.691406 C 133.410156 125.699219 133.414062 125.703125 133.417969 125.710938 C 133.4375 125.699219 133.457031 125.679688 133.480469 125.664062 C 133.472656 125.660156 133.464844 125.652344 133.457031 125.648438 C 133.445312 125.660156 133.425781 125.675781 133.40625 125.691406 Z M 133.222656 124.578125 C 133.222656 124.582031 133.222656 124.589844 133.222656 124.59375 C 133.242188 124.59375 133.269531 124.59375 133.308594 124.59375 C 133.277344 124.578125 133.269531 124.566406 133.257812 124.566406 C 133.25 124.566406 133.234375 124.578125 133.222656 124.578125 Z M 129.238281 126.207031 C 129.246094 126.207031 129.25 126.207031 129.261719 126.210938 C 129.261719 126.199219 129.265625 126.179688 129.265625 126.167969 C 129.261719 126.167969 129.25 126.167969 129.246094 126.160156 C 129.242188 126.175781 129.242188 126.195312 129.238281 126.207031 Z M 133.449219 126.546875 C 133.453125 126.546875 133.464844 126.546875 133.46875 126.546875 C 133.472656 126.519531 133.472656 126.488281 133.480469 126.460938 C 133.46875 126.460938 133.457031 126.460938 133.449219 126.460938 C 133.449219 126.492188 133.449219 126.519531 133.449219 126.546875 Z M 133.003906 124.828125 C 133.03125 124.855469 133.050781 124.871094 133.082031 124.898438 C 133.085938 124.835938 133.066406 124.824219 133.003906 124.828125 Z M 129.757812 125.679688 C 129.75 125.714844 129.75 125.75 129.820312 125.777344 C 129.800781 125.730469 129.789062 125.703125 129.777344 125.675781 C 129.769531 125.679688 129.765625 125.679688 129.757812 125.679688 Z M 129.644531 126.03125 C 129.65625 126.042969 129.671875 126.050781 129.6875 126.058594 C 129.6875 126.058594 129.699219 126.046875 129.707031 126.039062 C 129.6875 126.027344 129.675781 126.019531 129.65625 126.019531 C 129.65625 126.015625 129.648438 126.027344 129.644531 126.03125 Z M 129.628906 125.832031 C 129.632812 125.796875 129.636719 125.78125 129.644531 125.742188 C 129.59375 125.78125 129.589844 125.796875 129.628906 125.832031 Z M 129.859375 126.265625 C 129.875 126.289062 129.882812 126.304688 129.898438 126.328125 C 129.914062 126.304688 129.921875 126.28125 129.9375 126.261719 C 129.933594 126.257812 129.925781 126.253906 129.925781 126.25 C 129.902344 126.25 129.878906 126.257812 129.859375 126.265625 Z M 129.203125 125.914062 C 129.230469 125.925781 129.230469 125.980469 129.300781 125.945312 C 129.265625 125.921875 129.238281 125.910156 129.210938 125.894531 C 129.207031 125.902344 129.203125 125.910156 129.203125 125.914062 Z M 129.90625 125.691406 C 129.914062 125.699219 129.917969 125.703125 129.921875 125.707031 C 129.945312 125.691406 129.976562 125.679688 130.019531 125.660156 C 129.984375 125.648438 129.957031 125.628906 129.945312 125.636719 C 129.925781 125.648438 129.921875 125.671875 129.90625 125.691406 Z M 132.453125 125.21875 C 132.453125 125.226562 132.453125 125.234375 132.453125 125.238281 C 132.472656 125.238281 132.492188 125.238281 132.511719 125.238281 C 132.511719 125.234375 132.511719 125.230469 132.511719 125.226562 C 132.492188 125.226562 132.472656 125.226562 132.453125 125.21875 Z M 131.195312 126.039062 C 131.25 126.050781 131.28125 126.058594 131.3125 126.070312 C 131.289062 126.039062 131.265625 126.015625 131.195312 126.039062 Z M 131.382812 125.757812 C 131.441406 125.691406 131.441406 125.691406 131.363281 125.679688 C 131.367188 125.703125 131.371094 125.71875 131.382812 125.757812 Z M 130.367188 126.046875 C 130.398438 126.058594 130.417969 126.070312 130.445312 126.078125 C 130.453125 126.046875 130.457031 126.019531 130.460938 125.992188 C 130.457031 125.988281 130.453125 125.988281 130.445312 125.980469 C 130.417969 126 130.398438 126.019531 130.367188 126.046875 Z M 130.367188 126.046875 " fill-opacity="1" fill-rule="nonzero"/></g><g clip-path="url(#1a79b83a7d)"><path fill="#737373" d="M 373.410156 303.359375 C 371.039062 323.625 349.46875 327.039062 349.46875 327.039062 C 349.46875 327.039062 351.671875 322.277344 351.847656 317.496094 C 351.972656 314.371094 351.222656 311.234375 348.40625 309.449219 C 348.40625 309.449219 348.933594 318.617188 343.664062 323.097656 C 343.664062 323.097656 348.160156 299.371094 340.722656 289.722656 C 338.523438 290.121094 336.21875 290.25 333.902344 290.25 C 331.800781 290.25 329.703125 290.144531 327.675781 290.042969 L 326.683594 289.992188 C 319.320312 289.636719 310.085938 286.09375 309.695312 285.941406 C 309.28125 285.785156 309.078125 285.316406 309.234375 284.910156 C 309.332031 284.664062 309.542969 284.503906 309.785156 284.4375 L 305.96875 269.660156 C 305.929688 269.667969 305.902344 269.667969 305.863281 269.675781 C 286.957031 271.949219 279.472656 255.699219 279.398438 255.53125 C 279.234375 255.164062 279.382812 254.75 279.714844 254.539062 C 277.628906 251.175781 275.664062 247.066406 273.933594 242.035156 C 273.859375 242.042969 273.789062 242.042969 273.714844 242.050781 C 249.878906 243.59375 243.644531 231.726562 243.394531 231.21875 C 243.214844 230.859375 243.34375 230.4375 243.660156 230.21875 C 242.703125 228.8125 241.890625 227.238281 241.289062 225.460938 C 235.238281 207.570312 245.242188 177.921875 245.242188 177.921875 L 248.039062 168.046875 C 242.996094 175.054688 237.984375 178.515625 237.878906 178.582031 C 237.742188 178.675781 237.585938 178.71875 237.433594 178.71875 C 237.179688 178.71875 236.921875 178.597656 236.773438 178.367188 C 236.523438 177.996094 236.621094 177.5 236.992188 177.257812 C 237.011719 177.242188 237.328125 177.027344 237.832031 176.625 C 242.5625 160.253906 237.621094 137.492188 235.5 129.183594 C 235.660156 131.597656 235.628906 134.25 235.25 137.011719 C 233.800781 147.601562 227.527344 153.925781 227.257812 154.1875 C 227.101562 154.347656 226.898438 154.421875 226.695312 154.421875 C 226.492188 154.421875 226.28125 154.347656 226.128906 154.1875 C 226.128906 154.1875 226.128906 154.1875 226.128906 154.179688 C 225.964844 154.339844 225.867188 154.414062 225.867188 154.414062 C 225.867188 154.414062 225.910156 154.257812 225.984375 153.96875 C 225.84375 153.667969 225.886719 153.308594 226.136719 153.058594 C 226.144531 153.050781 226.1875 153.007812 226.257812 152.9375 C 227.296875 148.746094 230.027344 136.328125 229.027344 124.597656 C 228.972656 123.90625 228.882812 123.207031 228.769531 122.507812 C 228.410156 120.226562 227.769531 117.929688 226.972656 115.695312 C 226.972656 115.695312 226.964844 115.695312 226.964844 115.703125 C 226.882812 115.730469 226.792969 115.746094 226.699219 115.746094 C 226.371094 115.746094 226.0625 115.535156 225.949219 115.207031 C 223.652344 108.527344 217.675781 99.96875 214.03125 95.101562 L 192.769531 103.832031 C 192.484375 110.472656 192.542969 118.488281 193.816406 125 C 196.074219 136.539062 202.304688 149.363281 202.367188 149.492188 C 202.5 149.761719 202.464844 150.085938 202.285156 150.328125 C 202.132812 150.53125 201.890625 150.644531 201.652344 150.644531 C 201.597656 150.644531 201.546875 150.636719 201.5 150.628906 C 201.019531 150.53125 190.441406 148.203125 183.246094 126.984375 C 183.300781 130.042969 183.457031 133.339844 183.773438 136.777344 C 185.242188 152.871094 198.226562 165.652344 198.355469 165.78125 C 198.601562 166.019531 198.664062 166.382812 198.519531 166.691406 C 198.382812 166.976562 198.105469 167.148438 197.796875 167.148438 C 197.765625 167.148438 197.738281 167.148438 197.714844 167.140625 C 181.988281 165.457031 161.035156 156.144531 150.511719 121.394531 L 150.367188 120.910156 C 150.285156 120.648438 150.210938 120.339844 150.136719 120 C 148.019531 122.769531 146.484375 125.644531 145.421875 128.527344 C 139.597656 144.335938 147.628906 160.375 147.628906 160.375 C 140.613281 158.976562 137.097656 142.835938 137.097656 142.835938 C 137 143.613281 136.917969 144.386719 136.859375 145.164062 C 136.96875 148.03125 137.1875 150.832031 137.527344 153.519531 C 140.507812 177.011719 151.695312 194.148438 151.804688 194.324219 C 152.046875 194.691406 151.949219 195.1875 151.582031 195.429688 C 151.445312 195.519531 151.292969 195.566406 151.144531 195.566406 C 150.878906 195.566406 150.632812 195.4375 150.472656 195.203125 C 150.464844 195.1875 150.355469 195.015625 150.15625 194.699219 C 148.375 194.503906 145.695312 193.824219 142.496094 192.605469 C 143.007812 196.355469 143.421875 200.539062 143.542969 204.824219 C 143.746094 212.15625 143.082031 219.75 140.589844 225.808594 C 139.867188 227.570312 138.933594 229.113281 137.875 230.46875 C 138.21875 230.703125 138.339844 231.160156 138.121094 231.527344 C 137.835938 232.019531 130.851562 243.460938 107.171875 240.394531 C 107.082031 240.386719 106.996094 240.375 106.914062 240.367188 C 104.859375 245.257812 102.632812 249.234375 100.335938 252.441406 C 100.699219 252.65625 100.832031 253.109375 100.636719 253.484375 C 100.5625 253.628906 93.652344 266.402344 78.605469 266.402344 C 76.941406 266.402344 75.1875 266.246094 73.320312 265.898438 C 73.277344 265.890625 73.230469 265.882812 73.1875 265.875 L 68.429688 280.371094 C 68.675781 280.441406 68.894531 280.621094 68.976562 280.882812 C 69.113281 281.304688 68.871094 281.757812 68.457031 281.886719 C 68.066406 282.007812 58.980469 284.835938 51.679688 284.835938 C 51.539062 284.835938 51.386719 284.835938 51.246094 284.835938 L 49.996094 284.820312 C 47 284.777344 43.957031 284.730469 41.03125 284.460938 C 40.855469 288.75 41.058594 297.097656 44.476562 303.617188 C 44.476562 303.617188 40.121094 303.960938 38.027344 299.753906 L 37.476562 312.355469 L 34.769531 310.226562 L 30.539062 306.898438 C 30.539062 306.898438 28.589844 317.15625 33.210938 318.421875 C 33.210938 318.421875 31.351562 318.796875 28.707031 318.714844 C 21.664062 318.496094 9.070312 315.027344 11.667969 292.453125 C 11.667969 292.453125 6.546875 296.722656 8.070312 302.351562 C 7.804688 301.808594 0.0078125 285.234375 14.480469 273.972656 C 16.003906 272.800781 17.765625 271.679688 19.804688 270.640625 C 19.277344 267.597656 18.9375 263.464844 19.40625 258.4375 C 20.511719 246.539062 26.886719 238.332031 27.15625 237.988281 C 27.414062 237.664062 27.867188 237.605469 28.203125 237.820312 C 29.5 236.179688 30.847656 234.742188 32.15625 233.507812 C 31.921875 233.183594 31.945312 232.742188 32.238281 232.460938 C 33.660156 231.113281 36.558594 229.039062 36.6875 228.949219 C 37.027344 228.707031 37.484375 228.773438 37.75 229.082031 C 38.6875 228.464844 39.464844 228.023438 40 227.726562 C 40.007812 227.601562 40.015625 227.480469 40.023438 227.359375 C 40.730469 218.539062 45.808594 210.769531 53.609375 206.578125 C 58.273438 204.070312 63.128906 203.394531 66.667969 204.679688 C 66.382812 202.332031 66.199219 200.097656 66.171875 198.132812 C 66.011719 187.464844 66.59375 179.238281 75.429688 170.425781 C 75.707031 170.144531 76.136719 170.128906 76.445312 170.347656 C 82.777344 163.101562 91.703125 156.355469 98.320312 151.832031 C 100.5 150.34375 102.429688 149.085938 103.933594 148.144531 C 103.671875 146.722656 103.46875 145.253906 103.308594 143.753906 C 103.226562 143.792969 103.136719 143.824219 103.039062 143.832031 C 103.015625 143.832031 103 143.832031 102.976562 143.832031 C 102.5625 143.832031 102.210938 143.507812 102.179688 143.085938 C 101.171875 128.730469 109.460938 107.835938 109.8125 106.957031 C 109.976562 106.542969 110.4375 106.347656 110.851562 106.511719 C 110.867188 106.519531 110.875 106.527344 110.890625 106.535156 C 113.167969 101.589844 115.863281 96.6875 118.882812 91.933594 C 118.523438 91.707031 118.402344 91.230469 118.621094 90.863281 C 118.84375 90.464844 141.914062 51.128906 171.632812 44.429688 C 201.695312 37.652344 219.378906 54.101562 221.945312 56.699219 C 223.269531 56.449219 227.386719 55.816406 233.046875 56.179688 C 238.976562 56.253906 244.5625 57.625 249.742188 59.980469 C 259.878906 64.140625 271.820312 72.851562 280.46875 90.914062 C 280.65625 91.3125 280.488281 91.78125 280.097656 91.976562 C 282.484375 96.785156 284.441406 101.785156 285.933594 106.789062 C 285.9375 106.789062 285.945312 106.78125 285.953125 106.78125 C 286.382812 106.664062 286.820312 106.917969 286.933594 107.347656 C 287.179688 108.28125 293.007812 130.363281 287.890625 143.328125 C 287.761719 143.644531 287.46875 143.832031 287.144531 143.832031 C 287.070312 143.832031 286.992188 143.808594 286.917969 143.785156 C 286.082031 146.464844 285.113281 148.910156 284.050781 151.15625 C 286.261719 152.789062 289.160156 155 292.300781 157.613281 C 297.855469 162.226562 304.175781 168.089844 308.84375 174.164062 C 309.175781 173.917969 309.640625 173.945312 309.921875 174.261719 C 316.710938 181.964844 316.9375 189.28125 317.199219 197.746094 C 317.246094 199.246094 317.296875 200.796875 317.378906 202.398438 C 317.507812 204.777344 317.3125 206.9375 316.949219 208.878906 C 320.503906 208.042969 325.082031 209.0625 329.378906 211.734375 C 336.898438 216.414062 341.464844 224.492188 341.601562 233.34375 C 341.601562 233.507812 341.601562 233.675781 341.601562 233.839844 C 342.105469 234.15625 342.820312 234.636719 343.695312 235.285156 C 343.703125 235.277344 343.703125 235.269531 343.710938 235.261719 C 343.988281 234.925781 344.492188 234.871094 344.832031 235.148438 C 344.953125 235.246094 347.707031 237.503906 349.039062 238.945312 C 349.339844 239.265625 349.316406 239.765625 349 240.066406 C 350.222656 241.367188 351.460938 242.871094 352.644531 244.574219 C 353.003906 244.324219 353.503906 244.414062 353.75 244.777344 C 354 245.136719 359.832031 253.734375 360.179688 265.679688 C 360.292969 269.738281 359.839844 273.101562 359.214844 275.765625 C 365.574219 280.433594 375 289.757812 373.410156 303.359375 Z M 373.410156 303.359375 " fill-opacity="1" fill-rule="nonzero"/></g><g clip-path="url(#31515114a4)"><path fill="#d9d9d9" d="M 33.667969 283.074219 C 35.949219 283.8125 38.441406 284.226562 41.023438 284.460938 C 40.847656 288.75 41.054688 297.097656 44.46875 303.617188 C 44.46875 303.617188 40.113281 303.960938 38.019531 299.753906 L 37.46875 312.355469 L 34.761719 310.226562 C 30.03125 301.035156 31.539062 290.421875 33.667969 283.074219 Z M 25.085938 293.054688 C 25.085938 293.054688 18.878906 293.867188 17.785156 300.402344 C 17.785156 300.402344 11.675781 287.785156 14.460938 273.96875 C -0.015625 285.226562 7.78125 301.800781 8.046875 302.34375 C 6.527344 296.714844 11.644531 292.445312 11.644531 292.445312 C 9.046875 315.027344 21.640625 318.496094 28.6875 318.707031 C 24.449219 313.632812 20.445312 305.089844 25.085938 293.054688 Z M 143.535156 204.816406 C 143.738281 212.148438 143.074219 219.742188 140.582031 225.800781 C 139.859375 227.5625 138.925781 229.105469 137.867188 230.460938 C 137.851562 230.453125 137.84375 230.4375 137.828125 230.429688 C 137.445312 230.203125 136.957031 230.332031 136.738281 230.714844 C 136.667969 230.828125 130.007812 241.734375 107.367188 238.800781 C 84.011719 235.765625 70.941406 240.75 70.402344 240.960938 C 69.988281 241.117188 69.792969 241.585938 69.949219 242 C 70.070312 242.316406 70.371094 242.503906 70.695312 242.503906 C 70.792969 242.503906 70.890625 242.488281 70.988281 242.449219 C 71.117188 242.398438 84.152344 237.453125 106.90625 240.351562 C 104.851562 245.242188 102.625 249.21875 100.328125 252.425781 C 100.3125 252.417969 100.304688 252.402344 100.292969 252.394531 C 99.898438 252.183594 99.417969 252.339844 99.214844 252.726562 C 98.890625 253.335938 91.144531 267.570312 73.609375 264.316406 C 55.292969 260.914062 46.839844 262.738281 46.488281 262.8125 C 46.058594 262.910156 45.789062 263.339844 45.886719 263.769531 C 45.984375 264.195312 46.40625 264.476562 46.839844 264.371094 C 46.925781 264.355469 55.347656 262.570312 73.1875 265.859375 L 68.429688 280.359375 C 68.285156 280.320312 68.136719 280.304688 67.976562 280.351562 C 67.878906 280.378906 58.386719 283.351562 51.265625 283.226562 L 50.015625 283.203125 C 43.078125 283.105469 35.902344 283 30.832031 280.09375 C 30.445312 279.875 29.957031 280.011719 29.738281 280.394531 C 29.71875 280.425781 29.71875 280.460938 29.703125 280.5 C 26.082031 279.011719 23.753906 277.445312 22.730469 276.675781 C 22.90625 276.449219 22.964844 276.148438 22.84375 275.871094 C 22.816406 275.804688 20.007812 269.1875 20.992188 258.574219 C 22.054688 247.140625 28.152344 239.296875 28.40625 238.964844 C 28.679688 238.621094 28.617188 238.117188 28.273438 237.84375 C 28.25 237.828125 28.21875 237.820312 28.195312 237.808594 C 29.492188 236.164062 30.839844 234.726562 32.148438 233.492188 C 32.171875 233.523438 32.179688 233.554688 32.199219 233.578125 C 32.359375 233.742188 32.570312 233.824219 32.78125 233.824219 C 32.976562 233.824219 33.171875 233.75 33.328125 233.605469 C 34.667969 232.335938 37.574219 230.25 37.605469 230.234375 C 37.964844 229.980469 38.050781 229.480469 37.792969 229.121094 C 37.777344 229.097656 37.757812 229.089844 37.742188 229.066406 C 38.683594 228.449219 39.457031 228.007812 39.992188 227.714844 C 38.75 244.703125 46.117188 256.59375 46.433594 257.089844 C 46.585938 257.332031 46.847656 257.46875 47.113281 257.46875 C 47.253906 257.46875 47.40625 257.429688 47.542969 257.347656 C 47.917969 257.113281 48.023438 256.617188 47.789062 256.25 C 47.714844 256.128906 40.285156 244.113281 41.617188 227.480469 C 42.28125 219.199219 47.042969 211.90625 54.367188 207.976562 C 59.019531 205.476562 63.800781 204.929688 66.914062 206.515625 C 68.300781 216.535156 71.167969 227.75 71.328125 228.351562 C 71.417969 228.714844 71.742188 228.953125 72.101562 228.953125 C 72.167969 228.953125 72.238281 228.949219 72.296875 228.933594 C 72.726562 228.820312 72.984375 228.390625 72.871094 227.960938 C 72.816406 227.773438 67.933594 208.632812 67.773438 198.101562 C 67.625 187.511719 68.148438 179.9375 76.558594 171.546875 C 76.875 171.238281 76.875 170.726562 76.558594 170.417969 C 76.527344 170.386719 76.484375 170.371094 76.445312 170.339844 C 82.777344 163.09375 91.703125 156.347656 98.320312 151.824219 C 99.507812 162.617188 107.402344 195.957031 143.535156 204.816406 Z M 30.230469 272.835938 C 30.238281 272.761719 31.28125 265.507812 38.683594 263.859375 C 39.109375 263.761719 39.382812 263.332031 39.292969 262.902344 C 39.195312 262.472656 38.773438 262.203125 38.335938 262.300781 C 29.859375 264.1875 28.65625 272.542969 28.648438 272.628906 C 28.589844 273.0625 28.898438 273.46875 29.332031 273.523438 C 29.371094 273.53125 29.410156 273.53125 29.4375 273.53125 C 29.828125 273.53125 30.167969 273.238281 30.230469 272.835938 Z M 109.285156 198.863281 C 109.277344 198.425781 108.925781 198.078125 108.488281 198.078125 C 108.480469 198.078125 108.480469 198.078125 108.472656 198.078125 C 108.027344 198.085938 107.683594 198.449219 107.691406 198.890625 C 107.691406 198.996094 107.707031 209.039062 95.640625 213.871094 C 99.167969 209.082031 106.410156 196.808594 103.769531 179.269531 C 103.699219 178.832031 103.292969 178.539062 102.859375 178.597656 C 102.421875 178.667969 102.121094 179.074219 102.1875 179.507812 C 105.492188 201.472656 92.808594 214.847656 92.679688 214.984375 C 92.425781 215.25 92.378906 215.648438 92.566406 215.957031 C 92.71875 216.195312 92.976562 216.339844 93.253906 216.339844 C 93.328125 216.339844 93.402344 216.332031 93.480469 216.308594 C 109.308594 211.628906 109.285156 198.988281 109.285156 198.863281 Z M 225.867188 154.40625 C 225.867188 154.40625 225.964844 154.332031 226.128906 154.171875 C 226.070312 154.113281 226.023438 154.039062 225.984375 153.953125 C 225.910156 154.25 225.867188 154.40625 225.867188 154.40625 Z M 195.675781 165.261719 C 192.054688 161.234375 183.40625 150.335938 182.1875 136.914062 C 181.675781 131.285156 181.570312 126.035156 181.660156 121.558594 C 173.648438 123.792969 164.082031 126.058594 154.273438 127.480469 C 164.496094 154.566406 181.785156 163.152344 195.675781 165.261719 Z M 211.164062 90.125 C 211.503906 89.847656 212.007812 89.898438 212.285156 90.238281 C 212.746094 90.800781 223.246094 103.652344 227.085938 113.648438 C 231.8125 112.285156 241.039062 109.378906 250.96875 104.886719 C 242.667969 82.394531 228.636719 70.96875 228.449219 70.816406 C 228.101562 70.539062 228.046875 70.042969 228.320312 69.695312 C 228.597656 69.351562 229.09375 69.296875 229.441406 69.570312 C 229.628906 69.71875 243.929688 81.371094 252.414062 104.214844 C 261.183594 100.136719 270.335938 94.835938 277.3125 88.28125 C 267.121094 69.273438 253.128906 62.050781 242.914062 59.363281 C 231.238281 56.289062 221.914062 58.308594 221.824219 58.332031 C 221.539062 58.398438 221.242188 58.300781 221.054688 58.082031 C 220.882812 57.886719 203.449219 38.875 171.964844 45.972656 C 166.777344 47.136719 161.800781 49.335938 157.113281 52.152344 C 152.113281 55.320312 147.070312 59.265625 142.179688 63.796875 C 137.964844 67.828125 134.222656 72.058594 131.0625 75.960938 C 133.539062 79.488281 136.992188 83.816406 141.585938 88.3125 C 142.40625 84.570312 142.96875 82.328125 142.992188 82.230469 C 143.097656 81.800781 143.542969 81.542969 143.964844 81.648438 C 144.390625 81.761719 144.648438 82.191406 144.542969 82.621094 C 144.519531 82.726562 143.859375 85.324219 142.941406 89.597656 C 145.085938 91.617188 147.464844 93.648438 150.074219 95.636719 C 152.023438 79.722656 157.867188 61.289062 171.859375 54.492188 C 196.238281 42.644531 214.695312 65.640625 214.875 65.871094 C 215.148438 66.21875 215.085938 66.722656 214.742188 66.996094 C 214.394531 67.265625 213.890625 67.207031 213.617188 66.859375 C 213.445312 66.632812 195.765625 44.652344 172.558594 55.929688 C 159.039062 62.5 153.460938 81.085938 151.640625 96.800781 C 159.628906 102.621094 169.722656 107.964844 182.222656 111.3125 C 182.472656 108.648438 182.710938 107.105469 182.71875 107.0625 C 182.789062 106.625 183.195312 106.332031 183.632812 106.390625 C 184.066406 106.457031 184.367188 106.867188 184.300781 107.300781 C 184.292969 107.347656 184.050781 108.949219 183.796875 111.707031 C 186.144531 112.292969 188.570312 112.8125 191.082031 113.25 C 190.78125 101.859375 192.226562 90.757812 192.25 90.605469 C 192.308594 90.171875 192.707031 89.863281 193.144531 89.921875 C 193.582031 89.980469 193.890625 90.382812 193.832031 90.816406 C 193.816406 90.921875 193.085938 96.53125 192.777344 103.800781 L 214.039062 95.054688 C 212.308594 92.746094 211.097656 91.261719 211.066406 91.222656 C 210.773438 90.90625 210.820312 90.402344 211.164062 90.125 Z M 233.007812 123.027344 C 231.59375 122.882812 230.179688 122.703125 228.769531 122.492188 C 228.882812 123.191406 228.972656 123.890625 229.027344 124.585938 C 230.019531 136.3125 227.296875 148.730469 226.257812 152.921875 C 227.085938 152.042969 232.398438 146.074219 233.671875 136.785156 C 234.394531 131.5 233.777344 126.554688 233.007812 123.027344 Z M 256.464844 129.039062 C 256.261719 126.960938 255.988281 124.953125 255.679688 122.980469 C 248.867188 123.613281 241.746094 123.785156 234.695312 123.183594 C 235.046875 124.914062 235.363281 126.949219 235.507812 129.175781 C 237.628906 137.484375 242.566406 160.246094 237.839844 176.617188 C 241.890625 173.441406 259.277344 158.011719 256.464844 129.039062 Z M 373.410156 303.359375 C 371.039062 323.625 349.46875 327.039062 349.46875 327.039062 C 349.46875 327.039062 351.671875 322.277344 351.847656 317.496094 C 354.519531 312.84375 356.949219 307.109375 356.566406 302.101562 C 355.894531 293.410156 349.941406 288.402344 347.863281 286.90625 C 348.128906 286.726562 348.382812 286.53125 348.632812 286.328125 C 348.972656 286.046875 349.023438 285.542969 348.746094 285.203125 C 348.46875 284.867188 347.960938 284.8125 347.625 285.09375 C 342.601562 289.1875 334.722656 288.796875 327.765625 288.449219 L 326.765625 288.402344 C 319.667969 288.058594 310.371094 284.496094 310.273438 284.460938 C 310.109375 284.398438 309.941406 284.40625 309.785156 284.445312 L 305.96875 269.667969 C 324.003906 267.515625 332.304688 269.84375 332.390625 269.863281 C 332.464844 269.886719 332.539062 269.894531 332.613281 269.894531 C 332.960938 269.894531 333.277344 269.667969 333.382812 269.324219 C 333.503906 268.902344 333.261719 268.457031 332.839844 268.328125 C 332.496094 268.230469 324.167969 265.875 305.683594 268.089844 C 287.964844 270.210938 281.152344 255.511719 280.875 254.878906 C 280.691406 254.472656 280.21875 254.292969 279.820312 254.472656 C 279.78125 254.488281 279.757812 254.515625 279.730469 254.53125 C 277.644531 251.167969 275.679688 247.058594 273.949219 242.03125 C 296.859375 240.585938 309.574219 246.363281 309.703125 246.425781 C 309.816406 246.476562 309.929688 246.5 310.042969 246.5 C 310.34375 246.5 310.628906 246.328125 310.765625 246.042969 C 310.953125 245.640625 310.777344 245.167969 310.378906 244.980469 C 309.851562 244.730469 297.132812 238.929688 273.625 240.449219 C 250.992188 241.917969 244.925781 230.664062 244.832031 230.496094 C 244.636719 230.105469 244.15625 229.949219 243.765625 230.144531 C 243.726562 230.160156 243.703125 230.1875 243.675781 230.210938 C 242.71875 228.804688 241.90625 227.230469 241.304688 225.453125 C 235.25 207.5625 245.253906 177.914062 245.253906 177.914062 L 248.054688 168.039062 C 253.917969 159.886719 259.8125 146.933594 258.058594 128.882812 C 257.855469 126.804688 257.585938 124.789062 257.277344 122.824219 C 268.929688 121.609375 279.570312 119.121094 287.234375 116.953125 C 288.4375 124.589844 289.296875 135.371094 286.382812 142.730469 C 286.21875 143.144531 286.421875 143.605469 286.835938 143.769531 C 286.859375 143.777344 286.878906 143.777344 286.902344 143.785156 C 286.066406 146.464844 285.097656 148.910156 284.035156 151.15625 C 284.035156 151.15625 276.921875 170.394531 265.300781 181.21875 C 266.023438 181.007812 287.496094 174.511719 292.285156 157.613281 C 297.839844 162.226562 304.164062 168.089844 308.828125 174.164062 C 308.8125 174.179688 308.792969 174.179688 308.777344 174.195312 C 308.445312 174.488281 308.414062 174.992188 308.707031 175.324219 C 315.113281 182.59375 315.324219 189.300781 315.589844 197.800781 C 315.632812 199.3125 315.6875 200.871094 315.769531 202.488281 C 315.90625 205.09375 315.640625 207.433594 315.175781 209.488281 C 314.785156 209.679688 314.617188 210.152344 314.796875 210.542969 C 314.820312 210.582031 314.851562 210.613281 314.875 210.648438 C 313.390625 215.957031 310.652344 219.011719 310.605469 219.050781 C 310.304688 219.371094 310.328125 219.878906 310.652344 220.179688 C 310.800781 220.320312 310.996094 220.390625 311.191406 220.390625 C 311.410156 220.390625 311.621094 220.296875 311.78125 220.132812 C 311.960938 219.9375 315.015625 216.550781 316.535156 210.648438 C 319.734375 209.527344 324.230469 210.429688 328.503906 213.09375 C 335.558594 217.492188 339.847656 225.070312 339.976562 233.375 C 340.238281 250.0625 332.050781 261.570312 331.96875 261.691406 C 331.710938 262.042969 331.785156 262.546875 332.148438 262.804688 C 332.292969 262.910156 332.457031 262.953125 332.613281 262.953125 C 332.863281 262.953125 333.105469 262.84375 333.261719 262.625 C 333.609375 262.148438 341.675781 250.804688 341.570312 233.839844 C 342.078125 234.15625 342.792969 234.636719 343.664062 235.285156 C 343.410156 235.625 343.453125 236.113281 343.792969 236.382812 C 343.824219 236.40625 346.585938 238.671875 347.84375 240.027344 C 348 240.199219 348.210938 240.28125 348.429688 240.28125 C 348.625 240.28125 348.820312 240.214844 348.972656 240.074219 C 348.972656 240.074219 348.972656 240.066406 348.980469 240.066406 C 350.199219 241.367188 351.441406 242.871094 352.621094 244.574219 C 352.261719 244.820312 352.171875 245.328125 352.417969 245.6875 C 352.660156 246.035156 358.238281 254.253906 358.5625 265.730469 C 358.863281 276.332031 355.054688 282.140625 355.015625 282.203125 C 354.765625 282.570312 354.863281 283.066406 355.234375 283.308594 C 355.371094 283.398438 355.527344 283.445312 355.679688 283.445312 C 355.933594 283.445312 356.191406 283.324219 356.339844 283.089844 C 356.445312 282.933594 358.09375 280.425781 359.191406 275.765625 C 365.574219 280.433594 375 289.757812 373.410156 303.359375 Z M 290.367188 219.28125 C 290.34375 219.222656 288.046875 213.289062 290.410156 200.683594 C 290.492188 200.246094 290.207031 199.832031 289.769531 199.75 C 289.339844 199.667969 288.921875 199.953125 288.835938 200.390625 C 287.332031 208.421875 287.648438 213.808594 288.136719 216.859375 C 275.199219 211.4375 275.824219 201.058594 275.859375 200.601562 C 275.898438 200.164062 275.566406 199.78125 275.128906 199.742188 C 274.6875 199.710938 274.300781 200.035156 274.273438 200.472656 C 274.265625 200.59375 273.496094 212.289062 287.273438 218.222656 C 281.296875 216.671875 266.261719 211.71875 261.242188 200.214844 C 261.070312 199.808594 260.59375 199.628906 260.1875 199.800781 C 259.78125 199.976562 259.601562 200.449219 259.773438 200.855469 C 266.398438 216.039062 288.542969 220.199219 289.484375 220.375 C 289.53125 220.382812 289.582031 220.390625 289.628906 220.390625 C 289.867188 220.390625 290.09375 220.285156 290.246094 220.09375 C 290.433594 219.863281 290.476562 219.554688 290.367188 219.28125 Z M 350.015625 279.257812 C 350.011719 279.175781 349.347656 270.753906 341.015625 268.328125 C 340.59375 268.207031 340.148438 268.449219 340.023438 268.871094 C 339.902344 269.292969 340.140625 269.738281 340.5625 269.863281 C 347.804688 271.972656 348.398438 279.070312 348.421875 279.371094 C 348.453125 279.792969 348.796875 280.117188 349.21875 280.117188 C 349.234375 280.117188 349.257812 280.117188 349.273438 280.117188 C 349.714844 280.078125 350.046875 279.695312 350.015625 279.257812 Z M 135.933594 153.714844 C 138.679688 175.316406 148.269531 191.664062 150.144531 194.691406 C 148.359375 194.496094 145.679688 193.820312 142.480469 192.597656 C 129.699219 187.738281 108.675781 174.226562 103.910156 148.128906 C 103.648438 146.707031 103.445312 145.238281 103.285156 143.742188 C 103.582031 143.605469 103.785156 143.304688 103.761719 142.957031 C 103.308594 136.53125 104.84375 128.566406 106.644531 121.8125 C 114.097656 127.015625 124.414062 128.925781 135.554688 128.941406 C 134.992188 137.449219 134.960938 146.042969 135.933594 153.714844 Z M 124.808594 177.296875 C 112.003906 161.632812 113.628906 138.992188 113.652344 138.765625 C 113.6875 138.328125 113.359375 137.9375 112.921875 137.90625 C 112.484375 137.871094 112.09375 138.199219 112.0625 138.636719 C 112.046875 138.871094 110.355469 162.136719 123.574219 178.304688 C 123.730469 178.5 123.964844 178.597656 124.191406 178.597656 C 124.371094 178.597656 124.542969 178.539062 124.695312 178.417969 C 125.03125 178.140625 125.085938 177.636719 124.808594 177.296875 Z M 136.851562 145.15625 C 136.917969 144.378906 136.992188 143.605469 137.089844 142.828125 C 137.089844 142.828125 140.597656 158.96875 147.621094 160.367188 C 147.621094 160.367188 139.589844 144.335938 145.414062 128.519531 C 142.644531 128.753906 139.882812 128.90625 137.167969 128.941406 C 136.789062 134.398438 136.648438 139.902344 136.851562 145.15625 Z M 249.726562 59.972656 C 244.546875 57.617188 238.960938 56.246094 233.03125 56.171875 C 236.078125 56.367188 239.574219 56.839844 243.328125 57.828125 C 245.339844 58.351562 247.492188 59.054688 249.726562 59.972656 Z M 183.253906 121.535156 C 188.523438 140.730469 196.601562 146.660156 200.101562 148.390625 C 198.292969 144.410156 194.042969 134.476562 192.25 125.300781 C 191.84375 123.207031 191.558594 120.964844 191.363281 118.660156 C 188.945312 119.429688 186.226562 120.261719 183.261719 121.105469 C 183.253906 121.25 183.253906 121.386719 183.253906 121.535156 Z M 183.253906 121.535156 " fill-opacity="1" fill-rule="nonzero"/></g><path fill="#ffffff" d="M 151.640625 96.816406 C 159.628906 102.636719 169.722656 107.980469 182.222656 111.328125 C 181.988281 113.835938 181.742188 117.335938 181.652344 121.503906 C 181.652344 121.511719 181.652344 121.519531 181.652344 121.519531 C 181.652344 121.527344 181.652344 121.535156 181.652344 121.550781 C 173.644531 123.785156 164.074219 126.050781 154.269531 127.472656 C 153.484375 125.398438 152.730469 123.222656 152.039062 120.917969 L 151.890625 120.429688 C 150.925781 117.273438 150.375 107.738281 151.640625 96.816406 Z M 150.082031 95.65625 C 147.472656 93.671875 145.09375 91.636719 142.945312 89.621094 C 141.109375 98.15625 138.21875 113.390625 137.160156 128.949219 C 139.875 128.914062 142.636719 128.761719 145.410156 128.527344 C 146.46875 125.644531 148.003906 122.769531 150.121094 120 C 149.21875 115.867188 148.773438 106.332031 150.082031 95.65625 Z M 111.28125 107.542969 C 111.234375 107.65625 108.757812 113.902344 106.644531 121.820312 C 114.097656 127.023438 124.414062 128.933594 135.554688 128.949219 C 136.65625 112.644531 139.753906 96.710938 141.585938 88.324219 C 137 83.839844 133.539062 79.503906 131.0625 75.972656 C 124.175781 84.496094 120.070312 91.488281 119.972656 91.652344 C 119.757812 92.035156 119.265625 92.164062 118.882812 91.945312 C 118.875 91.9375 118.867188 91.929688 118.851562 91.925781 C 115.835938 96.679688 113.140625 101.589844 110.859375 106.527344 C 111.257812 106.707031 111.445312 107.144531 111.28125 107.542969 Z M 191.363281 118.660156 C 191.210938 116.882812 191.121094 115.085938 191.074219 113.277344 C 188.5625 112.84375 186.136719 112.324219 183.789062 111.734375 C 183.570312 114.097656 183.34375 117.304688 183.261719 121.105469 C 186.226562 120.257812 188.945312 119.421875 191.363281 118.660156 Z M 279.722656 92.050781 C 279.421875 92.050781 279.136719 91.886719 279 91.601562 C 278.449219 90.457031 277.886719 89.355469 277.3125 88.289062 C 270.328125 94.835938 261.175781 100.144531 252.414062 104.222656 C 254.46875 109.761719 256.183594 115.964844 257.269531 122.824219 C 268.921875 121.609375 279.5625 119.121094 287.226562 116.953125 C 286.390625 111.644531 285.390625 107.84375 285.367188 107.753906 C 285.253906 107.332031 285.503906 106.910156 285.910156 106.78125 C 284.425781 101.777344 282.46875 96.777344 280.074219 91.96875 C 280.074219 91.96875 280.066406 91.976562 280.066406 91.976562 C 279.957031 92.03125 279.84375 92.050781 279.722656 92.050781 Z M 231.472656 117.710938 C 231.308594 117.304688 231.503906 116.839844 231.910156 116.671875 C 232.316406 116.507812 232.78125 116.703125 232.949219 117.109375 C 233.023438 117.296875 233.949219 119.609375 234.6875 123.183594 C 241.742188 123.785156 248.859375 123.613281 255.671875 122.980469 C 254.613281 116.3125 252.957031 110.28125 250.960938 104.886719 C 241.03125 109.378906 231.8125 112.285156 227.078125 113.648438 C 227.214844 113.992188 227.332031 114.332031 227.453125 114.671875 C 227.597656 115.085938 227.378906 115.535156 226.964844 115.679688 C 227.761719 117.914062 228.402344 120.210938 228.761719 122.492188 C 230.171875 122.703125 231.585938 122.882812 233 123.027344 C 232.308594 119.796875 231.488281 117.75 231.472656 117.710938 Z M 231.472656 117.710938 " fill-opacity="1" fill-rule="nonzero"/></svg>