<svg xmlns="http://www.w3.org/2000/svg" xmlns:xlink="http://www.w3.org/1999/xlink" width="500" zoomAndPan="magnify" viewBox="0 0 375 374.999991" height="500" preserveAspectRatio="xMidYMid meet" version="1.0"><defs><clipPath id="ad7e336bf6"><path d="M 160.589844 232.839844 L 172.589844 232.839844 L 172.589844 239.589844 L 160.589844 239.589844 Z M 160.589844 232.839844 " clip-rule="nonzero"/></clipPath><clipPath id="40a9987808"><path d="M 160.589844 233 L 172 233 L 172 239.589844 L 160.589844 239.589844 Z M 160.589844 233 " clip-rule="nonzero"/></clipPath><clipPath id="2c79206022"><path d="M 10 37.5 L 368 37.5 L 368 329 L 10 329 Z M 10 37.5 " clip-rule="nonzero"/></clipPath></defs><g clip-path="url(#ad7e336bf6)"><path fill="#353535" d="M 172.617188 236.753906 C 171.867188 236.964844 171.632812 236.386719 171.382812 236.054688 C 170.957031 235.5 170.464844 235.429688 169.804688 235.5 C 166.628906 235.816406 163.789062 236.761719 161.609375 239.066406 C 161.347656 239.347656 160.988281 239.441406 160.621094 239.53125 L 160.617188 239.53125 C 161.109375 238.171875 162.273438 237.332031 163.476562 236.636719 C 165.316406 235.578125 167.285156 234.753906 169.554688 234.929688 C 170.320312 234.988281 170.886719 234.847656 170.96875 233.9375 C 171.019531 233.390625 171.503906 233.054688 172.289062 232.886719 C 171.464844 234.308594 172.046875 235.503906 172.617188 236.753906 Z M 160.589844 239.5625 L 160.621094 239.53125 C 160.621094 239.53125 160.617188 239.53125 160.617188 239.53125 C 160.621094 239.53125 160.589844 239.5625 160.589844 239.5625 Z M 160.589844 239.5625 " fill-opacity="1" fill-rule="nonzero"/></g><g clip-path="url(#40a9987808)"><path fill="#ffffff" d="M 164.453125 236.445312 C 164.460938 236.445312 164.472656 236.445312 164.480469 236.441406 C 164.480469 236.457031 164.480469 236.476562 164.480469 236.492188 C 164.476562 236.492188 164.472656 236.492188 164.464844 236.496094 C 164.460938 236.480469 164.457031 236.464844 164.453125 236.445312 Z M 163.902344 236.507812 C 163.957031 236.503906 164 236.503906 164.054688 236.503906 C 163.964844 236.457031 163.953125 236.457031 163.902344 236.507812 Z M 164.207031 237.019531 C 164.207031 237.023438 164.214844 237.03125 164.222656 237.035156 C 164.230469 237.027344 164.242188 237.023438 164.25 237.015625 C 164.234375 237.003906 164.230469 237 164.222656 236.996094 C 164.214844 237.003906 164.207031 237.007812 164.207031 237.019531 Z M 164.015625 237.054688 C 164.019531 237.054688 164.035156 237.058594 164.035156 237.058594 C 164.039062 237.046875 164.039062 237.027344 164.042969 237.015625 C 164.039062 237.015625 164.03125 237.015625 164.023438 237.007812 C 164.019531 237.023438 164.015625 237.042969 164.015625 237.054688 Z M 164.019531 236.875 C 164.011719 236.875 164 236.875 163.992188 236.875 C 163.996094 236.894531 164 236.914062 164 236.9375 C 164.011719 236.9375 164.015625 236.9375 164.023438 236.929688 C 164.023438 236.917969 164.023438 236.894531 164.019531 236.875 Z M 166.09375 235.488281 C 166.097656 235.507812 166.105469 235.53125 166.113281 235.550781 C 166.117188 235.550781 166.121094 235.550781 166.125 235.542969 C 166.121094 235.523438 166.113281 235.503906 166.105469 235.480469 C 166.101562 235.484375 166.097656 235.488281 166.09375 235.488281 Z M 163.714844 237.25 C 163.675781 237.253906 163.652344 237.253906 163.628906 237.257812 C 163.652344 237.285156 163.683594 237.296875 163.714844 237.25 Z M 166.53125 236.074219 C 166.601562 236.082031 166.601562 236.082031 166.636719 236.058594 C 166.625 236.054688 166.617188 236.046875 166.605469 236.050781 C 166.585938 236.050781 166.566406 236.058594 166.53125 236.074219 Z M 165.351562 236.152344 C 165.390625 236.15625 165.425781 236.160156 165.464844 236.164062 C 165.425781 236.089844 165.421875 236.085938 165.351562 236.152344 Z M 164.824219 236.28125 C 164.851562 236.285156 164.882812 236.285156 164.90625 236.289062 C 164.949219 236.292969 164.945312 236.265625 164.9375 236.222656 C 164.902344 236.257812 164.847656 236.214844 164.824219 236.28125 Z M 164.574219 236.359375 C 164.582031 236.363281 164.589844 236.371094 164.59375 236.375 C 164.609375 236.363281 164.617188 236.347656 164.628906 236.335938 C 164.628906 236.335938 164.617188 236.324219 164.613281 236.320312 C 164.601562 236.335938 164.589844 236.34375 164.574219 236.359375 Z M 165.234375 236.464844 C 165.25 236.421875 165.253906 236.394531 165.269531 236.351562 C 165.210938 236.398438 165.210938 236.398438 165.234375 236.464844 Z M 161.683594 238.871094 C 161.726562 238.871094 161.738281 238.832031 161.734375 238.796875 C 161.6875 238.792969 161.648438 238.785156 161.59375 238.785156 C 161.601562 238.847656 161.644531 238.871094 161.683594 238.871094 Z M 161.757812 238.0625 C 161.761719 238.070312 161.765625 238.078125 161.765625 238.085938 C 161.785156 238.074219 161.804688 238.070312 161.820312 238.0625 C 161.816406 238.050781 161.804688 238.039062 161.804688 238.039062 C 161.792969 238.046875 161.773438 238.050781 161.757812 238.0625 Z M 166.703125 236.03125 C 166.703125 236.039062 166.722656 236.050781 166.730469 236.058594 C 166.738281 236.050781 166.75 236.039062 166.753906 236.03125 C 166.753906 236.023438 166.742188 236.011719 166.734375 235.996094 C 166.71875 236.011719 166.703125 236.023438 166.703125 236.03125 Z M 161.464844 239.140625 C 161.472656 239.140625 161.484375 239.140625 161.488281 239.144531 C 161.492188 239.125 161.496094 239.101562 161.496094 239.085938 C 161.472656 239.089844 161.464844 239.097656 161.457031 239.109375 C 161.457031 239.117188 161.464844 239.132812 161.464844 239.140625 Z M 161.277344 238.679688 C 161.296875 238.691406 161.316406 238.695312 161.339844 238.703125 C 161.339844 238.695312 161.347656 238.691406 161.347656 238.679688 C 161.328125 238.675781 161.308594 238.667969 161.285156 238.664062 C 161.28125 238.667969 161.277344 238.671875 161.277344 238.679688 Z M 161 239.238281 C 161.027344 239.191406 161.046875 239.152344 161.078125 239.113281 C 161 239.125 160.988281 239.144531 161 239.238281 Z M 162.976562 237.316406 C 162.980469 237.332031 162.988281 237.34375 162.992188 237.359375 C 162.992188 237.359375 163 237.359375 163.011719 237.359375 C 163.007812 237.339844 163 237.320312 162.996094 237.308594 C 162.992188 237.3125 162.980469 237.3125 162.976562 237.316406 Z M 162.800781 237.699219 C 162.820312 237.644531 162.820312 237.644531 162.769531 237.617188 C 162.78125 237.648438 162.789062 237.675781 162.800781 237.699219 Z M 163.128906 237.738281 C 163.136719 237.707031 163.148438 237.679688 163.164062 237.636719 C 163.125 237.65625 163.09375 237.671875 163.058594 237.683594 C 163.089844 237.703125 163.105469 237.722656 163.128906 237.738281 Z M 162.648438 237.964844 C 162.652344 237.96875 162.652344 237.976562 162.660156 237.984375 C 162.679688 237.972656 162.699219 237.964844 162.71875 237.957031 C 162.710938 237.949219 162.707031 237.945312 162.707031 237.9375 C 162.6875 237.945312 162.667969 237.957031 162.648438 237.964844 Z M 162.265625 237.824219 C 162.273438 237.839844 162.273438 237.859375 162.277344 237.878906 C 162.285156 237.878906 162.292969 237.871094 162.300781 237.871094 C 162.296875 237.855469 162.292969 237.835938 162.292969 237.816406 C 162.28125 237.816406 162.277344 237.824219 162.265625 237.824219 Z M 162.53125 237.714844 C 162.527344 237.714844 162.519531 237.726562 162.515625 237.734375 C 162.539062 237.746094 162.566406 237.757812 162.601562 237.777344 C 162.59375 237.714844 162.570312 237.710938 162.53125 237.714844 Z M 171.128906 234.359375 C 171.128906 234.347656 171.132812 234.332031 171.132812 234.3125 C 171.121094 234.3125 171.113281 234.3125 171.109375 234.3125 C 171.109375 234.328125 171.109375 234.339844 171.109375 234.355469 C 171.113281 234.355469 171.121094 234.355469 171.128906 234.359375 Z M 171.5 235.125 C 171.5 235.136719 171.507812 235.148438 171.515625 235.160156 C 171.523438 235.15625 171.535156 235.144531 171.554688 235.136719 C 171.539062 235.121094 171.527344 235.113281 171.519531 235.109375 C 171.515625 235.105469 171.5 235.117188 171.5 235.125 Z M 171.417969 234.847656 C 171.40625 234.875 171.402344 234.902344 171.460938 234.921875 C 171.449219 234.886719 171.445312 234.863281 171.441406 234.84375 C 171.429688 234.84375 171.421875 234.847656 171.417969 234.847656 Z M 171.410156 234.488281 C 171.382812 234.496094 171.351562 234.503906 171.3125 234.511719 C 171.355469 234.554688 171.386719 234.5625 171.410156 234.515625 C 171.417969 234.515625 171.410156 234.503906 171.410156 234.488281 Z M 170.996094 235.535156 C 171.027344 235.53125 171.046875 235.53125 171.074219 235.53125 C 171.066406 235.511719 171.0625 235.496094 171.058594 235.464844 C 171.035156 235.496094 171.019531 235.507812 170.996094 235.535156 Z M 171.109375 234.523438 C 171.167969 234.539062 171.210938 234.53125 171.230469 234.457031 C 171.109375 234.4375 171.109375 234.4375 171.109375 234.523438 Z M 171.703125 234.308594 C 171.703125 234.324219 171.703125 234.332031 171.703125 234.347656 C 171.710938 234.359375 171.714844 234.371094 171.71875 234.382812 C 171.726562 234.382812 171.730469 234.378906 171.734375 234.378906 C 171.730469 234.355469 171.730469 234.332031 171.726562 234.3125 C 171.71875 234.308594 171.710938 234.308594 171.703125 234.308594 Z M 171.765625 235.042969 C 171.769531 235.046875 171.773438 235.054688 171.777344 235.0625 C 171.796875 235.046875 171.816406 235.03125 171.835938 235.015625 C 171.832031 235.011719 171.824219 235.003906 171.816406 235 C 171.804688 235.011719 171.785156 235.027344 171.765625 235.042969 Z M 171.582031 233.929688 C 171.582031 233.933594 171.582031 233.941406 171.582031 233.945312 C 171.601562 233.945312 171.625 233.945312 171.664062 233.945312 C 171.636719 233.929688 171.625 233.917969 171.617188 233.917969 C 171.605469 233.917969 171.59375 233.929688 171.582031 233.929688 Z M 167.59375 235.558594 C 167.605469 235.558594 167.609375 235.558594 167.621094 235.5625 C 167.621094 235.550781 167.625 235.53125 167.625 235.515625 C 167.621094 235.515625 167.609375 235.515625 167.605469 235.511719 C 167.601562 235.527344 167.601562 235.542969 167.59375 235.558594 Z M 171.808594 235.898438 C 171.8125 235.898438 171.824219 235.898438 171.828125 235.898438 C 171.832031 235.871094 171.832031 235.839844 171.835938 235.8125 C 171.828125 235.8125 171.816406 235.8125 171.808594 235.8125 C 171.808594 235.84375 171.808594 235.871094 171.808594 235.898438 Z M 171.363281 234.179688 C 171.390625 234.207031 171.410156 234.222656 171.441406 234.25 C 171.445312 234.183594 171.425781 234.175781 171.363281 234.179688 Z M 168.113281 235.03125 C 168.109375 235.066406 168.109375 235.097656 168.179688 235.125 C 168.160156 235.082031 168.148438 235.054688 168.132812 235.027344 C 168.128906 235.03125 168.125 235.03125 168.113281 235.03125 Z M 168.003906 235.382812 C 168.015625 235.394531 168.03125 235.402344 168.046875 235.410156 C 168.046875 235.410156 168.054688 235.398438 168.066406 235.386719 C 168.046875 235.378906 168.035156 235.371094 168.015625 235.371094 C 168.015625 235.367188 168.007812 235.378906 168.003906 235.382812 Z M 167.988281 235.183594 C 167.992188 235.148438 167.996094 235.132812 168.003906 235.09375 C 167.953125 235.132812 167.949219 235.148438 167.988281 235.183594 Z M 168.21875 235.617188 C 168.230469 235.640625 168.242188 235.65625 168.257812 235.679688 C 168.273438 235.65625 168.28125 235.632812 168.296875 235.613281 C 168.292969 235.609375 168.285156 235.605469 168.285156 235.601562 C 168.261719 235.601562 168.238281 235.609375 168.21875 235.617188 Z M 167.5625 235.265625 C 167.589844 235.277344 167.589844 235.332031 167.660156 235.296875 C 167.625 235.273438 167.59375 235.261719 167.570312 235.246094 C 167.566406 235.253906 167.5625 235.261719 167.5625 235.265625 Z M 168.265625 235.042969 C 168.273438 235.046875 168.277344 235.054688 168.28125 235.058594 C 168.304688 235.042969 168.335938 235.03125 168.378906 235.011719 C 168.34375 235 168.316406 234.980469 168.304688 234.988281 C 168.285156 235 168.28125 235.019531 168.265625 235.042969 Z M 170.8125 234.570312 C 170.8125 234.574219 170.8125 234.585938 170.8125 234.589844 C 170.832031 234.589844 170.851562 234.589844 170.871094 234.589844 C 170.871094 234.585938 170.871094 234.582031 170.871094 234.574219 C 170.851562 234.574219 170.832031 234.574219 170.8125 234.570312 Z M 169.554688 235.386719 C 169.609375 235.402344 169.636719 235.410156 169.671875 235.421875 C 169.648438 235.386719 169.625 235.367188 169.554688 235.386719 Z M 169.742188 235.109375 C 169.800781 235.042969 169.800781 235.042969 169.722656 235.03125 C 169.726562 235.054688 169.730469 235.070312 169.742188 235.109375 Z M 168.726562 235.398438 C 168.757812 235.410156 168.777344 235.421875 168.804688 235.429688 C 168.808594 235.398438 168.816406 235.371094 168.820312 235.34375 C 168.816406 235.339844 168.808594 235.339844 168.804688 235.332031 C 168.777344 235.351562 168.757812 235.371094 168.726562 235.398438 Z M 168.726562 235.398438 " fill-opacity="1" fill-rule="nonzero"/></g><g clip-path="url(#2c79206022)"><path fill="#d4c8b7" d="M 367.519531 193.410156 C 365.878906 265.019531 338.160156 300.917969 337.882812 301.277344 C 337.699219 301.507812 337.445312 301.628906 337.179688 301.652344 C 337.0625 301.828125 337.011719 301.929688 337.011719 301.929688 C 337.011719 301.929688 337.019531 301.828125 337.035156 301.652344 C 336.835938 301.636719 336.636719 301.574219 336.464844 301.445312 C 336.023438 301.09375 335.945312 300.457031 336.296875 300.011719 C 336.328125 299.972656 336.640625 299.566406 337.179688 298.792969 C 337.363281 293.875 337.433594 283.820312 335.722656 273.582031 C 335.4375 274.691406 335.140625 275.773438 334.832031 276.828125 C 333.140625 284.953125 330.203125 293.527344 325.191406 300.871094 C 317.214844 312.574219 311.054688 319.035156 307.367188 319.546875 C 307.199219 319.570312 307.046875 319.578125 306.898438 319.578125 C 306.1875 319.578125 305.78125 319.316406 305.628906 319.195312 C 305.191406 318.835938 305.136719 318.191406 305.496094 317.761719 C 305.652344 317.578125 305.851562 317.46875 306.0625 317.425781 C 299.640625 286.890625 280.335938 263.738281 276.460938 259.011719 C 274.398438 266.675781 273.109375 277.367188 276.71875 288.59375 C 276.886719 289.128906 276.597656 289.703125 276.0625 289.875 C 275.960938 289.902344 275.855469 289.917969 275.746094 289.917969 C 275.316406 289.917969 274.917969 289.644531 274.773438 289.214844 C 274.695312 288.984375 274.644531 288.753906 274.566406 288.523438 C 269.523438 286.929688 264.917969 284.855469 260.71875 282.394531 C 260.871094 282.761719 260.792969 283.207031 260.488281 283.503906 C 260.289062 283.703125 260.027344 283.796875 259.769531 283.796875 C 259.507812 283.796875 259.238281 283.695312 259.039062 283.496094 C 257.261719 281.695312 255.621094 279.847656 254.105469 277.964844 C 222.101562 253.648438 217.472656 205.488281 216.835938 194.875 C 213.96875 204.4375 211.28125 217.328125 213.171875 228.121094 C 213.273438 228.671875 212.898438 229.199219 212.34375 229.300781 C 212.320312 229.308594 212.292969 229.308594 212.269531 229.308594 C 213.886719 246.121094 219.464844 262.484375 224.9375 275.113281 C 229.847656 286.449219 234.675781 294.785156 236.46875 297.765625 C 236.777344 297.835938 237.082031 297.914062 237.398438 297.964844 C 237.949219 298.074219 238.316406 298.601562 238.210938 299.152344 C 238.117188 299.644531 237.6875 299.980469 237.207031 299.980469 C 237.144531 299.980469 237.074219 299.972656 237.015625 299.964844 C 224.9375 297.675781 215.496094 290.28125 209.148438 283.597656 C 214.222656 294.027344 223.632812 308.234375 229.019531 316.082031 C 230.410156 318.113281 231.527344 319.714844 232.222656 320.710938 C 232.816406 320.8125 233.152344 320.859375 233.175781 320.867188 C 233.734375 320.933594 234.125 321.449219 234.054688 322.007812 C 233.996094 322.519531 233.550781 322.894531 233.042969 322.894531 C 233 322.894531 232.960938 322.894531 232.914062 322.890625 C 232.707031 322.859375 211.664062 320.03125 187.660156 304.144531 C 187.054688 303.746094 186.457031 303.339844 185.867188 302.941406 C 187.539062 308.210938 193.324219 315.308594 195.628906 318.007812 C 195.976562 318.039062 196.320312 318.066406 196.664062 318.089844 C 197.222656 318.128906 197.652344 318.621094 197.609375 319.179688 C 197.570312 319.714844 197.125 320.128906 196.589844 320.128906 C 196.566406 320.128906 196.542969 320.128906 196.519531 320.128906 C 168.570312 318.167969 150.742188 306.152344 150.566406 306.027344 C 150.144531 305.738281 150.023438 305.191406 150.246094 304.742188 C 130.320312 294.71875 117.46875 281.648438 109.183594 269.179688 C 109.167969 269.1875 109.160156 269.203125 109.144531 269.210938 C 108.984375 269.3125 108.808594 269.351562 108.632812 269.351562 C 108.28125 269.351562 107.941406 269.171875 107.75 268.851562 C 100.378906 256.359375 96.132812 243.132812 93.742188 231.101562 C 89.203125 258.691406 98.011719 290.792969 100.046875 297.652344 C 100.324219 297.789062 100.601562 297.929688 100.882812 298.058594 C 101.398438 298.296875 101.621094 298.902344 101.382812 299.414062 C 101.207031 299.789062 100.839844 300.003906 100.453125 300.003906 C 100.308594 300.003906 100.164062 299.972656 100.027344 299.914062 C 90.851562 295.660156 85.027344 288.730469 81.339844 281.257812 C 79.855469 288.21875 81.019531 295.890625 83.066406 302.769531 C 86.429688 314.152344 92.199219 323.386719 92.453125 323.792969 C 84.253906 320.28125 80.175781 313.492188 78.253906 308.78125 C 78.988281 314.152344 80.582031 322.453125 83.777344 327.417969 C 84.085938 327.894531 83.945312 328.523438 83.472656 328.828125 C 83.304688 328.933594 83.113281 328.988281 82.921875 328.988281 C 82.582031 328.988281 82.253906 328.828125 82.0625 328.523438 C 81.808594 328.128906 81.5625 327.710938 81.332031 327.289062 C 73.847656 323.953125 67.441406 319.257812 61.992188 313.890625 C 61.792969 314.089844 61.539062 314.191406 61.269531 314.191406 C 61.03125 314.191406 60.796875 314.105469 60.605469 313.9375 C 45.71875 300.941406 37.71875 279.28125 33.648438 263.554688 C 28.945312 288.378906 38.898438 309.613281 39.667969 311.21875 C 21.878906 280.21875 13.554688 248.257812 12.390625 217.742188 C 12.375 217.742188 12.367188 217.742188 12.351562 217.742188 C 11.824219 217.742188 11.378906 217.335938 11.332031 216.808594 C 7.546875 169.515625 34.003906 118.039062 34.269531 117.523438 C 34.53125 117.027344 35.144531 116.828125 35.644531 117.085938 C 35.652344 117.085938 35.652344 117.09375 35.660156 117.101562 C 47.125 96.027344 62.042969 78.46875 78.742188 66.140625 C 78.414062 65.695312 78.5 65.066406 78.933594 64.730469 C 108.699219 41.835938 140.695312 37.5 162.324219 37.90625 C 184.011719 38.304688 199.882812 43.433594 202.222656 44.222656 C 204.542969 43.667969 219.113281 40.582031 239.84375 43.875 C 260.28125 47.125 290.699219 57.523438 319.558594 88.601562 C 319.941406 89.015625 319.921875 89.652344 319.515625 90.035156 C 325.324219 96.113281 331.171875 102.933594 336.996094 110.613281 C 337.625 111.433594 338.230469 112.257812 338.828125 113.085938 C 339.257812 112.78125 339.855469 112.835938 340.199219 113.25 C 340.40625 113.492188 360.882812 138.308594 365.488281 173.921875 C 365.558594 174.464844 365.183594 174.964844 364.636719 175.054688 C 365.558594 180.894531 366.109375 186.683594 366.347656 192.375 C 366.402344 192.367188 366.453125 192.359375 366.515625 192.367188 C 367.082031 192.382812 367.527344 192.851562 367.519531 193.410156 Z M 367.519531 193.410156 " fill-opacity="1" fill-rule="nonzero"/></g><path fill="#f8ead6" d="M 337.078125 301.660156 C 337.109375 301.660156 337.140625 301.652344 337.171875 301.652344 C 337.054688 301.828125 337.003906 301.929688 337.003906 301.929688 C 337.003906 301.929688 337.011719 301.828125 337.027344 301.652344 C 337.042969 301.652344 337.054688 301.660156 337.078125 301.660156 Z M 365.480469 193.363281 C 364.023438 256.964844 341.890625 292.011719 337.164062 298.785156 C 337.347656 293.867188 337.417969 283.8125 335.707031 273.574219 C 335.425781 274.683594 335.125 275.765625 334.820312 276.820312 C 338.015625 261.496094 336.789062 247.769531 336.703125 246.902344 C 336.648438 246.34375 336.152344 245.929688 335.59375 245.984375 C 335.03125 246.035156 334.621094 246.535156 334.671875 247.09375 C 334.703125 247.417969 337.539062 279.105469 323.492188 299.714844 C 311.183594 317.777344 307.128906 317.585938 306.792969 317.523438 C 306.5625 317.386719 306.300781 317.355469 306.058594 317.410156 C 299.632812 286.875 280.328125 263.726562 276.453125 258.996094 C 278.320312 252.046875 280.820312 247.59375 280.875 247.5 C 281.15625 247.011719 280.988281 246.390625 280.5 246.105469 C 280.007812 245.824219 279.386719 245.992188 279.109375 246.480469 C 278.996094 246.679688 267.851562 266.492188 274.574219 288.515625 C 269.53125 286.921875 264.925781 284.847656 260.726562 282.386719 C 260.679688 282.261719 260.601562 282.148438 260.503906 282.046875 C 238.492188 259.808594 238.242188 229.558594 238.242188 228.28125 C 238.242188 227.722656 237.789062 227.261719 237.222656 227.261719 C 236.652344 227.261719 236.203125 227.722656 236.203125 228.28125 C 236.203125 229.492188 236.425781 255.945312 254.121094 277.949219 C 222.117188 253.632812 217.488281 205.472656 216.851562 194.859375 C 219.257812 186.835938 221.785156 181.148438 221.839844 181.027344 C 222.070312 180.511719 221.839844 179.90625 221.328125 179.675781 C 220.8125 179.445312 220.207031 179.675781 219.976562 180.191406 C 219.472656 181.316406 207.578125 208.003906 211.171875 228.457031 C 211.257812 228.953125 211.695312 229.300781 212.175781 229.300781 C 212.207031 229.300781 212.246094 229.292969 212.277344 229.292969 C 213.894531 246.105469 219.472656 262.46875 224.945312 275.097656 C 229.855469 286.433594 234.683594 294.769531 236.476562 297.75 C 222.960938 294.839844 212.78125 285.015625 207.027344 277.996094 C 206.644531 277.359375 206.421875 276.9375 206.351562 276.808594 C 206.414062 277 206.480469 277.207031 206.550781 277.40625 C 203.410156 273.496094 201.714844 270.597656 201.660156 270.515625 C 201.378906 270.023438 200.757812 269.855469 200.265625 270.140625 C 199.777344 270.421875 199.609375 271.042969 199.890625 271.535156 C 200.160156 272 203.371094 277.496094 209.15625 283.589844 C 214.230469 294.019531 223.640625 308.226562 229.027344 316.074219 C 230.414062 318.105469 231.535156 319.707031 232.230469 320.703125 C 227.933594 319.96875 209.539062 316.167969 188.792969 302.425781 C 149.050781 276.109375 149.546875 250.664062 149.554688 250.414062 C 149.578125 249.855469 149.140625 249.378906 148.582031 249.347656 C 148.070312 249.339844 147.546875 249.761719 147.523438 250.320312 C 147.480469 251.386719 146.890625 276.339844 185.882812 302.917969 C 187.554688 308.191406 193.339844 315.285156 195.644531 317.984375 C 187.566406 317.339844 180.378906 315.851562 174.277344 314.082031 C 174.226562 314.066406 174.171875 314.050781 174.117188 314.035156 C 173.671875 313.90625 173.246094 313.777344 172.816406 313.644531 C 172.585938 313.578125 172.363281 313.507812 172.132812 313.4375 C 159.335938 309.429688 151.855469 304.402344 151.746094 304.328125 C 151.28125 304.011719 150.652344 304.128906 150.332031 304.59375 C 150.300781 304.632812 150.300781 304.6875 150.277344 304.726562 C 130.351562 294.703125 117.5 281.636719 109.214844 269.167969 C 109.667969 268.867188 109.820312 268.269531 109.535156 267.800781 C 88.300781 231.820312 93.441406 189.507812 93.503906 189.089844 C 93.574219 188.527344 93.183594 188.015625 92.621094 187.945312 C 92.054688 187.878906 91.550781 188.269531 91.480469 188.828125 C 91.441406 189.109375 89.160156 207.863281 93.773438 231.085938 C 89.234375 258.675781 98.039062 290.777344 100.078125 297.636719 C 73.714844 284.617188 77.425781 247.492188 77.472656 247.109375 C 77.53125 246.550781 77.125 246.042969 76.566406 245.984375 C 75.992188 245.921875 75.5 246.328125 75.441406 246.886719 C 75.410156 247.15625 73.578125 265.402344 81.378906 281.238281 C 79.894531 288.195312 81.058594 295.867188 83.105469 302.75 C 86.46875 314.128906 92.238281 323.363281 92.492188 323.769531 C 84.292969 320.261719 80.214844 313.46875 78.292969 308.757812 C 77.878906 305.746094 77.738281 303.644531 77.730469 303.589844 C 77.695312 303.03125 77.226562 302.601562 76.652344 302.640625 C 76.09375 302.679688 75.664062 303.164062 75.699219 303.722656 C 75.738281 304.367188 76.71875 318.8125 81.378906 327.273438 C 73.890625 323.9375 67.484375 319.242188 62.035156 313.875 C 62.050781 313.859375 62.074219 313.84375 62.089844 313.832031 C 62.457031 313.410156 62.417969 312.765625 61.992188 312.390625 C 37.289062 290.832031 31.972656 244.496094 31.917969 244.035156 C 31.855469 243.476562 31.359375 243.070312 30.792969 243.132812 C 30.230469 243.195312 29.824219 243.699219 29.886719 244.257812 C 29.910156 244.449219 30.835938 252.550781 33.6875 263.554688 C 28.984375 288.378906 38.9375 309.613281 39.703125 311.21875 C 21.878906 280.21875 13.554688 248.257812 12.390625 217.742188 C 12.40625 217.742188 12.421875 217.742188 12.4375 217.742188 C 12.996094 217.695312 13.417969 217.207031 13.371094 216.648438 C 10.804688 184.558594 22.363281 150.449219 29.933594 132.085938 C 61.078125 153.890625 105.40625 173.777344 162.613281 172.359375 C 167.773438 172.226562 172.714844 171.976562 177.492188 171.621094 C 177.421875 183.433594 178.703125 196.253906 181.921875 210.019531 C 182.027344 210.484375 182.449219 210.808594 182.910156 210.808594 C 182.984375 210.808594 183.0625 210.800781 183.136719 210.785156 C 183.691406 210.652344 184.027344 210.109375 183.898438 209.558594 C 180.703125 195.902344 179.445312 183.179688 179.519531 171.476562 C 287.457031 162.710938 296.90625 98.394531 296.90625 98.394531 C 259.253906 102.6875 227.25 101.621094 200.367188 97.546875 C 210.84375 80.394531 221.449219 71.167969 221.570312 71.058594 C 222 70.691406 222.046875 70.046875 221.679688 69.617188 C 221.3125 69.1875 220.667969 69.144531 220.238281 69.511719 C 220.109375 69.617188 208.988281 79.289062 198.183594 97.207031 C 180.050781 94.320312 164.292969 90.066406 150.742188 85.183594 C 160.914062 76.992188 175.710938 67.980469 193.996094 65.042969 C 194.558594 64.953125 194.933594 64.429688 194.839844 63.878906 C 194.75 63.320312 194.226562 62.945312 193.675781 63.035156 C 174.417969 66.125 158.9375 75.8125 148.527344 84.378906 C 147.378906 83.949219 146.246094 83.511719 145.125 83.082031 C 165.6875 55.402344 197.417969 50.789062 197.792969 50.742188 C 198.351562 50.667969 198.742188 50.152344 198.664062 49.59375 C 198.589844 49.035156 198.074219 48.644531 197.515625 48.71875 C 197.132812 48.773438 164.238281 53.523438 143.15625 82.308594 C 121.53125 73.640625 106.203125 63.578125 96.355469 55.777344 C 120.617188 42.441406 144.851562 39.644531 162.210938 39.945312 C 185.300781 40.359375 201.660156 46.191406 201.824219 46.246094 C 202.015625 46.3125 202.230469 46.320312 202.429688 46.273438 C 202.582031 46.238281 217.761719 42.433594 239.527344 45.890625 C 259.644531 49.09375 289.601562 59.339844 318.066406 89.996094 C 318.265625 90.210938 318.539062 90.316406 318.808594 90.316406 C 319.0625 90.316406 319.308594 90.226562 319.507812 90.050781 C 319.507812 90.050781 319.507812 90.042969 319.515625 90.042969 C 325.324219 96.121094 331.171875 102.941406 336.996094 110.621094 C 337.625 111.4375 338.230469 112.265625 338.828125 113.09375 C 338.804688 113.109375 338.78125 113.109375 338.765625 113.125 C 338.335938 113.484375 338.273438 114.128906 338.636719 114.558594 C 338.835938 114.804688 358.945312 139.183594 363.464844 174.183594 C 363.535156 174.695312 363.972656 175.070312 364.476562 175.070312 C 364.523438 175.070312 364.570312 175.070312 364.609375 175.0625 C 364.613281 175.0625 364.628906 175.054688 364.636719 175.054688 C 365.558594 180.894531 366.109375 186.683594 366.347656 192.375 C 365.863281 192.4375 365.488281 192.859375 365.480469 193.363281 Z M 320.121094 141.25 C 320.203125 141.75 320.632812 142.09375 321.125 142.09375 C 321.183594 142.09375 321.238281 142.085938 321.300781 142.078125 C 321.851562 141.980469 322.226562 141.449219 322.128906 140.898438 C 314.664062 98.136719 286.269531 75.335938 263.769531 63.742188 C 239.445312 51.210938 216.550781 48.71875 216.324219 48.695312 C 215.761719 48.628906 215.265625 49.050781 215.203125 49.609375 C 215.140625 50.167969 215.554688 50.667969 216.117188 50.726562 C 216.335938 50.75 238.855469 53.195312 262.839844 65.558594 C 284.929688 76.9375 312.800781 99.308594 320.121094 141.25 Z M 320.121094 141.25 " fill-opacity="1" fill-rule="nonzero"/><path fill="#ffffff" d="M 194.972656 107.195312 C 196.726562 103.738281 198.550781 100.519531 200.375 97.539062 C 227.257812 101.613281 259.261719 102.679688 296.914062 98.386719 C 296.914062 98.386719 287.464844 162.703125 179.527344 171.46875 C 179.71875 144.070312 187.308594 122.261719 194.972656 107.195312 Z M 148.527344 84.363281 C 147.378906 83.933594 146.246094 83.496094 145.125 83.070312 C 142.726562 86.292969 140.480469 89.828125 138.460938 93.714844 C 140.925781 91.121094 144.3125 87.835938 148.527344 84.363281 Z M 36.078125 118.46875 C 35.996094 118.628906 33.375 123.722656 29.933594 132.085938 C 61.078125 153.890625 105.40625 173.777344 162.613281 172.359375 C 167.773438 172.226562 172.714844 171.976562 177.492188 171.621094 C 177.652344 143.726562 185.382812 121.515625 193.199219 106.191406 C 194.832031 102.992188 196.511719 99.996094 198.199219 97.199219 C 180.066406 94.3125 164.308594 90.058594 150.757812 85.175781 C 140.933594 93.09375 135.433594 100.242188 135.316406 100.386719 C 135.117188 100.648438 134.8125 100.792969 134.503906 100.792969 C 134.335938 100.792969 134.160156 100.75 134 100.65625 C 133.554688 100.402344 133.371094 99.851562 133.570312 99.375 C 136.273438 92.902344 139.554688 87.246094 143.179688 82.292969 C 121.554688 73.625 106.226562 63.5625 96.378906 55.761719 C 90.960938 58.734375 85.542969 62.230469 80.199219 66.339844 C 79.753906 66.683594 79.113281 66.597656 78.765625 66.15625 C 78.765625 66.148438 78.757812 66.140625 78.757812 66.140625 C 62.066406 78.46875 47.136719 96.027344 35.671875 117.101562 C 36.148438 117.363281 36.339844 117.96875 36.078125 118.46875 Z M 36.078125 118.46875 " fill-opacity="1" fill-rule="nonzero"/></svg>