<svg xmlns="http://www.w3.org/2000/svg" xmlns:xlink="http://www.w3.org/1999/xlink" width="500" zoomAndPan="magnify" viewBox="0 0 375 374.999991" height="500" preserveAspectRatio="xMidYMid meet" version="1.0"><defs><clipPath id="4eca9498d2"><path d="M 122.234375 123.488281 L 134.234375 123.488281 L 134.234375 130.238281 L 122.234375 130.238281 Z M 122.234375 123.488281 " clip-rule="nonzero"/></clipPath><clipPath id="4c64faf606"><path d="M 122.234375 124 L 134 124 L 134 130 L 122.234375 130 Z M 122.234375 124 " clip-rule="nonzero"/></clipPath><clipPath id="db055fe80a"><path d="M 3.410156 39 L 371.660156 39 L 371.660156 325.5 L 3.410156 325.5 Z M 3.410156 39 " clip-rule="nonzero"/></clipPath><clipPath id="beab4cc3a0"><path d="M 5 42 L 371.660156 42 L 371.660156 320 L 5 320 Z M 5 42 " clip-rule="nonzero"/></clipPath></defs><g clip-path="url(#4eca9498d2)"><path fill="#353535" d="M 134.257812 127.402344 C 133.507812 127.613281 133.273438 127.035156 133.023438 126.703125 C 132.597656 126.148438 132.105469 126.078125 131.445312 126.148438 C 128.273438 126.464844 125.429688 127.410156 123.25 129.714844 C 122.988281 129.996094 122.628906 130.09375 122.261719 130.179688 L 122.257812 130.179688 C 122.753906 128.820312 123.914062 127.980469 125.117188 127.285156 C 126.960938 126.226562 128.929688 125.402344 131.195312 125.578125 C 131.960938 125.636719 132.527344 125.496094 132.613281 124.585938 C 132.660156 124.039062 133.144531 123.703125 133.929688 123.535156 C 133.105469 124.957031 133.6875 126.152344 134.257812 127.402344 Z M 122.234375 130.210938 L 122.261719 130.179688 C 122.261719 130.179688 122.257812 130.179688 122.257812 130.179688 C 122.261719 130.179688 122.234375 130.210938 122.234375 130.210938 Z M 122.234375 130.210938 " fill-opacity="1" fill-rule="nonzero"/></g><g clip-path="url(#4c64faf606)"><path fill="#ffffff" d="M 126.09375 127.09375 C 126.101562 127.09375 126.113281 127.09375 126.121094 127.089844 C 126.121094 127.105469 126.121094 127.125 126.121094 127.140625 C 126.117188 127.140625 126.113281 127.140625 126.105469 127.144531 C 126.101562 127.128906 126.097656 127.113281 126.09375 127.09375 Z M 125.542969 127.15625 C 125.597656 127.152344 125.640625 127.152344 125.695312 127.152344 C 125.609375 127.105469 125.59375 127.105469 125.542969 127.15625 Z M 125.847656 127.667969 C 125.847656 127.671875 125.855469 127.679688 125.863281 127.6875 C 125.871094 127.675781 125.882812 127.671875 125.890625 127.664062 C 125.875 127.652344 125.871094 127.648438 125.863281 127.644531 C 125.855469 127.652344 125.847656 127.660156 125.847656 127.667969 Z M 125.65625 127.703125 C 125.660156 127.703125 125.675781 127.707031 125.675781 127.707031 C 125.679688 127.695312 125.679688 127.675781 125.6875 127.664062 C 125.679688 127.664062 125.671875 127.664062 125.667969 127.660156 C 125.660156 127.671875 125.65625 127.691406 125.65625 127.703125 Z M 125.660156 127.523438 C 125.652344 127.523438 125.640625 127.523438 125.632812 127.523438 C 125.636719 127.542969 125.640625 127.5625 125.640625 127.585938 C 125.652344 127.585938 125.65625 127.585938 125.667969 127.582031 C 125.667969 127.566406 125.667969 127.542969 125.660156 127.523438 Z M 127.734375 126.136719 C 127.738281 126.15625 127.746094 126.179688 127.753906 126.199219 C 127.757812 126.199219 127.761719 126.199219 127.765625 126.195312 C 127.761719 126.171875 127.753906 126.152344 127.746094 126.128906 C 127.742188 126.132812 127.738281 126.136719 127.734375 126.136719 Z M 125.359375 127.898438 C 125.320312 127.902344 125.292969 127.902344 125.269531 127.90625 C 125.292969 127.933594 125.324219 127.949219 125.359375 127.898438 Z M 128.175781 126.722656 C 128.242188 126.730469 128.242188 126.730469 128.277344 126.707031 C 128.265625 126.703125 128.257812 126.695312 128.246094 126.699219 C 128.226562 126.699219 128.207031 126.707031 128.175781 126.722656 Z M 126.992188 126.800781 C 127.03125 126.804688 127.066406 126.808594 127.105469 126.8125 C 127.066406 126.738281 127.0625 126.734375 126.992188 126.800781 Z M 126.464844 126.929688 C 126.492188 126.933594 126.523438 126.933594 126.546875 126.9375 C 126.59375 126.941406 126.585938 126.914062 126.578125 126.875 C 126.542969 126.90625 126.488281 126.863281 126.464844 126.929688 Z M 126.214844 127.007812 C 126.226562 127.011719 126.230469 127.019531 126.234375 127.023438 C 126.25 127.011719 126.257812 126.996094 126.269531 126.984375 C 126.269531 126.984375 126.257812 126.972656 126.253906 126.96875 C 126.246094 126.984375 126.230469 126.992188 126.214844 127.007812 Z M 126.875 127.113281 C 126.890625 127.070312 126.894531 127.042969 126.910156 127 C 126.851562 127.046875 126.851562 127.046875 126.875 127.113281 Z M 123.324219 129.519531 C 123.371094 129.519531 123.378906 129.480469 123.375 129.445312 C 123.328125 129.441406 123.289062 129.433594 123.238281 129.433594 C 123.242188 129.496094 123.285156 129.519531 123.324219 129.519531 Z M 123.398438 128.710938 C 123.402344 128.71875 123.410156 128.726562 123.410156 128.734375 C 123.429688 128.722656 123.449219 128.71875 123.460938 128.710938 C 123.457031 128.699219 123.449219 128.6875 123.449219 128.6875 C 123.433594 128.695312 123.414062 128.699219 123.398438 128.710938 Z M 128.34375 126.679688 C 128.34375 126.691406 128.363281 126.699219 128.371094 126.707031 C 128.378906 126.699219 128.390625 126.691406 128.394531 126.679688 C 128.394531 126.671875 128.382812 126.660156 128.375 126.644531 C 128.359375 126.660156 128.34375 126.671875 128.34375 126.679688 Z M 123.105469 129.789062 C 123.113281 129.789062 123.125 129.789062 123.128906 129.792969 C 123.132812 129.773438 123.140625 129.753906 123.140625 129.734375 C 123.113281 129.738281 123.105469 129.746094 123.101562 129.757812 C 123.101562 129.765625 123.105469 129.78125 123.105469 129.789062 Z M 122.917969 129.328125 C 122.9375 129.339844 122.957031 129.34375 122.980469 129.351562 C 122.980469 129.34375 122.988281 129.339844 122.988281 129.328125 C 122.96875 129.324219 122.949219 129.316406 122.929688 129.3125 C 122.921875 129.316406 122.917969 129.320312 122.917969 129.328125 Z M 122.640625 129.886719 C 122.667969 129.839844 122.6875 129.804688 122.71875 129.761719 C 122.640625 129.773438 122.628906 129.792969 122.640625 129.886719 Z M 124.617188 127.964844 C 124.621094 127.980469 124.628906 127.992188 124.632812 128.007812 C 124.632812 128.007812 124.644531 128.007812 124.652344 128.007812 C 124.648438 127.988281 124.644531 127.96875 124.636719 127.957031 C 124.632812 127.960938 124.621094 127.960938 124.617188 127.964844 Z M 124.441406 128.347656 C 124.460938 128.292969 124.460938 128.292969 124.414062 128.265625 C 124.421875 128.296875 124.433594 128.324219 124.441406 128.347656 Z M 124.769531 128.386719 C 124.78125 128.355469 124.789062 128.328125 124.804688 128.289062 C 124.765625 128.304688 124.734375 128.320312 124.703125 128.332031 C 124.730469 128.351562 124.746094 128.371094 124.769531 128.386719 Z M 124.289062 128.613281 C 124.292969 128.617188 124.292969 128.628906 124.300781 128.632812 C 124.320312 128.621094 124.339844 128.613281 124.359375 128.605469 C 124.355469 128.601562 124.347656 128.59375 124.347656 128.585938 C 124.328125 128.59375 124.308594 128.605469 124.289062 128.613281 Z M 123.90625 128.472656 C 123.914062 128.488281 123.914062 128.507812 123.917969 128.527344 C 123.925781 128.527344 123.933594 128.523438 123.941406 128.523438 C 123.9375 128.503906 123.933594 128.484375 123.933594 128.464844 C 123.921875 128.464844 123.917969 128.472656 123.90625 128.472656 Z M 124.171875 128.367188 C 124.167969 128.367188 124.164062 128.375 124.15625 128.382812 C 124.183594 128.394531 124.207031 128.40625 124.242188 128.425781 C 124.234375 128.367188 124.210938 128.359375 124.171875 128.367188 Z M 132.769531 125.007812 C 132.769531 124.996094 132.773438 124.980469 132.773438 124.964844 C 132.761719 124.964844 132.753906 124.964844 132.75 124.964844 C 132.75 124.976562 132.75 124.992188 132.75 125.003906 C 132.753906 125.003906 132.761719 125.003906 132.769531 125.007812 Z M 133.140625 125.777344 C 133.140625 125.785156 133.148438 125.796875 133.15625 125.808594 C 133.164062 125.804688 133.175781 125.792969 133.195312 125.785156 C 133.179688 125.769531 133.171875 125.761719 133.160156 125.757812 C 133.15625 125.753906 133.140625 125.765625 133.140625 125.777344 Z M 133.058594 125.496094 C 133.046875 125.523438 133.042969 125.550781 133.101562 125.570312 C 133.089844 125.535156 133.085938 125.515625 133.082031 125.492188 C 133.070312 125.492188 133.0625 125.496094 133.058594 125.496094 Z M 133.050781 125.136719 C 133.023438 125.148438 132.992188 125.152344 132.953125 125.160156 C 133 125.203125 133.027344 125.210938 133.050781 125.164062 C 133.058594 125.164062 133.050781 125.152344 133.050781 125.136719 Z M 132.636719 126.183594 C 132.671875 126.179688 132.691406 126.179688 132.714844 126.179688 C 132.710938 126.160156 132.703125 126.144531 132.699219 126.117188 C 132.675781 126.144531 132.660156 126.15625 132.636719 126.183594 Z M 132.75 125.175781 C 132.808594 125.1875 132.851562 125.179688 132.871094 125.105469 C 132.75 125.085938 132.75 125.085938 132.75 125.175781 Z M 133.347656 124.957031 C 133.347656 124.972656 133.347656 124.980469 133.347656 124.996094 C 133.351562 125.007812 133.355469 125.019531 133.359375 125.03125 C 133.367188 125.03125 133.371094 125.027344 133.375 125.027344 C 133.371094 125.003906 133.371094 124.980469 133.367188 124.964844 C 133.359375 124.957031 133.351562 124.957031 133.347656 124.957031 Z M 133.40625 125.691406 C 133.410156 125.699219 133.414062 125.703125 133.417969 125.710938 C 133.4375 125.699219 133.457031 125.679688 133.480469 125.664062 C 133.472656 125.660156 133.464844 125.652344 133.457031 125.648438 C 133.445312 125.660156 133.425781 125.675781 133.40625 125.691406 Z M 133.222656 124.578125 C 133.222656 124.582031 133.222656 124.589844 133.222656 124.59375 C 133.242188 124.59375 133.269531 124.59375 133.308594 124.59375 C 133.277344 124.578125 133.269531 124.566406 133.257812 124.566406 C 133.25 124.566406 133.234375 124.578125 133.222656 124.578125 Z M 129.238281 126.207031 C 129.246094 126.207031 129.25 126.207031 129.261719 126.210938 C 129.261719 126.199219 129.265625 126.179688 129.265625 126.167969 C 129.261719 126.167969 129.25 126.167969 129.246094 126.160156 C 129.242188 126.175781 129.242188 126.195312 129.238281 126.207031 Z M 133.449219 126.546875 C 133.453125 126.546875 133.464844 126.546875 133.46875 126.546875 C 133.472656 126.519531 133.472656 126.488281 133.480469 126.460938 C 133.46875 126.460938 133.457031 126.460938 133.449219 126.460938 C 133.449219 126.492188 133.449219 126.519531 133.449219 126.546875 Z M 133.003906 124.828125 C 133.03125 124.855469 133.050781 124.871094 133.082031 124.898438 C 133.085938 124.835938 133.066406 124.824219 133.003906 124.828125 Z M 129.757812 125.679688 C 129.75 125.714844 129.75 125.75 129.820312 125.777344 C 129.800781 125.730469 129.789062 125.703125 129.777344 125.675781 C 129.769531 125.679688 129.765625 125.679688 129.757812 125.679688 Z M 129.644531 126.03125 C 129.65625 126.042969 129.671875 126.050781 129.6875 126.058594 C 129.6875 126.058594 129.699219 126.046875 129.707031 126.039062 C 129.6875 126.027344 129.675781 126.019531 129.65625 126.019531 C 129.65625 126.015625 129.648438 126.027344 129.644531 126.03125 Z M 129.628906 125.832031 C 129.632812 125.796875 129.636719 125.78125 129.644531 125.742188 C 129.59375 125.78125 129.589844 125.796875 129.628906 125.832031 Z M 129.859375 126.265625 C 129.875 126.289062 129.882812 126.304688 129.898438 126.328125 C 129.914062 126.304688 129.921875 126.28125 129.9375 126.261719 C 129.933594 126.257812 129.925781 126.253906 129.925781 126.25 C 129.902344 126.25 129.878906 126.257812 129.859375 126.265625 Z M 129.203125 125.914062 C 129.230469 125.925781 129.230469 125.980469 129.300781 125.945312 C 129.265625 125.921875 129.238281 125.910156 129.210938 125.894531 C 129.207031 125.902344 129.203125 125.910156 129.203125 125.914062 Z M 129.90625 125.691406 C 129.914062 125.699219 129.917969 125.703125 129.921875 125.707031 C 129.945312 125.691406 129.976562 125.679688 130.019531 125.660156 C 129.984375 125.648438 129.957031 125.628906 129.945312 125.636719 C 129.925781 125.648438 129.921875 125.671875 129.90625 125.691406 Z M 132.453125 125.21875 C 132.453125 125.226562 132.453125 125.234375 132.453125 125.238281 C 132.472656 125.238281 132.492188 125.238281 132.511719 125.238281 C 132.511719 125.234375 132.511719 125.230469 132.511719 125.226562 C 132.492188 125.226562 132.472656 125.226562 132.453125 125.21875 Z M 131.195312 126.039062 C 131.25 126.050781 131.28125 126.058594 131.3125 126.070312 C 131.289062 126.039062 131.265625 126.015625 131.195312 126.039062 Z M 131.382812 125.757812 C 131.441406 125.691406 131.441406 125.691406 131.363281 125.679688 C 131.367188 125.703125 131.371094 125.71875 131.382812 125.757812 Z M 130.367188 126.046875 C 130.398438 126.058594 130.417969 126.070312 130.445312 126.078125 C 130.453125 126.046875 130.457031 126.019531 130.460938 125.992188 C 130.457031 125.988281 130.453125 125.988281 130.445312 125.980469 C 130.417969 126 130.398438 126.019531 130.367188 126.046875 Z M 130.367188 126.046875 " fill-opacity="1" fill-rule="nonzero"/></g><g clip-path="url(#db055fe80a)"><path fill="#372a18" d="M 371.199219 213.371094 C 371.199219 213.371094 370.980469 214.214844 370.507812 215.691406 C 367.78125 224.066406 356.589844 252.511719 329.175781 256.1875 C 329.175781 256.1875 329.070312 257.257812 329.015625 259.050781 C 328.820312 264.902344 329.023438 278.523438 334.324219 288.746094 C 334.867188 289.089844 335.417969 289.414062 335.992188 289.710938 C 336.554688 290.003906 336.78125 290.703125 336.488281 291.277344 C 336.285156 291.675781 335.878906 291.902344 335.457031 291.902344 C 335.273438 291.902344 335.09375 291.863281 334.921875 291.773438 C 331.296875 289.890625 328.316406 287.109375 325.957031 284.300781 C 325.726562 286.457031 325.324219 293.804688 329.671875 299.476562 C 330.355469 299.757812 331.058594 300.027344 331.773438 300.285156 C 332.375 300.496094 332.691406 301.15625 332.480469 301.757812 C 332.429688 301.902344 332.34375 302.023438 332.253906 302.136719 C 332.269531 302.144531 332.277344 302.160156 332.292969 302.167969 C 332.285156 302.167969 332.261719 302.152344 332.246094 302.144531 C 332.027344 302.382812 331.71875 302.535156 331.394531 302.535156 C 331.269531 302.535156 331.140625 302.511719 331.011719 302.46875 C 315.882812 297.121094 307.851562 286.367188 303.582031 276.566406 C 299.394531 286.175781 293.761719 294.453125 288 301.285156 C 288 301.285156 288 301.285156 288.007812 301.285156 C 288.496094 301.699219 288.550781 302.4375 288.136719 302.917969 C 287.570312 303.574219 274.203125 319.058594 262.972656 325.144531 C 262.800781 325.242188 262.613281 325.289062 262.425781 325.289062 C 262.03125 325.289062 261.65625 325.089844 261.4375 324.738281 C 261.113281 324.21875 261.25 323.53125 261.746094 323.179688 C 261.792969 323.140625 267.953125 318.222656 273.351562 293.332031 C 276.152344 280.429688 277.269531 264.613281 277.554688 249.734375 C 277.449219 249.71875 277.34375 249.695312 277.238281 249.644531 C 245.058594 234.925781 216.015625 192.464844 215.730469 192.035156 C 215.375 191.507812 215.503906 190.800781 216.023438 190.4375 C 210.316406 182.402344 205.222656 174.488281 200.855469 167.296875 C 199.433594 171.996094 197.195312 176.761719 193.691406 180.046875 C 193.46875 180.257812 193.179688 180.363281 192.902344 180.363281 C 192.59375 180.363281 192.285156 180.242188 192.058594 179.992188 C 191.621094 179.527344 191.644531 178.789062 192.113281 178.351562 C 192.382812 178.09375 192.644531 177.832031 192.902344 177.550781 C 192.601562 165.828125 186.410156 152.757812 182.832031 145.332031 C 181.265625 153.488281 176.605469 169.796875 163.109375 186.0625 C 157.203125 193.171875 150.5 199.835938 143.820312 205.800781 C 137.71875 211.472656 131.679688 216.25 126.28125 220.128906 C 125.234375 220.917969 124.203125 221.679688 123.207031 222.410156 C 123.175781 222.433594 123.15625 222.453125 123.125 222.484375 C 123.085938 222.515625 123.042969 222.53125 123.003906 222.550781 C 113.597656 229.421875 106.847656 233.519531 106.699219 233.601562 C 106.511719 233.714844 106.308594 233.765625 106.105469 233.765625 C 105.960938 233.765625 105.816406 233.730469 105.683594 233.675781 C 105.578125 233.941406 105.472656 234.203125 105.375 234.46875 C 103.082031 243.234375 101.050781 257.300781 105.636719 271.929688 C 105.824219 272.539062 105.484375 273.191406 104.875 273.382812 C 104.761719 273.417969 104.644531 273.433594 104.53125 273.433594 C 104.039062 273.433594 103.582031 273.117188 103.421875 272.621094 C 103.226562 271.988281 103.046875 271.355469 102.867188 270.722656 C 97.316406 265.203125 94.648438 258.363281 93.390625 252.617188 C 93.617188 260.210938 94.890625 269.976562 98.746094 280.519531 C 98.964844 281.125 98.65625 281.785156 98.054688 282.011719 C 98.046875 282.011719 98.039062 282.011719 98.03125 282.011719 C 100.644531 289.519531 103.707031 296.683594 106.601562 302.828125 C 106.675781 302.769531 106.75 302.707031 106.84375 302.664062 C 107.414062 302.378906 108.113281 302.601562 108.402344 303.175781 L 117.363281 320.988281 C 117.597656 321.445312 117.5 321.996094 117.121094 322.351562 C 116.902344 322.5625 116.617188 322.667969 116.324219 322.667969 C 116.121094 322.667969 115.925781 322.613281 115.742188 322.507812 C 115.15625 322.167969 101.304688 314.066406 95.28125 304.304688 C 94.980469 303.816406 95.09375 303.183594 95.515625 302.820312 C 91.140625 297.691406 86.453125 291.441406 81.851562 283.933594 C 80.6875 288.203125 78.578125 293.089844 74.75 296.917969 C 70.535156 301.132812 64.96875 303.273438 58.226562 303.273438 C 57.570312 303.296875 57.015625 302.769531 57.015625 302.113281 C 57.015625 301.472656 57.535156 300.953125 58.175781 300.953125 C 58.191406 300.945312 58.210938 300.953125 58.226562 300.953125 C 58.5 300.953125 58.761719 300.945312 59.03125 300.9375 C 62.996094 295.199219 63.761719 288.925781 63.816406 285.257812 C 61.835938 289.191406 58.144531 293.535156 51.3125 294.613281 C 51.253906 294.621094 51.191406 294.628906 51.132812 294.628906 C 50.574219 294.628906 50.078125 294.21875 49.988281 293.648438 C 49.890625 293.015625 50.320312 292.421875 50.953125 292.324219 C 51.546875 292.226562 52.113281 292.097656 52.652344 291.945312 C 63.078125 280.753906 56.992188 266.777344 56.992188 266.777344 C 30.535156 270.277344 15.199219 248.933594 10.375 240.785156 C 9.25 238.894531 8.695312 237.714844 8.695312 237.714844 C 16.148438 238.339844 31.476562 228.871094 37.539062 224.910156 C 39.144531 223.863281 40.097656 223.191406 40.097656 223.191406 C 26.160156 222.980469 15.921875 211.171875 10.269531 202.453125 C 8.054688 199.054688 6.53125 196.132812 5.757812 194.535156 C 5.257812 194.453125 4.949219 194.386719 4.875 194.371094 C 4.25 194.21875 3.875 193.59375 4.015625 192.96875 C 4.167969 192.34375 4.792969 191.960938 5.410156 192.109375 C 5.53125 192.132812 17.933594 194.925781 30.949219 185.332031 C 31.46875 184.957031 32.191406 185.0625 32.566406 185.582031 C 32.574219 185.589844 32.582031 185.605469 32.582031 185.609375 C 36.769531 182.660156 40.613281 178.953125 43.5625 174.585938 C 43.042969 174.238281 42.886719 173.554688 43.21875 173.019531 C 46.078125 168.347656 47.3125 163.816406 49.363281 156.308594 C 50.386719 152.542969 51.546875 148.277344 53.203125 142.929688 C 55.199219 136.484375 57.859375 131.972656 60.34375 128.773438 C 50.34375 126.632812 42.058594 120.675781 42.058594 120.675781 C 44.589844 120.765625 47.140625 120.503906 49.722656 119.953125 C 49.597656 119.375 49.914062 118.785156 50.484375 118.597656 C 50.621094 118.550781 64.476562 113.929688 82.605469 101.34375 C 83.132812 100.972656 83.847656 101.109375 84.21875 101.628906 C 94.988281 94.128906 106.765625 85.566406 119.992188 78.054688 C 119.683594 77.523438 119.839844 76.835938 120.367188 76.503906 C 120.59375 76.363281 141.75 63.015625 169.53125 64.558594 C 163.207031 53.488281 145.0625 44.980469 139.285156 42.484375 C 138.367188 42.652344 137.929688 42.808594 137.921875 42.816406 C 137.328125 43.042969 136.660156 42.757812 136.425781 42.160156 C 136.191406 41.566406 136.46875 40.902344 137.066406 40.664062 C 137.277344 40.574219 142.457031 38.570312 156.359375 40.8125 C 167.671875 42.644531 177.726562 53.457031 181.46875 57.949219 C 181.636719 57.722656 181.800781 57.511719 181.972656 57.292969 C 181.539062 56.9375 181.402344 56.304688 181.703125 55.800781 C 182.148438 55.046875 192.910156 37.46875 225.957031 46.101562 C 226.574219 46.257812 226.953125 46.898438 226.785156 47.515625 C 226.628906 48.132812 225.996094 48.503906 225.371094 48.34375 C 224.285156 48.058594 223.230469 47.808594 222.191406 47.585938 C 213.90625 49.179688 207.257812 55.90625 202.738281 62.121094 C 208.230469 61.050781 216.421875 60.449219 226.882812 62.503906 C 245.683594 66.203125 262.550781 75.34375 272.0625 82.671875 C 272.554688 83.050781 272.660156 83.742188 272.304688 84.246094 C 277.359375 87.734375 285.652344 93.210938 295.035156 98.398438 C 295.042969 98.390625 295.042969 98.375 295.050781 98.367188 C 295.375 97.820312 296.089844 97.628906 296.640625 97.960938 C 296.886719 98.105469 321.53125 112.503906 339.652344 110.492188 C 340.28125 110.425781 340.863281 110.886719 340.929688 111.519531 C 341 112.15625 340.539062 112.730469 339.90625 112.796875 C 339.328125 112.859375 338.746094 112.902344 338.160156 112.941406 C 333.59375 116.421875 319.941406 125.683594 304.894531 125.082031 C 311.632812 128.742188 320.746094 135.105469 325.914062 144.664062 C 330.515625 153.1875 332.894531 160.914062 334.808594 167.121094 C 336.472656 172.527344 337.910156 177.199219 340.253906 180.566406 C 340.621094 181.09375 340.488281 181.816406 339.96875 182.175781 C 339.929688 182.199219 339.890625 182.214844 339.855469 182.230469 C 346.253906 193.519531 355.398438 198.03125 368.058594 193.246094 C 368.011719 193.359375 367.570312 194.257812 366.785156 195.605469 C 364.058594 200.28125 357.039062 210.441406 346.542969 213.085938 C 346.136719 213.191406 345.707031 213.28125 345.292969 213.363281 C 345.277344 213.371094 360.1875 217.304688 371.199219 213.371094 Z M 371.199219 213.371094 " fill-opacity="1" fill-rule="nonzero"/></g><g clip-path="url(#beab4cc3a0)"><path fill="#7b5e34" d="M 126.265625 220.136719 C 131.671875 216.074219 137.726562 211.234375 143.804688 205.808594 C 137.707031 211.480469 131.664062 216.257812 126.265625 220.136719 Z M 105.359375 234.480469 C 105.457031 234.21875 105.570312 233.953125 105.667969 233.691406 C 105.636719 233.675781 105.605469 233.667969 105.578125 233.652344 C 105.507812 233.925781 105.433594 234.195312 105.359375 234.480469 Z M 332.285156 302.167969 C 332.269531 302.160156 332.261719 302.144531 332.246094 302.136719 C 332.246094 302.136719 332.238281 302.144531 332.238281 302.144531 C 332.246094 302.152344 332.277344 302.167969 332.285156 302.167969 Z M 345.277344 213.371094 C 345.691406 213.289062 346.121094 213.199219 346.527344 213.09375 C 335.042969 211.097656 335.546875 201.246094 335.546875 201.246094 C 347.054688 203.972656 360.113281 198.84375 366.769531 195.613281 C 367.5625 194.265625 368 193.375 368.042969 193.253906 C 355.382812 198.039062 346.242188 193.527344 339.839844 182.238281 C 339.664062 182.335938 339.476562 182.386719 339.289062 182.386719 C 338.921875 182.386719 338.558594 182.214844 338.332031 181.890625 C 335.78125 178.230469 334.296875 173.394531 332.570312 167.800781 C 330.589844 161.375 328.355469 154.085938 323.855469 145.761719 C 315.59375 130.460938 295.863281 123.476562 295.660156 123.410156 C 295.058594 123.199219 294.734375 122.535156 294.945312 121.933594 C 295.15625 121.332031 295.816406 121.007812 296.421875 121.21875 C 296.765625 121.339844 300.261719 122.574219 304.878906 125.082031 C 319.925781 125.691406 333.582031 116.421875 338.144531 112.941406 C 337.429688 112.980469 336.707031 113.007812 335.984375 113.007812 C 317.785156 113.007812 296.414062 100.53125 295.449219 99.964844 C 294.90625 99.648438 294.726562 98.957031 295.027344 98.40625 C 285.644531 93.21875 277.351562 87.742188 272.296875 84.253906 C 272.289062 84.269531 272.28125 84.285156 272.269531 84.308594 C 272.042969 84.601562 271.695312 84.757812 271.347656 84.757812 C 271.101562 84.757812 270.851562 84.683594 270.640625 84.519531 C 261.339844 77.355469 244.839844 68.410156 226.433594 64.792969 C 207.378906 61.050781 195.9375 66.570312 195.824219 66.632812 C 195.253906 66.917969 194.550781 66.683594 194.273438 66.113281 C 193.988281 65.539062 194.21875 64.847656 194.792969 64.558594 C 195.027344 64.445312 197.78125 63.097656 202.746094 62.136719 C 207.265625 55.914062 213.914062 49.1875 222.199219 47.597656 C 193.324219 41.304688 183.804688 56.824219 183.707031 56.992188 C 183.488281 57.359375 183.105469 57.5625 182.707031 57.5625 C 182.5 57.5625 182.304688 57.511719 182.117188 57.40625 C 182.066406 57.375 182.027344 57.335938 181.980469 57.308594 C 181.816406 57.527344 181.644531 57.738281 181.476562 57.960938 C 182.382812 59.039062 182.914062 59.761719 183.015625 59.890625 C 183.398438 60.402344 183.285156 61.132812 182.773438 61.515625 C 182.5625 61.675781 182.320312 61.742188 182.078125 61.742188 C 181.726562 61.742188 181.371094 61.585938 181.144531 61.277344 C 181.027344 61.117188 169.089844 45.242188 155.992188 43.117188 C 146.707031 41.621094 141.539062 42.085938 139.292969 42.5 C 145.070312 44.992188 163.214844 53.503906 169.539062 64.574219 C 171.429688 64.679688 173.359375 64.855469 175.308594 65.101562 C 175.941406 65.183594 176.394531 65.765625 176.3125 66.40625 C 176.226562 67.039062 175.640625 67.476562 175.007812 67.40625 C 163.769531 65.945312 153.445312 67.152344 144.929688 69.214844 C 164.832031 80.164062 208.289062 98.675781 250.238281 80.609375 C 250.238281 80.609375 255.757812 103.519531 233.253906 115.359375 C 210.75 127.214844 179.59375 137.78125 137.488281 131.550781 C 114.214844 128.109375 96.472656 115.628906 84.082031 103.121094 C 84.035156 103.164062 83.984375 103.210938 83.933594 103.25 C 65.503906 116.042969 51.351562 120.757812 51.214844 120.804688 C 51.09375 120.839844 50.972656 120.863281 50.855469 120.863281 C 50.363281 120.863281 49.914062 120.554688 49.753906 120.066406 C 49.738281 120.027344 49.738281 120 49.730469 119.960938 C 47.140625 120.511719 44.589844 120.773438 42.066406 120.683594 C 42.066406 120.683594 50.347656 126.640625 60.351562 128.78125 C 62.511719 125.992188 64.546875 124.191406 65.902344 123.003906 C 66.367188 122.597656 66.886719 122.136719 67.089844 121.894531 C 67.144531 121.445312 67.453125 121.046875 67.914062 120.910156 C 68.523438 120.730469 69.171875 121.074219 69.351562 121.691406 C 69.667969 122.769531 68.824219 123.515625 67.421875 124.742188 C 64.675781 127.160156 58.941406 132.199219 55.410156 143.625 C 53.769531 148.941406 52.609375 153.179688 51.59375 156.925781 C 49.566406 164.371094 48.226562 169.289062 45.191406 174.238281 C 44.972656 174.59375 44.589844 174.796875 44.203125 174.796875 C 44 174.796875 43.789062 174.742188 43.601562 174.621094 C 43.585938 174.617188 43.578125 174.609375 43.5625 174.59375 C 40.613281 178.960938 36.769531 182.667969 32.582031 185.617188 C 32.9375 186.132812 32.824219 186.839844 32.320312 187.207031 C 23.628906 193.632812 15.292969 194.875 10.132812 194.875 C 8.152344 194.875 6.644531 194.695312 5.765625 194.550781 C 6.539062 196.148438 8.0625 199.070312 10.273438 202.464844 C 22.972656 208.070312 42.472656 214.507812 54.003906 207.753906 C 54.003906 207.753906 51.75 220.488281 37.546875 224.917969 C 31.484375 228.886719 16.15625 238.34375 8.699219 237.71875 C 8.699219 237.71875 9.257812 238.902344 10.378906 240.792969 C 19.523438 245.433594 38.871094 252.324219 54.007812 237.78125 C 54.007812 237.78125 62.371094 250.386719 57 266.792969 C 57 266.792969 63.085938 280.769531 52.660156 291.960938 C 62.429688 289.28125 63.695312 278.246094 63.703125 278.125 C 63.769531 277.492188 64.335938 277.042969 64.976562 277.09375 C 65.617188 277.164062 66.074219 277.726562 66.007812 278.367188 C 66 278.433594 65.621094 281.679688 63.816406 285.273438 C 63.761719 288.949219 62.996094 295.222656 59.03125 300.953125 C 64.773438 300.796875 69.5 298.898438 73.101562 295.304688 C 80.867188 287.554688 80.964844 274.382812 80.964844 274.246094 C 80.964844 273.605469 81.484375 273.085938 82.125 273.085938 C 82.765625 273.085938 83.285156 273.605469 83.285156 274.246094 C 83.285156 274.5625 83.253906 278.796875 81.84375 283.957031 C 86.445312 291.464844 91.125 297.714844 95.507812 302.84375 C 95.550781 302.804688 95.597656 302.769531 95.652344 302.730469 C 96.199219 302.390625 96.90625 302.566406 97.246094 303.109375 C 101.164062 309.457031 108.875 315.25 113.378906 318.285156 L 106.308594 304.238281 C 106.066406 303.753906 106.195312 303.183594 106.585938 302.84375 C 103.703125 296.699219 100.628906 289.535156 98.015625 282.027344 C 97.886719 282.074219 97.765625 282.09375 97.640625 282.09375 C 97.164062 282.09375 96.71875 281.800781 96.546875 281.335938 C 87.710938 257.179688 91.960938 237.503906 92.140625 236.679688 C 92.285156 236.054688 92.902344 235.664062 93.527344 235.800781 C 94.152344 235.9375 94.542969 236.5625 94.40625 237.1875 C 94.386719 237.292969 93.097656 243.324219 93.375 252.632812 C 94.632812 258.378906 97.292969 265.21875 102.851562 270.738281 C 96.164062 246.734375 105.871094 225.347656 106.300781 224.429688 C 106.570312 223.847656 107.257812 223.597656 107.835938 223.863281 C 108.414062 224.132812 108.671875 224.820312 108.402344 225.40625 C 108.371094 225.472656 107.421875 227.574219 106.316406 231.117188 C 108.386719 229.820312 114.191406 226.113281 121.703125 220.632812 C 161.789062 184.527344 157.144531 152.132812 157.089844 151.8125 C 156.992188 151.179688 157.421875 150.582031 158.054688 150.484375 C 158.695312 150.386719 159.28125 150.816406 159.378906 151.449219 C 159.578125 152.660156 163.238281 178.199219 135.882812 209.574219 C 144.484375 202.414062 153.589844 193.886719 161.300781 184.59375 C 179.496094 162.664062 181.242188 140.09375 181.265625 139.867188 C 181.3125 139.226562 181.863281 138.75 182.5 138.789062 C 183.140625 138.835938 183.625 139.382812 183.578125 140.023438 C 183.5625 140.289062 183.414062 142.214844 182.808594 145.347656 C 186.386719 152.773438 192.578125 165.832031 192.878906 177.566406 C 200.628906 169.214844 201.027344 151.796875 201.035156 151.613281 C 201.042969 150.976562 201.601562 150.5 202.21875 150.476562 C 202.859375 150.484375 203.371094 151.011719 203.355469 151.660156 C 203.347656 152.15625 203.175781 159.636719 200.839844 167.308594 C 205.199219 174.503906 210.300781 182.417969 216.007812 190.453125 C 216.015625 190.445312 216.023438 190.445312 216.023438 190.4375 C 216.550781 190.078125 217.273438 190.21875 217.636719 190.746094 C 217.921875 191.167969 246.230469 232.554688 277.578125 247.261719 C 277.910156 222.589844 276.0625 201.125 276.035156 200.773438 C 275.980469 200.132812 276.449219 199.574219 277.085938 199.515625 C 277.734375 199.445312 278.292969 199.929688 278.34375 200.570312 C 278.398438 201.140625 283.308594 258.3125 275.605469 293.835938 C 272.636719 307.527344 269.414062 315.390625 266.972656 319.8125 C 276.53125 312.800781 286.238281 301.554688 286.351562 301.421875 C 286.765625 300.9375 287.496094 300.878906 287.984375 301.292969 C 293.738281 294.460938 299.378906 286.191406 303.566406 276.574219 C 298.921875 265.894531 298.742188 256.34375 298.742188 256.164062 C 298.734375 255.523438 299.253906 255.003906 299.894531 254.996094 C 299.894531 254.996094 299.898438 254.996094 299.898438 254.996094 C 300.53125 254.996094 301.050781 255.507812 301.058594 256.148438 C 301.058594 256.472656 301.683594 288.105469 329.664062 299.492188 C 325.320312 293.820312 325.71875 286.472656 325.949219 284.316406 C 321.785156 279.355469 319.609375 274.308594 319.464844 273.976562 C 319.21875 273.390625 319.488281 272.703125 320.085938 272.453125 C 320.671875 272.207031 321.355469 272.476562 321.605469 273.074219 C 321.652344 273.1875 326.109375 283.503906 334.320312 288.761719 C 329.015625 278.546875 328.8125 264.917969 329.007812 259.0625 C 324.996094 247.878906 324.882812 232.367188 324.882812 232.367188 C 345.984375 241.816406 364.496094 222.875 370.507812 215.707031 C 370.980469 214.230469 371.199219 213.386719 371.199219 213.386719 C 360.1875 217.304688 345.277344 213.371094 345.277344 213.371094 Z M 345.277344 213.371094 " fill-opacity="1" fill-rule="nonzero"/></g><path fill="#ffffff" d="M 84.242188 101.636719 C 95.011719 94.136719 106.789062 85.566406 120.007812 78.0625 C 120.015625 78.078125 120.023438 78.09375 120.03125 78.109375 C 120.246094 78.457031 120.625 78.644531 121.007812 78.644531 C 121.226562 78.644531 121.4375 78.582031 121.632812 78.464844 C 121.777344 78.371094 130.898438 72.609375 144.933594 69.207031 C 164.839844 80.15625 208.296875 98.667969 250.246094 80.601562 C 250.246094 80.601562 255.765625 103.511719 233.261719 115.351562 C 210.757812 127.207031 179.601562 137.773438 137.496094 131.542969 C 114.222656 128.101562 96.480469 115.621094 84.089844 103.113281 C 84.496094 102.730469 84.5625 102.105469 84.242188 101.636719 Z M 84.242188 101.636719 " fill-opacity="1" fill-rule="nonzero"/></svg>