<svg xmlns="http://www.w3.org/2000/svg" xmlns:xlink="http://www.w3.org/1999/xlink" width="500" zoomAndPan="magnify" viewBox="0 0 375 374.999991" height="500" preserveAspectRatio="xMidYMid meet" version="1.0"><defs><clipPath id="a1be916504"><path d="M 122.234375 123.488281 L 134.234375 123.488281 L 134.234375 130.238281 L 122.234375 130.238281 Z M 122.234375 123.488281 " clip-rule="nonzero"/></clipPath><clipPath id="9208f51ade"><path d="M 122.234375 124 L 134 124 L 134 130 L 122.234375 130 Z M 122.234375 124 " clip-rule="nonzero"/></clipPath><clipPath id="a799dee236"><path d="M 22 2 L 372 2 L 372 371.25 L 22 371.25 Z M 22 2 " clip-rule="nonzero"/></clipPath><clipPath id="dc6955ff01"><path d="M 24 4 L 361 4 L 361 371.25 L 24 371.25 Z M 24 4 " clip-rule="nonzero"/></clipPath></defs><g clip-path="url(#a1be916504)"><path fill="#353535" d="M 134.257812 127.402344 C 133.507812 127.613281 133.273438 127.035156 133.023438 126.703125 C 132.597656 126.148438 132.105469 126.078125 131.445312 126.148438 C 128.273438 126.464844 125.429688 127.410156 123.25 129.714844 C 122.988281 129.996094 122.628906 130.09375 122.261719 130.179688 L 122.257812 130.179688 C 122.753906 128.820312 123.914062 127.980469 125.117188 127.285156 C 126.960938 126.226562 128.929688 125.402344 131.195312 125.578125 C 131.960938 125.636719 132.527344 125.496094 132.613281 124.585938 C 132.660156 124.039062 133.144531 123.703125 133.929688 123.535156 C 133.105469 124.957031 133.6875 126.152344 134.257812 127.402344 Z M 122.234375 130.210938 L 122.261719 130.179688 C 122.261719 130.179688 122.257812 130.179688 122.257812 130.179688 C 122.261719 130.179688 122.234375 130.210938 122.234375 130.210938 Z M 122.234375 130.210938 " fill-opacity="1" fill-rule="nonzero"/></g><g clip-path="url(#9208f51ade)"><path fill="#ffffff" d="M 126.09375 127.09375 C 126.101562 127.09375 126.113281 127.09375 126.121094 127.089844 C 126.121094 127.105469 126.121094 127.125 126.121094 127.140625 C 126.117188 127.140625 126.113281 127.140625 126.105469 127.144531 C 126.101562 127.128906 126.097656 127.113281 126.09375 127.09375 Z M 125.542969 127.15625 C 125.597656 127.152344 125.640625 127.152344 125.695312 127.152344 C 125.609375 127.105469 125.59375 127.105469 125.542969 127.15625 Z M 125.847656 127.667969 C 125.847656 127.671875 125.855469 127.679688 125.863281 127.6875 C 125.871094 127.675781 125.882812 127.671875 125.890625 127.664062 C 125.875 127.652344 125.871094 127.648438 125.863281 127.644531 C 125.855469 127.652344 125.847656 127.660156 125.847656 127.667969 Z M 125.65625 127.703125 C 125.660156 127.703125 125.675781 127.707031 125.675781 127.707031 C 125.679688 127.695312 125.679688 127.675781 125.6875 127.664062 C 125.679688 127.664062 125.671875 127.664062 125.667969 127.660156 C 125.660156 127.671875 125.65625 127.691406 125.65625 127.703125 Z M 125.660156 127.523438 C 125.652344 127.523438 125.640625 127.523438 125.632812 127.523438 C 125.636719 127.542969 125.640625 127.5625 125.640625 127.585938 C 125.652344 127.585938 125.65625 127.585938 125.667969 127.582031 C 125.667969 127.566406 125.667969 127.542969 125.660156 127.523438 Z M 127.734375 126.136719 C 127.738281 126.15625 127.746094 126.179688 127.753906 126.199219 C 127.757812 126.199219 127.761719 126.199219 127.765625 126.195312 C 127.761719 126.171875 127.753906 126.152344 127.746094 126.128906 C 127.742188 126.132812 127.738281 126.136719 127.734375 126.136719 Z M 125.359375 127.898438 C 125.320312 127.902344 125.292969 127.902344 125.269531 127.90625 C 125.292969 127.933594 125.324219 127.949219 125.359375 127.898438 Z M 128.175781 126.722656 C 128.242188 126.730469 128.242188 126.730469 128.277344 126.707031 C 128.265625 126.703125 128.257812 126.695312 128.246094 126.699219 C 128.226562 126.699219 128.207031 126.707031 128.175781 126.722656 Z M 126.992188 126.800781 C 127.03125 126.804688 127.066406 126.808594 127.105469 126.8125 C 127.066406 126.738281 127.0625 126.734375 126.992188 126.800781 Z M 126.464844 126.929688 C 126.492188 126.933594 126.523438 126.933594 126.546875 126.9375 C 126.59375 126.941406 126.585938 126.914062 126.578125 126.875 C 126.542969 126.90625 126.488281 126.863281 126.464844 126.929688 Z M 126.214844 127.007812 C 126.226562 127.011719 126.230469 127.019531 126.234375 127.023438 C 126.25 127.011719 126.257812 126.996094 126.269531 126.984375 C 126.269531 126.984375 126.257812 126.972656 126.253906 126.96875 C 126.246094 126.984375 126.230469 126.992188 126.214844 127.007812 Z M 126.875 127.113281 C 126.890625 127.070312 126.894531 127.042969 126.910156 127 C 126.851562 127.046875 126.851562 127.046875 126.875 127.113281 Z M 123.324219 129.519531 C 123.371094 129.519531 123.378906 129.480469 123.375 129.445312 C 123.328125 129.441406 123.289062 129.433594 123.238281 129.433594 C 123.242188 129.496094 123.285156 129.519531 123.324219 129.519531 Z M 123.398438 128.710938 C 123.402344 128.71875 123.410156 128.726562 123.410156 128.734375 C 123.429688 128.722656 123.449219 128.71875 123.460938 128.710938 C 123.457031 128.699219 123.449219 128.6875 123.449219 128.6875 C 123.433594 128.695312 123.414062 128.699219 123.398438 128.710938 Z M 128.34375 126.679688 C 128.34375 126.691406 128.363281 126.699219 128.371094 126.707031 C 128.378906 126.699219 128.390625 126.691406 128.394531 126.679688 C 128.394531 126.671875 128.382812 126.660156 128.375 126.644531 C 128.359375 126.660156 128.34375 126.671875 128.34375 126.679688 Z M 123.105469 129.789062 C 123.113281 129.789062 123.125 129.789062 123.128906 129.792969 C 123.132812 129.773438 123.140625 129.753906 123.140625 129.734375 C 123.113281 129.738281 123.105469 129.746094 123.101562 129.757812 C 123.101562 129.765625 123.105469 129.78125 123.105469 129.789062 Z M 122.917969 129.328125 C 122.9375 129.339844 122.957031 129.34375 122.980469 129.351562 C 122.980469 129.34375 122.988281 129.339844 122.988281 129.328125 C 122.96875 129.324219 122.949219 129.316406 122.929688 129.3125 C 122.921875 129.316406 122.917969 129.320312 122.917969 129.328125 Z M 122.640625 129.886719 C 122.667969 129.839844 122.6875 129.804688 122.71875 129.761719 C 122.640625 129.773438 122.628906 129.792969 122.640625 129.886719 Z M 124.617188 127.964844 C 124.621094 127.980469 124.628906 127.992188 124.632812 128.007812 C 124.632812 128.007812 124.644531 128.007812 124.652344 128.007812 C 124.648438 127.988281 124.644531 127.96875 124.636719 127.957031 C 124.632812 127.960938 124.621094 127.960938 124.617188 127.964844 Z M 124.441406 128.347656 C 124.460938 128.292969 124.460938 128.292969 124.414062 128.265625 C 124.421875 128.296875 124.433594 128.324219 124.441406 128.347656 Z M 124.769531 128.386719 C 124.78125 128.355469 124.789062 128.328125 124.804688 128.289062 C 124.765625 128.304688 124.734375 128.320312 124.703125 128.332031 C 124.730469 128.351562 124.746094 128.371094 124.769531 128.386719 Z M 124.289062 128.613281 C 124.292969 128.617188 124.292969 128.628906 124.300781 128.632812 C 124.320312 128.621094 124.339844 128.613281 124.359375 128.605469 C 124.355469 128.601562 124.347656 128.59375 124.347656 128.585938 C 124.328125 128.59375 124.308594 128.605469 124.289062 128.613281 Z M 123.90625 128.472656 C 123.914062 128.488281 123.914062 128.507812 123.917969 128.527344 C 123.925781 128.527344 123.933594 128.523438 123.941406 128.523438 C 123.9375 128.503906 123.933594 128.484375 123.933594 128.464844 C 123.921875 128.464844 123.917969 128.472656 123.90625 128.472656 Z M 124.171875 128.367188 C 124.167969 128.367188 124.164062 128.375 124.15625 128.382812 C 124.183594 128.394531 124.207031 128.40625 124.242188 128.425781 C 124.234375 128.367188 124.210938 128.359375 124.171875 128.367188 Z M 132.769531 125.007812 C 132.769531 124.996094 132.773438 124.980469 132.773438 124.964844 C 132.761719 124.964844 132.753906 124.964844 132.75 124.964844 C 132.75 124.976562 132.75 124.992188 132.75 125.003906 C 132.753906 125.003906 132.761719 125.003906 132.769531 125.007812 Z M 133.140625 125.777344 C 133.140625 125.785156 133.148438 125.796875 133.15625 125.808594 C 133.164062 125.804688 133.175781 125.792969 133.195312 125.785156 C 133.179688 125.769531 133.171875 125.761719 133.160156 125.757812 C 133.15625 125.753906 133.140625 125.765625 133.140625 125.777344 Z M 133.058594 125.496094 C 133.046875 125.523438 133.042969 125.550781 133.101562 125.570312 C 133.089844 125.535156 133.085938 125.515625 133.082031 125.492188 C 133.070312 125.492188 133.0625 125.496094 133.058594 125.496094 Z M 133.050781 125.136719 C 133.023438 125.148438 132.992188 125.152344 132.953125 125.160156 C 133 125.203125 133.027344 125.210938 133.050781 125.164062 C 133.058594 125.164062 133.050781 125.152344 133.050781 125.136719 Z M 132.636719 126.183594 C 132.671875 126.179688 132.691406 126.179688 132.714844 126.179688 C 132.710938 126.160156 132.703125 126.144531 132.699219 126.117188 C 132.675781 126.144531 132.660156 126.15625 132.636719 126.183594 Z M 132.75 125.175781 C 132.808594 125.1875 132.851562 125.179688 132.871094 125.105469 C 132.75 125.085938 132.75 125.085938 132.75 125.175781 Z M 133.347656 124.957031 C 133.347656 124.972656 133.347656 124.980469 133.347656 124.996094 C 133.351562 125.007812 133.355469 125.019531 133.359375 125.03125 C 133.367188 125.03125 133.371094 125.027344 133.375 125.027344 C 133.371094 125.003906 133.371094 124.980469 133.367188 124.964844 C 133.359375 124.957031 133.351562 124.957031 133.347656 124.957031 Z M 133.40625 125.691406 C 133.410156 125.699219 133.414062 125.703125 133.417969 125.710938 C 133.4375 125.699219 133.457031 125.679688 133.480469 125.664062 C 133.472656 125.660156 133.464844 125.652344 133.457031 125.648438 C 133.445312 125.660156 133.425781 125.675781 133.40625 125.691406 Z M 133.222656 124.578125 C 133.222656 124.582031 133.222656 124.589844 133.222656 124.59375 C 133.242188 124.59375 133.269531 124.59375 133.308594 124.59375 C 133.277344 124.578125 133.269531 124.566406 133.257812 124.566406 C 133.25 124.566406 133.234375 124.578125 133.222656 124.578125 Z M 129.238281 126.207031 C 129.246094 126.207031 129.25 126.207031 129.261719 126.210938 C 129.261719 126.199219 129.265625 126.179688 129.265625 126.167969 C 129.261719 126.167969 129.25 126.167969 129.246094 126.160156 C 129.242188 126.175781 129.242188 126.195312 129.238281 126.207031 Z M 133.449219 126.546875 C 133.453125 126.546875 133.464844 126.546875 133.46875 126.546875 C 133.472656 126.519531 133.472656 126.488281 133.480469 126.460938 C 133.46875 126.460938 133.457031 126.460938 133.449219 126.460938 C 133.449219 126.492188 133.449219 126.519531 133.449219 126.546875 Z M 133.003906 124.828125 C 133.03125 124.855469 133.050781 124.871094 133.082031 124.898438 C 133.085938 124.835938 133.066406 124.824219 133.003906 124.828125 Z M 129.757812 125.679688 C 129.75 125.714844 129.75 125.75 129.820312 125.777344 C 129.800781 125.730469 129.789062 125.703125 129.777344 125.675781 C 129.769531 125.679688 129.765625 125.679688 129.757812 125.679688 Z M 129.644531 126.03125 C 129.65625 126.042969 129.671875 126.050781 129.6875 126.058594 C 129.6875 126.058594 129.699219 126.046875 129.707031 126.039062 C 129.6875 126.027344 129.675781 126.019531 129.65625 126.019531 C 129.65625 126.015625 129.648438 126.027344 129.644531 126.03125 Z M 129.628906 125.832031 C 129.632812 125.796875 129.636719 125.78125 129.644531 125.742188 C 129.59375 125.78125 129.589844 125.796875 129.628906 125.832031 Z M 129.859375 126.265625 C 129.875 126.289062 129.882812 126.304688 129.898438 126.328125 C 129.914062 126.304688 129.921875 126.28125 129.9375 126.261719 C 129.933594 126.257812 129.925781 126.253906 129.925781 126.25 C 129.902344 126.25 129.878906 126.257812 129.859375 126.265625 Z M 129.203125 125.914062 C 129.230469 125.925781 129.230469 125.980469 129.300781 125.945312 C 129.265625 125.921875 129.238281 125.910156 129.210938 125.894531 C 129.207031 125.902344 129.203125 125.910156 129.203125 125.914062 Z M 129.90625 125.691406 C 129.914062 125.699219 129.917969 125.703125 129.921875 125.707031 C 129.945312 125.691406 129.976562 125.679688 130.019531 125.660156 C 129.984375 125.648438 129.957031 125.628906 129.945312 125.636719 C 129.925781 125.648438 129.921875 125.671875 129.90625 125.691406 Z M 132.453125 125.21875 C 132.453125 125.226562 132.453125 125.234375 132.453125 125.238281 C 132.472656 125.238281 132.492188 125.238281 132.511719 125.238281 C 132.511719 125.234375 132.511719 125.230469 132.511719 125.226562 C 132.492188 125.226562 132.472656 125.226562 132.453125 125.21875 Z M 131.195312 126.039062 C 131.25 126.050781 131.28125 126.058594 131.3125 126.070312 C 131.289062 126.039062 131.265625 126.015625 131.195312 126.039062 Z M 131.382812 125.757812 C 131.441406 125.691406 131.441406 125.691406 131.363281 125.679688 C 131.367188 125.703125 131.371094 125.71875 131.382812 125.757812 Z M 130.367188 126.046875 C 130.398438 126.058594 130.417969 126.070312 130.445312 126.078125 C 130.453125 126.046875 130.457031 126.019531 130.460938 125.992188 C 130.457031 125.988281 130.453125 125.988281 130.445312 125.980469 C 130.417969 126 130.398438 126.019531 130.367188 126.046875 Z M 130.367188 126.046875 " fill-opacity="1" fill-rule="nonzero"/></g><g clip-path="url(#a799dee236)"><path fill="#100c07" d="M 114.613281 371.347656 C 114.613281 371.347656 116.195312 369.542969 118.144531 366.332031 C 117.601562 368.121094 116.464844 369.792969 114.613281 371.347656 Z M 371.761719 220.421875 C 359.492188 234.140625 338.542969 223.3125 338.542969 204.53125 C 338.542969 194.320312 344.738281 171.273438 346.441406 147.144531 C 347.289062 135.15625 347.019531 122.917969 344.332031 111.84375 C 344.800781 111.726562 345.132812 111.289062 345.097656 110.78125 C 344.433594 101.945312 335.199219 80.03125 312.070312 72.457031 C 302.214844 69.226562 294.511719 68.148438 288.929688 67.960938 C 293.417969 62.5 300.863281 56.035156 309.664062 58.671875 C 314.144531 60.015625 319.605469 61.222656 325.070312 61.839844 C 325.039062 61.898438 325.023438 61.964844 325.007812 62.039062 C 324.90625 62.589844 325.269531 63.125 325.820312 63.226562 C 327.765625 63.59375 329.660156 63.734375 331.429688 63.734375 C 337.390625 63.734375 341.9375 62.144531 342.183594 62.054688 C 342.703125 61.867188 342.980469 61.304688 342.808594 60.78125 C 346.5625 59.480469 349.355469 57.246094 350.453125 53.714844 C 351.242188 53.269531 351.554688 52.90625 351.636719 52.792969 C 351.964844 52.355469 351.875 51.761719 351.449219 51.417969 C 351.035156 51.070312 350.402344 51.136719 350.03125 51.539062 C 350.007812 51.566406 347.246094 54.429688 332.796875 54.011719 C 321.867188 53.699219 318.632812 51.019531 315.214844 48.1875 C 313.890625 47.085938 312.523438 45.957031 310.710938 44.976562 C 301.753906 40.144531 293.164062 38.785156 284.449219 40.800781 C 279.34375 41.980469 276.660156 46.410156 275.246094 50.9375 C 273.84375 43.28125 269.019531 22.480469 257.1875 14.839844 C 256.773438 14.574219 256.238281 14.664062 255.910156 15.011719 C 252.921875 12.230469 249.46875 9.789062 245.484375 7.863281 C 245.5 7.832031 245.511719 7.8125 245.527344 7.78125 C 245.722656 7.253906 245.4375 6.667969 244.910156 6.480469 C 244.175781 6.210938 226.683594 0.03125 212.644531 3.539062 C 212.101562 3.671875 211.765625 4.230469 211.902344 4.769531 C 212.035156 5.3125 212.59375 5.648438 213.132812 5.515625 C 213.648438 5.386719 214.175781 5.277344 214.703125 5.171875 C 218.460938 6.605469 227.484375 10.539062 235.980469 17.941406 C 235.980469 17.941406 235.980469 17.941406 235.972656 17.941406 C 235.601562 18.363281 235.644531 19.003906 236.066406 19.375 C 236.195312 19.484375 248.5 30.351562 250.761719 41.132812 C 250.855469 41.617188 251.289062 41.945312 251.757812 41.945312 C 251.824219 41.945312 251.898438 41.9375 251.964844 41.921875 C 252 41.914062 252.03125 41.898438 252.0625 41.890625 C 253.25 45.695312 254.023438 49.84375 254.269531 54.355469 C 250.96875 50.296875 246.441406 45.816406 240.296875 41.59375 C 219.75 27.480469 200.011719 27.371094 187.070312 29.761719 C 170.589844 32.808594 149.59375 44.34375 149.386719 44.464844 C 148.894531 44.738281 148.71875 45.355469 148.984375 45.84375 C 148.992188 45.859375 149 45.867188 149.007812 45.882812 C 141.792969 50.347656 135.683594 55.203125 130.167969 59.972656 C 114.828125 73.195312 104.070312 85.753906 86.671875 87.328125 C 85.929688 87.394531 85.214844 87.445312 84.492188 87.507812 C 84.492188 87.476562 84.492188 87.441406 84.488281 87.410156 C 84.390625 86.859375 83.855469 86.488281 83.304688 86.59375 C 83.15625 86.621094 73.488281 88.339844 63.984375 87.410156 C 53.898438 86.042969 47.617188 82.113281 45.34375 74.539062 C 43.613281 66.667969 46.488281 57.652344 46.535156 57.527344 C 46.710938 56.992188 46.414062 56.421875 45.878906 56.242188 C 45.34375 56.0625 44.773438 56.355469 44.59375 56.886719 C 44.542969 57.050781 44.238281 57.996094 43.894531 59.445312 C 36.09375 65.730469 -0.417969 97.875 52.226562 109.296875 C 43.953125 114.410156 33.179688 122.523438 27.925781 132.570312 C 19.28125 149.097656 22.113281 157.757812 27.257812 173.476562 L 27.925781 175.519531 C 28.066406 175.949219 28.460938 176.226562 28.890625 176.226562 C 28.996094 176.226562 29.097656 176.210938 29.203125 176.171875 C 29.226562 176.164062 29.246094 176.152344 29.269531 176.144531 C 29.753906 177.332031 30.265625 178.535156 30.832031 179.761719 C 36.53125 192.113281 41.003906 203.359375 44.25 213.359375 C 54.195312 243.875 52.777344 262.800781 40.453125 266.414062 C 24.097656 271.230469 22.171875 299.148438 37.578125 306.855469 C 37.5625 306.804688 37.542969 306.761719 37.542969 306.707031 C 36.984375 304.566406 31.296875 280.140625 57.589844 269.742188 C 54.285156 275.234375 51.015625 283.402344 51.566406 293.777344 C 51.59375 294.320312 52.039062 294.742188 52.582031 294.742188 C 52.597656 294.742188 52.621094 294.742188 52.632812 294.742188 C 52.730469 294.734375 52.820312 294.714844 52.910156 294.683594 C 54.054688 302.53125 58.417969 311.046875 69.347656 318.40625 C 81.046875 326.277344 123.125 350.382812 118.136719 366.347656 C 121.09375 361.53125 124.90625 353.550781 125.507812 343.835938 C 125.746094 340.097656 125.507812 336.101562 124.566406 331.929688 C 125.0625 331.8125 125.40625 331.34375 125.335938 330.824219 C 124.171875 320.992188 113.625 309.152344 103.429688 297.707031 C 102.300781 296.4375 101.171875 295.175781 100.070312 293.925781 C 99.691406 293.496094 99.335938 293.054688 98.992188 292.617188 C 100.242188 291.339844 102.863281 288.464844 105.800781 284.144531 C 105.972656 284.257812 106.164062 284.332031 106.359375 284.332031 C 106.640625 284.332031 106.914062 284.21875 107.117188 283.988281 C 117.339844 272.507812 119.28125 252.199219 119.40625 239.699219 C 119.890625 241.109375 120.476562 242.679688 121.191406 244.371094 C 123.367188 250.53125 126.125 256.253906 129.625 260.738281 C 138.886719 272.597656 153.066406 278.660156 153.660156 278.914062 C 153.785156 278.964844 153.917969 278.996094 154.054688 278.996094 C 154.453125 278.996094 154.828125 278.765625 154.988281 278.371094 C 155.207031 277.851562 154.96875 277.257812 154.445312 277.042969 C 154.417969 277.027344 153.859375 276.789062 152.910156 276.328125 C 148.136719 269.207031 130.085938 240.046875 132.421875 209.785156 C 132.425781 209.785156 132.425781 209.785156 132.433594 209.785156 C 132.457031 209.785156 132.480469 209.785156 132.5 209.785156 C 133.035156 209.785156 133.484375 209.371094 133.519531 208.835938 C 135.332031 180.824219 153.25 160.039062 159.402344 153.683594 C 158.792969 165.5 161.152344 180.4375 173.300781 192.34375 C 185.75 204.546875 207.640625 217.253906 226.949219 228.460938 C 244.21875 238.488281 260.523438 247.953125 266.320312 254.941406 C 276.898438 267.675781 278.292969 273.628906 273.449219 285.28125 C 273.234375 285.804688 273.480469 286.398438 274 286.613281 C 274.125 286.664062 274.257812 286.695312 274.394531 286.695312 C 274.792969 286.695312 275.171875 286.457031 275.328125 286.070312 C 275.550781 285.527344 275.765625 285 275.96875 284.472656 C 279.230469 281.855469 286.707031 275.214844 290.257812 266.785156 C 291.078125 271.015625 291.015625 276.253906 288.726562 282.175781 C 282.539062 298.199219 264.34375 318.621094 264.167969 318.820312 C 263.734375 319.304688 253.570312 330.726562 255.496094 339.40625 C 255.597656 339.882812 256.023438 340.203125 256.488281 340.203125 C 256.488281 340.203125 256.496094 340.203125 256.496094 340.203125 C 256.875 351.273438 267.28125 357.90625 273.425781 360.863281 C 274.527344 361.941406 275.796875 362.867188 277.285156 363.574219 C 277.425781 363.640625 277.574219 363.671875 277.714844 363.671875 C 278.09375 363.671875 278.457031 363.457031 278.636719 363.089844 C 278.882812 362.585938 278.660156 361.976562 278.152344 361.738281 C 272.082031 358.863281 269.925781 351.601562 269.191406 346.019531 C 268.542969 341.101562 273.277344 333.8125 277.609375 331.292969 C 282.242188 328.59375 286.222656 324.78125 286.386719 324.617188 C 286.789062 324.230469 286.804688 323.585938 286.417969 323.175781 C 286.402344 323.160156 286.386719 323.15625 286.371094 323.148438 C 294.199219 314.546875 297.304688 303.140625 297.941406 300.472656 C 298.269531 300.851562 298.582031 301.261719 298.863281 301.714844 C 300.410156 304.210938 300.738281 307.347656 299.847656 311.046875 C 298.820312 315.300781 297.59375 319.417969 296.40625 323.398438 C 293.980469 331.53125 291.6875 339.214844 291.203125 347.402344 C 290.535156 358.609375 293.574219 364.683594 301.042969 367.089844 C 301.144531 367.121094 301.25 367.140625 301.355469 367.140625 C 301.785156 367.140625 302.1875 366.867188 302.320312 366.4375 C 302.359375 366.316406 302.371094 366.199219 302.363281 366.078125 C 307.746094 366.457031 313.238281 364.167969 313.238281 364.167969 C 294.457031 354.789062 311.066406 328.78125 331.289062 307.84375 C 348.070312 290.46875 337.003906 272.097656 332.746094 266.339844 C 331.875 265.164062 331.289062 264.503906 331.289062 264.503906 C 352.945312 264.503906 351.511719 295.554688 351.511719 295.554688 C 358.539062 286.382812 360.597656 277.886719 359.863281 270.390625 C 357.910156 250.140625 335.621094 237.066406 335.621094 237.066406 C 360.933594 242.8125 371.761719 220.421875 371.761719 220.421875 Z M 371.761719 220.421875 " fill-opacity="1" fill-rule="nonzero"/></g><g clip-path="url(#dc6955ff01)"><path fill="#3d301c" d="M 45.359375 74.523438 C 47.632812 82.105469 53.914062 86.027344 63.996094 87.394531 C 59.027344 86.914062 54.089844 85.699219 50.597656 83.144531 C 47.640625 80.980469 46.085938 77.851562 45.359375 74.523438 Z M 119.429688 239.683594 C 119.914062 241.09375 120.5 242.664062 121.214844 244.355469 C 120.566406 242.535156 119.980469 240.679688 119.429688 238.796875 C 119.4375 239.089844 119.4375 239.386719 119.429688 239.683594 Z M 131.519531 208.6875 C 133.59375 176.683594 156.140625 153.9375 159.671875 150.554688 C 159.933594 147.917969 160.316406 145.488281 160.75 143.339844 C 125.746094 132.207031 95.84375 111.800781 75.761719 89.527344 C 74 89.65625 72.054688 89.742188 70.003906 89.742188 C 62.964844 89.742188 54.769531 88.726562 49.394531 84.792969 C 40.558594 78.328125 42.574219 65.042969 43.910156 59.445312 C 36.105469 65.730469 -0.40625 97.875 52.242188 109.296875 C 58.140625 105.648438 62.769531 103.523438 63.21875 103.320312 C 63.730469 103.089844 64.332031 103.320312 64.5625 103.828125 C 64.792969 104.339844 64.5625 104.941406 64.058594 105.171875 C 63.804688 105.289062 38.417969 116.921875 29.746094 133.507812 C 21.496094 149.269531 24.074219 157.148438 29.210938 172.835938 L 29.878906 174.878906 C 30.042969 175.390625 29.78125 175.933594 29.292969 176.136719 C 29.773438 177.324219 30.289062 178.527344 30.851562 179.753906 C 36.554688 192.105469 41.027344 203.351562 44.273438 213.351562 C 44.273438 213.351562 61.855469 224.648438 58.675781 243.785156 C 55.488281 262.871094 28.46875 280.097656 37.554688 306.699219 C 37 304.558594 31.3125 280.132812 57.605469 269.734375 C 60.59375 264.78125 63.609375 262 63.871094 261.769531 C 64.289062 261.390625 64.933594 261.425781 65.304688 261.84375 C 65.683594 262.261719 65.648438 262.90625 65.230469 263.285156 C 65.132812 263.375 57.429688 270.488281 54.589844 282.601562 C 57.152344 289.792969 64.621094 303.824219 85.097656 310.765625 C 102.253906 316.578125 116.878906 330.25 125.53125 343.835938 C 125.769531 340.097656 125.53125 336.101562 124.585938 331.929688 C 124.550781 331.9375 124.511719 331.953125 124.46875 331.953125 C 124.429688 331.960938 124.386719 331.960938 124.347656 331.960938 C 123.84375 331.960938 123.398438 331.582031 123.339844 331.0625 C 122.246094 321.859375 111.921875 310.277344 101.9375 299.0625 C 100.796875 297.789062 99.675781 296.519531 98.570312 295.269531 C 87.609375 282.84375 89.949219 265.457031 90.050781 264.726562 C 90.132812 264.171875 90.648438 263.789062 91.203125 263.867188 C 91.761719 263.945312 92.148438 264.460938 92.066406 265.015625 C 92.042969 265.179688 89.933594 280.996094 99.015625 292.625 C 100.265625 291.347656 102.886719 288.472656 105.824219 284.152344 C 105.785156 284.125 105.742188 284.117188 105.703125 284.078125 C 105.289062 283.707031 105.242188 283.0625 105.621094 282.644531 C 119.496094 267.066406 117.371094 233.0625 117.097656 229.425781 C 113.722656 213.597656 113.210938 198.957031 113.179688 197.925781 C 113.164062 197.359375 113.601562 196.890625 114.167969 196.878906 C 114.734375 196.816406 115.199219 197.300781 115.214844 197.867188 C 115.230469 198.296875 116.710938 240.851562 131.269531 259.496094 C 138.460938 268.703125 149.035156 274.425781 152.953125 276.335938 C 148.183594 269.214844 130.132812 240.054688 132.464844 209.792969 C 131.90625 209.71875 131.484375 209.234375 131.519531 208.6875 Z M 359.90625 270.351562 C 360.644531 277.851562 358.585938 286.347656 351.554688 295.515625 C 351.554688 295.515625 352.988281 264.46875 331.332031 264.46875 C 331.332031 264.46875 331.921875 265.121094 332.789062 266.304688 C 326.671875 260.804688 320.652344 258.351562 320.652344 258.351562 C 333.875 286.605469 305.621094 323.503906 300.152344 344.460938 C 294.6875 365.417969 313.28125 364.125 313.28125 364.125 C 313.28125 364.125 307.789062 366.40625 302.410156 366.035156 C 302.394531 365.617188 302.128906 365.246094 301.703125 365.105469 C 297.105469 363.621094 292.503906 360.371094 293.269531 347.476562 C 293.746094 339.527344 295.996094 331.953125 298.390625 323.941406 C 299.585938 319.929688 300.828125 315.789062 301.859375 311.488281 C 302.886719 307.234375 302.46875 303.578125 300.625 300.605469 C 297.808594 296.058594 292.6875 294.847656 292.472656 294.804688 C 291.925781 294.667969 291.382812 295.019531 291.253906 295.566406 C 291.128906 296.117188 291.46875 296.660156 292.019531 296.785156 C 292.058594 296.792969 295.527344 297.621094 297.972656 300.445312 C 297.335938 303.109375 294.21875 314.519531 286.402344 323.117188 C 286.007812 322.753906 285.398438 322.746094 285.011719 323.125 C 284.976562 323.160156 281.042969 326.929688 276.621094 329.5 C 271.730469 332.347656 266.441406 340.453125 267.207031 346.257812 C 267.839844 351.03125 269.464844 356.929688 273.464844 360.839844 C 267.316406 357.882812 256.914062 351.253906 256.535156 340.179688 C 256.601562 340.179688 256.675781 340.171875 256.75 340.15625 C 257.300781 340.03125 257.640625 339.488281 257.523438 338.945312 C 255.828125 331.292969 265.625 320.277344 265.726562 320.167969 C 266.484375 319.320312 284.351562 299.269531 290.675781 282.898438 C 297.15625 266.125 286.855469 254.300781 286.75 254.1875 C 286.378906 253.773438 285.734375 253.734375 285.316406 254.109375 C 284.902344 254.480469 284.863281 255.125 285.234375 255.542969 C 285.292969 255.609375 288.972656 259.835938 290.3125 266.769531 C 286.75 275.199219 279.28125 281.84375 276.019531 284.457031 C 280.398438 273.042969 278.539062 266.382812 267.941406 253.632812 C 263.699219 248.519531 254.660156 242.492188 243.335938 235.683594 C 236.410156 231.285156 228.875 226.976562 221.199219 222.722656 C 203.84375 212.59375 185.601562 201.492188 174.773438 190.878906 C 162.347656 178.707031 160.617188 163.160156 161.625 151.476562 C 161.863281 151.164062 161.902344 150.765625 161.722656 150.421875 C 161.960938 148.074219 162.308594 145.898438 162.695312 143.949219 C 182.046875 149.878906 202.914062 152.964844 224.511719 151.96875 C 239.738281 151.261719 251.429688 147.257812 260.167969 142.425781 C 260.398438 142.835938 260.882812 143.042969 261.351562 142.902344 C 261.441406 142.871094 270.640625 140.167969 277.296875 144.367188 C 280.875 146.609375 283.101562 150.472656 283.941406 155.847656 C 284.285156 158.046875 284.609375 160.3125 284.929688 162.582031 C 286.914062 176.449219 288.972656 190.78125 295.878906 194.222656 C 297.46875 195.019531 299.242188 195.210938 301.191406 194.796875 C 297.832031 197.925781 291.492188 201.738281 283.386719 196.996094 C 277.96875 193.824219 276.578125 189.652344 275.234375 185.617188 C 273.492188 180.394531 271.695312 175 261.230469 173.148438 C 260.675781 173.042969 260.144531 173.421875 260.050781 173.972656 C 259.953125 174.523438 260.324219 175.058594 260.875 175.15625 C 270.140625 176.789062 271.605469 181.179688 273.300781 186.257812 C 274.691406 190.433594 276.273438 195.167969 282.320312 198.71875 C 282.558594 198.875 306.332031 214.363281 303.6875 232.5625 C 303.605469 233.121094 303.992188 233.632812 304.550781 233.714844 C 304.601562 233.722656 304.648438 233.722656 304.699219 233.722656 C 305.195312 233.722656 305.628906 233.359375 305.703125 232.851562 C 307.714844 219.023438 296.160156 207.09375 288.921875 201.105469 C 289.597656 201.203125 290.257812 201.238281 290.90625 201.238281 C 299.800781 201.238281 305.464844 193.003906 305.539062 192.902344 C 305.796875 192.515625 305.761719 191.996094 305.441406 191.644531 C 305.121094 191.296875 304.609375 191.214844 304.199219 191.445312 C 301.226562 193.085938 298.804688 193.390625 296.785156 192.386719 C 290.832031 189.421875 288.855469 175.621094 286.945312 162.277344 C 286.617188 159.992188 286.289062 157.726562 285.949219 155.511719 C 285.019531 149.539062 282.472656 145.199219 278.375 142.625 C 273.34375 139.46875 267.257812 139.75 263.714844 140.308594 C 266.589844 138.480469 269.09375 136.59375 271.234375 134.757812 C 278.703125 128.320312 281.863281 122.5625 281.863281 122.5625 C 278.070312 123.445312 274.324219 124.128906 270.632812 124.648438 C 202.136719 134.15625 150.101562 83.277344 130.183594 59.949219 C 135.699219 55.179688 141.804688 50.328125 149.023438 45.859375 C 149.304688 46.320312 149.898438 46.484375 150.382812 46.222656 C 150.589844 46.113281 171.300781 34.734375 187.457031 31.746094 C 200.019531 29.421875 219.183594 29.53125 239.160156 43.25 C 255.960938 54.792969 260.371094 68.652344 260.414062 68.785156 C 260.546875 69.226562 260.949219 69.507812 261.386719 69.507812 C 261.484375 69.507812 261.589844 69.492188 261.683594 69.460938 C 262.21875 69.300781 262.523438 68.726562 262.359375 68.191406 C 262.242188 67.804688 260.339844 61.777344 254.28125 54.332031 C 254.046875 49.820312 253.265625 45.675781 252.074219 41.871094 C 252.566406 41.714844 252.871094 41.214844 252.765625 40.695312 C 250.367188 29.242188 237.949219 18.28125 237.421875 17.820312 C 236.996094 17.449219 236.359375 17.492188 235.988281 17.917969 C 227.492188 10.515625 218.46875 6.585938 214.710938 5.148438 C 227.894531 2.609375 244.058594 8.316406 244.226562 8.375 C 244.339844 8.414062 244.457031 8.433594 244.570312 8.433594 C 244.957031 8.433594 245.3125 8.203125 245.484375 7.839844 C 249.476562 9.757812 252.921875 12.210938 255.910156 14.988281 C 255.867188 15.035156 255.8125 15.0625 255.785156 15.117188 C 255.480469 15.589844 255.613281 16.214844 256.089844 16.519531 C 269.605469 25.253906 273.664062 53.746094 273.710938 54.027344 C 273.761719 54.390625 274 54.675781 274.3125 54.816406 C 273.621094 58.695312 273.695312 61.917969 273.703125 62.230469 C 273.714844 62.78125 274.167969 63.21875 274.71875 63.21875 C 274.726562 63.21875 274.742188 63.21875 274.75 63.21875 C 275.3125 63.207031 275.753906 62.738281 275.738281 62.171875 C 275.730469 62 275.367188 44.953125 284.914062 42.746094 C 293.128906 40.84375 301.25 42.152344 309.753906 46.738281 C 311.386719 47.621094 312.613281 48.640625 313.921875 49.71875 C 317.457031 52.652344 321.113281 55.683594 332.746094 56.019531 C 343.832031 56.339844 348.546875 54.761719 350.453125 53.6875 C 349.355469 57.214844 346.5625 59.460938 342.808594 60.753906 C 342.808594 60.746094 342.808594 60.730469 342.800781 60.722656 C 342.613281 60.195312 342.027344 59.921875 341.5 60.105469 C 341.425781 60.128906 334.148438 62.683594 326.191406 61.199219 C 325.699219 61.117188 325.238281 61.378906 325.0625 61.816406 C 319.597656 61.207031 314.144531 59.996094 309.65625 58.648438 C 300.855469 56.011719 293.410156 62.476562 288.921875 67.9375 C 281.78125 67.703125 278.101562 68.941406 277.839844 69.03125 C 277.3125 69.21875 277.03125 69.796875 277.214844 70.332031 C 277.402344 70.859375 277.980469 71.140625 278.515625 70.957031 C 278.621094 70.917969 289.613281 67.226562 311.433594 74.367188 C 334.03125 81.769531 342.523438 103.746094 343.058594 110.910156 C 343.097656 111.445312 343.542969 111.851562 344.070312 111.851562 C 344.09375 111.851562 344.125 111.851562 344.144531 111.851562 C 344.203125 111.84375 344.265625 111.835938 344.316406 111.824219 C 347.007812 122.894531 347.273438 135.144531 346.425781 147.121094 C 341.929688 154.964844 335.292969 166.089844 326.5625 179.507812 C 308.785156 206.84375 313.355469 235.550781 331.109375 248.757812 C 343.507812 257.972656 354.328125 262.765625 359.90625 270.351562 Z M 303.636719 258.300781 C 302.757812 240.835938 285.300781 234.234375 258.875 224.246094 C 252.746094 221.929688 245.796875 219.304688 238.542969 216.339844 C 202.097656 201.453125 208.027344 176.5 208.304688 175.445312 C 208.445312 174.902344 208.117188 174.34375 207.574219 174.203125 C 207.03125 174.0625 206.476562 174.390625 206.335938 174.933594 C 206.261719 175.207031 199.625 202.636719 237.777344 218.226562 C 245.054688 221.199219 252.015625 223.832031 258.15625 226.148438 C 284.746094 236.199219 300.796875 242.261719 301.601562 258.394531 C 301.628906 258.9375 302.074219 259.363281 302.617188 259.363281 C 302.632812 259.363281 302.65625 259.363281 302.667969 259.363281 C 303.234375 259.339844 303.664062 258.863281 303.636719 258.300781 Z M 118.152344 366.332031 C 116.195312 369.542969 114.621094 371.347656 114.621094 371.347656 C 116.464844 369.792969 117.601562 368.121094 118.152344 366.332031 Z M 118.152344 366.332031 " fill-opacity="1" fill-rule="nonzero"/></g><path fill="#ffffff" d="M 84.507812 87.5 C 85.230469 87.441406 85.941406 87.386719 86.6875 87.320312 C 104.082031 85.738281 114.84375 73.1875 130.183594 59.964844 C 150.101562 83.292969 202.136719 134.167969 270.632812 124.664062 C 274.324219 124.144531 278.070312 123.460938 281.863281 122.578125 C 281.863281 122.578125 278.703125 128.335938 271.234375 134.769531 C 269.09375 136.605469 266.589844 138.496094 263.714844 140.324219 C 262.011719 140.589844 260.890625 140.917969 260.753906 140.953125 C 260.222656 141.117188 259.917969 141.683594 260.070312 142.226562 C 260.09375 142.300781 260.125 142.367188 260.160156 142.425781 C 251.429688 147.257812 239.730469 151.261719 224.503906 151.96875 C 202.910156 152.964844 182.039062 149.878906 162.6875 143.949219 C 163.8125 138.285156 165.246094 134.621094 165.289062 134.511719 C 165.496094 133.992188 165.246094 133.398438 164.726562 133.1875 C 164.203125 132.980469 163.609375 133.234375 163.402344 133.753906 C 163.359375 133.863281 161.902344 137.582031 160.742188 143.339844 C 125.738281 132.207031 95.835938 111.800781 75.753906 89.527344 C 80.160156 89.207031 83.328125 88.652344 83.675781 88.585938 C 84.203125 88.488281 84.554688 88.011719 84.507812 87.5 Z M 84.507812 87.5 " fill-opacity="1" fill-rule="nonzero"/></svg>