<svg xmlns="http://www.w3.org/2000/svg" xmlns:xlink="http://www.w3.org/1999/xlink" width="500" zoomAndPan="magnify" viewBox="0 0 375 374.999991" height="500" preserveAspectRatio="xMidYMid meet" version="1.0"><defs><clipPath id="1bcee83e2e"><path d="M 160.589844 232.839844 L 172.589844 232.839844 L 172.589844 239.589844 L 160.589844 239.589844 Z M 160.589844 232.839844 " clip-rule="nonzero"/></clipPath><clipPath id="4d5602e4b8"><path d="M 160.589844 233 L 172 233 L 172 239.589844 L 160.589844 239.589844 Z M 160.589844 233 " clip-rule="nonzero"/></clipPath><clipPath id="17f20103d4"><path d="M 66 6.742188 L 309 6.742188 L 309 374.992188 L 66 374.992188 Z M 66 6.742188 " clip-rule="nonzero"/></clipPath><clipPath id="8328ea9be0"><path d="M 68 6.742188 L 307 6.742188 L 307 374.992188 L 68 374.992188 Z M 68 6.742188 " clip-rule="nonzero"/></clipPath></defs><g clip-path="url(#1bcee83e2e)"><path fill="#353535" d="M 172.617188 236.753906 C 171.867188 236.964844 171.632812 236.386719 171.382812 236.054688 C 170.957031 235.5 170.464844 235.429688 169.804688 235.5 C 166.628906 235.816406 163.789062 236.761719 161.609375 239.066406 C 161.347656 239.347656 160.988281 239.441406 160.621094 239.53125 L 160.617188 239.53125 C 161.109375 238.171875 162.273438 237.332031 163.476562 236.636719 C 165.316406 235.578125 167.285156 234.753906 169.554688 234.929688 C 170.320312 234.988281 170.886719 234.847656 170.96875 233.9375 C 171.019531 233.390625 171.503906 233.054688 172.289062 232.886719 C 171.464844 234.308594 172.046875 235.503906 172.617188 236.753906 Z M 160.589844 239.5625 L 160.621094 239.53125 C 160.621094 239.53125 160.617188 239.53125 160.617188 239.53125 C 160.621094 239.53125 160.589844 239.5625 160.589844 239.5625 Z M 160.589844 239.5625 " fill-opacity="1" fill-rule="nonzero"/></g><g clip-path="url(#4d5602e4b8)"><path fill="#ffffff" d="M 164.453125 236.445312 C 164.460938 236.445312 164.472656 236.445312 164.480469 236.441406 C 164.480469 236.457031 164.480469 236.476562 164.480469 236.492188 C 164.476562 236.492188 164.472656 236.492188 164.464844 236.496094 C 164.460938 236.480469 164.457031 236.464844 164.453125 236.445312 Z M 163.902344 236.507812 C 163.957031 236.503906 164 236.503906 164.054688 236.503906 C 163.964844 236.457031 163.953125 236.457031 163.902344 236.507812 Z M 164.207031 237.019531 C 164.207031 237.023438 164.214844 237.03125 164.222656 237.035156 C 164.230469 237.027344 164.242188 237.023438 164.25 237.015625 C 164.234375 237.003906 164.230469 237 164.222656 236.996094 C 164.214844 237.003906 164.207031 237.007812 164.207031 237.019531 Z M 164.015625 237.054688 C 164.019531 237.054688 164.035156 237.058594 164.035156 237.058594 C 164.039062 237.046875 164.039062 237.027344 164.042969 237.015625 C 164.039062 237.015625 164.03125 237.015625 164.023438 237.007812 C 164.019531 237.023438 164.015625 237.042969 164.015625 237.054688 Z M 164.019531 236.875 C 164.011719 236.875 164 236.875 163.992188 236.875 C 163.996094 236.894531 164 236.914062 164 236.9375 C 164.011719 236.9375 164.015625 236.9375 164.023438 236.929688 C 164.023438 236.917969 164.023438 236.894531 164.019531 236.875 Z M 166.09375 235.488281 C 166.097656 235.507812 166.105469 235.53125 166.113281 235.550781 C 166.117188 235.550781 166.121094 235.550781 166.125 235.542969 C 166.121094 235.523438 166.113281 235.503906 166.105469 235.480469 C 166.101562 235.484375 166.097656 235.488281 166.09375 235.488281 Z M 163.714844 237.25 C 163.675781 237.253906 163.652344 237.253906 163.628906 237.257812 C 163.652344 237.285156 163.683594 237.296875 163.714844 237.25 Z M 166.53125 236.074219 C 166.601562 236.082031 166.601562 236.082031 166.636719 236.058594 C 166.625 236.054688 166.617188 236.046875 166.605469 236.050781 C 166.585938 236.050781 166.566406 236.058594 166.53125 236.074219 Z M 165.351562 236.152344 C 165.390625 236.15625 165.425781 236.160156 165.464844 236.164062 C 165.425781 236.089844 165.421875 236.085938 165.351562 236.152344 Z M 164.824219 236.28125 C 164.851562 236.285156 164.882812 236.285156 164.90625 236.289062 C 164.949219 236.292969 164.945312 236.265625 164.9375 236.222656 C 164.902344 236.257812 164.847656 236.214844 164.824219 236.28125 Z M 164.574219 236.359375 C 164.582031 236.363281 164.589844 236.371094 164.59375 236.375 C 164.609375 236.363281 164.617188 236.347656 164.628906 236.335938 C 164.628906 236.335938 164.617188 236.324219 164.613281 236.320312 C 164.601562 236.335938 164.589844 236.34375 164.574219 236.359375 Z M 165.234375 236.464844 C 165.25 236.421875 165.253906 236.394531 165.269531 236.351562 C 165.210938 236.398438 165.210938 236.398438 165.234375 236.464844 Z M 161.683594 238.871094 C 161.726562 238.871094 161.738281 238.832031 161.734375 238.796875 C 161.6875 238.792969 161.648438 238.785156 161.59375 238.785156 C 161.601562 238.847656 161.644531 238.871094 161.683594 238.871094 Z M 161.757812 238.0625 C 161.761719 238.070312 161.765625 238.078125 161.765625 238.085938 C 161.785156 238.074219 161.804688 238.070312 161.820312 238.0625 C 161.816406 238.050781 161.804688 238.039062 161.804688 238.039062 C 161.792969 238.046875 161.773438 238.050781 161.757812 238.0625 Z M 166.703125 236.03125 C 166.703125 236.039062 166.722656 236.050781 166.730469 236.058594 C 166.738281 236.050781 166.75 236.039062 166.753906 236.03125 C 166.753906 236.023438 166.742188 236.011719 166.734375 235.996094 C 166.71875 236.011719 166.703125 236.023438 166.703125 236.03125 Z M 161.464844 239.140625 C 161.472656 239.140625 161.484375 239.140625 161.488281 239.144531 C 161.492188 239.125 161.496094 239.101562 161.496094 239.085938 C 161.472656 239.089844 161.464844 239.097656 161.457031 239.109375 C 161.457031 239.117188 161.464844 239.132812 161.464844 239.140625 Z M 161.277344 238.679688 C 161.296875 238.691406 161.316406 238.695312 161.339844 238.703125 C 161.339844 238.695312 161.347656 238.691406 161.347656 238.679688 C 161.328125 238.675781 161.308594 238.667969 161.285156 238.664062 C 161.28125 238.667969 161.277344 238.671875 161.277344 238.679688 Z M 161 239.238281 C 161.027344 239.191406 161.046875 239.152344 161.078125 239.113281 C 161 239.125 160.988281 239.144531 161 239.238281 Z M 162.976562 237.316406 C 162.980469 237.332031 162.988281 237.34375 162.992188 237.359375 C 162.992188 237.359375 163 237.359375 163.011719 237.359375 C 163.007812 237.339844 163 237.320312 162.996094 237.308594 C 162.992188 237.3125 162.980469 237.3125 162.976562 237.316406 Z M 162.800781 237.699219 C 162.820312 237.644531 162.820312 237.644531 162.769531 237.617188 C 162.78125 237.648438 162.789062 237.675781 162.800781 237.699219 Z M 163.128906 237.738281 C 163.136719 237.707031 163.148438 237.679688 163.164062 237.636719 C 163.125 237.65625 163.09375 237.671875 163.058594 237.683594 C 163.089844 237.703125 163.105469 237.722656 163.128906 237.738281 Z M 162.648438 237.964844 C 162.652344 237.96875 162.652344 237.976562 162.660156 237.984375 C 162.679688 237.972656 162.699219 237.964844 162.71875 237.957031 C 162.710938 237.949219 162.707031 237.945312 162.707031 237.9375 C 162.6875 237.945312 162.667969 237.957031 162.648438 237.964844 Z M 162.265625 237.824219 C 162.273438 237.839844 162.273438 237.859375 162.277344 237.878906 C 162.285156 237.878906 162.292969 237.871094 162.300781 237.871094 C 162.296875 237.855469 162.292969 237.835938 162.292969 237.816406 C 162.28125 237.816406 162.277344 237.824219 162.265625 237.824219 Z M 162.53125 237.714844 C 162.527344 237.714844 162.519531 237.726562 162.515625 237.734375 C 162.539062 237.746094 162.566406 237.757812 162.601562 237.777344 C 162.59375 237.714844 162.570312 237.710938 162.53125 237.714844 Z M 171.128906 234.359375 C 171.128906 234.347656 171.132812 234.332031 171.132812 234.3125 C 171.121094 234.3125 171.113281 234.3125 171.109375 234.3125 C 171.109375 234.328125 171.109375 234.339844 171.109375 234.355469 C 171.113281 234.355469 171.121094 234.355469 171.128906 234.359375 Z M 171.5 235.125 C 171.5 235.136719 171.507812 235.148438 171.515625 235.160156 C 171.523438 235.15625 171.535156 235.144531 171.554688 235.136719 C 171.539062 235.121094 171.527344 235.113281 171.519531 235.109375 C 171.515625 235.105469 171.5 235.117188 171.5 235.125 Z M 171.417969 234.847656 C 171.40625 234.875 171.402344 234.902344 171.460938 234.921875 C 171.449219 234.886719 171.445312 234.863281 171.441406 234.84375 C 171.429688 234.84375 171.421875 234.847656 171.417969 234.847656 Z M 171.410156 234.488281 C 171.382812 234.496094 171.351562 234.503906 171.3125 234.511719 C 171.355469 234.554688 171.386719 234.5625 171.410156 234.515625 C 171.417969 234.515625 171.410156 234.503906 171.410156 234.488281 Z M 170.996094 235.535156 C 171.027344 235.53125 171.046875 235.53125 171.074219 235.53125 C 171.066406 235.511719 171.0625 235.496094 171.058594 235.464844 C 171.035156 235.496094 171.019531 235.507812 170.996094 235.535156 Z M 171.109375 234.523438 C 171.167969 234.539062 171.210938 234.53125 171.230469 234.457031 C 171.109375 234.4375 171.109375 234.4375 171.109375 234.523438 Z M 171.703125 234.308594 C 171.703125 234.324219 171.703125 234.332031 171.703125 234.347656 C 171.710938 234.359375 171.714844 234.371094 171.71875 234.382812 C 171.726562 234.382812 171.730469 234.378906 171.734375 234.378906 C 171.730469 234.355469 171.730469 234.332031 171.726562 234.3125 C 171.71875 234.308594 171.710938 234.308594 171.703125 234.308594 Z M 171.765625 235.042969 C 171.769531 235.046875 171.773438 235.054688 171.777344 235.0625 C 171.796875 235.046875 171.816406 235.03125 171.835938 235.015625 C 171.832031 235.011719 171.824219 235.003906 171.816406 235 C 171.804688 235.011719 171.785156 235.027344 171.765625 235.042969 Z M 171.582031 233.929688 C 171.582031 233.933594 171.582031 233.941406 171.582031 233.945312 C 171.601562 233.945312 171.625 233.945312 171.664062 233.945312 C 171.636719 233.929688 171.625 233.917969 171.617188 233.917969 C 171.605469 233.917969 171.59375 233.929688 171.582031 233.929688 Z M 167.59375 235.558594 C 167.605469 235.558594 167.609375 235.558594 167.621094 235.5625 C 167.621094 235.550781 167.625 235.53125 167.625 235.515625 C 167.621094 235.515625 167.609375 235.515625 167.605469 235.511719 C 167.601562 235.527344 167.601562 235.542969 167.59375 235.558594 Z M 171.808594 235.898438 C 171.8125 235.898438 171.824219 235.898438 171.828125 235.898438 C 171.832031 235.871094 171.832031 235.839844 171.835938 235.8125 C 171.828125 235.8125 171.816406 235.8125 171.808594 235.8125 C 171.808594 235.84375 171.808594 235.871094 171.808594 235.898438 Z M 171.363281 234.179688 C 171.390625 234.207031 171.410156 234.222656 171.441406 234.25 C 171.445312 234.183594 171.425781 234.175781 171.363281 234.179688 Z M 168.113281 235.03125 C 168.109375 235.066406 168.109375 235.097656 168.179688 235.125 C 168.160156 235.082031 168.148438 235.054688 168.132812 235.027344 C 168.128906 235.03125 168.125 235.03125 168.113281 235.03125 Z M 168.003906 235.382812 C 168.015625 235.394531 168.03125 235.402344 168.046875 235.410156 C 168.046875 235.410156 168.054688 235.398438 168.066406 235.386719 C 168.046875 235.378906 168.035156 235.371094 168.015625 235.371094 C 168.015625 235.367188 168.007812 235.378906 168.003906 235.382812 Z M 167.988281 235.183594 C 167.992188 235.148438 167.996094 235.132812 168.003906 235.09375 C 167.953125 235.132812 167.949219 235.148438 167.988281 235.183594 Z M 168.21875 235.617188 C 168.230469 235.640625 168.242188 235.65625 168.257812 235.679688 C 168.273438 235.65625 168.28125 235.632812 168.296875 235.613281 C 168.292969 235.609375 168.285156 235.605469 168.285156 235.601562 C 168.261719 235.601562 168.238281 235.609375 168.21875 235.617188 Z M 167.5625 235.265625 C 167.589844 235.277344 167.589844 235.332031 167.660156 235.296875 C 167.625 235.273438 167.59375 235.261719 167.570312 235.246094 C 167.566406 235.253906 167.5625 235.261719 167.5625 235.265625 Z M 168.265625 235.042969 C 168.273438 235.046875 168.277344 235.054688 168.28125 235.058594 C 168.304688 235.042969 168.335938 235.03125 168.378906 235.011719 C 168.34375 235 168.316406 234.980469 168.304688 234.988281 C 168.285156 235 168.28125 235.019531 168.265625 235.042969 Z M 170.8125 234.570312 C 170.8125 234.574219 170.8125 234.585938 170.8125 234.589844 C 170.832031 234.589844 170.851562 234.589844 170.871094 234.589844 C 170.871094 234.585938 170.871094 234.582031 170.871094 234.574219 C 170.851562 234.574219 170.832031 234.574219 170.8125 234.570312 Z M 169.554688 235.386719 C 169.609375 235.402344 169.636719 235.410156 169.671875 235.421875 C 169.648438 235.386719 169.625 235.367188 169.554688 235.386719 Z M 169.742188 235.109375 C 169.800781 235.042969 169.800781 235.042969 169.722656 235.03125 C 169.726562 235.054688 169.730469 235.070312 169.742188 235.109375 Z M 168.726562 235.398438 C 168.757812 235.410156 168.777344 235.421875 168.804688 235.429688 C 168.808594 235.398438 168.816406 235.371094 168.820312 235.34375 C 168.816406 235.339844 168.808594 235.339844 168.804688 235.332031 C 168.777344 235.351562 168.757812 235.371094 168.726562 235.398438 Z M 168.726562 235.398438 " fill-opacity="1" fill-rule="nonzero"/></g><g clip-path="url(#17f20103d4)"><path fill="#ddadab" d="M 305.863281 369.664062 C 305.75 370.082031 305.375 370.351562 304.964844 370.351562 C 304.921875 370.351562 304.882812 370.34375 304.835938 370.335938 C 304.625 371.882812 304.40625 373.429688 304.179688 374.96875 L 258.40625 374.96875 C 259.25 352.234375 260.15625 321.9375 260.035156 299.609375 L 260.035156 299.601562 C 259.152344 303.886719 258.339844 308.316406 257.578125 312.828125 C 256.59375 321.855469 255.953125 329.574219 255.945312 329.714844 C 255.910156 330.207031 255.492188 330.578125 255.011719 330.578125 C 254.988281 330.578125 254.957031 330.578125 254.933594 330.578125 C 254.921875 330.578125 254.90625 330.5625 254.882812 330.5625 C 254.429688 333.90625 254 337.246094 253.597656 340.558594 C 254.105469 340.621094 254.476562 341.074219 254.421875 341.578125 L 251.230469 373.144531 C 251.175781 373.628906 250.777344 373.988281 250.300781 373.988281 C 250.273438 373.988281 250.25 373.988281 250.226562 373.980469 C 250.195312 374.3125 250.171875 374.644531 250.144531 374.96875 L 122.34375 374.96875 C 122.3125 374.644531 122.28125 374.304688 122.257812 373.980469 C 122.230469 373.980469 122.207031 373.988281 122.175781 373.988281 C 121.707031 373.988281 121.300781 373.636719 121.25 373.160156 C 121.203125 372.730469 116.496094 330.109375 113.929688 313.363281 C 113.550781 310.902344 113.03125 307.984375 112.417969 304.800781 C 112.359375 325.542969 112.449219 353.523438 112.554688 374.976562 L 69.414062 374.976562 C 68.902344 369.847656 68.5 364.691406 68.207031 359.691406 C 68.191406 359.691406 68.167969 359.691406 68.152344 359.691406 C 67.6875 359.691406 67.277344 359.335938 67.226562 358.859375 C 64.902344 338.441406 69.867188 314.027344 69.910156 313.785156 C 70.019531 313.289062 70.492188 312.972656 71 313.0625 C 74.273438 294.882812 74.785156 277.730469 76.816406 234.175781 C 77.050781 229.074219 77.65625 224.480469 78.523438 220.3125 C 78.03125 220.207031 77.707031 219.738281 77.789062 219.242188 C 82.792969 190.558594 104.503906 182.800781 104.722656 182.726562 L 118.652344 176.410156 C 119.121094 176.199219 119.664062 176.402344 119.882812 176.863281 C 130.71875 171.753906 145.613281 164.507812 154.777344 159.121094 C 158.917969 156.683594 161.605469 133.804688 162.863281 120.011719 L 155.371094 114.09375 C 155.273438 114.035156 151.257812 111.394531 148.84375 106.59375 C 148.066406 105.046875 147.320312 102.925781 146.671875 100.753906 C 133.84375 98.300781 125.4375 73.875 128.886719 69.359375 C 131.367188 66.117188 137.894531 72.257812 141.78125 76.476562 C 141.148438 72.832031 140.625 69.464844 140.234375 66.726562 C 139.78125 64.5 139.480469 62.222656 139.320312 59.890625 C 139.320312 59.859375 139.3125 59.835938 139.3125 59.835938 C 139.230469 58.644531 139.179688 57.453125 139.179688 56.238281 C 139.179688 28.90625 160.019531 6.742188 185.738281 6.742188 C 211.445312 6.742188 232.296875 28.90625 232.296875 56.238281 C 232.296875 58.878906 232.101562 61.476562 231.722656 64.011719 C 231.722656 64.011719 231.316406 67.089844 230.507812 71.753906 C 234.183594 68.25 238.539062 65.121094 240.46875 67.640625 C 243.707031 71.867188 236.539062 93.554688 225.074219 98.308594 C 224.335938 100.925781 223.273438 104.375 222.472656 105.808594 C 221.066406 108.3125 216.863281 113.144531 213.558594 115.617188 C 211.445312 117.203125 208.230469 119.398438 206.21875 120.757812 C 206.253906 121.066406 206.285156 121.367188 206.324219 121.6875 C 207.878906 134.972656 211.046875 154.789062 216.417969 157.394531 C 232.953125 165.386719 251.304688 173.980469 258.511719 177.34375 C 258.730469 176.886719 259.273438 176.679688 259.742188 176.886719 C 260.089844 177.042969 268.207031 180.710938 271.847656 183.972656 C 276.933594 188.527344 293.796875 205.667969 297.246094 235.003906 C 297.304688 235.503906 296.953125 235.957031 296.460938 236.03125 C 300.816406 263.921875 300.582031 281.269531 301.035156 294.507812 C 301.070312 294.507812 301.109375 294.492188 301.148438 294.492188 C 301.660156 294.535156 302.046875 294.988281 302 295.503906 C 301.984375 295.636719 300.867188 309.378906 305.328125 317.273438 C 310.15625 325.851562 308.25 361.027344 305.863281 369.664062 Z M 305.863281 369.664062 " fill-opacity="1" fill-rule="nonzero"/></g><g clip-path="url(#8328ea9be0)"><path fill="#ebc6c2" d="M 304.714844 370.316406 C 304.761719 370.320312 304.800781 370.320312 304.84375 370.328125 C 304.632812 371.875 304.414062 373.421875 304.1875 374.964844 L 258.414062 374.964844 C 259.257812 352.226562 260.164062 321.929688 260.042969 299.601562 L 260.042969 299.59375 C 259.160156 303.878906 258.347656 308.308594 257.582031 312.820312 C 258.4375 304.957031 259.546875 296.105469 260.707031 290.410156 C 263.226562 278.101562 267.679688 247.027344 267.726562 246.71875 C 267.800781 246.203125 267.445312 245.726562 266.933594 245.660156 C 266.421875 245.59375 265.945312 245.949219 265.878906 246.453125 C 265.832031 246.761719 261.394531 277.785156 258.882812 290.039062 C 256.355469 302.378906 254.113281 329.292969 254.089844 329.566406 C 254.050781 330.0625 254.40625 330.492188 254.898438 330.5625 C 254.445312 333.90625 254.015625 337.246094 253.613281 340.558594 C 253.605469 340.558594 253.605469 340.554688 253.597656 340.554688 C 253.078125 340.507812 252.625 340.878906 252.574219 341.390625 L 249.382812 372.957031 C 249.328125 373.46875 249.707031 373.929688 250.21875 373.980469 C 250.226562 373.980469 250.226562 373.980469 250.234375 373.980469 C 250.203125 374.3125 250.179688 374.644531 250.152344 374.96875 L 122.34375 374.96875 C 122.3125 374.644531 122.28125 374.304688 122.257812 373.980469 C 122.265625 373.980469 122.273438 373.980469 122.28125 373.980469 C 122.796875 373.921875 123.164062 373.460938 123.113281 372.949219 C 123.066406 372.519531 118.359375 329.851562 115.777344 313.078125 C 113.195312 296.28125 104.058594 258.535156 103.96875 258.15625 C 103.847656 257.652344 103.339844 257.34375 102.835938 257.46875 C 102.332031 257.589844 102.027344 258.097656 102.148438 258.601562 C 102.222656 258.925781 108.863281 286.363281 112.410156 304.808594 C 112.351562 325.550781 112.441406 353.53125 112.546875 374.984375 L 69.414062 374.984375 C 68.902344 369.855469 68.5 364.699219 68.207031 359.699219 C 68.222656 359.699219 68.246094 359.699219 68.257812 359.699219 C 68.773438 359.636719 69.140625 359.175781 69.082031 358.664062 C 66.796875 338.546875 71.691406 314.421875 71.746094 314.179688 C 71.851562 313.671875 71.527344 313.175781 71.019531 313.078125 C 71.015625 313.078125 71.007812 313.078125 71 313.078125 C 74.273438 294.898438 74.785156 277.746094 76.816406 234.191406 C 77.050781 229.089844 77.65625 224.492188 78.523438 220.328125 C 78.539062 220.328125 78.542969 220.335938 78.550781 220.34375 C 78.605469 220.351562 78.65625 220.359375 78.710938 220.359375 C 79.15625 220.359375 79.554688 220.042969 79.632812 219.582031 C 84.4375 192.03125 105.121094 184.582031 105.410156 184.476562 L 119.429688 178.101562 C 119.898438 177.890625 120.109375 177.332031 119.898438 176.863281 C 119.898438 176.855469 119.890625 176.855469 119.890625 176.847656 C 130.726562 171.738281 145.621094 164.496094 154.78125 159.105469 C 158.925781 156.667969 161.613281 133.789062 162.871094 119.996094 L 167.640625 123.761719 C 167.816406 123.898438 168.019531 123.964844 168.222656 123.964844 C 168.304688 123.964844 168.382812 123.949219 168.464844 123.925781 C 172.230469 129.828125 177.632812 136.964844 182.671875 138.753906 C 183.738281 139.140625 184.921875 139.15625 186.152344 138.882812 L 186.152344 216.617188 L 186.152344 138.890625 C 193.335938 137.359375 202.679688 126.3125 206.324219 121.6875 C 207.878906 134.972656 211.046875 154.789062 216.417969 157.394531 C 232.953125 165.386719 251.304688 173.980469 258.511719 177.34375 C 258.511719 177.351562 258.503906 177.351562 258.503906 177.351562 C 258.292969 177.820312 258.503906 178.378906 258.972656 178.589844 C 259.054688 178.628906 267.175781 182.304688 270.59375 185.359375 C 275.558594 189.804688 292.015625 206.535156 295.382812 235.214844 C 295.433594 235.691406 295.84375 236.046875 296.308594 236.046875 C 296.347656 236.046875 296.386719 236.046875 296.421875 236.039062 C 296.4375 236.039062 296.445312 236.03125 296.460938 236.03125 C 300.816406 263.921875 300.582031 281.269531 301.035156 294.507812 C 300.558594 294.523438 300.175781 294.867188 300.136719 295.34375 C 300.082031 295.933594 298.953125 309.792969 303.699219 318.203125 C 308.128906 326.050781 306.285156 361.167969 304.074219 369.175781 C 303.925781 369.664062 304.21875 370.179688 304.714844 370.316406 Z M 144.914062 94.023438 C 145.328125 95.816406 145.9375 98.308594 146.671875 100.746094 C 133.84375 98.292969 125.4375 73.867188 128.886719 69.351562 C 131.367188 66.109375 137.894531 72.25 141.78125 76.46875 C 141.148438 72.824219 140.625 69.457031 140.234375 66.71875 C 139.78125 64.492188 139.480469 62.214844 139.320312 59.882812 C 139.320312 59.851562 139.3125 59.832031 139.3125 59.832031 C 139.230469 58.636719 139.179688 57.445312 139.179688 56.230469 C 139.179688 28.90625 160.019531 6.742188 185.738281 6.742188 C 211.445312 6.742188 232.296875 28.90625 232.296875 56.238281 C 232.296875 58.878906 232.101562 61.476562 231.722656 64.011719 C 231.722656 64.011719 231.316406 67.089844 230.507812 71.753906 C 234.183594 68.25 238.539062 65.121094 240.46875 67.640625 C 243.707031 71.867188 236.539062 93.554688 225.074219 98.308594 C 225.574219 96.542969 225.929688 95.152344 225.964844 95.019531 C 226.09375 94.519531 225.792969 94.007812 225.292969 93.878906 C 224.789062 93.75 224.28125 94.050781 224.15625 94.550781 C 223.582031 96.8125 221.859375 103.078125 220.839844 104.886719 C 219.550781 107.183594 215.523438 111.808594 212.433594 114.117188 C 209.226562 116.515625 203.394531 120.386719 203.335938 120.425781 C 202.914062 120.703125 202.800781 121.261719 203.054688 121.6875 C 195.296875 126.386719 187.277344 129.984375 183.601562 129.984375 C 180.515625 129.984375 175.140625 127.335938 169.082031 123.324219 C 169.210938 122.960938 169.105469 122.539062 168.789062 122.289062 L 156.457031 112.554688 C 156.421875 112.53125 152.699219 110.085938 150.511719 105.734375 C 148.261719 101.273438 146.195312 91.167969 146.171875 91.0625 C 146.066406 90.558594 145.578125 90.234375 145.070312 90.332031 C 144.566406 90.4375 144.242188 90.925781 144.339844 91.433594 C 144.355469 91.515625 144.460938 92.007812 144.617188 92.753906 L 140.378906 86.695312 C 140.996094 85.976562 141.75 84.640625 141.53125 82.519531 C 141.207031 79.3125 135.683594 75.429688 135.050781 74.996094 C 134.621094 74.703125 134.039062 74.808594 133.753906 75.238281 C 133.464844 75.667969 133.5625 76.25 133.992188 76.539062 C 136.089844 77.984375 139.496094 80.9375 139.675781 82.710938 C 139.902344 84.914062 138.695312 85.742188 138.65625 85.765625 C 138.4375 85.902344 138.289062 86.121094 138.234375 86.371094 C 138.183594 86.617188 138.234375 86.882812 138.386719 87.09375 L 143.3125 94.132812 C 143.496094 94.390625 143.789062 94.535156 144.082031 94.535156 C 144.269531 94.535156 144.453125 94.480469 144.617188 94.367188 C 144.753906 94.292969 144.84375 94.164062 144.914062 94.023438 Z M 231.980469 82.394531 L 227.519531 88.769531 C 227.226562 89.191406 227.332031 89.773438 227.753906 90.074219 C 227.921875 90.1875 228.101562 90.242188 228.289062 90.242188 C 228.585938 90.242188 228.878906 90.105469 229.058594 89.839844 L 233.988281 82.800781 C 234.128906 82.597656 234.175781 82.332031 234.128906 82.082031 C 234.085938 81.835938 233.933594 81.617188 233.722656 81.472656 C 233.671875 81.433594 232.460938 80.605469 232.6875 78.410156 C 232.871094 76.636719 236.265625 73.683594 238.371094 72.234375 C 238.792969 71.941406 238.90625 71.359375 238.613281 70.9375 C 238.320312 70.515625 237.738281 70.402344 237.316406 70.695312 C 236.6875 71.125 231.15625 75.011719 230.832031 78.21875 C 230.605469 80.339844 231.351562 81.675781 231.980469 82.394531 Z M 231.980469 82.394531 " fill-opacity="1" fill-rule="nonzero"/></g></svg>