<svg xmlns="http://www.w3.org/2000/svg" xmlns:xlink="http://www.w3.org/1999/xlink" width="500" zoomAndPan="magnify" viewBox="0 0 375 374.999991" height="500" preserveAspectRatio="xMidYMid meet" version="1.0"><defs><clipPath id="832752308b"><path d="M 160.589844 232.839844 L 172.589844 232.839844 L 172.589844 239.589844 L 160.589844 239.589844 Z M 160.589844 232.839844 " clip-rule="nonzero"/></clipPath><clipPath id="934635de08"><path d="M 160.589844 233 L 172 233 L 172 239.589844 L 160.589844 239.589844 Z M 160.589844 233 " clip-rule="nonzero"/></clipPath><clipPath id="d626a70e73"><path d="M 66 2.476562 L 309.746094 2.476562 L 309.746094 375 L 66 375 Z M 66 2.476562 " clip-rule="nonzero"/></clipPath></defs><g clip-path="url(#832752308b)"><path fill="#353535" d="M 172.617188 236.753906 C 171.867188 236.964844 171.632812 236.386719 171.382812 236.054688 C 170.957031 235.5 170.464844 235.429688 169.804688 235.5 C 166.628906 235.816406 163.789062 236.761719 161.609375 239.066406 C 161.347656 239.347656 160.988281 239.441406 160.621094 239.53125 L 160.617188 239.53125 C 161.109375 238.171875 162.273438 237.332031 163.476562 236.636719 C 165.316406 235.578125 167.285156 234.753906 169.554688 234.929688 C 170.320312 234.988281 170.886719 234.847656 170.96875 233.9375 C 171.019531 233.390625 171.503906 233.054688 172.289062 232.886719 C 171.464844 234.308594 172.046875 235.503906 172.617188 236.753906 Z M 160.589844 239.5625 L 160.621094 239.53125 C 160.621094 239.53125 160.617188 239.53125 160.617188 239.53125 C 160.621094 239.53125 160.589844 239.5625 160.589844 239.5625 Z M 160.589844 239.5625 " fill-opacity="1" fill-rule="nonzero"/></g><g clip-path="url(#934635de08)"><path fill="#ffffff" d="M 164.453125 236.445312 C 164.460938 236.445312 164.472656 236.445312 164.480469 236.441406 C 164.480469 236.457031 164.480469 236.476562 164.480469 236.492188 C 164.476562 236.492188 164.472656 236.492188 164.464844 236.496094 C 164.460938 236.480469 164.457031 236.464844 164.453125 236.445312 Z M 163.902344 236.507812 C 163.957031 236.503906 164 236.503906 164.054688 236.503906 C 163.964844 236.457031 163.953125 236.457031 163.902344 236.507812 Z M 164.207031 237.019531 C 164.207031 237.023438 164.214844 237.03125 164.222656 237.035156 C 164.230469 237.027344 164.242188 237.023438 164.25 237.015625 C 164.234375 237.003906 164.230469 237 164.222656 236.996094 C 164.214844 237.003906 164.207031 237.007812 164.207031 237.019531 Z M 164.015625 237.054688 C 164.019531 237.054688 164.035156 237.058594 164.035156 237.058594 C 164.039062 237.046875 164.039062 237.027344 164.042969 237.015625 C 164.039062 237.015625 164.03125 237.015625 164.023438 237.007812 C 164.019531 237.023438 164.015625 237.042969 164.015625 237.054688 Z M 164.019531 236.875 C 164.011719 236.875 164 236.875 163.992188 236.875 C 163.996094 236.894531 164 236.914062 164 236.9375 C 164.011719 236.9375 164.015625 236.9375 164.023438 236.929688 C 164.023438 236.917969 164.023438 236.894531 164.019531 236.875 Z M 166.09375 235.488281 C 166.097656 235.507812 166.105469 235.53125 166.113281 235.550781 C 166.117188 235.550781 166.121094 235.550781 166.125 235.542969 C 166.121094 235.523438 166.113281 235.503906 166.105469 235.480469 C 166.101562 235.484375 166.097656 235.488281 166.09375 235.488281 Z M 163.714844 237.25 C 163.675781 237.253906 163.652344 237.253906 163.628906 237.257812 C 163.652344 237.285156 163.683594 237.296875 163.714844 237.25 Z M 166.53125 236.074219 C 166.601562 236.082031 166.601562 236.082031 166.636719 236.058594 C 166.625 236.054688 166.617188 236.046875 166.605469 236.050781 C 166.585938 236.050781 166.566406 236.058594 166.53125 236.074219 Z M 165.351562 236.152344 C 165.390625 236.15625 165.425781 236.160156 165.464844 236.164062 C 165.425781 236.089844 165.421875 236.085938 165.351562 236.152344 Z M 164.824219 236.28125 C 164.851562 236.285156 164.882812 236.285156 164.90625 236.289062 C 164.949219 236.292969 164.945312 236.265625 164.9375 236.222656 C 164.902344 236.257812 164.847656 236.214844 164.824219 236.28125 Z M 164.574219 236.359375 C 164.582031 236.363281 164.589844 236.371094 164.59375 236.375 C 164.609375 236.363281 164.617188 236.347656 164.628906 236.335938 C 164.628906 236.335938 164.617188 236.324219 164.613281 236.320312 C 164.601562 236.335938 164.589844 236.34375 164.574219 236.359375 Z M 165.234375 236.464844 C 165.25 236.421875 165.253906 236.394531 165.269531 236.351562 C 165.210938 236.398438 165.210938 236.398438 165.234375 236.464844 Z M 161.683594 238.871094 C 161.726562 238.871094 161.738281 238.832031 161.734375 238.796875 C 161.6875 238.792969 161.648438 238.785156 161.59375 238.785156 C 161.601562 238.847656 161.644531 238.871094 161.683594 238.871094 Z M 161.757812 238.0625 C 161.761719 238.070312 161.765625 238.078125 161.765625 238.085938 C 161.785156 238.074219 161.804688 238.070312 161.820312 238.0625 C 161.816406 238.050781 161.804688 238.039062 161.804688 238.039062 C 161.792969 238.046875 161.773438 238.050781 161.757812 238.0625 Z M 166.703125 236.03125 C 166.703125 236.039062 166.722656 236.050781 166.730469 236.058594 C 166.738281 236.050781 166.75 236.039062 166.753906 236.03125 C 166.753906 236.023438 166.742188 236.011719 166.734375 235.996094 C 166.71875 236.011719 166.703125 236.023438 166.703125 236.03125 Z M 161.464844 239.140625 C 161.472656 239.140625 161.484375 239.140625 161.488281 239.144531 C 161.492188 239.125 161.496094 239.101562 161.496094 239.085938 C 161.472656 239.089844 161.464844 239.097656 161.457031 239.109375 C 161.457031 239.117188 161.464844 239.132812 161.464844 239.140625 Z M 161.277344 238.679688 C 161.296875 238.691406 161.316406 238.695312 161.339844 238.703125 C 161.339844 238.695312 161.347656 238.691406 161.347656 238.679688 C 161.328125 238.675781 161.308594 238.667969 161.285156 238.664062 C 161.28125 238.667969 161.277344 238.671875 161.277344 238.679688 Z M 161 239.238281 C 161.027344 239.191406 161.046875 239.152344 161.078125 239.113281 C 161 239.125 160.988281 239.144531 161 239.238281 Z M 162.976562 237.316406 C 162.980469 237.332031 162.988281 237.34375 162.992188 237.359375 C 162.992188 237.359375 163 237.359375 163.011719 237.359375 C 163.007812 237.339844 163 237.320312 162.996094 237.308594 C 162.992188 237.3125 162.980469 237.3125 162.976562 237.316406 Z M 162.800781 237.699219 C 162.820312 237.644531 162.820312 237.644531 162.769531 237.617188 C 162.78125 237.648438 162.789062 237.675781 162.800781 237.699219 Z M 163.128906 237.738281 C 163.136719 237.707031 163.148438 237.679688 163.164062 237.636719 C 163.125 237.65625 163.09375 237.671875 163.058594 237.683594 C 163.089844 237.703125 163.105469 237.722656 163.128906 237.738281 Z M 162.648438 237.964844 C 162.652344 237.96875 162.652344 237.976562 162.660156 237.984375 C 162.679688 237.972656 162.699219 237.964844 162.71875 237.957031 C 162.710938 237.949219 162.707031 237.945312 162.707031 237.9375 C 162.6875 237.945312 162.667969 237.957031 162.648438 237.964844 Z M 162.265625 237.824219 C 162.273438 237.839844 162.273438 237.859375 162.277344 237.878906 C 162.285156 237.878906 162.292969 237.871094 162.300781 237.871094 C 162.296875 237.855469 162.292969 237.835938 162.292969 237.816406 C 162.28125 237.816406 162.277344 237.824219 162.265625 237.824219 Z M 162.53125 237.714844 C 162.527344 237.714844 162.519531 237.726562 162.515625 237.734375 C 162.539062 237.746094 162.566406 237.757812 162.601562 237.777344 C 162.59375 237.714844 162.570312 237.710938 162.53125 237.714844 Z M 171.128906 234.359375 C 171.128906 234.347656 171.132812 234.332031 171.132812 234.3125 C 171.121094 234.3125 171.113281 234.3125 171.109375 234.3125 C 171.109375 234.328125 171.109375 234.339844 171.109375 234.355469 C 171.113281 234.355469 171.121094 234.355469 171.128906 234.359375 Z M 171.5 235.125 C 171.5 235.136719 171.507812 235.148438 171.515625 235.160156 C 171.523438 235.15625 171.535156 235.144531 171.554688 235.136719 C 171.539062 235.121094 171.527344 235.113281 171.519531 235.109375 C 171.515625 235.105469 171.5 235.117188 171.5 235.125 Z M 171.417969 234.847656 C 171.40625 234.875 171.402344 234.902344 171.460938 234.921875 C 171.449219 234.886719 171.445312 234.863281 171.441406 234.84375 C 171.429688 234.84375 171.421875 234.847656 171.417969 234.847656 Z M 171.410156 234.488281 C 171.382812 234.496094 171.351562 234.503906 171.3125 234.511719 C 171.355469 234.554688 171.386719 234.5625 171.410156 234.515625 C 171.417969 234.515625 171.410156 234.503906 171.410156 234.488281 Z M 170.996094 235.535156 C 171.027344 235.53125 171.046875 235.53125 171.074219 235.53125 C 171.066406 235.511719 171.0625 235.496094 171.058594 235.464844 C 171.035156 235.496094 171.019531 235.507812 170.996094 235.535156 Z M 171.109375 234.523438 C 171.167969 234.539062 171.210938 234.53125 171.230469 234.457031 C 171.109375 234.4375 171.109375 234.4375 171.109375 234.523438 Z M 171.703125 234.308594 C 171.703125 234.324219 171.703125 234.332031 171.703125 234.347656 C 171.710938 234.359375 171.714844 234.371094 171.71875 234.382812 C 171.726562 234.382812 171.730469 234.378906 171.734375 234.378906 C 171.730469 234.355469 171.730469 234.332031 171.726562 234.3125 C 171.71875 234.308594 171.710938 234.308594 171.703125 234.308594 Z M 171.765625 235.042969 C 171.769531 235.046875 171.773438 235.054688 171.777344 235.0625 C 171.796875 235.046875 171.816406 235.03125 171.835938 235.015625 C 171.832031 235.011719 171.824219 235.003906 171.816406 235 C 171.804688 235.011719 171.785156 235.027344 171.765625 235.042969 Z M 171.582031 233.929688 C 171.582031 233.933594 171.582031 233.941406 171.582031 233.945312 C 171.601562 233.945312 171.625 233.945312 171.664062 233.945312 C 171.636719 233.929688 171.625 233.917969 171.617188 233.917969 C 171.605469 233.917969 171.59375 233.929688 171.582031 233.929688 Z M 167.59375 235.558594 C 167.605469 235.558594 167.609375 235.558594 167.621094 235.5625 C 167.621094 235.550781 167.625 235.53125 167.625 235.515625 C 167.621094 235.515625 167.609375 235.515625 167.605469 235.511719 C 167.601562 235.527344 167.601562 235.542969 167.59375 235.558594 Z M 171.808594 235.898438 C 171.8125 235.898438 171.824219 235.898438 171.828125 235.898438 C 171.832031 235.871094 171.832031 235.839844 171.835938 235.8125 C 171.828125 235.8125 171.816406 235.8125 171.808594 235.8125 C 171.808594 235.84375 171.808594 235.871094 171.808594 235.898438 Z M 171.363281 234.179688 C 171.390625 234.207031 171.410156 234.222656 171.441406 234.25 C 171.445312 234.183594 171.425781 234.175781 171.363281 234.179688 Z M 168.113281 235.03125 C 168.109375 235.066406 168.109375 235.097656 168.179688 235.125 C 168.160156 235.082031 168.148438 235.054688 168.132812 235.027344 C 168.128906 235.03125 168.125 235.03125 168.113281 235.03125 Z M 168.003906 235.382812 C 168.015625 235.394531 168.03125 235.402344 168.046875 235.410156 C 168.046875 235.410156 168.054688 235.398438 168.066406 235.386719 C 168.046875 235.378906 168.035156 235.371094 168.015625 235.371094 C 168.015625 235.367188 168.007812 235.378906 168.003906 235.382812 Z M 167.988281 235.183594 C 167.992188 235.148438 167.996094 235.132812 168.003906 235.09375 C 167.953125 235.132812 167.949219 235.148438 167.988281 235.183594 Z M 168.21875 235.617188 C 168.230469 235.640625 168.242188 235.65625 168.257812 235.679688 C 168.273438 235.65625 168.28125 235.632812 168.296875 235.613281 C 168.292969 235.609375 168.285156 235.605469 168.285156 235.601562 C 168.261719 235.601562 168.238281 235.609375 168.21875 235.617188 Z M 167.5625 235.265625 C 167.589844 235.277344 167.589844 235.332031 167.660156 235.296875 C 167.625 235.273438 167.59375 235.261719 167.570312 235.246094 C 167.566406 235.253906 167.5625 235.261719 167.5625 235.265625 Z M 168.265625 235.042969 C 168.273438 235.046875 168.277344 235.054688 168.28125 235.058594 C 168.304688 235.042969 168.335938 235.03125 168.378906 235.011719 C 168.34375 235 168.316406 234.980469 168.304688 234.988281 C 168.285156 235 168.28125 235.019531 168.265625 235.042969 Z M 170.8125 234.570312 C 170.8125 234.574219 170.8125 234.585938 170.8125 234.589844 C 170.832031 234.589844 170.851562 234.589844 170.871094 234.589844 C 170.871094 234.585938 170.871094 234.582031 170.871094 234.574219 C 170.851562 234.574219 170.832031 234.574219 170.8125 234.570312 Z M 169.554688 235.386719 C 169.609375 235.402344 169.636719 235.410156 169.671875 235.421875 C 169.648438 235.386719 169.625 235.367188 169.554688 235.386719 Z M 169.742188 235.109375 C 169.800781 235.042969 169.800781 235.042969 169.722656 235.03125 C 169.726562 235.054688 169.730469 235.070312 169.742188 235.109375 Z M 168.726562 235.398438 C 168.757812 235.410156 168.777344 235.421875 168.804688 235.429688 C 168.808594 235.398438 168.816406 235.371094 168.820312 235.34375 C 168.816406 235.339844 168.808594 235.339844 168.804688 235.332031 C 168.777344 235.351562 168.757812 235.371094 168.726562 235.398438 Z M 168.726562 235.398438 " fill-opacity="1" fill-rule="nonzero"/></g><g clip-path="url(#d626a70e73)"><path fill="#ddadab" d="M 301.628906 316.972656 C 301.230469 316.132812 300.867188 315.183594 300.53125 314.160156 C 299.707031 308.84375 298.804688 301.917969 298.332031 294.527344 C 298.066406 290.382812 297.835938 285.636719 297.578125 280.605469 C 296.847656 265.878906 296.015625 249.183594 294.035156 238.273438 L 293.558594 235.628906 C 291.027344 221.445312 288.40625 206.78125 276.359375 193.25 C 276.019531 192.859375 275.425781 192.828125 275.046875 193.171875 C 275.039062 193.171875 275.039062 193.179688 275.039062 193.179688 C 271.695312 189.582031 268.003906 186.402344 264.148438 183.574219 C 264.15625 183.566406 264.164062 183.558594 264.164062 183.558594 C 264.460938 183.128906 264.359375 182.554688 263.933594 182.257812 C 263.839844 182.1875 254.320312 175.589844 245.800781 171.601562 C 243.757812 170.648438 241.308594 169.566406 238.71875 168.417969 C 230.675781 164.863281 220.671875 160.449219 217.425781 157.304688 C 213.25 153.253906 208.480469 134.367188 208.433594 134.171875 C 208.308594 133.691406 207.832031 133.402344 207.351562 133.496094 C 206.652344 129.9375 206.09375 126.457031 205.65625 123.355469 C 205.554688 122.632812 205.464844 121.941406 205.371094 121.265625 C 208.300781 119.03125 213.601562 114.828125 220.082031 108.882812 C 222.421875 106.738281 224.257812 103.613281 225.710938 100.070312 C 244.617188 94.707031 251.535156 67.628906 244.074219 60.5625 C 239.589844 56.3125 234.570312 61.441406 230.933594 67.007812 C 231.359375 63.050781 231.726562 59.164062 232.066406 55.472656 C 232.066406 26.203125 209.582031 2.476562 181.84375 2.476562 C 154.90625 2.476562 132.925781 24.851562 131.675781 52.945312 C 131.675781 52.945312 131.675781 52.984375 131.675781 53.007812 C 131.636719 53.824219 131.613281 54.648438 131.613281 55.472656 C 131.613281 57.703125 131.761719 59.902344 132.015625 62.054688 C 132.117188 64.09375 132.25 66.371094 132.414062 68.769531 C 128.746094 62.484375 122.921875 55.085938 117.792969 59.941406 C 110.238281 67.101562 117.4375 94.785156 136.898438 99.640625 C 137.347656 100.566406 137.847656 101.367188 138.398438 101.980469 C 142.945312 107.070312 153.117188 116.539062 160.199219 121.449219 C 159.878906 123.875 159.492188 126.601562 159 129.472656 C 158.691406 131.265625 158.339844 133.109375 157.960938 134.957031 C 157.953125 134.957031 157.953125 134.957031 157.953125 134.957031 C 157.449219 134.847656 156.949219 135.175781 156.847656 135.679688 C 156.816406 135.828125 153.570312 151.039062 148.992188 156.394531 C 146.503906 159.300781 140.816406 161.925781 132.933594 165.558594 C 126.101562 168.703125 117.617188 172.628906 107.550781 178.328125 C 85.375 190.894531 78.273438 210.378906 78.203125 210.574219 C 78.03125 211.046875 78.273438 211.558594 78.738281 211.746094 C 78.320312 212.804688 77.921875 213.882812 77.566406 214.988281 C 76.019531 219.726562 74.777344 224.632812 73.75 229.636719 C 73.308594 229.628906 72.902344 229.933594 72.824219 230.382812 C 69.375 249.394531 68.464844 270.472656 67.921875 283.070312 C 67.796875 286 67.6875 288.535156 67.570312 290.421875 C 66.964844 300.285156 66.917969 319.09375 66.917969 319.289062 C 66.917969 319.699219 67.191406 320.042969 67.5625 320.160156 C 66.492188 334.007812 65.660156 353.40625 66.5625 374.050781 L 117.507812 374.050781 C 117.507812 374.46875 117.769531 374.851562 118.191406 374.960938 C 118.269531 374.976562 118.347656 374.984375 118.421875 374.984375 C 118.835938 374.984375 119.214844 374.703125 119.324219 374.285156 C 119.332031 374.238281 119.355469 374.160156 119.378906 374.050781 L 264.328125 374.050781 C 264.523438 374.363281 264.640625 374.539062 264.648438 374.554688 C 264.828125 374.835938 265.121094 374.984375 265.433594 374.984375 C 265.605469 374.984375 265.78125 374.9375 265.9375 374.835938 C 266.210938 374.65625 266.34375 374.363281 266.34375 374.050781 L 308.996094 374.050781 C 309.390625 349.09375 306.089844 326.414062 301.628906 316.972656 Z M 116.214844 287.082031 C 118.066406 292.574219 124.421875 311.445312 127.617188 320.75 C 127.765625 323.144531 127.664062 325.996094 127.394531 329.097656 C 127.019531 329.222656 126.753906 329.554688 126.753906 329.96875 C 126.753906 334.933594 122.199219 354.542969 119.488281 365.789062 C 117.203125 355.785156 107.117188 328.878906 116.214844 287.082031 Z M 243.21875 319.429688 C 243.75 309.675781 250.214844 286.367188 250.277344 286.132812 C 250.339844 285.90625 250.308594 285.683594 250.214844 285.488281 C 250.371094 285.347656 250.519531 285.199219 250.664062 285.050781 C 260.015625 326.46875 259.914062 355.257812 259.679688 362.78125 C 257.535156 359.066406 255.28125 354.9375 253.640625 351.378906 C 253.191406 350.414062 252.726562 349.414062 252.234375 348.371094 C 248.007812 339.355469 242.738281 328.132812 243.21875 319.429688 Z M 243.21875 319.429688 " fill-opacity="1" fill-rule="nonzero"/><path fill="#edcecc" d="M 244.074219 60.5625 C 239.589844 56.3125 234.570312 61.441406 230.933594 67.007812 C 231.359375 63.050781 231.726562 59.164062 232.066406 55.472656 C 232.066406 26.203125 209.582031 2.476562 181.84375 2.476562 C 154.90625 2.476562 132.925781 24.851562 131.675781 52.945312 C 131.675781 52.945312 131.675781 52.984375 131.675781 53.007812 C 131.636719 53.824219 131.613281 54.648438 131.613281 55.472656 C 131.613281 57.703125 131.761719 59.902344 132.015625 62.054688 C 132.117188 64.09375 132.25 66.371094 132.414062 68.769531 C 128.746094 62.484375 122.921875 55.085938 117.792969 59.941406 C 110.238281 67.101562 117.4375 94.785156 136.898438 99.640625 C 133.042969 91.816406 132.4375 74.539062 132.40625 73.722656 C 132.390625 73.210938 132.792969 72.773438 133.308594 72.757812 C 133.8125 72.734375 134.253906 73.148438 134.269531 73.660156 C 134.277344 73.878906 135.023438 95.40625 139.789062 100.738281 C 144.847656 106.410156 156.988281 117.59375 163.757812 121.527344 C 164.203125 121.785156 164.347656 122.359375 164.09375 122.800781 C 164.085938 122.808594 164.078125 122.816406 164.070312 122.832031 C 170.714844 127.023438 177.226562 130.007812 181.84375 130.085938 C 187.183594 130.1875 194.464844 127.1875 201.578125 122.816406 C 201.320312 122.398438 201.421875 121.855469 201.824219 121.574219 C 201.894531 121.519531 209 116.515625 218.824219 107.507812 C 228.40625 98.726562 229.207031 70.910156 229.214844 70.628906 C 229.230469 70.117188 229.65625 69.679688 230.171875 69.71875 C 230.683594 69.734375 231.085938 70.164062 231.078125 70.675781 C 231.058594 71.578125 230.566406 88.210938 225.710938 100.070312 C 244.617188 94.707031 251.535156 67.628906 244.074219 60.5625 Z M 130.308594 88.101562 C 130.214844 88.171875 129.476562 88.675781 128.332031 88.675781 C 128.132812 88.675781 127.914062 88.660156 127.6875 88.621094 C 126.21875 88.378906 124.828125 87.355469 123.5625 85.574219 C 123.257812 85.15625 123.359375 84.570312 123.777344 84.277344 C 124.199219 83.972656 124.78125 84.074219 125.078125 84.492188 C 126.421875 86.375 127.554688 86.800781 128.300781 86.816406 C 127.371094 85.148438 127.066406 83.210938 127.507812 79.039062 C 127.976562 74.617188 122.167969 67.332031 122.109375 67.253906 C 121.789062 66.859375 121.851562 66.269531 122.253906 65.949219 C 122.652344 65.625 123.242188 65.6875 123.5625 66.089844 C 123.824219 66.410156 129.910156 74.046875 129.359375 79.230469 C 128.863281 83.949219 129.351562 85.210938 130.515625 86.792969 C 130.65625 86.996094 130.71875 87.246094 130.679688 87.484375 C 130.640625 87.734375 130.507812 87.953125 130.308594 88.101562 Z M 239.761719 67.878906 C 239.699219 67.949219 233.894531 75.238281 234.359375 79.660156 C 234.804688 83.832031 234.5 85.769531 233.566406 87.441406 C 234.304688 87.425781 235.449219 86.996094 236.792969 85.109375 C 237.09375 84.6875 237.671875 84.59375 238.089844 84.890625 C 238.511719 85.195312 238.609375 85.777344 238.308594 86.195312 C 237.042969 87.976562 235.648438 89 234.179688 89.242188 C 233.957031 89.273438 233.738281 89.289062 233.535156 89.289062 C 232.394531 89.289062 231.65625 88.785156 231.5625 88.722656 C 231.359375 88.574219 231.226562 88.355469 231.1875 88.109375 C 231.148438 87.867188 231.210938 87.609375 231.359375 87.417969 C 232.519531 85.832031 233.007812 84.570312 232.511719 79.855469 C 231.957031 74.671875 238.050781 67.03125 238.308594 66.710938 C 238.632812 66.308594 239.21875 66.246094 239.621094 66.5625 C 240.019531 66.890625 240.078125 67.472656 239.761719 67.878906 Z M 301.628906 316.972656 C 301.230469 316.132812 300.867188 315.183594 300.53125 314.160156 C 301.488281 320.269531 302.351562 324.246094 302.367188 324.316406 C 302.472656 324.820312 302.15625 325.320312 301.652344 325.429688 C 301.589844 325.445312 301.519531 325.453125 301.457031 325.453125 C 301.019531 325.453125 300.640625 325.15625 300.546875 324.722656 C 300.515625 324.582031 297.5 310.675781 296.472656 294.644531 C 296.210938 290.492188 295.96875 285.738281 295.71875 280.699219 C 294.988281 266.027344 294.15625 249.402344 292.199219 238.605469 L 291.726562 235.957031 C 289.238281 222.027344 286.664062 207.621094 274.96875 194.484375 C 274.625 194.105469 274.664062 193.519531 275.039062 193.179688 C 271.695312 189.582031 268.003906 186.402344 264.148438 183.574219 C 263.972656 183.820312 263.691406 183.953125 263.402344 183.953125 C 263.21875 183.953125 263.03125 183.898438 262.867188 183.789062 C 262.773438 183.71875 253.378906 177.207031 245.007812 173.289062 C 242.988281 172.34375 240.546875 171.261719 237.964844 170.125 C 229.363281 166.328125 219.617188 162.019531 216.125 158.640625 C 211.570312 154.226562 206.824219 135.425781 206.621094 134.625 C 206.496094 134.125 206.800781 133.621094 207.304688 133.496094 C 207.320312 133.488281 207.335938 133.496094 207.351562 133.496094 C 206.652344 129.9375 206.09375 126.457031 205.65625 123.355469 C 191.941406 144.050781 168.832031 134.789062 159 129.472656 C 158.691406 131.265625 158.339844 133.109375 157.960938 134.957031 C 158.457031 135.066406 158.777344 135.554688 158.667969 136.0625 C 158.535156 136.707031 155.292969 151.886719 150.40625 157.605469 C 147.65625 160.816406 142.105469 163.378906 133.710938 167.25 C 126.917969 170.382812 118.460938 174.285156 108.46875 179.949219 C 86.898438 192.175781 80.03125 211.007812 79.960938 211.195312 C 79.828125 211.574219 79.460938 211.816406 79.082031 211.816406 C 78.980469 211.816406 78.871094 211.800781 78.769531 211.761719 C 78.753906 211.761719 78.746094 211.746094 78.738281 211.746094 C 78.320312 212.804688 77.921875 213.882812 77.566406 214.988281 C 76.019531 219.726562 74.777344 224.632812 73.75 229.636719 C 73.804688 229.636719 73.851562 229.621094 73.90625 229.636719 C 74.410156 229.730469 74.746094 230.210938 74.660156 230.71875 C 71.230469 249.597656 70.324219 270.605469 69.785156 283.148438 C 69.652344 286.09375 69.546875 288.636719 69.429688 290.539062 C 68.832031 300.347656 68.785156 319.101562 68.785156 319.289062 C 68.777344 319.800781 68.363281 320.222656 67.851562 320.222656 L 67.84375 320.222656 C 67.742188 320.222656 67.65625 320.191406 67.5625 320.160156 C 66.492188 334.007812 65.660156 353.40625 66.5625 374.050781 L 117.507812 374.050781 C 117.507812 373.980469 117.5 373.902344 117.515625 373.824219 C 117.546875 373.714844 118.355469 370.484375 119.488281 365.789062 C 117.203125 355.785156 107.117188 328.878906 116.214844 287.082031 C 116.03125 286.542969 115.890625 286.125 115.804688 285.867188 C 111.046875 281.625 108.515625 276.214844 107.9375 269.390625 C 106.953125 257.703125 111.601562 241.777344 113.832031 234.128906 C 114.328125 232.441406 114.785156 230.859375 114.816406 230.53125 C 114.855469 230.035156 115.308594 229.621094 115.78125 229.644531 C 116.277344 229.667969 116.675781 230.050781 116.675781 230.554688 C 116.675781 231.011719 116.402344 231.960938 115.625 234.652344 C 113.417969 242.195312 108.832031 257.890625 109.796875 269.234375 C 110.894531 282.222656 119.792969 289.792969 138.664062 293.765625 C 139.167969 293.867188 139.484375 294.363281 139.386719 294.867188 C 139.292969 295.304688 138.902344 295.605469 138.46875 295.605469 C 138.40625 295.605469 138.34375 295.597656 138.28125 295.582031 C 129.832031 293.8125 123.296875 291.316406 118.476562 287.96875 C 123.140625 301.808594 130.648438 324.023438 131.164062 325.21875 C 131.363281 325.691406 131.148438 326.238281 130.671875 326.4375 C 130.554688 326.492188 130.429688 326.515625 130.308594 326.515625 C 129.941406 326.515625 129.601562 326.308594 129.453125 325.949219 C 129.296875 325.589844 128.613281 323.625 127.617188 320.75 C 127.765625 323.144531 127.664062 325.996094 127.394531 329.097656 C 127.484375 329.066406 127.578125 329.035156 127.6875 329.035156 C 128.199219 329.035156 128.621094 329.453125 128.621094 329.96875 C 128.621094 337.007812 120.226562 370.660156 119.378906 374.050781 L 264.328125 374.050781 C 262.757812 371.578125 255.757812 360.402344 251.949219 352.164062 C 251.503906 351.199219 251.03125 350.199219 250.550781 349.164062 C 246.226562 339.960938 240.855469 328.507812 241.355469 319.328125 C 241.820312 310.808594 246.507812 292.910156 248.023438 287.3125 C 243.125 291 236.304688 293.695312 227.316406 295.582031 C 227.257812 295.597656 227.195312 295.605469 227.125 295.605469 C 226.695312 295.605469 226.308594 295.304688 226.214844 294.867188 C 226.113281 294.363281 226.433594 293.867188 226.9375 293.765625 C 245.808594 289.792969 254.707031 282.222656 255.804688 269.238281 C 256.757812 257.890625 252.179688 242.199219 249.972656 234.652344 C 249.1875 231.960938 248.925781 231.011719 248.925781 230.554688 C 248.925781 230.035156 249.335938 229.621094 249.847656 229.621094 C 250.363281 229.621094 250.773438 230.027344 250.78125 230.539062 C 250.8125 230.875 251.28125 232.457031 251.769531 234.128906 C 254 241.777344 258.648438 257.703125 257.660156 269.390625 C 257.125 275.78125 254.863281 280.933594 250.664062 285.050781 C 260.015625 326.46875 259.914062 355.257812 259.679688 362.78125 C 263.054688 368.625 266.164062 373.46875 266.21875 373.546875 C 266.320312 373.707031 266.34375 373.878906 266.34375 374.050781 L 308.996094 374.050781 C 309.390625 349.09375 306.089844 326.414062 301.628906 316.972656 Z M 301.628906 316.972656 " fill-opacity="1" fill-rule="nonzero"/></g></svg>