<svg xmlns="http://www.w3.org/2000/svg" xmlns:xlink="http://www.w3.org/1999/xlink" width="500" zoomAndPan="magnify" viewBox="0 0 375 374.999991" height="500" preserveAspectRatio="xMidYMid meet" version="1.0"><defs><clipPath id="48e0f1bf97"><path d="M 160.589844 232.839844 L 172.589844 232.839844 L 172.589844 239.589844 L 160.589844 239.589844 Z M 160.589844 232.839844 " clip-rule="nonzero"/></clipPath><clipPath id="6d3e76c86e"><path d="M 160.589844 233 L 172 233 L 172 239.589844 L 160.589844 239.589844 Z M 160.589844 233 " clip-rule="nonzero"/></clipPath><clipPath id="369213d7bb"><path d="M 66 2.476562 L 309.746094 2.476562 L 309.746094 375 L 66 375 Z M 66 2.476562 " clip-rule="nonzero"/></clipPath></defs><g clip-path="url(#48e0f1bf97)"><path fill="#353535" d="M 172.617188 236.753906 C 171.867188 236.964844 171.632812 236.386719 171.382812 236.054688 C 170.957031 235.5 170.464844 235.429688 169.804688 235.5 C 166.628906 235.816406 163.789062 236.761719 161.609375 239.066406 C 161.347656 239.347656 160.988281 239.441406 160.621094 239.53125 L 160.617188 239.53125 C 161.109375 238.171875 162.273438 237.332031 163.476562 236.636719 C 165.316406 235.578125 167.285156 234.753906 169.554688 234.929688 C 170.320312 234.988281 170.886719 234.847656 170.96875 233.9375 C 171.019531 233.390625 171.503906 233.054688 172.289062 232.886719 C 171.464844 234.308594 172.046875 235.503906 172.617188 236.753906 Z M 160.589844 239.5625 L 160.621094 239.53125 C 160.621094 239.53125 160.617188 239.53125 160.617188 239.53125 C 160.621094 239.53125 160.589844 239.5625 160.589844 239.5625 Z M 160.589844 239.5625 " fill-opacity="1" fill-rule="nonzero"/></g><g clip-path="url(#6d3e76c86e)"><path fill="#ffffff" d="M 164.453125 236.445312 C 164.460938 236.445312 164.472656 236.445312 164.480469 236.441406 C 164.480469 236.457031 164.480469 236.476562 164.480469 236.492188 C 164.476562 236.492188 164.472656 236.492188 164.464844 236.496094 C 164.460938 236.480469 164.457031 236.464844 164.453125 236.445312 Z M 163.902344 236.507812 C 163.957031 236.503906 164 236.503906 164.054688 236.503906 C 163.964844 236.457031 163.953125 236.457031 163.902344 236.507812 Z M 164.207031 237.019531 C 164.207031 237.023438 164.214844 237.03125 164.222656 237.035156 C 164.230469 237.027344 164.242188 237.023438 164.25 237.015625 C 164.234375 237.003906 164.230469 237 164.222656 236.996094 C 164.214844 237.003906 164.207031 237.007812 164.207031 237.019531 Z M 164.015625 237.054688 C 164.019531 237.054688 164.035156 237.058594 164.035156 237.058594 C 164.039062 237.046875 164.039062 237.027344 164.042969 237.015625 C 164.039062 237.015625 164.03125 237.015625 164.023438 237.007812 C 164.019531 237.023438 164.015625 237.042969 164.015625 237.054688 Z M 164.019531 236.875 C 164.011719 236.875 164 236.875 163.992188 236.875 C 163.996094 236.894531 164 236.914062 164 236.9375 C 164.011719 236.9375 164.015625 236.9375 164.023438 236.929688 C 164.023438 236.917969 164.023438 236.894531 164.019531 236.875 Z M 166.09375 235.488281 C 166.097656 235.507812 166.105469 235.53125 166.113281 235.550781 C 166.117188 235.550781 166.121094 235.550781 166.125 235.542969 C 166.121094 235.523438 166.113281 235.503906 166.105469 235.480469 C 166.101562 235.484375 166.097656 235.488281 166.09375 235.488281 Z M 163.714844 237.25 C 163.675781 237.253906 163.652344 237.253906 163.628906 237.257812 C 163.652344 237.285156 163.683594 237.296875 163.714844 237.25 Z M 166.53125 236.074219 C 166.601562 236.082031 166.601562 236.082031 166.636719 236.058594 C 166.625 236.054688 166.617188 236.046875 166.605469 236.050781 C 166.585938 236.050781 166.566406 236.058594 166.53125 236.074219 Z M 165.351562 236.152344 C 165.390625 236.15625 165.425781 236.160156 165.464844 236.164062 C 165.425781 236.089844 165.421875 236.085938 165.351562 236.152344 Z M 164.824219 236.28125 C 164.851562 236.285156 164.882812 236.285156 164.90625 236.289062 C 164.949219 236.292969 164.945312 236.265625 164.9375 236.222656 C 164.902344 236.257812 164.847656 236.214844 164.824219 236.28125 Z M 164.574219 236.359375 C 164.582031 236.363281 164.589844 236.371094 164.59375 236.375 C 164.609375 236.363281 164.617188 236.347656 164.628906 236.335938 C 164.628906 236.335938 164.617188 236.324219 164.613281 236.320312 C 164.601562 236.335938 164.589844 236.34375 164.574219 236.359375 Z M 165.234375 236.464844 C 165.25 236.421875 165.253906 236.394531 165.269531 236.351562 C 165.210938 236.398438 165.210938 236.398438 165.234375 236.464844 Z M 161.683594 238.871094 C 161.726562 238.871094 161.738281 238.832031 161.734375 238.796875 C 161.6875 238.792969 161.648438 238.785156 161.59375 238.785156 C 161.601562 238.847656 161.644531 238.871094 161.683594 238.871094 Z M 161.757812 238.0625 C 161.761719 238.070312 161.765625 238.078125 161.765625 238.085938 C 161.785156 238.074219 161.804688 238.070312 161.820312 238.0625 C 161.816406 238.050781 161.804688 238.039062 161.804688 238.039062 C 161.792969 238.046875 161.773438 238.050781 161.757812 238.0625 Z M 166.703125 236.03125 C 166.703125 236.039062 166.722656 236.050781 166.730469 236.058594 C 166.738281 236.050781 166.75 236.039062 166.753906 236.03125 C 166.753906 236.023438 166.742188 236.011719 166.734375 235.996094 C 166.71875 236.011719 166.703125 236.023438 166.703125 236.03125 Z M 161.464844 239.140625 C 161.472656 239.140625 161.484375 239.140625 161.488281 239.144531 C 161.492188 239.125 161.496094 239.101562 161.496094 239.085938 C 161.472656 239.089844 161.464844 239.097656 161.457031 239.109375 C 161.457031 239.117188 161.464844 239.132812 161.464844 239.140625 Z M 161.277344 238.679688 C 161.296875 238.691406 161.316406 238.695312 161.339844 238.703125 C 161.339844 238.695312 161.347656 238.691406 161.347656 238.679688 C 161.328125 238.675781 161.308594 238.667969 161.285156 238.664062 C 161.28125 238.667969 161.277344 238.671875 161.277344 238.679688 Z M 161 239.238281 C 161.027344 239.191406 161.046875 239.152344 161.078125 239.113281 C 161 239.125 160.988281 239.144531 161 239.238281 Z M 162.976562 237.316406 C 162.980469 237.332031 162.988281 237.34375 162.992188 237.359375 C 162.992188 237.359375 163 237.359375 163.011719 237.359375 C 163.007812 237.339844 163 237.320312 162.996094 237.308594 C 162.992188 237.3125 162.980469 237.3125 162.976562 237.316406 Z M 162.800781 237.699219 C 162.820312 237.644531 162.820312 237.644531 162.769531 237.617188 C 162.78125 237.648438 162.789062 237.675781 162.800781 237.699219 Z M 163.128906 237.738281 C 163.136719 237.707031 163.148438 237.679688 163.164062 237.636719 C 163.125 237.65625 163.09375 237.671875 163.058594 237.683594 C 163.089844 237.703125 163.105469 237.722656 163.128906 237.738281 Z M 162.648438 237.964844 C 162.652344 237.96875 162.652344 237.976562 162.660156 237.984375 C 162.679688 237.972656 162.699219 237.964844 162.71875 237.957031 C 162.710938 237.949219 162.707031 237.945312 162.707031 237.9375 C 162.6875 237.945312 162.667969 237.957031 162.648438 237.964844 Z M 162.265625 237.824219 C 162.273438 237.839844 162.273438 237.859375 162.277344 237.878906 C 162.285156 237.878906 162.292969 237.871094 162.300781 237.871094 C 162.296875 237.855469 162.292969 237.835938 162.292969 237.816406 C 162.28125 237.816406 162.277344 237.824219 162.265625 237.824219 Z M 162.53125 237.714844 C 162.527344 237.714844 162.519531 237.726562 162.515625 237.734375 C 162.539062 237.746094 162.566406 237.757812 162.601562 237.777344 C 162.59375 237.714844 162.570312 237.710938 162.53125 237.714844 Z M 171.128906 234.359375 C 171.128906 234.347656 171.132812 234.332031 171.132812 234.3125 C 171.121094 234.3125 171.113281 234.3125 171.109375 234.3125 C 171.109375 234.328125 171.109375 234.339844 171.109375 234.355469 C 171.113281 234.355469 171.121094 234.355469 171.128906 234.359375 Z M 171.5 235.125 C 171.5 235.136719 171.507812 235.148438 171.515625 235.160156 C 171.523438 235.15625 171.535156 235.144531 171.554688 235.136719 C 171.539062 235.121094 171.527344 235.113281 171.519531 235.109375 C 171.515625 235.105469 171.5 235.117188 171.5 235.125 Z M 171.417969 234.847656 C 171.40625 234.875 171.402344 234.902344 171.460938 234.921875 C 171.449219 234.886719 171.445312 234.863281 171.441406 234.84375 C 171.429688 234.84375 171.421875 234.847656 171.417969 234.847656 Z M 171.410156 234.488281 C 171.382812 234.496094 171.351562 234.503906 171.3125 234.511719 C 171.355469 234.554688 171.386719 234.5625 171.410156 234.515625 C 171.417969 234.515625 171.410156 234.503906 171.410156 234.488281 Z M 170.996094 235.535156 C 171.027344 235.53125 171.046875 235.53125 171.074219 235.53125 C 171.066406 235.511719 171.0625 235.496094 171.058594 235.464844 C 171.035156 235.496094 171.019531 235.507812 170.996094 235.535156 Z M 171.109375 234.523438 C 171.167969 234.539062 171.210938 234.53125 171.230469 234.457031 C 171.109375 234.4375 171.109375 234.4375 171.109375 234.523438 Z M 171.703125 234.308594 C 171.703125 234.324219 171.703125 234.332031 171.703125 234.347656 C 171.710938 234.359375 171.714844 234.371094 171.71875 234.382812 C 171.726562 234.382812 171.730469 234.378906 171.734375 234.378906 C 171.730469 234.355469 171.730469 234.332031 171.726562 234.3125 C 171.71875 234.308594 171.710938 234.308594 171.703125 234.308594 Z M 171.765625 235.042969 C 171.769531 235.046875 171.773438 235.054688 171.777344 235.0625 C 171.796875 235.046875 171.816406 235.03125 171.835938 235.015625 C 171.832031 235.011719 171.824219 235.003906 171.816406 235 C 171.804688 235.011719 171.785156 235.027344 171.765625 235.042969 Z M 171.582031 233.929688 C 171.582031 233.933594 171.582031 233.941406 171.582031 233.945312 C 171.601562 233.945312 171.625 233.945312 171.664062 233.945312 C 171.636719 233.929688 171.625 233.917969 171.617188 233.917969 C 171.605469 233.917969 171.59375 233.929688 171.582031 233.929688 Z M 167.59375 235.558594 C 167.605469 235.558594 167.609375 235.558594 167.621094 235.5625 C 167.621094 235.550781 167.625 235.53125 167.625 235.515625 C 167.621094 235.515625 167.609375 235.515625 167.605469 235.511719 C 167.601562 235.527344 167.601562 235.542969 167.59375 235.558594 Z M 171.808594 235.898438 C 171.8125 235.898438 171.824219 235.898438 171.828125 235.898438 C 171.832031 235.871094 171.832031 235.839844 171.835938 235.8125 C 171.828125 235.8125 171.816406 235.8125 171.808594 235.8125 C 171.808594 235.84375 171.808594 235.871094 171.808594 235.898438 Z M 171.363281 234.179688 C 171.390625 234.207031 171.410156 234.222656 171.441406 234.25 C 171.445312 234.183594 171.425781 234.175781 171.363281 234.179688 Z M 168.113281 235.03125 C 168.109375 235.066406 168.109375 235.097656 168.179688 235.125 C 168.160156 235.082031 168.148438 235.054688 168.132812 235.027344 C 168.128906 235.03125 168.125 235.03125 168.113281 235.03125 Z M 168.003906 235.382812 C 168.015625 235.394531 168.03125 235.402344 168.046875 235.410156 C 168.046875 235.410156 168.054688 235.398438 168.066406 235.386719 C 168.046875 235.378906 168.035156 235.371094 168.015625 235.371094 C 168.015625 235.367188 168.007812 235.378906 168.003906 235.382812 Z M 167.988281 235.183594 C 167.992188 235.148438 167.996094 235.132812 168.003906 235.09375 C 167.953125 235.132812 167.949219 235.148438 167.988281 235.183594 Z M 168.21875 235.617188 C 168.230469 235.640625 168.242188 235.65625 168.257812 235.679688 C 168.273438 235.65625 168.28125 235.632812 168.296875 235.613281 C 168.292969 235.609375 168.285156 235.605469 168.285156 235.601562 C 168.261719 235.601562 168.238281 235.609375 168.21875 235.617188 Z M 167.5625 235.265625 C 167.589844 235.277344 167.589844 235.332031 167.660156 235.296875 C 167.625 235.273438 167.59375 235.261719 167.570312 235.246094 C 167.566406 235.253906 167.5625 235.261719 167.5625 235.265625 Z M 168.265625 235.042969 C 168.273438 235.046875 168.277344 235.054688 168.28125 235.058594 C 168.304688 235.042969 168.335938 235.03125 168.378906 235.011719 C 168.34375 235 168.316406 234.980469 168.304688 234.988281 C 168.285156 235 168.28125 235.019531 168.265625 235.042969 Z M 170.8125 234.570312 C 170.8125 234.574219 170.8125 234.585938 170.8125 234.589844 C 170.832031 234.589844 170.851562 234.589844 170.871094 234.589844 C 170.871094 234.585938 170.871094 234.582031 170.871094 234.574219 C 170.851562 234.574219 170.832031 234.574219 170.8125 234.570312 Z M 169.554688 235.386719 C 169.609375 235.402344 169.636719 235.410156 169.671875 235.421875 C 169.648438 235.386719 169.625 235.367188 169.554688 235.386719 Z M 169.742188 235.109375 C 169.800781 235.042969 169.800781 235.042969 169.722656 235.03125 C 169.726562 235.054688 169.730469 235.070312 169.742188 235.109375 Z M 168.726562 235.398438 C 168.757812 235.410156 168.777344 235.421875 168.804688 235.429688 C 168.808594 235.398438 168.816406 235.371094 168.820312 235.34375 C 168.816406 235.339844 168.808594 235.339844 168.804688 235.332031 C 168.777344 235.351562 168.757812 235.371094 168.726562 235.398438 Z M 168.726562 235.398438 " fill-opacity="1" fill-rule="nonzero"/></g><g clip-path="url(#369213d7bb)"><path fill="#ddadab" d="M 301.628906 317.171875 C 301.230469 316.332031 300.867188 315.382812 300.53125 314.355469 C 299.707031 309.035156 298.804688 302.105469 298.332031 294.710938 C 298.066406 290.566406 297.835938 285.8125 297.578125 280.78125 C 296.847656 266.042969 296.015625 249.339844 294.035156 238.421875 L 293.558594 235.777344 C 291.027344 221.582031 288.40625 206.910156 276.359375 193.367188 C 276.019531 192.980469 275.425781 192.949219 275.046875 193.289062 C 275.039062 193.289062 275.039062 193.296875 275.039062 193.296875 C 271.695312 189.699219 268.003906 186.515625 264.148438 183.6875 C 264.15625 183.679688 264.164062 183.671875 264.164062 183.671875 C 264.460938 183.242188 264.359375 182.667969 263.933594 182.371094 C 263.839844 182.300781 254.320312 175.699219 245.800781 171.710938 C 243.757812 170.753906 241.308594 169.671875 238.71875 168.519531 C 230.675781 164.96875 220.671875 160.550781 217.425781 157.398438 C 213.25 153.347656 208.480469 134.449219 208.433594 134.257812 C 208.308594 133.773438 207.832031 133.484375 207.351562 133.578125 C 206.652344 130.015625 206.09375 126.535156 205.65625 123.429688 C 205.554688 122.707031 205.464844 122.015625 205.371094 121.339844 C 208.300781 119.105469 213.601562 114.898438 220.082031 108.949219 C 222.421875 106.804688 224.257812 103.675781 225.710938 100.128906 C 244.617188 94.765625 251.535156 67.667969 244.074219 60.601562 C 239.589844 56.347656 234.570312 61.480469 230.933594 67.046875 C 231.359375 63.089844 231.726562 59.199219 232.066406 55.507812 C 232.066406 26.21875 209.582031 2.476562 181.84375 2.476562 C 154.90625 2.476562 132.925781 24.863281 131.675781 52.980469 C 131.675781 52.980469 131.675781 53.019531 131.675781 53.042969 C 131.636719 53.859375 131.613281 54.683594 131.613281 55.507812 C 131.613281 57.738281 131.761719 59.9375 132.015625 62.09375 C 132.117188 64.132812 132.25 66.410156 132.414062 68.8125 C 128.746094 62.519531 122.921875 55.117188 117.792969 59.976562 C 110.238281 67.140625 117.4375 94.84375 136.898438 99.703125 C 137.347656 100.628906 137.847656 101.429688 138.398438 102.042969 C 142.945312 107.136719 153.117188 116.609375 160.199219 121.523438 C 159.878906 123.953125 159.492188 126.679688 159 129.550781 C 158.691406 131.347656 158.339844 133.191406 157.960938 135.042969 C 157.953125 135.042969 157.953125 135.042969 157.953125 135.042969 C 157.449219 134.933594 156.949219 135.257812 156.847656 135.765625 C 156.816406 135.914062 153.570312 151.132812 148.992188 156.492188 C 146.503906 159.398438 140.816406 162.027344 132.933594 165.660156 C 126.101562 168.808594 117.617188 172.738281 107.550781 178.4375 C 85.375 191.011719 78.273438 210.507812 78.203125 210.703125 C 78.03125 211.179688 78.273438 211.691406 78.738281 211.878906 C 78.320312 212.9375 77.921875 214.015625 77.566406 215.121094 C 76.019531 219.863281 74.777344 224.773438 73.75 229.78125 C 73.308594 229.773438 72.902344 230.074219 72.824219 230.527344 C 69.375 249.550781 68.464844 270.640625 67.921875 283.246094 C 67.796875 286.179688 67.6875 288.714844 67.570312 290.605469 C 66.964844 300.472656 66.917969 319.292969 66.917969 319.488281 C 66.917969 319.898438 67.191406 320.242188 67.5625 320.359375 C 66.492188 334.21875 65.660156 353.628906 66.5625 374.285156 L 117.507812 374.285156 C 117.507812 374.703125 117.769531 375.085938 118.191406 375.195312 C 118.269531 375.210938 118.347656 375.21875 118.421875 375.21875 C 118.835938 375.21875 119.214844 374.9375 119.324219 374.519531 C 119.332031 374.472656 119.355469 374.394531 119.378906 374.285156 L 264.328125 374.285156 C 264.523438 374.59375 264.640625 374.773438 264.648438 374.789062 C 264.828125 375.070312 265.121094 375.21875 265.433594 375.21875 C 265.605469 375.21875 265.78125 375.171875 265.9375 375.070312 C 266.210938 374.890625 266.34375 374.59375 266.34375 374.285156 L 308.996094 374.285156 C 309.390625 349.3125 306.089844 326.621094 301.628906 317.171875 Z M 116.214844 287.261719 C 118.066406 292.757812 124.421875 311.640625 127.617188 320.949219 C 127.765625 323.34375 127.664062 326.199219 127.394531 329.300781 C 127.019531 329.425781 126.753906 329.761719 126.753906 330.171875 C 126.753906 335.144531 122.199219 354.765625 119.488281 366.015625 C 117.203125 356.007812 107.117188 329.085938 116.214844 287.261719 Z M 243.21875 319.628906 C 243.75 309.867188 250.214844 286.542969 250.277344 286.3125 C 250.339844 286.085938 250.308594 285.859375 250.214844 285.664062 C 250.371094 285.527344 250.519531 285.378906 250.664062 285.230469 C 260.015625 326.671875 259.914062 355.480469 259.679688 363.007812 C 257.535156 359.289062 255.28125 355.160156 253.640625 351.597656 C 253.191406 350.632812 252.726562 349.632812 252.234375 348.589844 C 248.007812 339.566406 242.738281 328.339844 243.21875 319.628906 Z M 243.21875 319.628906 " fill-opacity="1" fill-rule="nonzero"/><path fill="#fbdad7" d="M 244.074219 60.601562 C 239.589844 56.347656 234.570312 61.480469 230.933594 67.046875 C 231.359375 63.089844 231.726562 59.199219 232.066406 55.507812 C 232.066406 26.21875 209.582031 2.476562 181.84375 2.476562 C 154.90625 2.476562 132.925781 24.863281 131.675781 52.980469 C 131.675781 52.980469 131.675781 53.019531 131.675781 53.042969 C 131.636719 53.859375 131.613281 54.683594 131.613281 55.507812 C 131.613281 57.738281 131.761719 59.9375 132.015625 62.09375 C 132.117188 64.132812 132.25 66.410156 132.414062 68.8125 C 128.746094 62.519531 122.921875 55.117188 117.792969 59.976562 C 110.238281 67.140625 117.4375 94.84375 136.898438 99.703125 C 133.042969 91.871094 132.4375 74.582031 132.40625 73.765625 C 132.390625 73.253906 132.792969 72.816406 133.308594 72.800781 C 133.8125 72.777344 134.253906 73.191406 134.269531 73.703125 C 134.277344 73.921875 135.023438 95.464844 139.789062 100.800781 C 144.847656 106.476562 156.988281 117.667969 163.757812 121.601562 C 164.203125 121.859375 164.347656 122.433594 164.09375 122.878906 C 164.085938 122.886719 164.078125 122.894531 164.070312 122.910156 C 170.714844 127.101562 177.226562 130.085938 181.84375 130.164062 C 187.183594 130.265625 194.464844 127.265625 201.578125 122.894531 C 201.320312 122.472656 201.421875 121.929688 201.824219 121.648438 C 201.894531 121.59375 209 116.585938 218.824219 107.574219 C 228.40625 98.785156 229.207031 70.953125 229.214844 70.671875 C 229.230469 70.160156 229.65625 69.722656 230.171875 69.761719 C 230.683594 69.777344 231.085938 70.203125 231.078125 70.71875 C 231.058594 71.621094 230.566406 88.261719 225.710938 100.128906 C 244.617188 94.765625 251.535156 67.667969 244.074219 60.601562 Z M 130.308594 88.152344 C 130.214844 88.222656 129.476562 88.730469 128.332031 88.730469 C 128.132812 88.730469 127.914062 88.714844 127.6875 88.675781 C 126.21875 88.433594 124.828125 87.40625 123.5625 85.625 C 123.257812 85.207031 123.359375 84.625 123.777344 84.328125 C 124.199219 84.023438 124.78125 84.125 125.078125 84.546875 C 126.421875 86.425781 127.554688 86.855469 128.300781 86.871094 C 127.371094 85.199219 127.066406 83.261719 127.507812 79.085938 C 127.976562 74.660156 122.167969 67.375 122.109375 67.296875 C 121.789062 66.898438 121.851562 66.308594 122.253906 65.988281 C 122.652344 65.664062 123.242188 65.726562 123.5625 66.128906 C 123.824219 66.449219 129.910156 74.09375 129.359375 79.28125 C 128.863281 84 129.351562 85.261719 130.515625 86.847656 C 130.65625 87.050781 130.71875 87.296875 130.679688 87.539062 C 130.640625 87.789062 130.507812 88.007812 130.308594 88.152344 Z M 239.761719 67.917969 C 239.699219 67.988281 233.894531 75.285156 234.359375 79.707031 C 234.804688 83.882812 234.5 85.820312 233.566406 87.492188 C 234.304688 87.476562 235.449219 87.050781 236.792969 85.160156 C 237.09375 84.738281 237.671875 84.648438 238.089844 84.941406 C 238.511719 85.246094 238.609375 85.828125 238.308594 86.25 C 237.042969 88.03125 235.648438 89.054688 234.179688 89.296875 C 233.957031 89.328125 233.738281 89.34375 233.535156 89.34375 C 232.394531 89.34375 231.65625 88.839844 231.5625 88.777344 C 231.359375 88.628906 231.226562 88.410156 231.1875 88.160156 C 231.148438 87.921875 231.210938 87.664062 231.359375 87.46875 C 232.519531 85.882812 233.007812 84.625 232.511719 79.902344 C 231.957031 74.714844 238.050781 67.070312 238.308594 66.753906 C 238.632812 66.347656 239.21875 66.285156 239.621094 66.605469 C 240.019531 66.929688 240.078125 67.515625 239.761719 67.917969 Z M 301.628906 317.171875 C 301.230469 316.332031 300.867188 315.382812 300.53125 314.355469 C 301.488281 320.46875 302.351562 324.449219 302.367188 324.519531 C 302.472656 325.023438 302.15625 325.523438 301.652344 325.632812 C 301.589844 325.648438 301.519531 325.65625 301.457031 325.65625 C 301.019531 325.65625 300.640625 325.359375 300.546875 324.925781 C 300.515625 324.785156 297.5 310.871094 296.472656 294.828125 C 296.210938 290.675781 295.96875 285.914062 295.71875 280.875 C 294.988281 266.191406 294.15625 249.558594 292.199219 238.753906 L 291.726562 236.101562 C 289.238281 222.167969 286.664062 207.75 274.96875 194.605469 C 274.625 194.222656 274.664062 193.640625 275.039062 193.296875 C 271.695312 189.699219 268.003906 186.515625 264.148438 183.6875 C 263.972656 183.933594 263.691406 184.066406 263.402344 184.066406 C 263.21875 184.066406 263.03125 184.011719 262.867188 183.902344 C 262.773438 183.835938 253.378906 177.316406 245.007812 173.398438 C 242.988281 172.449219 240.546875 171.367188 237.964844 170.230469 C 229.363281 166.429688 219.617188 162.121094 216.125 158.738281 C 211.570312 154.320312 206.824219 135.507812 206.621094 134.707031 C 206.496094 134.210938 206.800781 133.703125 207.304688 133.578125 C 207.320312 133.570312 207.335938 133.578125 207.351562 133.578125 C 206.652344 130.015625 206.09375 126.535156 205.65625 123.429688 C 191.941406 144.140625 168.832031 134.871094 159 129.550781 C 158.691406 131.347656 158.339844 133.191406 157.960938 135.042969 C 158.457031 135.148438 158.777344 135.640625 158.667969 136.144531 C 158.535156 136.792969 155.292969 151.980469 150.40625 157.703125 C 147.65625 160.914062 142.105469 163.480469 133.710938 167.355469 C 126.917969 170.488281 118.460938 174.394531 108.46875 180.0625 C 86.898438 192.296875 80.03125 211.140625 79.960938 211.324219 C 79.828125 211.707031 79.460938 211.949219 79.082031 211.949219 C 78.980469 211.949219 78.871094 211.933594 78.769531 211.894531 C 78.753906 211.894531 78.746094 211.878906 78.738281 211.878906 C 78.320312 212.9375 77.921875 214.015625 77.566406 215.121094 C 76.019531 219.863281 74.777344 224.773438 73.75 229.78125 C 73.804688 229.78125 73.851562 229.765625 73.90625 229.78125 C 74.410156 229.875 74.746094 230.355469 74.660156 230.863281 C 71.230469 249.75 70.324219 270.773438 69.785156 283.324219 C 69.652344 286.273438 69.546875 288.816406 69.429688 290.722656 C 68.832031 300.535156 68.785156 319.300781 68.785156 319.488281 C 68.777344 320 68.363281 320.421875 67.851562 320.421875 L 67.84375 320.421875 C 67.742188 320.421875 67.65625 320.390625 67.5625 320.359375 C 66.492188 334.21875 65.660156 353.628906 66.5625 374.285156 L 117.507812 374.285156 C 117.507812 374.214844 117.5 374.136719 117.515625 374.058594 C 117.546875 373.949219 118.355469 370.714844 119.488281 366.015625 C 117.203125 356.007812 107.117188 329.085938 116.214844 287.261719 C 116.03125 286.722656 115.890625 286.304688 115.804688 286.046875 C 111.046875 281.800781 108.515625 276.386719 107.9375 269.558594 C 106.953125 257.863281 111.601562 241.929688 113.832031 234.277344 C 114.328125 232.589844 114.785156 231 114.816406 230.675781 C 114.855469 230.175781 115.308594 229.765625 115.78125 229.789062 C 116.277344 229.8125 116.675781 230.191406 116.675781 230.699219 C 116.675781 231.15625 116.402344 232.105469 115.625 234.796875 C 113.417969 242.347656 108.832031 258.050781 109.796875 269.402344 C 110.894531 282.398438 119.792969 289.972656 138.664062 293.949219 C 139.167969 294.050781 139.484375 294.546875 139.386719 295.050781 C 139.292969 295.488281 138.902344 295.792969 138.46875 295.792969 C 138.40625 295.792969 138.34375 295.785156 138.28125 295.769531 C 129.832031 293.996094 123.296875 291.5 118.476562 288.148438 C 123.140625 301.996094 130.648438 324.222656 131.164062 325.421875 C 131.363281 325.894531 131.148438 326.441406 130.671875 326.644531 C 130.554688 326.695312 130.429688 326.71875 130.308594 326.71875 C 129.941406 326.71875 129.601562 326.511719 129.453125 326.152344 C 129.296875 325.796875 128.613281 323.828125 127.617188 320.949219 C 127.765625 323.34375 127.664062 326.199219 127.394531 329.300781 C 127.484375 329.269531 127.578125 329.238281 127.6875 329.238281 C 128.199219 329.238281 128.621094 329.660156 128.621094 330.171875 C 128.621094 337.21875 120.226562 370.894531 119.378906 374.285156 L 264.328125 374.285156 C 262.757812 371.8125 255.757812 360.628906 251.949219 352.382812 C 251.503906 351.421875 251.03125 350.417969 250.550781 349.382812 C 246.226562 340.175781 240.855469 328.710938 241.355469 319.527344 C 241.820312 311.003906 246.507812 293.09375 248.023438 287.492188 C 243.125 291.179688 236.304688 293.878906 227.316406 295.769531 C 227.257812 295.785156 227.195312 295.792969 227.125 295.792969 C 226.695312 295.792969 226.308594 295.488281 226.214844 295.050781 C 226.113281 294.546875 226.433594 294.050781 226.9375 293.949219 C 245.808594 289.972656 254.707031 282.398438 255.804688 269.402344 C 256.757812 258.050781 252.179688 242.347656 249.972656 234.796875 C 249.1875 232.105469 248.925781 231.15625 248.925781 230.699219 C 248.925781 230.175781 249.335938 229.765625 249.847656 229.765625 C 250.363281 229.765625 250.773438 230.167969 250.78125 230.683594 C 250.8125 231.015625 251.28125 232.605469 251.769531 234.277344 C 254 241.929688 258.648438 257.863281 257.660156 269.558594 C 257.125 275.953125 254.863281 281.109375 250.664062 285.230469 C 260.015625 326.671875 259.914062 355.480469 259.679688 363.007812 C 263.054688 368.855469 266.164062 373.699219 266.21875 373.777344 C 266.320312 373.941406 266.34375 374.113281 266.34375 374.285156 L 308.996094 374.285156 C 309.390625 349.3125 306.089844 326.621094 301.628906 317.171875 Z M 301.628906 317.171875 " fill-opacity="1" fill-rule="nonzero"/></g></svg>