<svg xmlns="http://www.w3.org/2000/svg" xmlns:xlink="http://www.w3.org/1999/xlink" width="500" zoomAndPan="magnify" viewBox="0 0 375 374.999991" height="500" preserveAspectRatio="xMidYMid meet" version="1.0"><defs><clipPath id="9ffa718c40"><path d="M 122.234375 123.488281 L 134.234375 123.488281 L 134.234375 130.238281 L 122.234375 130.238281 Z M 122.234375 123.488281 " clip-rule="nonzero"/></clipPath><clipPath id="9279ccf343"><path d="M 122.234375 124 L 134 124 L 134 130 L 122.234375 130 Z M 122.234375 124 " clip-rule="nonzero"/></clipPath><clipPath id="3d6a261645"><path d="M 8.183594 7 L 362.933594 7 L 362.933594 369 L 8.183594 369 Z M 8.183594 7 " clip-rule="nonzero"/></clipPath><clipPath id="83285305f8"><path d="M 9 10 L 362.933594 10 L 362.933594 364 L 9 364 Z M 9 10 " clip-rule="nonzero"/></clipPath></defs><g clip-path="url(#9ffa718c40)"><path fill="#353535" d="M 134.257812 127.402344 C 133.507812 127.613281 133.273438 127.035156 133.023438 126.703125 C 132.597656 126.148438 132.105469 126.078125 131.445312 126.148438 C 128.273438 126.464844 125.429688 127.410156 123.25 129.714844 C 122.988281 129.996094 122.628906 130.09375 122.261719 130.179688 L 122.257812 130.179688 C 122.753906 128.820312 123.914062 127.980469 125.117188 127.285156 C 126.960938 126.226562 128.929688 125.402344 131.195312 125.578125 C 131.960938 125.636719 132.527344 125.496094 132.613281 124.585938 C 132.660156 124.039062 133.144531 123.703125 133.929688 123.535156 C 133.105469 124.957031 133.6875 126.152344 134.257812 127.402344 Z M 122.234375 130.210938 L 122.261719 130.179688 C 122.261719 130.179688 122.257812 130.179688 122.257812 130.179688 C 122.261719 130.179688 122.234375 130.210938 122.234375 130.210938 Z M 122.234375 130.210938 " fill-opacity="1" fill-rule="nonzero"/></g><g clip-path="url(#9279ccf343)"><path fill="#ffffff" d="M 126.09375 127.09375 C 126.101562 127.09375 126.113281 127.09375 126.121094 127.089844 C 126.121094 127.105469 126.121094 127.125 126.121094 127.140625 C 126.117188 127.140625 126.113281 127.140625 126.105469 127.144531 C 126.101562 127.128906 126.097656 127.113281 126.09375 127.09375 Z M 125.542969 127.15625 C 125.597656 127.152344 125.640625 127.152344 125.695312 127.152344 C 125.609375 127.105469 125.59375 127.105469 125.542969 127.15625 Z M 125.847656 127.667969 C 125.847656 127.671875 125.855469 127.679688 125.863281 127.6875 C 125.871094 127.675781 125.882812 127.671875 125.890625 127.664062 C 125.875 127.652344 125.871094 127.648438 125.863281 127.644531 C 125.855469 127.652344 125.847656 127.660156 125.847656 127.667969 Z M 125.65625 127.703125 C 125.660156 127.703125 125.675781 127.707031 125.675781 127.707031 C 125.679688 127.695312 125.679688 127.675781 125.6875 127.664062 C 125.679688 127.664062 125.671875 127.664062 125.667969 127.660156 C 125.660156 127.671875 125.65625 127.691406 125.65625 127.703125 Z M 125.660156 127.523438 C 125.652344 127.523438 125.640625 127.523438 125.632812 127.523438 C 125.636719 127.542969 125.640625 127.5625 125.640625 127.585938 C 125.652344 127.585938 125.65625 127.585938 125.667969 127.582031 C 125.667969 127.566406 125.667969 127.542969 125.660156 127.523438 Z M 127.734375 126.136719 C 127.738281 126.15625 127.746094 126.179688 127.753906 126.199219 C 127.757812 126.199219 127.761719 126.199219 127.765625 126.195312 C 127.761719 126.171875 127.753906 126.152344 127.746094 126.128906 C 127.742188 126.132812 127.738281 126.136719 127.734375 126.136719 Z M 125.359375 127.898438 C 125.320312 127.902344 125.292969 127.902344 125.269531 127.90625 C 125.292969 127.933594 125.324219 127.949219 125.359375 127.898438 Z M 128.175781 126.722656 C 128.242188 126.730469 128.242188 126.730469 128.277344 126.707031 C 128.265625 126.703125 128.257812 126.695312 128.246094 126.699219 C 128.226562 126.699219 128.207031 126.707031 128.175781 126.722656 Z M 126.992188 126.800781 C 127.03125 126.804688 127.066406 126.808594 127.105469 126.8125 C 127.066406 126.738281 127.0625 126.734375 126.992188 126.800781 Z M 126.464844 126.929688 C 126.492188 126.933594 126.523438 126.933594 126.546875 126.9375 C 126.59375 126.941406 126.585938 126.914062 126.578125 126.875 C 126.542969 126.90625 126.488281 126.863281 126.464844 126.929688 Z M 126.214844 127.007812 C 126.226562 127.011719 126.230469 127.019531 126.234375 127.023438 C 126.25 127.011719 126.257812 126.996094 126.269531 126.984375 C 126.269531 126.984375 126.257812 126.972656 126.253906 126.96875 C 126.246094 126.984375 126.230469 126.992188 126.214844 127.007812 Z M 126.875 127.113281 C 126.890625 127.070312 126.894531 127.042969 126.910156 127 C 126.851562 127.046875 126.851562 127.046875 126.875 127.113281 Z M 123.324219 129.519531 C 123.371094 129.519531 123.378906 129.480469 123.375 129.445312 C 123.328125 129.441406 123.289062 129.433594 123.238281 129.433594 C 123.242188 129.496094 123.285156 129.519531 123.324219 129.519531 Z M 123.398438 128.710938 C 123.402344 128.71875 123.410156 128.726562 123.410156 128.734375 C 123.429688 128.722656 123.449219 128.71875 123.460938 128.710938 C 123.457031 128.699219 123.449219 128.6875 123.449219 128.6875 C 123.433594 128.695312 123.414062 128.699219 123.398438 128.710938 Z M 128.34375 126.679688 C 128.34375 126.691406 128.363281 126.699219 128.371094 126.707031 C 128.378906 126.699219 128.390625 126.691406 128.394531 126.679688 C 128.394531 126.671875 128.382812 126.660156 128.375 126.644531 C 128.359375 126.660156 128.34375 126.671875 128.34375 126.679688 Z M 123.105469 129.789062 C 123.113281 129.789062 123.125 129.789062 123.128906 129.792969 C 123.132812 129.773438 123.140625 129.753906 123.140625 129.734375 C 123.113281 129.738281 123.105469 129.746094 123.101562 129.757812 C 123.101562 129.765625 123.105469 129.78125 123.105469 129.789062 Z M 122.917969 129.328125 C 122.9375 129.339844 122.957031 129.34375 122.980469 129.351562 C 122.980469 129.34375 122.988281 129.339844 122.988281 129.328125 C 122.96875 129.324219 122.949219 129.316406 122.929688 129.3125 C 122.921875 129.316406 122.917969 129.320312 122.917969 129.328125 Z M 122.640625 129.886719 C 122.667969 129.839844 122.6875 129.804688 122.71875 129.761719 C 122.640625 129.773438 122.628906 129.792969 122.640625 129.886719 Z M 124.617188 127.964844 C 124.621094 127.980469 124.628906 127.992188 124.632812 128.007812 C 124.632812 128.007812 124.644531 128.007812 124.652344 128.007812 C 124.648438 127.988281 124.644531 127.96875 124.636719 127.957031 C 124.632812 127.960938 124.621094 127.960938 124.617188 127.964844 Z M 124.441406 128.347656 C 124.460938 128.292969 124.460938 128.292969 124.414062 128.265625 C 124.421875 128.296875 124.433594 128.324219 124.441406 128.347656 Z M 124.769531 128.386719 C 124.78125 128.355469 124.789062 128.328125 124.804688 128.289062 C 124.765625 128.304688 124.734375 128.320312 124.703125 128.332031 C 124.730469 128.351562 124.746094 128.371094 124.769531 128.386719 Z M 124.289062 128.613281 C 124.292969 128.617188 124.292969 128.628906 124.300781 128.632812 C 124.320312 128.621094 124.339844 128.613281 124.359375 128.605469 C 124.355469 128.601562 124.347656 128.59375 124.347656 128.585938 C 124.328125 128.59375 124.308594 128.605469 124.289062 128.613281 Z M 123.90625 128.472656 C 123.914062 128.488281 123.914062 128.507812 123.917969 128.527344 C 123.925781 128.527344 123.933594 128.523438 123.941406 128.523438 C 123.9375 128.503906 123.933594 128.484375 123.933594 128.464844 C 123.921875 128.464844 123.917969 128.472656 123.90625 128.472656 Z M 124.171875 128.367188 C 124.167969 128.367188 124.164062 128.375 124.15625 128.382812 C 124.183594 128.394531 124.207031 128.40625 124.242188 128.425781 C 124.234375 128.367188 124.210938 128.359375 124.171875 128.367188 Z M 132.769531 125.007812 C 132.769531 124.996094 132.773438 124.980469 132.773438 124.964844 C 132.761719 124.964844 132.753906 124.964844 132.75 124.964844 C 132.75 124.976562 132.75 124.992188 132.75 125.003906 C 132.753906 125.003906 132.761719 125.003906 132.769531 125.007812 Z M 133.140625 125.777344 C 133.140625 125.785156 133.148438 125.796875 133.15625 125.808594 C 133.164062 125.804688 133.175781 125.792969 133.195312 125.785156 C 133.179688 125.769531 133.171875 125.761719 133.160156 125.757812 C 133.15625 125.753906 133.140625 125.765625 133.140625 125.777344 Z M 133.058594 125.496094 C 133.046875 125.523438 133.042969 125.550781 133.101562 125.570312 C 133.089844 125.535156 133.085938 125.515625 133.082031 125.492188 C 133.070312 125.492188 133.0625 125.496094 133.058594 125.496094 Z M 133.050781 125.136719 C 133.023438 125.148438 132.992188 125.152344 132.953125 125.160156 C 133 125.203125 133.027344 125.210938 133.050781 125.164062 C 133.058594 125.164062 133.050781 125.152344 133.050781 125.136719 Z M 132.636719 126.183594 C 132.671875 126.179688 132.691406 126.179688 132.714844 126.179688 C 132.710938 126.160156 132.703125 126.144531 132.699219 126.117188 C 132.675781 126.144531 132.660156 126.15625 132.636719 126.183594 Z M 132.75 125.175781 C 132.808594 125.1875 132.851562 125.179688 132.871094 125.105469 C 132.75 125.085938 132.75 125.085938 132.75 125.175781 Z M 133.347656 124.957031 C 133.347656 124.972656 133.347656 124.980469 133.347656 124.996094 C 133.351562 125.007812 133.355469 125.019531 133.359375 125.03125 C 133.367188 125.03125 133.371094 125.027344 133.375 125.027344 C 133.371094 125.003906 133.371094 124.980469 133.367188 124.964844 C 133.359375 124.957031 133.351562 124.957031 133.347656 124.957031 Z M 133.40625 125.691406 C 133.410156 125.699219 133.414062 125.703125 133.417969 125.710938 C 133.4375 125.699219 133.457031 125.679688 133.480469 125.664062 C 133.472656 125.660156 133.464844 125.652344 133.457031 125.648438 C 133.445312 125.660156 133.425781 125.675781 133.40625 125.691406 Z M 133.222656 124.578125 C 133.222656 124.582031 133.222656 124.589844 133.222656 124.59375 C 133.242188 124.59375 133.269531 124.59375 133.308594 124.59375 C 133.277344 124.578125 133.269531 124.566406 133.257812 124.566406 C 133.25 124.566406 133.234375 124.578125 133.222656 124.578125 Z M 129.238281 126.207031 C 129.246094 126.207031 129.25 126.207031 129.261719 126.210938 C 129.261719 126.199219 129.265625 126.179688 129.265625 126.167969 C 129.261719 126.167969 129.25 126.167969 129.246094 126.160156 C 129.242188 126.175781 129.242188 126.195312 129.238281 126.207031 Z M 133.449219 126.546875 C 133.453125 126.546875 133.464844 126.546875 133.46875 126.546875 C 133.472656 126.519531 133.472656 126.488281 133.480469 126.460938 C 133.46875 126.460938 133.457031 126.460938 133.449219 126.460938 C 133.449219 126.492188 133.449219 126.519531 133.449219 126.546875 Z M 133.003906 124.828125 C 133.03125 124.855469 133.050781 124.871094 133.082031 124.898438 C 133.085938 124.835938 133.066406 124.824219 133.003906 124.828125 Z M 129.757812 125.679688 C 129.75 125.714844 129.75 125.75 129.820312 125.777344 C 129.800781 125.730469 129.789062 125.703125 129.777344 125.675781 C 129.769531 125.679688 129.765625 125.679688 129.757812 125.679688 Z M 129.644531 126.03125 C 129.65625 126.042969 129.671875 126.050781 129.6875 126.058594 C 129.6875 126.058594 129.699219 126.046875 129.707031 126.039062 C 129.6875 126.027344 129.675781 126.019531 129.65625 126.019531 C 129.65625 126.015625 129.648438 126.027344 129.644531 126.03125 Z M 129.628906 125.832031 C 129.632812 125.796875 129.636719 125.78125 129.644531 125.742188 C 129.59375 125.78125 129.589844 125.796875 129.628906 125.832031 Z M 129.859375 126.265625 C 129.875 126.289062 129.882812 126.304688 129.898438 126.328125 C 129.914062 126.304688 129.921875 126.28125 129.9375 126.261719 C 129.933594 126.257812 129.925781 126.253906 129.925781 126.25 C 129.902344 126.25 129.878906 126.257812 129.859375 126.265625 Z M 129.203125 125.914062 C 129.230469 125.925781 129.230469 125.980469 129.300781 125.945312 C 129.265625 125.921875 129.238281 125.910156 129.210938 125.894531 C 129.207031 125.902344 129.203125 125.910156 129.203125 125.914062 Z M 129.90625 125.691406 C 129.914062 125.699219 129.917969 125.703125 129.921875 125.707031 C 129.945312 125.691406 129.976562 125.679688 130.019531 125.660156 C 129.984375 125.648438 129.957031 125.628906 129.945312 125.636719 C 129.925781 125.648438 129.921875 125.671875 129.90625 125.691406 Z M 132.453125 125.21875 C 132.453125 125.226562 132.453125 125.234375 132.453125 125.238281 C 132.472656 125.238281 132.492188 125.238281 132.511719 125.238281 C 132.511719 125.234375 132.511719 125.230469 132.511719 125.226562 C 132.492188 125.226562 132.472656 125.226562 132.453125 125.21875 Z M 131.195312 126.039062 C 131.25 126.050781 131.28125 126.058594 131.3125 126.070312 C 131.289062 126.039062 131.265625 126.015625 131.195312 126.039062 Z M 131.382812 125.757812 C 131.441406 125.691406 131.441406 125.691406 131.363281 125.679688 C 131.367188 125.703125 131.371094 125.71875 131.382812 125.757812 Z M 130.367188 126.046875 C 130.398438 126.058594 130.417969 126.070312 130.445312 126.078125 C 130.453125 126.046875 130.457031 126.019531 130.460938 125.992188 C 130.457031 125.988281 130.453125 125.988281 130.445312 125.980469 C 130.417969 126 130.398438 126.019531 130.367188 126.046875 Z M 130.367188 126.046875 " fill-opacity="1" fill-rule="nonzero"/></g><g clip-path="url(#3d6a261645)"><path fill="#a6a6a6" d="M 336.53125 187.960938 C 336.539062 188.007812 336.539062 188.050781 336.546875 188.09375 C 338.054688 196.011719 339.527344 205.007812 340.070312 212.363281 C 340.117188 212.976562 339.660156 213.503906 339.046875 213.558594 C 339.136719 214.660156 339.234375 215.773438 339.320312 216.867188 C 342.964844 263.011719 342.324219 300.910156 342.324219 300.910156 C 342.324219 293.730469 335.523438 286.179688 335.523438 286.179688 C 338.164062 314.136719 320.789062 332.269531 320.789062 332.269531 C 324.191406 325.46875 320.777344 306.203125 320.777344 306.203125 C 321.160156 340.421875 295.164062 356.6875 294.347656 357.1875 C 298.632812 351.253906 299.273438 341.238281 298.964844 333.292969 C 298.691406 326.542969 297.734375 321.304688 297.734375 321.304688 C 291.957031 357.019531 256.917969 362.765625 253.746094 363.207031 L 253.734375 363.222656 C 253.59375 363.238281 253.519531 363.25 253.519531 363.25 C 253.878906 362.921875 254.234375 362.558594 254.566406 362.191406 C 254.578125 362.167969 254.601562 362.15625 254.617188 362.125 C 255.382812 361.167969 256.160156 360.160156 256.972656 359.085938 C 265.339844 346.363281 265.75 323.585938 265.75 323.585938 C 262.578125 333.109375 258.339844 338.007812 258.074219 338.304688 C 261.628906 330.332031 263.609375 315.679688 264.660156 299.535156 C 264.648438 299.535156 264.632812 299.535156 264.617188 299.535156 C 264.007812 299.46875 263.566406 298.925781 263.625 298.304688 C 265.347656 282.085938 264.492188 245.144531 263.71875 222 C 258.304688 214.417969 252.113281 204.367188 246.691406 192.082031 C 231.722656 161.886719 231.605469 127.402344 232.523438 111.734375 C 231.65625 114.230469 230.226562 118.042969 228.09375 122.863281 C 228.109375 122.871094 228.128906 122.878906 228.144531 122.882812 C 228.695312 123.164062 228.910156 123.832031 228.628906 124.386719 C 228.292969 125.054688 194.019531 191.53125 152.09375 215.40625 C 151.917969 215.5 151.734375 215.550781 151.542969 215.550781 C 151.152344 215.550781 150.777344 215.34375 150.570312 214.984375 C 150.269531 214.449219 150.453125 213.769531 150.992188 213.460938 C 152.144531 212.800781 153.300781 212.109375 154.441406 211.378906 C 156.0625 209.472656 158.179688 206.65625 160.375 202.84375 C 160.367188 202.835938 160.351562 202.835938 160.34375 202.828125 C 159.816406 202.511719 159.644531 201.828125 159.96875 201.296875 C 165.113281 192.78125 168.109375 180.058594 169.84375 168.203125 C 167.761719 171.140625 163.242188 177.363281 157.128906 184.980469 C 157.597656 185.355469 157.6875 186.042969 157.320312 186.519531 C 156.179688 188.019531 129.4375 222.984375 104.546875 235.414062 C 103.871094 265.484375 108.019531 305.445312 127.214844 345.367188 C 127.476562 345.921875 127.25 346.589844 126.691406 346.855469 C 126.535156 346.929688 126.375 346.964844 126.207031 346.964844 C 125.792969 346.964844 125.394531 346.730469 125.195312 346.332031 C 125.0625 346.054688 124.9375 345.773438 124.800781 345.492188 C 118.542969 343.265625 116.566406 333.386719 116.566406 333.386719 C 117.367188 344.234375 126.441406 356.796875 131.660156 363.183594 C 133.792969 365.804688 135.273438 367.386719 135.273438 367.386719 C 135.273438 367.386719 127.339844 370.789062 108.066406 367.386719 C 88.804688 364.007812 77.472656 332.269531 77.472656 332.269531 C 77.40625 332.859375 77.371094 333.46875 77.355469 334.078125 C 77.058594 344.609375 83.132812 357.769531 83.132812 357.769531 C 83.132812 357.769531 74.683594 358.167969 62.53125 350.828125 C 60.257812 349.460938 57.867188 347.828125 55.363281 345.855469 C 39.492188 333.394531 42.332031 288.046875 42.332031 288.046875 C 36.671875 292.589844 34.714844 313.554688 34.714844 313.554688 C 24.265625 298.820312 34.714844 253.480469 34.714844 253.480469 C 25.964844 267.082031 21.941406 286.921875 21.941406 286.921875 C 18.496094 259.339844 28.945312 204.96875 37.660156 166.613281 C 19.777344 186.984375 9.589844 228.121094 9.589844 228.121094 C 9.28125 223.5 9.65625 218.296875 10.546875 212.703125 C 10.421875 213.195312 9.996094 213.558594 9.488281 213.558594 C 9.449219 213.558594 9.421875 213.558594 9.382812 213.550781 C 8.773438 213.492188 8.316406 212.953125 8.375 212.34375 C 11.519531 177.703125 42.765625 124.671875 43.074219 124.144531 C 43.378906 123.636719 44.015625 123.457031 44.539062 123.722656 C 47.933594 117.144531 50.515625 112.417969 51.582031 110.492188 C 51.125 110.242188 50.898438 109.695312 51.058594 109.179688 C 57.519531 88.738281 66.867188 72.378906 76.398438 59.675781 C 80.097656 54.5625 84.199219 49.617188 88.746094 44.972656 C 89.96875 43.722656 91.234375 42.507812 92.523438 41.300781 C 104.515625 29.613281 113.980469 24.226562 114.1875 24.117188 C 114.726562 23.8125 115.402344 24.011719 115.703125 24.550781 C 115.703125 24.558594 115.703125 24.558594 115.710938 24.566406 C 117.550781 23.570312 119.425781 22.609375 121.355469 21.703125 C 121.132812 21.214844 121.28125 20.628906 121.738281 20.320312 C 151.683594 0.0078125 201.429688 10.304688 205.589844 11.207031 C 207.582031 10.914062 222.023438 9.074219 240.855469 13.785156 C 245.777344 15.011719 251.261719 16.785156 257.023438 19.3125 C 268.089844 23.859375 279.503906 30.980469 289.683594 42.027344 C 294.988281 47.460938 300.117188 53.832031 304.886719 61.316406 C 305.21875 61.839844 305.0625 62.523438 304.546875 62.855469 C 304.527344 62.871094 304.511719 62.871094 304.488281 62.882812 C 306.433594 66.46875 308.257812 70.308594 309.964844 74.394531 C 309.972656 74.394531 309.980469 74.386719 309.988281 74.378906 C 310.554688 74.160156 311.207031 74.4375 311.429688 75.003906 C 311.582031 75.402344 326.996094 114.804688 329.828125 138.441406 C 332.640625 161.910156 339.1875 175.828125 351.066406 183.570312 C 351.582031 183.90625 351.730469 184.589844 351.390625 185.113281 C 351.359375 185.15625 351.332031 185.1875 351.292969 185.222656 C 354.6875 188.085938 358.441406 190.550781 362.597656 192.414062 C 362.605469 192.421875 351.574219 195.136719 336.53125 187.960938 Z M 336.53125 187.960938 " fill-opacity="1" fill-rule="nonzero"/></g><path fill="#ffffff" d="M 110.523438 29.15625 C 116.570312 43.109375 126.773438 61.191406 143.410156 78.167969 C 142.535156 79.699219 141.6875 81.296875 140.878906 82.960938 C 140.605469 83.511719 140.84375 84.183594 141.394531 84.445312 C 141.550781 84.527344 141.71875 84.558594 141.878906 84.558594 C 142.292969 84.558594 142.691406 84.328125 142.882812 83.933594 C 143.574219 82.511719 144.292969 81.136719 145.042969 79.796875 C 163.546875 98.128906 189.730469 114.949219 226.535156 123.597656 C 225.8125 124.988281 222 132.195312 215.871094 142.121094 C 206.871094 145.035156 192.820312 148.046875 174.136719 147.5 C 174.480469 141.40625 174.496094 137.402344 174.496094 137.273438 C 174.496094 136.652344 173.996094 136.160156 173.386719 136.160156 C 172.773438 136.160156 172.273438 136.660156 172.273438 137.273438 C 172.273438 137.402344 172.257812 141.378906 171.921875 147.421875 C 143.027344 146.160156 103.5 136.382812 54.726562 105.304688 C 70.140625 60.882812 99.136719 37.113281 110.523438 29.15625 Z M 92.527344 41.308594 C 91.242188 42.507812 89.976562 43.730469 88.753906 44.980469 C 84.207031 49.625 80.105469 54.570312 76.40625 59.683594 C 81.886719 52.367188 87.4375 46.265625 92.527344 41.308594 Z M 249.941406 121.941406 C 249.941406 121.941406 252.113281 137.351562 278.644531 134.136719 C 283.722656 133.519531 289.085938 132.074219 294.4375 130.171875 C 292.433594 120.589844 289.277344 112.316406 285.578125 105.257812 C 275.53125 112.523438 263.507812 118.945312 249.941406 121.941406 Z M 311.339844 81.070312 C 306.027344 87.398438 297.851562 96.058594 287.378906 103.925781 C 291.199219 111.140625 294.464844 119.59375 296.550781 129.390625 C 300.40625 127.925781 304.230469 126.238281 307.917969 124.453125 C 308.160156 124.335938 308.398438 124.214844 308.632812 124.097656 C 307.734375 115.113281 306.117188 109.570312 306.070312 109.425781 C 305.894531 108.835938 306.226562 108.210938 306.816406 108.035156 C 307.402344 107.855469 308.03125 108.1875 308.207031 108.777344 C 308.25 108.929688 309.816406 114.296875 310.753906 123.039062 C 314.410156 121.183594 317.898438 119.257812 321.105469 117.378906 C 321.695312 117.035156 322.285156 116.6875 322.867188 116.34375 C 319.046875 102.417969 314.0625 88.40625 311.339844 81.070312 Z M 311.339844 81.070312 " fill-opacity="1" fill-rule="nonzero"/><g clip-path="url(#83285305f8)"><path fill="#d4c8b7" d="M 257.023438 19.3125 C 268.089844 23.859375 279.503906 30.980469 289.683594 42.027344 C 278.945312 31.027344 267.515625 23.910156 257.023438 19.3125 Z M 171.90625 147.425781 C 171.589844 153.042969 170.984375 160.4375 169.851562 168.210938 C 167.769531 171.144531 163.25 177.371094 157.136719 184.988281 C 157.128906 184.980469 157.121094 184.972656 157.113281 184.964844 C 156.628906 184.589844 155.921875 184.6875 155.554688 185.179688 C 155.28125 185.539062 128.78125 220.1875 104.621094 232.882812 C 105.53125 204.253906 110.722656 185.203125 110.832031 184.8125 C 111 184.222656 110.65625 183.605469 110.058594 183.4375 C 109.460938 183.273438 108.851562 183.613281 108.683594 184.207031 C 108.574219 184.605469 103.164062 204.476562 102.359375 234.171875 C 102.132812 234.488281 102.082031 234.914062 102.265625 235.296875 C 102.28125 235.332031 102.308594 235.363281 102.332031 235.390625 C 101.65625 265.535156 105.789062 305.503906 124.8125 345.507812 C 118.558594 343.277344 116.578125 333.402344 116.578125 333.402344 C 117.382812 344.25 126.457031 356.8125 131.671875 363.199219 C 101.359375 350.292969 73.542969 295.507812 73.542969 295.507812 C 73.527344 295.9375 73.511719 296.347656 73.503906 296.769531 C 71.328125 272.234375 74.492188 245.054688 74.527344 244.753906 C 74.601562 244.140625 74.167969 243.589844 73.550781 243.515625 C 72.9375 243.449219 72.386719 243.882812 72.3125 244.488281 C 72.269531 244.835938 68.28125 279.105469 72.320312 305.6875 C 72.402344 306.238281 72.878906 306.636719 73.425781 306.636719 C 73.453125 306.636719 73.484375 306.628906 73.511719 306.628906 C 73.859375 316.925781 75.285156 326.042969 77.375 334.078125 C 77.082031 344.609375 83.152344 357.769531 83.152344 357.769531 C 83.152344 357.769531 74.707031 358.167969 62.554688 350.828125 C 41.949219 295.398438 39.316406 204.535156 39.210938 164.921875 C 38.6875 165.472656 38.167969 166.03125 37.652344 166.621094 C 19.777344 186.984375 9.589844 228.121094 9.589844 228.121094 C 9.28125 223.5 9.65625 218.296875 10.546875 212.703125 C 10.5625 212.644531 10.589844 212.601562 10.589844 212.542969 C 10.605469 212.417969 10.621094 212.285156 10.628906 212.152344 C 13.710938 193.445312 22.542969 170.585938 31.269531 151.195312 C 38.496094 136.300781 44.847656 125.519531 44.988281 125.285156 C 45.304688 124.753906 45.128906 124.070312 44.597656 123.753906 C 44.578125 123.738281 44.554688 123.738281 44.539062 123.722656 C 47.933594 117.144531 50.515625 112.417969 51.582031 110.492188 C 51.648438 110.527344 51.714844 110.558594 51.789062 110.578125 C 51.898438 110.617188 52.015625 110.632812 52.128906 110.632812 C 52.597656 110.632812 53.039062 110.328125 53.1875 109.851562 C 53.671875 108.304688 54.179688 106.796875 54.703125 105.304688 C 103.488281 136.386719 143.011719 146.167969 171.90625 147.425781 Z M 64.136719 279.453125 C 49.402344 242.289062 54.769531 180.699219 54.828125 180.082031 C 54.886719 179.46875 54.429688 178.925781 53.820312 178.875 C 53.203125 178.816406 52.664062 179.269531 52.605469 179.882812 C 52.546875 180.507812 47.128906 242.617188 62.0625 280.277344 C 62.238281 280.710938 62.65625 280.984375 63.101562 280.984375 C 63.238281 280.984375 63.371094 280.960938 63.511719 280.902344 C 64.078125 280.667969 64.367188 280.019531 64.136719 279.453125 Z M 142.136719 166.503906 C 141.542969 166.355469 140.9375 166.722656 140.792969 167.328125 C 140.71875 167.621094 133.445312 197.132812 117.144531 209.445312 C 116.652344 209.8125 116.558594 210.511719 116.933594 211.003906 C 117.152344 211.296875 117.484375 211.445312 117.824219 211.445312 C 118.058594 211.445312 118.292969 211.371094 118.492188 211.21875 C 135.417969 198.425781 142.660156 169.085938 142.953125 167.84375 C 143.101562 167.253906 142.734375 166.648438 142.136719 166.503906 Z M 215.863281 142.128906 C 206.863281 145.042969 192.8125 148.054688 174.128906 147.507812 C 173.3125 161.894531 170.632812 187.96875 161.882812 202.460938 C 161.675781 202.804688 161.308594 202.996094 160.925781 202.996094 C 160.742188 202.996094 160.550781 202.945312 160.382812 202.851562 C 158.179688 206.660156 156.070312 209.480469 154.449219 211.386719 C 180.433594 194.976562 203.144531 162.707031 215.863281 142.128906 Z M 253.535156 363.242188 C 253.535156 363.242188 253.609375 363.230469 253.746094 363.214844 L 253.761719 363.199219 C 254.035156 362.867188 254.300781 362.523438 254.578125 362.175781 C 254.25 362.550781 253.886719 362.90625 253.535156 363.242188 Z M 336.53125 187.960938 C 336.539062 188.007812 336.539062 188.050781 336.546875 188.09375 C 334.507812 177.429688 332.402344 168.710938 332.367188 168.5625 C 332.21875 167.96875 331.617188 167.589844 331.019531 167.746094 C 330.421875 167.894531 330.054688 168.496094 330.203125 169.09375 C 330.269531 169.359375 336.589844 195.453125 337.855469 212.535156 C 337.902344 213.117188 338.386719 213.566406 338.96875 213.566406 C 338.996094 213.566406 339.027344 213.566406 339.046875 213.566406 C 339.046875 213.566406 339.046875 213.566406 339.054688 213.566406 C 339.144531 214.667969 339.238281 215.78125 339.328125 216.875 C 339.328125 216.875 329.796875 294.304688 298.976562 333.300781 C 298.707031 326.550781 297.75 321.3125 297.75 321.3125 C 298.144531 291.867188 291.273438 271.597656 291.273438 271.597656 C 288.726562 310.207031 270.121094 341.6875 256.984375 359.078125 C 265.351562 346.355469 265.765625 323.578125 265.765625 323.578125 C 262.59375 333.101562 258.355469 338 258.089844 338.296875 C 261.644531 330.328125 263.625 315.675781 264.675781 299.527344 C 264.699219 299.527344 264.726562 299.527344 264.75 299.527344 C 265.308594 299.527344 265.792969 299.101562 265.855469 298.535156 C 268.457031 273.984375 265.226562 202.546875 265.191406 201.835938 C 265.160156 201.214844 264.640625 200.738281 264.027344 200.773438 C 263.417969 200.804688 262.941406 201.328125 262.96875 201.9375 C 262.984375 202.179688 263.351562 210.339844 263.734375 222 C 258.316406 214.417969 252.128906 204.367188 246.703125 192.082031 C 248.457031 195.621094 250.414062 199.105469 252.605469 202.496094 C 252.820312 202.828125 253.179688 203.003906 253.542969 203.003906 C 253.746094 203.003906 253.960938 202.945312 254.144531 202.828125 C 254.660156 202.496094 254.808594 201.804688 254.476562 201.289062 C 227.84375 160.046875 235.417969 104.082031 235.496094 103.523438 C 235.585938 102.910156 235.160156 102.351562 234.546875 102.265625 C 233.9375 102.183594 233.378906 102.601562 233.289062 103.214844 C 233.265625 103.34375 232.847656 106.488281 232.539062 111.75 C 231.671875 114.246094 230.242188 118.058594 228.109375 122.878906 C 227.5625 122.632812 226.929688 122.855469 226.664062 123.382812 C 226.660156 123.40625 226.613281 123.488281 226.539062 123.628906 C 189.738281 114.980469 163.554688 98.15625 145.050781 79.824219 C 155.597656 60.933594 171.742188 49.878906 193.101562 46.953125 C 210.234375 44.597656 224.488281 48.652344 224.628906 48.6875 C 225.222656 48.867188 225.835938 48.519531 226.011719 47.929688 C 226.179688 47.34375 225.839844 46.722656 225.253906 46.546875 C 224.65625 46.371094 210.476562 42.332031 192.878906 44.730469 C 177.574219 46.8125 157.019531 54.390625 143.425781 78.183594 C 126.785156 61.207031 116.585938 43.125 110.539062 29.171875 C 113.445312 27.140625 115.210938 26.132812 115.296875 26.089844 C 115.828125 25.792969 116.027344 25.125 115.742188 24.585938 C 117.582031 23.59375 119.457031 22.628906 121.386719 21.722656 C 121.414062 21.785156 121.4375 21.835938 121.472656 21.886719 C 121.820312 22.394531 122.511719 22.527344 123.019531 22.179688 C 125.476562 20.511719 128.097656 19.058594 130.820312 17.792969 C 143.183594 13.285156 157.269531 10.539062 173.328125 10.164062 C 190.972656 10.308594 205.058594 13.386719 205.332031 13.445312 C 205.472656 13.476562 205.609375 13.480469 205.75 13.460938 C 206.347656 13.363281 266.074219 4.445312 303.03125 62.53125 C 303.246094 62.863281 303.605469 63.046875 303.972656 63.046875 C 304.160156 63.046875 304.34375 62.996094 304.511719 62.898438 C 306.453125 66.484375 308.28125 70.324219 309.988281 74.410156 C 309.433594 74.644531 309.164062 75.277344 309.382812 75.84375 C 309.421875 75.933594 310.179688 77.867188 311.363281 81.082031 C 306.050781 87.414062 297.875 96.074219 287.402344 103.941406 C 274.25 79.117188 254.578125 68.910156 254.285156 68.773438 C 253.734375 68.492188 253.0625 68.71875 252.792969 69.265625 C 252.511719 69.816406 252.738281 70.488281 253.285156 70.757812 C 253.5625 70.898438 272.808594 80.878906 285.597656 105.265625 C 275.554688 112.539062 263.527344 118.953125 249.964844 121.957031 C 249.964844 121.957031 252.136719 137.367188 278.667969 134.152344 C 283.742188 133.53125 289.109375 132.089844 294.460938 130.183594 C 295.636719 135.828125 296.425781 141.921875 296.675781 148.507812 C 296.695312 149.113281 297.1875 149.582031 297.785156 149.582031 C 297.800781 149.582031 297.816406 149.582031 297.828125 149.582031 C 298.441406 149.5625 298.925781 149.046875 298.902344 148.429688 C 298.648438 141.589844 297.816406 135.261719 296.570312 129.410156 C 300.425781 127.949219 304.253906 126.261719 307.941406 124.472656 C 308.183594 124.355469 308.417969 124.238281 308.65625 124.121094 C 310.265625 140.230469 309.582031 167.421875 293.421875 194.488281 C 293.105469 195.019531 293.273438 195.703125 293.804688 196.019531 C 293.980469 196.125 294.179688 196.175781 294.378906 196.175781 C 294.761719 196.175781 295.128906 195.984375 295.335938 195.628906 C 312.0625 167.613281 312.519531 139.429688 310.773438 123.066406 C 314.433594 121.214844 317.921875 119.285156 321.128906 117.410156 C 321.71875 117.0625 322.304688 116.71875 322.886719 116.371094 C 325.058594 124.269531 326.847656 132.140625 327.640625 138.75 C 330.542969 162.941406 337.394531 177.351562 349.875 185.472656 C 350.066406 185.601562 350.273438 185.660156 350.484375 185.660156 C 350.800781 185.660156 351.109375 185.511719 351.324219 185.261719 C 354.714844 188.125 358.46875 190.589844 362.628906 192.449219 C 362.605469 192.421875 351.574219 195.136719 336.53125 187.960938 Z M 311.398438 242.414062 C 311.140625 241.855469 310.472656 241.617188 309.921875 241.875 C 309.363281 242.132812 309.125 242.804688 309.382812 243.355469 C 309.5 243.605469 321.210938 268.980469 317.265625 292.726562 C 317.164062 293.339844 317.574219 293.914062 318.183594 294.007812 C 318.242188 294.023438 318.308594 294.023438 318.371094 294.023438 C 318.90625 294.023438 319.378906 293.632812 319.464844 293.089844 C 323.519531 268.671875 311.523438 242.671875 311.398438 242.414062 Z M 311.398438 242.414062 " fill-opacity="1" fill-rule="nonzero"/></g></svg>