<svg xmlns="http://www.w3.org/2000/svg" xmlns:xlink="http://www.w3.org/1999/xlink" width="500" zoomAndPan="magnify" viewBox="0 0 375 374.999991" height="500" preserveAspectRatio="xMidYMid meet" version="1.0"><defs><clipPath id="a664f32dbf"><path d="M 122.234375 123.488281 L 134.234375 123.488281 L 134.234375 130.238281 L 122.234375 130.238281 Z M 122.234375 123.488281 " clip-rule="nonzero"/></clipPath><clipPath id="96e310e5a5"><path d="M 122.234375 124 L 134 124 L 134 130 L 122.234375 130 Z M 122.234375 124 " clip-rule="nonzero"/></clipPath><clipPath id="8c0c1fe7c9"><path d="M 6.363281 32 L 368.613281 32 L 368.613281 313.925781 L 6.363281 313.925781 Z M 6.363281 32 " clip-rule="nonzero"/></clipPath><clipPath id="22d14856fd"><path d="M 8 34 L 368.613281 34 L 368.613281 309 L 8 309 Z M 8 34 " clip-rule="nonzero"/></clipPath></defs><g clip-path="url(#a664f32dbf)"><path fill="#353535" d="M 134.257812 127.402344 C 133.507812 127.613281 133.273438 127.035156 133.023438 126.703125 C 132.597656 126.148438 132.105469 126.078125 131.445312 126.148438 C 128.273438 126.464844 125.429688 127.410156 123.25 129.714844 C 122.988281 129.996094 122.628906 130.09375 122.261719 130.179688 L 122.257812 130.179688 C 122.753906 128.820312 123.914062 127.980469 125.117188 127.285156 C 126.960938 126.226562 128.929688 125.402344 131.195312 125.578125 C 131.960938 125.636719 132.527344 125.496094 132.613281 124.585938 C 132.660156 124.039062 133.144531 123.703125 133.929688 123.535156 C 133.105469 124.957031 133.6875 126.152344 134.257812 127.402344 Z M 122.234375 130.210938 L 122.261719 130.179688 C 122.261719 130.179688 122.257812 130.179688 122.257812 130.179688 C 122.261719 130.179688 122.234375 130.210938 122.234375 130.210938 Z M 122.234375 130.210938 " fill-opacity="1" fill-rule="nonzero"/></g><g clip-path="url(#96e310e5a5)"><path fill="#ffffff" d="M 126.09375 127.09375 C 126.101562 127.09375 126.113281 127.09375 126.121094 127.089844 C 126.121094 127.105469 126.121094 127.125 126.121094 127.140625 C 126.117188 127.140625 126.113281 127.140625 126.105469 127.144531 C 126.101562 127.128906 126.097656 127.113281 126.09375 127.09375 Z M 125.542969 127.15625 C 125.597656 127.152344 125.640625 127.152344 125.695312 127.152344 C 125.609375 127.105469 125.59375 127.105469 125.542969 127.15625 Z M 125.847656 127.667969 C 125.847656 127.671875 125.855469 127.679688 125.863281 127.6875 C 125.871094 127.675781 125.882812 127.671875 125.890625 127.664062 C 125.875 127.652344 125.871094 127.648438 125.863281 127.644531 C 125.855469 127.652344 125.847656 127.660156 125.847656 127.667969 Z M 125.65625 127.703125 C 125.660156 127.703125 125.675781 127.707031 125.675781 127.707031 C 125.679688 127.695312 125.679688 127.675781 125.6875 127.664062 C 125.679688 127.664062 125.671875 127.664062 125.667969 127.660156 C 125.660156 127.671875 125.65625 127.691406 125.65625 127.703125 Z M 125.660156 127.523438 C 125.652344 127.523438 125.640625 127.523438 125.632812 127.523438 C 125.636719 127.542969 125.640625 127.5625 125.640625 127.585938 C 125.652344 127.585938 125.65625 127.585938 125.667969 127.582031 C 125.667969 127.566406 125.667969 127.542969 125.660156 127.523438 Z M 127.734375 126.136719 C 127.738281 126.15625 127.746094 126.179688 127.753906 126.199219 C 127.757812 126.199219 127.761719 126.199219 127.765625 126.195312 C 127.761719 126.171875 127.753906 126.152344 127.746094 126.128906 C 127.742188 126.132812 127.738281 126.136719 127.734375 126.136719 Z M 125.359375 127.898438 C 125.320312 127.902344 125.292969 127.902344 125.269531 127.90625 C 125.292969 127.933594 125.324219 127.949219 125.359375 127.898438 Z M 128.175781 126.722656 C 128.242188 126.730469 128.242188 126.730469 128.277344 126.707031 C 128.265625 126.703125 128.257812 126.695312 128.246094 126.699219 C 128.226562 126.699219 128.207031 126.707031 128.175781 126.722656 Z M 126.992188 126.800781 C 127.03125 126.804688 127.066406 126.808594 127.105469 126.8125 C 127.066406 126.738281 127.0625 126.734375 126.992188 126.800781 Z M 126.464844 126.929688 C 126.492188 126.933594 126.523438 126.933594 126.546875 126.9375 C 126.59375 126.941406 126.585938 126.914062 126.578125 126.875 C 126.542969 126.90625 126.488281 126.863281 126.464844 126.929688 Z M 126.214844 127.007812 C 126.226562 127.011719 126.230469 127.019531 126.234375 127.023438 C 126.25 127.011719 126.257812 126.996094 126.269531 126.984375 C 126.269531 126.984375 126.257812 126.972656 126.253906 126.96875 C 126.246094 126.984375 126.230469 126.992188 126.214844 127.007812 Z M 126.875 127.113281 C 126.890625 127.070312 126.894531 127.042969 126.910156 127 C 126.851562 127.046875 126.851562 127.046875 126.875 127.113281 Z M 123.324219 129.519531 C 123.371094 129.519531 123.378906 129.480469 123.375 129.445312 C 123.328125 129.441406 123.289062 129.433594 123.238281 129.433594 C 123.242188 129.496094 123.285156 129.519531 123.324219 129.519531 Z M 123.398438 128.710938 C 123.402344 128.71875 123.410156 128.726562 123.410156 128.734375 C 123.429688 128.722656 123.449219 128.71875 123.460938 128.710938 C 123.457031 128.699219 123.449219 128.6875 123.449219 128.6875 C 123.433594 128.695312 123.414062 128.699219 123.398438 128.710938 Z M 128.34375 126.679688 C 128.34375 126.691406 128.363281 126.699219 128.371094 126.707031 C 128.378906 126.699219 128.390625 126.691406 128.394531 126.679688 C 128.394531 126.671875 128.382812 126.660156 128.375 126.644531 C 128.359375 126.660156 128.34375 126.671875 128.34375 126.679688 Z M 123.105469 129.789062 C 123.113281 129.789062 123.125 129.789062 123.128906 129.792969 C 123.132812 129.773438 123.140625 129.753906 123.140625 129.734375 C 123.113281 129.738281 123.105469 129.746094 123.101562 129.757812 C 123.101562 129.765625 123.105469 129.78125 123.105469 129.789062 Z M 122.917969 129.328125 C 122.9375 129.339844 122.957031 129.34375 122.980469 129.351562 C 122.980469 129.34375 122.988281 129.339844 122.988281 129.328125 C 122.96875 129.324219 122.949219 129.316406 122.929688 129.3125 C 122.921875 129.316406 122.917969 129.320312 122.917969 129.328125 Z M 122.640625 129.886719 C 122.667969 129.839844 122.6875 129.804688 122.71875 129.761719 C 122.640625 129.773438 122.628906 129.792969 122.640625 129.886719 Z M 124.617188 127.964844 C 124.621094 127.980469 124.628906 127.992188 124.632812 128.007812 C 124.632812 128.007812 124.644531 128.007812 124.652344 128.007812 C 124.648438 127.988281 124.644531 127.96875 124.636719 127.957031 C 124.632812 127.960938 124.621094 127.960938 124.617188 127.964844 Z M 124.441406 128.347656 C 124.460938 128.292969 124.460938 128.292969 124.414062 128.265625 C 124.421875 128.296875 124.433594 128.324219 124.441406 128.347656 Z M 124.769531 128.386719 C 124.78125 128.355469 124.789062 128.328125 124.804688 128.289062 C 124.765625 128.304688 124.734375 128.320312 124.703125 128.332031 C 124.730469 128.351562 124.746094 128.371094 124.769531 128.386719 Z M 124.289062 128.613281 C 124.292969 128.617188 124.292969 128.628906 124.300781 128.632812 C 124.320312 128.621094 124.339844 128.613281 124.359375 128.605469 C 124.355469 128.601562 124.347656 128.59375 124.347656 128.585938 C 124.328125 128.59375 124.308594 128.605469 124.289062 128.613281 Z M 123.90625 128.472656 C 123.914062 128.488281 123.914062 128.507812 123.917969 128.527344 C 123.925781 128.527344 123.933594 128.523438 123.941406 128.523438 C 123.9375 128.503906 123.933594 128.484375 123.933594 128.464844 C 123.921875 128.464844 123.917969 128.472656 123.90625 128.472656 Z M 124.171875 128.367188 C 124.167969 128.367188 124.164062 128.375 124.15625 128.382812 C 124.183594 128.394531 124.207031 128.40625 124.242188 128.425781 C 124.234375 128.367188 124.210938 128.359375 124.171875 128.367188 Z M 132.769531 125.007812 C 132.769531 124.996094 132.773438 124.980469 132.773438 124.964844 C 132.761719 124.964844 132.753906 124.964844 132.75 124.964844 C 132.75 124.976562 132.75 124.992188 132.75 125.003906 C 132.753906 125.003906 132.761719 125.003906 132.769531 125.007812 Z M 133.140625 125.777344 C 133.140625 125.785156 133.148438 125.796875 133.15625 125.808594 C 133.164062 125.804688 133.175781 125.792969 133.195312 125.785156 C 133.179688 125.769531 133.171875 125.761719 133.160156 125.757812 C 133.15625 125.753906 133.140625 125.765625 133.140625 125.777344 Z M 133.058594 125.496094 C 133.046875 125.523438 133.042969 125.550781 133.101562 125.570312 C 133.089844 125.535156 133.085938 125.515625 133.082031 125.492188 C 133.070312 125.492188 133.0625 125.496094 133.058594 125.496094 Z M 133.050781 125.136719 C 133.023438 125.148438 132.992188 125.152344 132.953125 125.160156 C 133 125.203125 133.027344 125.210938 133.050781 125.164062 C 133.058594 125.164062 133.050781 125.152344 133.050781 125.136719 Z M 132.636719 126.183594 C 132.671875 126.179688 132.691406 126.179688 132.714844 126.179688 C 132.710938 126.160156 132.703125 126.144531 132.699219 126.117188 C 132.675781 126.144531 132.660156 126.15625 132.636719 126.183594 Z M 132.75 125.175781 C 132.808594 125.1875 132.851562 125.179688 132.871094 125.105469 C 132.75 125.085938 132.75 125.085938 132.75 125.175781 Z M 133.347656 124.957031 C 133.347656 124.972656 133.347656 124.980469 133.347656 124.996094 C 133.351562 125.007812 133.355469 125.019531 133.359375 125.03125 C 133.367188 125.03125 133.371094 125.027344 133.375 125.027344 C 133.371094 125.003906 133.371094 124.980469 133.367188 124.964844 C 133.359375 124.957031 133.351562 124.957031 133.347656 124.957031 Z M 133.40625 125.691406 C 133.410156 125.699219 133.414062 125.703125 133.417969 125.710938 C 133.4375 125.699219 133.457031 125.679688 133.480469 125.664062 C 133.472656 125.660156 133.464844 125.652344 133.457031 125.648438 C 133.445312 125.660156 133.425781 125.675781 133.40625 125.691406 Z M 133.222656 124.578125 C 133.222656 124.582031 133.222656 124.589844 133.222656 124.59375 C 133.242188 124.59375 133.269531 124.59375 133.308594 124.59375 C 133.277344 124.578125 133.269531 124.566406 133.257812 124.566406 C 133.25 124.566406 133.234375 124.578125 133.222656 124.578125 Z M 129.238281 126.207031 C 129.246094 126.207031 129.25 126.207031 129.261719 126.210938 C 129.261719 126.199219 129.265625 126.179688 129.265625 126.167969 C 129.261719 126.167969 129.25 126.167969 129.246094 126.160156 C 129.242188 126.175781 129.242188 126.195312 129.238281 126.207031 Z M 133.449219 126.546875 C 133.453125 126.546875 133.464844 126.546875 133.46875 126.546875 C 133.472656 126.519531 133.472656 126.488281 133.480469 126.460938 C 133.46875 126.460938 133.457031 126.460938 133.449219 126.460938 C 133.449219 126.492188 133.449219 126.519531 133.449219 126.546875 Z M 133.003906 124.828125 C 133.03125 124.855469 133.050781 124.871094 133.082031 124.898438 C 133.085938 124.835938 133.066406 124.824219 133.003906 124.828125 Z M 129.757812 125.679688 C 129.75 125.714844 129.75 125.75 129.820312 125.777344 C 129.800781 125.730469 129.789062 125.703125 129.777344 125.675781 C 129.769531 125.679688 129.765625 125.679688 129.757812 125.679688 Z M 129.644531 126.03125 C 129.65625 126.042969 129.671875 126.050781 129.6875 126.058594 C 129.6875 126.058594 129.699219 126.046875 129.707031 126.039062 C 129.6875 126.027344 129.675781 126.019531 129.65625 126.019531 C 129.65625 126.015625 129.648438 126.027344 129.644531 126.03125 Z M 129.628906 125.832031 C 129.632812 125.796875 129.636719 125.78125 129.644531 125.742188 C 129.59375 125.78125 129.589844 125.796875 129.628906 125.832031 Z M 129.859375 126.265625 C 129.875 126.289062 129.882812 126.304688 129.898438 126.328125 C 129.914062 126.304688 129.921875 126.28125 129.9375 126.261719 C 129.933594 126.257812 129.925781 126.253906 129.925781 126.25 C 129.902344 126.25 129.878906 126.257812 129.859375 126.265625 Z M 129.203125 125.914062 C 129.230469 125.925781 129.230469 125.980469 129.300781 125.945312 C 129.265625 125.921875 129.238281 125.910156 129.210938 125.894531 C 129.207031 125.902344 129.203125 125.910156 129.203125 125.914062 Z M 129.90625 125.691406 C 129.914062 125.699219 129.917969 125.703125 129.921875 125.707031 C 129.945312 125.691406 129.976562 125.679688 130.019531 125.660156 C 129.984375 125.648438 129.957031 125.628906 129.945312 125.636719 C 129.925781 125.648438 129.921875 125.671875 129.90625 125.691406 Z M 132.453125 125.21875 C 132.453125 125.226562 132.453125 125.234375 132.453125 125.238281 C 132.472656 125.238281 132.492188 125.238281 132.511719 125.238281 C 132.511719 125.234375 132.511719 125.230469 132.511719 125.226562 C 132.492188 125.226562 132.472656 125.226562 132.453125 125.21875 Z M 131.195312 126.039062 C 131.25 126.050781 131.28125 126.058594 131.3125 126.070312 C 131.289062 126.039062 131.265625 126.015625 131.195312 126.039062 Z M 131.382812 125.757812 C 131.441406 125.691406 131.441406 125.691406 131.363281 125.679688 C 131.367188 125.703125 131.371094 125.71875 131.382812 125.757812 Z M 130.367188 126.046875 C 130.398438 126.058594 130.417969 126.070312 130.445312 126.078125 C 130.453125 126.046875 130.457031 126.019531 130.460938 125.992188 C 130.457031 125.988281 130.453125 125.988281 130.445312 125.980469 C 130.417969 126 130.398438 126.019531 130.367188 126.046875 Z M 130.367188 126.046875 " fill-opacity="1" fill-rule="nonzero"/></g><g clip-path="url(#8c0c1fe7c9)"><path fill="#d4c8b7" d="M 368.25 203.476562 C 368.25 203.476562 368.035156 204.308594 367.570312 205.757812 C 364.886719 214 353.875 241.988281 326.902344 245.605469 C 326.902344 245.605469 326.796875 246.65625 326.746094 248.421875 C 326.554688 254.179688 326.753906 267.585938 331.96875 277.640625 C 332.503906 277.980469 333.042969 278.300781 333.609375 278.589844 C 334.164062 278.878906 334.386719 279.566406 334.097656 280.132812 C 333.898438 280.523438 333.496094 280.746094 333.082031 280.746094 C 332.902344 280.746094 332.726562 280.710938 332.554688 280.621094 C 328.992188 278.769531 326.054688 276.035156 323.738281 273.269531 C 323.507812 275.386719 323.113281 282.621094 327.390625 288.203125 C 328.066406 288.476562 328.753906 288.742188 329.457031 288.996094 C 330.050781 289.203125 330.363281 289.855469 330.15625 290.445312 C 330.101562 290.585938 330.019531 290.707031 329.933594 290.816406 C 329.945312 290.824219 329.953125 290.839844 329.96875 290.847656 C 329.960938 290.847656 329.941406 290.832031 329.925781 290.824219 C 329.710938 291.0625 329.40625 291.210938 329.085938 291.210938 C 328.960938 291.210938 328.835938 291.1875 328.710938 291.144531 C 313.820312 285.882812 305.921875 275.300781 301.71875 265.660156 C 297.601562 275.113281 292.058594 283.257812 286.386719 289.980469 C 286.386719 289.980469 286.386719 289.980469 286.394531 289.980469 C 286.875 290.386719 286.929688 291.113281 286.519531 291.589844 C 285.964844 292.234375 272.8125 307.46875 261.761719 313.457031 C 261.59375 313.554688 261.40625 313.597656 261.222656 313.597656 C 260.835938 313.597656 260.464844 313.40625 260.25 313.054688 C 259.933594 312.546875 260.066406 311.871094 260.554688 311.523438 C 260.597656 311.484375 266.660156 306.644531 271.972656 282.15625 C 274.730469 269.460938 275.828125 253.898438 276.109375 239.253906 C 276.003906 239.238281 275.902344 239.21875 275.796875 239.164062 C 244.132812 224.6875 215.558594 182.90625 215.277344 182.484375 C 214.929688 181.964844 215.054688 181.265625 215.566406 180.910156 C 209.949219 173.003906 204.9375 165.214844 200.640625 158.140625 C 199.238281 162.761719 197.039062 167.453125 193.59375 170.683594 C 193.371094 170.894531 193.089844 170.996094 192.816406 170.996094 C 192.511719 170.996094 192.207031 170.878906 191.984375 170.632812 C 191.554688 170.175781 191.578125 169.449219 192.035156 169.019531 C 192.304688 168.765625 192.5625 168.507812 192.816406 168.230469 C 192.519531 156.695312 186.425781 143.835938 182.90625 136.53125 C 181.367188 144.554688 176.777344 160.597656 163.5 176.605469 C 157.6875 183.601562 151.09375 190.160156 144.519531 196.027344 C 138.519531 201.609375 132.574219 206.308594 127.261719 210.125 C 126.230469 210.902344 125.214844 211.652344 124.238281 212.371094 C 124.207031 212.390625 124.1875 212.414062 124.15625 212.445312 C 124.121094 212.472656 124.074219 212.488281 124.039062 212.511719 C 114.78125 219.269531 108.140625 223.300781 107.992188 223.382812 C 107.808594 223.492188 107.609375 223.542969 107.410156 223.542969 C 107.269531 223.542969 107.128906 223.507812 106.992188 223.457031 C 106.890625 223.714844 106.785156 223.972656 106.691406 224.234375 C 104.4375 232.859375 102.4375 246.703125 106.949219 261.09375 C 107.132812 261.695312 106.800781 262.339844 106.199219 262.523438 C 106.089844 262.5625 105.972656 262.574219 105.859375 262.574219 C 105.378906 262.574219 104.925781 262.265625 104.769531 261.777344 C 104.578125 261.152344 104.398438 260.53125 104.222656 259.90625 C 98.761719 254.476562 96.136719 247.746094 94.898438 242.09375 C 95.121094 249.5625 96.375 259.175781 100.167969 269.550781 C 100.382812 270.140625 100.078125 270.792969 99.488281 271.015625 C 99.480469 271.015625 99.472656 271.015625 99.464844 271.015625 C 102.035156 278.40625 105.050781 285.453125 107.898438 291.5 C 107.972656 291.441406 108.046875 291.378906 108.136719 291.335938 C 108.699219 291.054688 109.386719 291.277344 109.667969 291.839844 L 118.488281 309.367188 C 118.71875 309.816406 118.621094 310.359375 118.25 310.707031 C 118.035156 310.914062 117.753906 311.019531 117.464844 311.019531 C 117.265625 311.019531 117.070312 310.964844 116.894531 310.863281 C 116.316406 310.53125 102.6875 302.554688 96.757812 292.953125 C 96.464844 292.46875 96.574219 291.847656 96.988281 291.492188 C 92.683594 286.445312 88.074219 280.292969 83.546875 272.90625 C 82.398438 277.109375 80.324219 281.917969 76.558594 285.683594 C 72.410156 289.832031 66.933594 291.9375 60.300781 291.9375 C 59.65625 291.957031 59.105469 291.441406 59.105469 290.796875 C 59.105469 290.164062 59.617188 289.652344 60.25 289.652344 C 60.261719 289.644531 60.285156 289.652344 60.300781 289.652344 C 60.566406 289.652344 60.824219 289.644531 61.09375 289.640625 C 64.992188 283.992188 65.746094 277.820312 65.796875 274.210938 C 63.847656 278.078125 60.21875 282.355469 53.496094 283.414062 C 53.4375 283.421875 53.378906 283.429688 53.320312 283.429688 C 52.769531 283.429688 52.28125 283.027344 52.191406 282.464844 C 52.097656 281.84375 52.519531 281.257812 53.140625 281.160156 C 53.726562 281.066406 54.28125 280.9375 54.816406 280.789062 C 65.074219 269.777344 59.085938 256.023438 59.085938 256.023438 C 33.050781 259.472656 17.964844 238.46875 13.214844 230.449219 C 12.109375 228.589844 11.5625 227.425781 11.5625 227.425781 C 18.898438 228.042969 33.976562 218.726562 39.941406 214.828125 C 41.523438 213.800781 42.460938 213.140625 42.460938 213.140625 C 28.746094 212.933594 18.675781 201.3125 13.109375 192.730469 C 10.929688 189.390625 9.433594 186.515625 8.671875 184.941406 C 8.183594 184.863281 7.878906 184.792969 7.804688 184.78125 C 7.1875 184.632812 6.816406 184.015625 6.957031 183.402344 C 7.105469 182.785156 7.722656 182.410156 8.328125 182.558594 C 8.449219 182.578125 20.652344 185.328125 33.460938 175.886719 C 33.96875 175.515625 34.683594 175.621094 35.050781 176.132812 C 35.058594 176.140625 35.066406 176.152344 35.066406 176.160156 C 39.1875 173.257812 42.964844 169.609375 45.871094 165.3125 C 45.359375 164.972656 45.203125 164.296875 45.53125 163.769531 C 48.347656 159.175781 49.5625 154.714844 51.578125 147.328125 C 52.585938 143.621094 53.726562 139.425781 55.355469 134.167969 C 57.320312 127.824219 59.9375 123.382812 62.382812 120.234375 C 52.542969 118.128906 44.390625 112.269531 44.390625 112.269531 C 46.878906 112.355469 49.390625 112.097656 51.933594 111.554688 C 51.808594 110.984375 52.117188 110.40625 52.683594 110.222656 C 52.816406 110.179688 66.449219 105.628906 84.289062 93.246094 C 84.804688 92.882812 85.511719 93.015625 85.875 93.527344 C 96.472656 86.144531 108.0625 77.71875 121.074219 70.332031 C 120.769531 69.804688 120.925781 69.132812 121.445312 68.804688 C 121.667969 68.664062 142.484375 55.53125 169.820312 57.050781 C 163.59375 46.160156 145.742188 37.785156 140.058594 35.332031 C 139.15625 35.496094 138.726562 35.652344 138.71875 35.65625 C 138.132812 35.878906 137.472656 35.597656 137.242188 35.011719 C 137.015625 34.429688 137.289062 33.777344 137.875 33.539062 C 138.082031 33.449219 143.179688 31.476562 156.859375 33.6875 C 167.988281 35.488281 177.882812 46.128906 181.566406 50.546875 C 181.730469 50.324219 181.890625 50.117188 182.0625 49.902344 C 181.632812 49.550781 181.5 48.929688 181.796875 48.433594 C 182.234375 47.691406 192.824219 30.394531 225.339844 38.890625 C 225.949219 39.042969 226.316406 39.675781 226.15625 40.28125 C 226 40.890625 225.375 41.253906 224.761719 41.097656 C 223.695312 40.816406 222.65625 40.570312 221.632812 40.347656 C 213.484375 41.917969 206.941406 48.539062 202.492188 54.652344 C 207.894531 53.597656 215.957031 53.007812 226.25 55.027344 C 244.746094 58.667969 261.347656 67.664062 270.707031 74.875 C 271.1875 75.246094 271.292969 75.925781 270.945312 76.421875 C 275.917969 79.855469 284.074219 85.242188 293.308594 90.347656 C 293.316406 90.339844 293.316406 90.324219 293.324219 90.316406 C 293.644531 89.777344 294.347656 89.589844 294.886719 89.917969 C 295.132812 90.058594 319.378906 104.226562 337.210938 102.25 C 337.832031 102.183594 338.402344 102.632812 338.46875 103.257812 C 338.535156 103.886719 338.082031 104.449219 337.460938 104.515625 C 336.890625 104.574219 336.320312 104.621094 335.742188 104.65625 C 331.25 108.082031 317.816406 117.195312 303.007812 116.601562 C 309.640625 120.203125 318.609375 126.464844 323.691406 135.871094 C 328.21875 144.257812 330.5625 151.863281 332.445312 157.96875 C 334.082031 163.289062 335.496094 167.882812 337.800781 171.195312 C 338.164062 171.714844 338.03125 172.425781 337.519531 172.78125 C 337.484375 172.804688 337.445312 172.820312 337.410156 172.835938 C 343.707031 183.941406 352.703125 188.382812 365.160156 183.675781 C 365.117188 183.785156 364.679688 184.667969 363.910156 185.996094 C 361.226562 190.597656 354.320312 200.59375 343.988281 203.195312 C 343.589844 203.300781 343.167969 203.386719 342.757812 203.46875 C 342.746094 203.476562 357.417969 207.34375 368.25 203.476562 Z M 368.25 203.476562 " fill-opacity="1" fill-rule="nonzero"/></g><g clip-path="url(#22d14856fd)"><path fill="#f8ead6" d="M 127.246094 210.132812 C 132.566406 206.136719 138.527344 201.371094 144.503906 196.035156 C 138.503906 201.617188 132.558594 206.316406 127.246094 210.132812 Z M 106.675781 224.25 C 106.769531 223.988281 106.882812 223.730469 106.980469 223.46875 C 106.949219 223.457031 106.917969 223.449219 106.890625 223.433594 C 106.824219 223.699219 106.75 223.96875 106.675781 224.25 Z M 329.960938 290.847656 C 329.945312 290.839844 329.941406 290.824219 329.925781 290.816406 C 329.925781 290.816406 329.917969 290.824219 329.917969 290.824219 C 329.925781 290.832031 329.953125 290.847656 329.960938 290.847656 Z M 342.746094 203.476562 C 343.152344 203.394531 343.574219 203.304688 343.976562 203.203125 C 332.675781 201.238281 333.171875 191.546875 333.171875 191.546875 C 344.492188 194.226562 357.34375 189.183594 363.894531 186.003906 C 364.671875 184.675781 365.101562 183.800781 365.148438 183.683594 C 352.691406 188.390625 343.695312 183.949219 337.394531 172.839844 C 337.222656 172.9375 337.039062 172.988281 336.851562 172.988281 C 336.492188 172.988281 336.132812 172.820312 335.914062 172.5 C 333.398438 168.898438 331.941406 164.140625 330.242188 158.636719 C 328.292969 152.316406 326.09375 145.140625 321.667969 136.953125 C 313.539062 121.894531 294.125 115.023438 293.925781 114.957031 C 293.332031 114.75 293.011719 114.097656 293.21875 113.503906 C 293.429688 112.914062 294.078125 112.59375 294.671875 112.800781 C 295.011719 112.921875 298.453125 114.136719 302.996094 116.601562 C 317.800781 117.203125 331.234375 108.082031 335.726562 104.65625 C 335.023438 104.695312 334.3125 104.722656 333.601562 104.722656 C 315.695312 104.722656 294.664062 92.445312 293.71875 91.890625 C 293.183594 91.578125 293.003906 90.894531 293.300781 90.355469 C 284.066406 85.25 275.910156 79.863281 270.9375 76.429688 C 270.929688 76.445312 270.921875 76.460938 270.90625 76.484375 C 270.683594 76.773438 270.34375 76.925781 270.003906 76.925781 C 269.757812 76.925781 269.515625 76.851562 269.304688 76.691406 C 260.15625 69.644531 243.917969 60.839844 225.808594 57.28125 C 207.058594 53.597656 195.800781 59.03125 195.691406 59.089844 C 195.128906 59.371094 194.4375 59.140625 194.164062 58.578125 C 193.882812 58.015625 194.113281 57.332031 194.675781 57.050781 C 194.90625 56.941406 197.617188 55.613281 202.5 54.664062 C 206.945312 48.542969 213.492188 41.925781 221.640625 40.363281 C 193.230469 34.167969 183.863281 49.441406 183.765625 49.605469 C 183.550781 49.96875 183.175781 50.167969 182.78125 50.167969 C 182.582031 50.167969 182.386719 50.117188 182.203125 50.011719 C 182.152344 49.984375 182.113281 49.945312 182.070312 49.914062 C 181.90625 50.128906 181.734375 50.339844 181.574219 50.558594 C 182.460938 51.621094 182.988281 52.332031 183.085938 52.457031 C 183.464844 52.960938 183.351562 53.679688 182.847656 54.058594 C 182.640625 54.214844 182.402344 54.28125 182.167969 54.28125 C 181.816406 54.28125 181.46875 54.125 181.246094 53.820312 C 181.128906 53.664062 169.382812 38.042969 156.496094 35.953125 C 147.359375 34.480469 142.273438 34.9375 140.066406 35.347656 C 145.75 37.800781 163.601562 46.171875 169.828125 57.066406 C 171.6875 57.171875 173.585938 57.339844 175.503906 57.585938 C 176.125 57.667969 176.570312 58.238281 176.488281 58.867188 C 176.40625 59.488281 175.832031 59.921875 175.207031 59.851562 C 164.152344 58.414062 153.992188 59.601562 145.609375 61.632812 C 165.195312 72.40625 207.953125 90.621094 249.230469 72.84375 C 249.230469 72.84375 254.664062 95.386719 232.519531 107.035156 C 210.378906 118.699219 179.71875 129.097656 138.289062 122.96875 C 115.390625 119.582031 97.929688 107.304688 85.742188 94.992188 C 85.695312 95.039062 85.644531 95.082031 85.59375 95.121094 C 67.457031 107.710938 53.535156 112.347656 53.402344 112.394531 C 53.28125 112.429688 53.164062 112.453125 53.046875 112.453125 C 52.5625 112.453125 52.117188 112.148438 51.964844 111.667969 C 51.949219 111.628906 51.949219 111.601562 51.941406 111.5625 C 49.390625 112.105469 46.878906 112.363281 44.398438 112.277344 C 44.398438 112.277344 52.546875 118.136719 62.390625 120.242188 C 64.515625 117.5 66.515625 115.730469 67.851562 114.558594 C 68.3125 114.15625 68.820312 113.707031 69.023438 113.46875 C 69.074219 113.023438 69.378906 112.632812 69.828125 112.496094 C 70.429688 112.320312 71.066406 112.660156 71.246094 113.269531 C 71.554688 114.328125 70.726562 115.0625 69.347656 116.269531 C 66.644531 118.648438 61.003906 123.605469 57.527344 134.847656 C 55.914062 140.078125 54.773438 144.25 53.769531 147.933594 C 51.777344 155.265625 50.457031 160.101562 47.472656 164.972656 C 47.257812 165.320312 46.878906 165.519531 46.5 165.519531 C 46.300781 165.519531 46.09375 165.46875 45.910156 165.351562 C 45.894531 165.34375 45.886719 165.335938 45.871094 165.320312 C 42.964844 169.617188 39.1875 173.265625 35.066406 176.167969 C 35.414062 176.671875 35.304688 177.371094 34.808594 177.734375 C 26.257812 184.054688 18.050781 185.277344 12.976562 185.277344 C 11.027344 185.277344 9.546875 185.097656 8.679688 184.957031 C 9.441406 186.527344 10.9375 189.402344 13.117188 192.746094 C 25.609375 198.261719 44.796875 204.597656 56.144531 197.949219 C 56.144531 197.949219 53.925781 210.480469 39.949219 214.835938 C 33.984375 218.742188 18.90625 228.050781 11.566406 227.433594 C 11.566406 227.433594 12.117188 228.597656 13.222656 230.457031 C 22.21875 235.023438 41.253906 241.804688 56.148438 227.496094 C 56.148438 227.496094 64.375 239.898438 59.09375 256.039062 C 59.09375 256.039062 65.078125 269.792969 54.824219 280.804688 C 64.433594 278.167969 65.679688 267.3125 65.6875 267.191406 C 65.753906 266.570312 66.308594 266.125 66.941406 266.175781 C 67.570312 266.242188 68.023438 266.800781 67.953125 267.429688 C 67.949219 267.496094 67.578125 270.691406 65.796875 274.226562 C 65.746094 277.839844 64.992188 284.015625 61.09375 289.652344 C 66.738281 289.5 71.394531 287.628906 74.9375 284.097656 C 82.574219 276.46875 82.671875 263.507812 82.671875 263.375 C 82.671875 262.746094 83.183594 262.234375 83.8125 262.234375 C 84.445312 262.234375 84.953125 262.746094 84.953125 263.375 C 84.953125 263.6875 84.925781 267.851562 83.539062 272.929688 C 88.066406 280.316406 92.667969 286.46875 96.980469 291.515625 C 97.027344 291.476562 97.070312 291.441406 97.121094 291.402344 C 97.664062 291.070312 98.359375 291.238281 98.695312 291.773438 C 102.546875 298.019531 110.136719 303.71875 114.566406 306.707031 L 107.609375 292.886719 C 107.371094 292.410156 107.496094 291.847656 107.882812 291.515625 C 105.042969 285.46875 102.019531 278.417969 99.449219 271.03125 C 99.324219 271.074219 99.207031 271.097656 99.078125 271.097656 C 98.613281 271.097656 98.175781 270.808594 98.003906 270.347656 C 89.3125 246.582031 93.492188 227.21875 93.667969 226.414062 C 93.808594 225.796875 94.417969 225.410156 95.03125 225.546875 C 95.648438 225.679688 96.035156 226.292969 95.898438 226.910156 C 95.878906 227.011719 94.609375 232.949219 94.886719 242.109375 C 96.121094 247.761719 98.738281 254.492188 104.207031 259.921875 C 97.625 236.304688 107.179688 215.257812 107.601562 214.355469 C 107.867188 213.785156 108.542969 213.539062 109.113281 213.800781 C 109.683594 214.066406 109.9375 214.742188 109.667969 215.320312 C 109.640625 215.386719 108.707031 217.453125 107.617188 220.9375 C 109.652344 219.660156 115.367188 216.015625 122.757812 210.621094 C 162.203125 175.09375 157.628906 143.222656 157.578125 142.902344 C 157.480469 142.28125 157.902344 141.695312 158.527344 141.597656 C 159.15625 141.503906 159.734375 141.925781 159.832031 142.546875 C 160.023438 143.742188 163.625 168.871094 136.710938 199.742188 C 145.171875 192.695312 154.132812 184.304688 161.71875 175.160156 C 179.625 153.582031 181.34375 131.371094 181.367188 131.148438 C 181.410156 130.519531 181.953125 130.054688 182.582031 130.089844 C 183.210938 130.136719 183.683594 130.675781 183.640625 131.304688 C 183.625 131.566406 183.476562 133.460938 182.886719 136.546875 C 186.40625 143.851562 192.496094 156.703125 192.792969 168.246094 C 200.417969 160.027344 200.8125 142.886719 200.820312 142.710938 C 200.824219 142.082031 201.375 141.613281 201.980469 141.589844 C 202.613281 141.597656 203.117188 142.117188 203.101562 142.753906 C 203.09375 143.242188 202.921875 150.601562 200.625 158.152344 C 204.917969 165.230469 209.933594 173.019531 215.550781 180.925781 C 215.558594 180.917969 215.566406 180.917969 215.566406 180.910156 C 216.085938 180.554688 216.796875 180.695312 217.152344 181.214844 C 217.433594 181.628906 245.289062 222.351562 276.132812 236.824219 C 276.457031 212.546875 274.640625 191.425781 274.613281 191.078125 C 274.5625 190.449219 275.019531 189.902344 275.648438 189.839844 C 276.289062 189.773438 276.835938 190.25 276.886719 190.878906 C 276.9375 191.441406 281.769531 247.695312 274.191406 282.652344 C 271.269531 296.125 268.097656 303.859375 265.699219 308.210938 C 275.101562 301.3125 284.652344 290.246094 284.765625 290.113281 C 285.171875 289.640625 285.890625 289.578125 286.371094 289.988281 C 292.035156 283.265625 297.585938 275.128906 301.707031 265.664062 C 297.132812 255.15625 296.957031 245.761719 296.957031 245.582031 C 296.949219 244.953125 297.460938 244.441406 298.089844 244.433594 C 298.089844 244.433594 298.097656 244.433594 298.097656 244.433594 C 298.71875 244.433594 299.230469 244.9375 299.238281 245.570312 C 299.238281 245.886719 299.851562 277.011719 327.382812 288.214844 C 323.105469 282.636719 323.5 275.402344 323.730469 273.285156 C 319.632812 268.402344 317.488281 263.433594 317.347656 263.109375 C 317.105469 262.53125 317.371094 261.855469 317.957031 261.613281 C 318.535156 261.367188 319.210938 261.632812 319.453125 262.21875 C 319.5 262.332031 323.886719 272.484375 331.960938 277.65625 C 326.746094 267.609375 326.546875 254.195312 326.738281 248.4375 C 322.789062 237.433594 322.675781 222.167969 322.675781 222.167969 C 343.441406 231.464844 361.65625 212.828125 367.570312 205.773438 C 368.035156 204.320312 368.25 203.492188 368.25 203.492188 C 357.417969 207.34375 342.746094 203.476562 342.746094 203.476562 Z M 342.746094 203.476562 " fill-opacity="1" fill-rule="nonzero"/></g><path fill="#ffffff" d="M 85.894531 93.535156 C 96.492188 86.152344 108.082031 77.71875 121.089844 70.339844 C 121.097656 70.355469 121.101562 70.367188 121.109375 70.382812 C 121.324219 70.722656 121.695312 70.910156 122.074219 70.910156 C 122.289062 70.910156 122.496094 70.851562 122.6875 70.730469 C 122.828125 70.644531 131.804688 64.972656 145.617188 61.625 C 165.203125 72.398438 207.960938 90.613281 249.238281 72.835938 C 249.238281 72.835938 254.671875 95.378906 232.527344 107.027344 C 210.386719 118.691406 179.726562 129.089844 138.296875 122.960938 C 115.398438 119.574219 97.9375 107.296875 85.746094 94.988281 C 86.148438 94.609375 86.214844 93.992188 85.894531 93.535156 Z M 85.894531 93.535156 " fill-opacity="1" fill-rule="nonzero"/></svg>