<svg xmlns="http://www.w3.org/2000/svg" xmlns:xlink="http://www.w3.org/1999/xlink" width="500" zoomAndPan="magnify" viewBox="0 0 375 374.999991" height="500" preserveAspectRatio="xMidYMid meet" version="1.0"><defs><clipPath id="c5109a75ee"><path d="M 122.234375 123.488281 L 134.234375 123.488281 L 134.234375 130.238281 L 122.234375 130.238281 Z M 122.234375 123.488281 " clip-rule="nonzero"/></clipPath><clipPath id="ae32adc27b"><path d="M 122.234375 124 L 134 124 L 134 130 L 122.234375 130 Z M 122.234375 124 " clip-rule="nonzero"/></clipPath><clipPath id="462da8181d"><path d="M 16 3 L 368 3 L 368 374.183594 L 16 374.183594 Z M 16 3 " clip-rule="nonzero"/></clipPath><clipPath id="1993a3d1a9"><path d="M 18 5 L 357 5 L 357 374.183594 L 18 374.183594 Z M 18 5 " clip-rule="nonzero"/></clipPath></defs><g clip-path="url(#c5109a75ee)"><path fill="#353535" d="M 134.257812 127.402344 C 133.507812 127.613281 133.273438 127.035156 133.023438 126.703125 C 132.597656 126.148438 132.105469 126.078125 131.445312 126.148438 C 128.273438 126.464844 125.429688 127.410156 123.25 129.714844 C 122.988281 129.996094 122.628906 130.09375 122.261719 130.179688 L 122.257812 130.179688 C 122.753906 128.820312 123.914062 127.980469 125.117188 127.285156 C 126.960938 126.226562 128.929688 125.402344 131.195312 125.578125 C 131.960938 125.636719 132.527344 125.496094 132.613281 124.585938 C 132.660156 124.039062 133.144531 123.703125 133.929688 123.535156 C 133.105469 124.957031 133.6875 126.152344 134.257812 127.402344 Z M 122.234375 130.210938 L 122.261719 130.179688 C 122.261719 130.179688 122.257812 130.179688 122.257812 130.179688 C 122.261719 130.179688 122.234375 130.210938 122.234375 130.210938 Z M 122.234375 130.210938 " fill-opacity="1" fill-rule="nonzero"/></g><g clip-path="url(#ae32adc27b)"><path fill="#ffffff" d="M 126.09375 127.09375 C 126.101562 127.09375 126.113281 127.09375 126.121094 127.089844 C 126.121094 127.105469 126.121094 127.125 126.121094 127.140625 C 126.117188 127.140625 126.113281 127.140625 126.105469 127.144531 C 126.101562 127.128906 126.097656 127.113281 126.09375 127.09375 Z M 125.542969 127.15625 C 125.597656 127.152344 125.640625 127.152344 125.695312 127.152344 C 125.609375 127.105469 125.59375 127.105469 125.542969 127.15625 Z M 125.847656 127.667969 C 125.847656 127.671875 125.855469 127.679688 125.863281 127.6875 C 125.871094 127.675781 125.882812 127.671875 125.890625 127.664062 C 125.875 127.652344 125.871094 127.648438 125.863281 127.644531 C 125.855469 127.652344 125.847656 127.660156 125.847656 127.667969 Z M 125.65625 127.703125 C 125.660156 127.703125 125.675781 127.707031 125.675781 127.707031 C 125.679688 127.695312 125.679688 127.675781 125.6875 127.664062 C 125.679688 127.664062 125.671875 127.664062 125.667969 127.660156 C 125.660156 127.671875 125.65625 127.691406 125.65625 127.703125 Z M 125.660156 127.523438 C 125.652344 127.523438 125.640625 127.523438 125.632812 127.523438 C 125.636719 127.542969 125.640625 127.5625 125.640625 127.585938 C 125.652344 127.585938 125.65625 127.585938 125.667969 127.582031 C 125.667969 127.566406 125.667969 127.542969 125.660156 127.523438 Z M 127.734375 126.136719 C 127.738281 126.15625 127.746094 126.179688 127.753906 126.199219 C 127.757812 126.199219 127.761719 126.199219 127.765625 126.195312 C 127.761719 126.171875 127.753906 126.152344 127.746094 126.128906 C 127.742188 126.132812 127.738281 126.136719 127.734375 126.136719 Z M 125.359375 127.898438 C 125.320312 127.902344 125.292969 127.902344 125.269531 127.90625 C 125.292969 127.933594 125.324219 127.949219 125.359375 127.898438 Z M 128.175781 126.722656 C 128.242188 126.730469 128.242188 126.730469 128.277344 126.707031 C 128.265625 126.703125 128.257812 126.695312 128.246094 126.699219 C 128.226562 126.699219 128.207031 126.707031 128.175781 126.722656 Z M 126.992188 126.800781 C 127.03125 126.804688 127.066406 126.808594 127.105469 126.8125 C 127.066406 126.738281 127.0625 126.734375 126.992188 126.800781 Z M 126.464844 126.929688 C 126.492188 126.933594 126.523438 126.933594 126.546875 126.9375 C 126.59375 126.941406 126.585938 126.914062 126.578125 126.875 C 126.542969 126.90625 126.488281 126.863281 126.464844 126.929688 Z M 126.214844 127.007812 C 126.226562 127.011719 126.230469 127.019531 126.234375 127.023438 C 126.25 127.011719 126.257812 126.996094 126.269531 126.984375 C 126.269531 126.984375 126.257812 126.972656 126.253906 126.96875 C 126.246094 126.984375 126.230469 126.992188 126.214844 127.007812 Z M 126.875 127.113281 C 126.890625 127.070312 126.894531 127.042969 126.910156 127 C 126.851562 127.046875 126.851562 127.046875 126.875 127.113281 Z M 123.324219 129.519531 C 123.371094 129.519531 123.378906 129.480469 123.375 129.445312 C 123.328125 129.441406 123.289062 129.433594 123.238281 129.433594 C 123.242188 129.496094 123.285156 129.519531 123.324219 129.519531 Z M 123.398438 128.710938 C 123.402344 128.71875 123.410156 128.726562 123.410156 128.734375 C 123.429688 128.722656 123.449219 128.71875 123.460938 128.710938 C 123.457031 128.699219 123.449219 128.6875 123.449219 128.6875 C 123.433594 128.695312 123.414062 128.699219 123.398438 128.710938 Z M 128.34375 126.679688 C 128.34375 126.691406 128.363281 126.699219 128.371094 126.707031 C 128.378906 126.699219 128.390625 126.691406 128.394531 126.679688 C 128.394531 126.671875 128.382812 126.660156 128.375 126.644531 C 128.359375 126.660156 128.34375 126.671875 128.34375 126.679688 Z M 123.105469 129.789062 C 123.113281 129.789062 123.125 129.789062 123.128906 129.792969 C 123.132812 129.773438 123.140625 129.753906 123.140625 129.734375 C 123.113281 129.738281 123.105469 129.746094 123.101562 129.757812 C 123.101562 129.765625 123.105469 129.78125 123.105469 129.789062 Z M 122.917969 129.328125 C 122.9375 129.339844 122.957031 129.34375 122.980469 129.351562 C 122.980469 129.34375 122.988281 129.339844 122.988281 129.328125 C 122.96875 129.324219 122.949219 129.316406 122.929688 129.3125 C 122.921875 129.316406 122.917969 129.320312 122.917969 129.328125 Z M 122.640625 129.886719 C 122.667969 129.839844 122.6875 129.804688 122.71875 129.761719 C 122.640625 129.773438 122.628906 129.792969 122.640625 129.886719 Z M 124.617188 127.964844 C 124.621094 127.980469 124.628906 127.992188 124.632812 128.007812 C 124.632812 128.007812 124.644531 128.007812 124.652344 128.007812 C 124.648438 127.988281 124.644531 127.96875 124.636719 127.957031 C 124.632812 127.960938 124.621094 127.960938 124.617188 127.964844 Z M 124.441406 128.347656 C 124.460938 128.292969 124.460938 128.292969 124.414062 128.265625 C 124.421875 128.296875 124.433594 128.324219 124.441406 128.347656 Z M 124.769531 128.386719 C 124.78125 128.355469 124.789062 128.328125 124.804688 128.289062 C 124.765625 128.304688 124.734375 128.320312 124.703125 128.332031 C 124.730469 128.351562 124.746094 128.371094 124.769531 128.386719 Z M 124.289062 128.613281 C 124.292969 128.617188 124.292969 128.628906 124.300781 128.632812 C 124.320312 128.621094 124.339844 128.613281 124.359375 128.605469 C 124.355469 128.601562 124.347656 128.59375 124.347656 128.585938 C 124.328125 128.59375 124.308594 128.605469 124.289062 128.613281 Z M 123.90625 128.472656 C 123.914062 128.488281 123.914062 128.507812 123.917969 128.527344 C 123.925781 128.527344 123.933594 128.523438 123.941406 128.523438 C 123.9375 128.503906 123.933594 128.484375 123.933594 128.464844 C 123.921875 128.464844 123.917969 128.472656 123.90625 128.472656 Z M 124.171875 128.367188 C 124.167969 128.367188 124.164062 128.375 124.15625 128.382812 C 124.183594 128.394531 124.207031 128.40625 124.242188 128.425781 C 124.234375 128.367188 124.210938 128.359375 124.171875 128.367188 Z M 132.769531 125.007812 C 132.769531 124.996094 132.773438 124.980469 132.773438 124.964844 C 132.761719 124.964844 132.753906 124.964844 132.75 124.964844 C 132.75 124.976562 132.75 124.992188 132.75 125.003906 C 132.753906 125.003906 132.761719 125.003906 132.769531 125.007812 Z M 133.140625 125.777344 C 133.140625 125.785156 133.148438 125.796875 133.15625 125.808594 C 133.164062 125.804688 133.175781 125.792969 133.195312 125.785156 C 133.179688 125.769531 133.171875 125.761719 133.160156 125.757812 C 133.15625 125.753906 133.140625 125.765625 133.140625 125.777344 Z M 133.058594 125.496094 C 133.046875 125.523438 133.042969 125.550781 133.101562 125.570312 C 133.089844 125.535156 133.085938 125.515625 133.082031 125.492188 C 133.070312 125.492188 133.0625 125.496094 133.058594 125.496094 Z M 133.050781 125.136719 C 133.023438 125.148438 132.992188 125.152344 132.953125 125.160156 C 133 125.203125 133.027344 125.210938 133.050781 125.164062 C 133.058594 125.164062 133.050781 125.152344 133.050781 125.136719 Z M 132.636719 126.183594 C 132.671875 126.179688 132.691406 126.179688 132.714844 126.179688 C 132.710938 126.160156 132.703125 126.144531 132.699219 126.117188 C 132.675781 126.144531 132.660156 126.15625 132.636719 126.183594 Z M 132.75 125.175781 C 132.808594 125.1875 132.851562 125.179688 132.871094 125.105469 C 132.75 125.085938 132.75 125.085938 132.75 125.175781 Z M 133.347656 124.957031 C 133.347656 124.972656 133.347656 124.980469 133.347656 124.996094 C 133.351562 125.007812 133.355469 125.019531 133.359375 125.03125 C 133.367188 125.03125 133.371094 125.027344 133.375 125.027344 C 133.371094 125.003906 133.371094 124.980469 133.367188 124.964844 C 133.359375 124.957031 133.351562 124.957031 133.347656 124.957031 Z M 133.40625 125.691406 C 133.410156 125.699219 133.414062 125.703125 133.417969 125.710938 C 133.4375 125.699219 133.457031 125.679688 133.480469 125.664062 C 133.472656 125.660156 133.464844 125.652344 133.457031 125.648438 C 133.445312 125.660156 133.425781 125.675781 133.40625 125.691406 Z M 133.222656 124.578125 C 133.222656 124.582031 133.222656 124.589844 133.222656 124.59375 C 133.242188 124.59375 133.269531 124.59375 133.308594 124.59375 C 133.277344 124.578125 133.269531 124.566406 133.257812 124.566406 C 133.25 124.566406 133.234375 124.578125 133.222656 124.578125 Z M 129.238281 126.207031 C 129.246094 126.207031 129.25 126.207031 129.261719 126.210938 C 129.261719 126.199219 129.265625 126.179688 129.265625 126.167969 C 129.261719 126.167969 129.25 126.167969 129.246094 126.160156 C 129.242188 126.175781 129.242188 126.195312 129.238281 126.207031 Z M 133.449219 126.546875 C 133.453125 126.546875 133.464844 126.546875 133.46875 126.546875 C 133.472656 126.519531 133.472656 126.488281 133.480469 126.460938 C 133.46875 126.460938 133.457031 126.460938 133.449219 126.460938 C 133.449219 126.492188 133.449219 126.519531 133.449219 126.546875 Z M 133.003906 124.828125 C 133.03125 124.855469 133.050781 124.871094 133.082031 124.898438 C 133.085938 124.835938 133.066406 124.824219 133.003906 124.828125 Z M 129.757812 125.679688 C 129.75 125.714844 129.75 125.75 129.820312 125.777344 C 129.800781 125.730469 129.789062 125.703125 129.777344 125.675781 C 129.769531 125.679688 129.765625 125.679688 129.757812 125.679688 Z M 129.644531 126.03125 C 129.65625 126.042969 129.671875 126.050781 129.6875 126.058594 C 129.6875 126.058594 129.699219 126.046875 129.707031 126.039062 C 129.6875 126.027344 129.675781 126.019531 129.65625 126.019531 C 129.65625 126.015625 129.648438 126.027344 129.644531 126.03125 Z M 129.628906 125.832031 C 129.632812 125.796875 129.636719 125.78125 129.644531 125.742188 C 129.59375 125.78125 129.589844 125.796875 129.628906 125.832031 Z M 129.859375 126.265625 C 129.875 126.289062 129.882812 126.304688 129.898438 126.328125 C 129.914062 126.304688 129.921875 126.28125 129.9375 126.261719 C 129.933594 126.257812 129.925781 126.253906 129.925781 126.25 C 129.902344 126.25 129.878906 126.257812 129.859375 126.265625 Z M 129.203125 125.914062 C 129.230469 125.925781 129.230469 125.980469 129.300781 125.945312 C 129.265625 125.921875 129.238281 125.910156 129.210938 125.894531 C 129.207031 125.902344 129.203125 125.910156 129.203125 125.914062 Z M 129.90625 125.691406 C 129.914062 125.699219 129.917969 125.703125 129.921875 125.707031 C 129.945312 125.691406 129.976562 125.679688 130.019531 125.660156 C 129.984375 125.648438 129.957031 125.628906 129.945312 125.636719 C 129.925781 125.648438 129.921875 125.671875 129.90625 125.691406 Z M 132.453125 125.21875 C 132.453125 125.226562 132.453125 125.234375 132.453125 125.238281 C 132.472656 125.238281 132.492188 125.238281 132.511719 125.238281 C 132.511719 125.234375 132.511719 125.230469 132.511719 125.226562 C 132.492188 125.226562 132.472656 125.226562 132.453125 125.21875 Z M 131.195312 126.039062 C 131.25 126.050781 131.28125 126.058594 131.3125 126.070312 C 131.289062 126.039062 131.265625 126.015625 131.195312 126.039062 Z M 131.382812 125.757812 C 131.441406 125.691406 131.441406 125.691406 131.363281 125.679688 C 131.367188 125.703125 131.371094 125.71875 131.382812 125.757812 Z M 130.367188 126.046875 C 130.398438 126.058594 130.417969 126.070312 130.445312 126.078125 C 130.453125 126.046875 130.457031 126.019531 130.460938 125.992188 C 130.457031 125.988281 130.453125 125.988281 130.445312 125.980469 C 130.417969 126 130.398438 126.019531 130.367188 126.046875 Z M 130.367188 126.046875 " fill-opacity="1" fill-rule="nonzero"/></g><g clip-path="url(#462da8181d)"><path fill="#372a18" d="M 109.140625 374.304688 C 109.140625 374.304688 110.734375 372.484375 112.691406 369.257812 C 112.148438 371.058594 111.003906 372.742188 109.140625 374.304688 Z M 367.863281 222.453125 C 355.519531 236.253906 334.441406 225.359375 334.441406 206.464844 C 334.441406 196.191406 340.675781 173.003906 342.386719 148.726562 C 343.242188 136.667969 342.972656 124.351562 340.265625 113.210938 C 340.734375 113.09375 341.074219 112.652344 341.035156 112.140625 C 340.371094 103.253906 331.074219 81.203125 307.808594 73.582031 C 297.890625 70.332031 290.140625 69.246094 284.523438 69.058594 C 289.039062 63.5625 296.53125 57.058594 305.382812 59.714844 C 309.894531 61.066406 315.390625 62.277344 320.882812 62.898438 C 320.855469 62.957031 320.839844 63.027344 320.824219 63.101562 C 320.71875 63.652344 321.085938 64.191406 321.640625 64.296875 C 323.597656 64.664062 325.503906 64.804688 327.285156 64.804688 C 333.28125 64.804688 337.859375 63.203125 338.105469 63.117188 C 338.628906 62.929688 338.902344 62.359375 338.730469 61.835938 C 342.507812 60.527344 345.320312 58.277344 346.425781 54.726562 C 347.21875 54.277344 347.53125 53.910156 347.613281 53.800781 C 347.945312 53.359375 347.855469 52.757812 347.429688 52.414062 C 347.007812 52.0625 346.375 52.132812 346 52.535156 C 345.976562 52.566406 343.195312 55.445312 328.660156 55.023438 C 317.660156 54.710938 314.410156 52.011719 310.96875 49.164062 C 309.640625 48.054688 308.261719 46.921875 306.4375 45.933594 C 297.429688 41.074219 288.785156 39.703125 280.015625 41.730469 C 274.878906 42.917969 272.179688 47.375 270.757812 51.929688 C 269.34375 44.226562 264.492188 23.300781 252.589844 15.613281 C 252.171875 15.34375 251.632812 15.433594 251.304688 15.785156 C 248.296875 12.988281 244.820312 10.527344 240.8125 8.59375 C 240.828125 8.5625 240.84375 8.539062 240.859375 8.511719 C 241.050781 7.980469 240.769531 7.390625 240.238281 7.203125 C 239.496094 6.933594 221.894531 0.710938 207.769531 4.242188 C 207.226562 4.375 206.890625 4.9375 207.023438 5.480469 C 207.160156 6.027344 207.71875 6.363281 208.265625 6.230469 C 208.78125 6.101562 209.3125 5.992188 209.84375 5.886719 C 213.625 7.328125 222.703125 11.285156 231.25 18.730469 C 231.25 18.730469 231.25 18.730469 231.242188 18.730469 C 230.867188 19.15625 230.914062 19.800781 231.339844 20.175781 C 231.464844 20.285156 243.847656 31.21875 246.121094 42.066406 C 246.21875 42.554688 246.652344 42.882812 247.125 42.882812 C 247.191406 42.882812 247.265625 42.875 247.332031 42.859375 C 247.371094 42.851562 247.398438 42.835938 247.429688 42.828125 C 248.625 46.660156 249.402344 50.832031 249.652344 55.367188 C 246.332031 51.285156 241.777344 46.777344 235.59375 42.53125 C 214.917969 28.332031 195.058594 28.21875 182.042969 30.628906 C 165.457031 33.691406 144.335938 45.296875 144.125 45.417969 C 143.632812 45.695312 143.453125 46.3125 143.722656 46.808594 C 143.730469 46.824219 143.738281 46.832031 143.746094 46.84375 C 136.484375 51.339844 130.339844 56.222656 124.792969 61.023438 C 109.359375 74.324219 98.53125 86.960938 81.027344 88.542969 C 80.28125 88.613281 79.5625 88.664062 78.835938 88.722656 C 78.835938 88.695312 78.835938 88.65625 78.828125 88.628906 C 78.730469 88.074219 78.195312 87.699219 77.640625 87.804688 C 77.492188 87.835938 67.761719 89.5625 58.199219 88.628906 C 48.054688 87.25 41.734375 83.296875 39.449219 75.675781 C 37.707031 67.757812 40.597656 58.6875 40.644531 58.5625 C 40.824219 58.023438 40.523438 57.449219 39.984375 57.269531 C 39.449219 57.089844 38.871094 57.378906 38.691406 57.917969 C 38.640625 58.082031 38.332031 59.03125 37.988281 60.492188 C 30.140625 66.816406 -6.597656 99.15625 46.371094 110.648438 C 38.050781 115.792969 27.207031 123.957031 21.921875 134.066406 C 13.226562 150.695312 16.074219 159.40625 21.25 175.21875 L 21.921875 177.273438 C 22.0625 177.707031 22.460938 177.984375 22.894531 177.984375 C 23 177.984375 23.101562 177.96875 23.207031 177.933594 C 23.230469 177.925781 23.253906 177.910156 23.273438 177.902344 C 23.761719 179.097656 24.277344 180.3125 24.84375 181.542969 C 30.578125 193.972656 35.082031 205.285156 38.347656 215.347656 C 48.351562 246.050781 46.925781 265.09375 34.527344 268.726562 C 18.070312 273.570312 16.132812 301.664062 31.632812 309.417969 C 31.621094 309.363281 31.597656 309.320312 31.597656 309.269531 C 31.035156 307.113281 25.316406 282.539062 51.769531 272.078125 C 48.441406 277.601562 45.152344 285.820312 45.707031 296.257812 C 45.734375 296.804688 46.183594 297.230469 46.730469 297.230469 C 46.746094 297.230469 46.769531 297.230469 46.78125 297.230469 C 46.878906 297.222656 46.96875 297.199219 47.058594 297.167969 C 48.210938 305.066406 52.601562 313.632812 63.597656 321.035156 C 75.367188 328.953125 117.703125 353.210938 112.6875 369.269531 C 115.660156 364.425781 119.496094 356.394531 120.101562 346.625 C 120.34375 342.863281 120.101562 338.839844 119.152344 334.644531 C 119.652344 334.523438 120 334.054688 119.929688 333.53125 C 118.757812 323.636719 108.148438 311.726562 97.886719 300.214844 C 96.753906 298.933594 95.617188 297.664062 94.507812 296.40625 C 94.128906 295.972656 93.769531 295.53125 93.425781 295.089844 C 94.679688 293.804688 97.320312 290.910156 100.273438 286.566406 C 100.445312 286.679688 100.640625 286.753906 100.835938 286.753906 C 101.117188 286.753906 101.394531 286.640625 101.597656 286.410156 C 111.886719 274.859375 113.835938 254.421875 113.964844 241.847656 C 114.449219 243.269531 115.039062 244.84375 115.757812 246.550781 C 117.949219 252.75 120.722656 258.507812 124.246094 263.015625 C 133.5625 274.949219 147.828125 281.050781 148.425781 281.304688 C 148.554688 281.355469 148.6875 281.386719 148.824219 281.386719 C 149.226562 281.386719 149.601562 281.152344 149.765625 280.757812 C 149.980469 280.234375 149.742188 279.636719 149.21875 279.417969 C 149.1875 279.40625 148.628906 279.164062 147.671875 278.703125 C 142.871094 271.539062 124.707031 242.199219 127.054688 211.75 C 127.0625 211.75 127.0625 211.75 127.070312 211.75 C 127.09375 211.75 127.117188 211.75 127.140625 211.75 C 127.675781 211.75 128.125 211.332031 128.164062 210.792969 C 129.988281 182.613281 148.015625 161.699219 154.207031 155.308594 C 153.59375 167.195312 155.964844 182.226562 168.1875 194.203125 C 180.710938 206.480469 202.738281 219.265625 222.164062 230.542969 C 239.542969 240.628906 255.945312 250.152344 261.777344 257.183594 C 272.417969 270 273.824219 275.988281 268.949219 287.710938 C 268.730469 288.234375 268.980469 288.832031 269.503906 289.050781 C 269.628906 289.101562 269.765625 289.132812 269.898438 289.132812 C 270.300781 289.132812 270.683594 288.894531 270.839844 288.503906 C 271.066406 287.957031 271.28125 287.425781 271.484375 286.894531 C 274.765625 284.265625 282.289062 277.578125 285.863281 269.101562 C 286.683594 273.355469 286.625 278.625 284.320312 284.585938 C 278.09375 300.707031 259.789062 321.253906 259.609375 321.457031 C 259.175781 321.941406 248.949219 333.433594 250.882812 342.167969 C 250.988281 342.644531 251.414062 342.96875 251.886719 342.96875 C 251.886719 342.96875 251.894531 342.96875 251.894531 342.96875 C 252.273438 354.109375 262.742188 360.777344 268.925781 363.753906 C 270.03125 364.835938 271.3125 365.773438 272.808594 366.480469 C 272.949219 366.550781 273.097656 366.578125 273.242188 366.578125 C 273.621094 366.578125 273.988281 366.363281 274.167969 365.996094 C 274.414062 365.488281 274.191406 364.875 273.683594 364.636719 C 267.574219 361.742188 265.40625 354.4375 264.664062 348.820312 C 264.015625 343.871094 268.777344 336.535156 273.136719 334 C 277.792969 331.289062 281.800781 327.453125 281.964844 327.289062 C 282.371094 326.898438 282.386719 326.25 281.996094 325.835938 C 281.980469 325.820312 281.964844 325.8125 281.953125 325.808594 C 289.824219 317.15625 292.949219 305.679688 293.59375 302.996094 C 293.921875 303.375 294.234375 303.785156 294.519531 304.242188 C 296.074219 306.753906 296.40625 309.910156 295.507812 313.632812 C 294.476562 317.910156 293.242188 322.054688 292.046875 326.0625 C 289.609375 334.242188 287.296875 341.972656 286.8125 350.210938 C 286.136719 361.488281 289.195312 367.597656 296.710938 370.019531 C 296.816406 370.046875 296.921875 370.070312 297.023438 370.070312 C 297.457031 370.070312 297.863281 369.792969 297.996094 369.359375 C 298.035156 369.242188 298.050781 369.121094 298.042969 369 C 303.457031 369.382812 308.980469 367.082031 308.980469 367.082031 C 290.085938 357.644531 306.796875 331.472656 327.144531 310.410156 C 344.027344 292.929688 332.894531 274.445312 328.609375 268.652344 C 327.734375 267.472656 327.144531 266.804688 327.144531 266.804688 C 348.929688 266.804688 347.488281 298.042969 347.488281 298.042969 C 354.5625 288.816406 356.632812 280.273438 355.890625 272.726562 C 353.925781 252.351562 331.5 239.199219 331.5 239.199219 C 356.96875 244.980469 367.863281 222.453125 367.863281 222.453125 Z M 367.863281 222.453125 " fill-opacity="1" fill-rule="nonzero"/></g><g clip-path="url(#1993a3d1a9)"><path fill="#7b5e34" d="M 39.460938 75.660156 C 41.75 83.289062 48.070312 87.234375 58.214844 88.613281 C 53.214844 88.125 48.25 86.90625 44.734375 84.335938 C 41.757812 82.160156 40.195312 79.011719 39.460938 75.660156 Z M 113.988281 241.832031 C 114.472656 243.253906 115.0625 244.832031 115.78125 246.535156 C 115.128906 244.703125 114.539062 242.835938 113.988281 240.941406 C 113.996094 241.234375 113.996094 241.53125 113.988281 241.832031 Z M 126.152344 210.644531 C 128.238281 178.449219 150.921875 155.5625 154.476562 152.160156 C 154.738281 149.503906 155.125 147.058594 155.558594 144.898438 C 120.34375 133.699219 90.253906 113.167969 70.050781 90.757812 C 68.28125 90.886719 66.320312 90.976562 64.257812 90.976562 C 57.175781 90.976562 48.929688 89.949219 43.523438 85.996094 C 34.632812 79.488281 36.660156 66.121094 38.003906 60.492188 C 30.152344 66.816406 -6.582031 99.15625 46.386719 110.648438 C 52.324219 106.976562 56.980469 104.835938 57.429688 104.636719 C 57.945312 104.402344 58.550781 104.636719 58.785156 105.144531 C 59.015625 105.660156 58.785156 106.265625 58.273438 106.496094 C 58.019531 106.617188 32.480469 118.320312 23.753906 135.007812 C 15.453125 150.867188 18.046875 158.792969 23.214844 174.574219 L 23.886719 176.632812 C 24.050781 177.148438 23.789062 177.695312 23.296875 177.894531 C 23.785156 179.09375 24.300781 180.304688 24.867188 181.535156 C 30.601562 193.964844 35.105469 205.277344 38.371094 215.339844 C 38.371094 215.339844 56.0625 226.707031 52.863281 245.960938 C 49.652344 265.160156 22.46875 282.492188 31.613281 309.261719 C 31.050781 307.105469 25.332031 282.53125 51.785156 272.070312 C 54.789062 267.082031 57.828125 264.285156 58.089844 264.054688 C 58.507812 263.671875 59.15625 263.710938 59.53125 264.128906 C 59.914062 264.546875 59.875 265.199219 59.457031 265.578125 C 59.359375 265.667969 51.605469 272.824219 48.75 285.011719 C 51.328125 292.25 58.84375 306.367188 79.441406 313.351562 C 96.707031 319.195312 111.421875 332.953125 120.125 346.625 C 120.363281 342.863281 120.125 338.839844 119.175781 334.644531 C 119.136719 334.652344 119.101562 334.667969 119.054688 334.667969 C 119.019531 334.675781 118.972656 334.675781 118.9375 334.675781 C 118.429688 334.675781 117.980469 334.292969 117.917969 333.769531 C 116.820312 324.511719 106.433594 312.855469 96.386719 301.574219 C 95.242188 300.296875 94.113281 299.015625 93 297.761719 C 81.96875 285.257812 84.324219 267.761719 84.429688 267.03125 C 84.511719 266.46875 85.027344 266.085938 85.589844 266.164062 C 86.148438 266.246094 86.539062 266.761719 86.457031 267.320312 C 86.433594 267.484375 84.308594 283.398438 93.445312 295.097656 C 94.703125 293.8125 97.34375 290.917969 100.296875 286.574219 C 100.257812 286.542969 100.214844 286.539062 100.175781 286.5 C 99.757812 286.125 99.714844 285.476562 100.09375 285.058594 C 114.054688 269.386719 111.914062 235.171875 111.640625 231.515625 C 108.246094 215.585938 107.726562 200.859375 107.699219 199.820312 C 107.683594 199.25 108.125 198.777344 108.691406 198.765625 C 109.261719 198.703125 109.730469 199.191406 109.746094 199.757812 C 109.761719 200.191406 111.25 243.007812 125.898438 261.765625 C 133.136719 271.03125 143.773438 276.789062 147.714844 278.707031 C 142.914062 271.546875 124.753906 242.207031 127.101562 211.757812 C 126.539062 211.683594 126.113281 211.199219 126.152344 210.644531 Z M 355.9375 272.691406 C 356.675781 280.234375 354.605469 288.78125 347.53125 298.007812 C 347.53125 298.007812 348.976562 266.769531 327.1875 266.769531 C 327.1875 266.769531 327.777344 267.425781 328.652344 268.613281 C 322.5 263.082031 316.441406 260.613281 316.441406 260.613281 C 329.746094 289.042969 301.316406 326.164062 295.8125 347.25 C 290.316406 368.335938 309.027344 367.035156 309.027344 367.035156 C 309.027344 367.035156 303.5 369.332031 298.085938 368.957031 C 298.070312 368.539062 297.804688 368.164062 297.375 368.023438 C 292.75 366.527344 288.121094 363.257812 288.890625 350.285156 C 289.367188 342.285156 291.632812 334.667969 294.042969 326.605469 C 295.246094 322.570312 296.496094 318.40625 297.535156 314.074219 C 298.566406 309.796875 298.148438 306.121094 296.292969 303.128906 C 293.457031 298.554688 288.308594 297.335938 288.089844 297.289062 C 287.535156 297.15625 286.992188 297.507812 286.863281 298.058594 C 286.738281 298.613281 287.082031 299.160156 287.632812 299.285156 C 287.671875 299.292969 291.164062 300.125 293.625 302.964844 C 292.980469 305.648438 289.847656 317.125 281.980469 325.777344 C 281.585938 325.410156 280.972656 325.402344 280.582031 325.785156 C 280.546875 325.820312 276.589844 329.613281 272.140625 332.199219 C 267.222656 335.0625 261.898438 343.222656 262.667969 349.0625 C 263.304688 353.859375 264.941406 359.796875 268.964844 363.730469 C 262.78125 360.753906 252.3125 354.085938 251.929688 342.945312 C 252 342.945312 252.074219 342.9375 252.148438 342.921875 C 252.703125 342.792969 253.046875 342.25 252.925781 341.703125 C 251.222656 334 261.074219 322.921875 261.179688 322.808594 C 261.941406 321.957031 279.917969 301.78125 286.28125 285.3125 C 292.800781 268.433594 282.4375 256.539062 282.332031 256.425781 C 281.957031 256.007812 281.308594 255.972656 280.890625 256.34375 C 280.472656 256.71875 280.433594 257.371094 280.808594 257.789062 C 280.867188 257.855469 284.570312 262.109375 285.914062 269.085938 C 282.332031 277.566406 274.820312 284.25 271.535156 286.882812 C 275.941406 275.398438 274.070312 268.695312 263.410156 255.867188 C 259.140625 250.722656 250.046875 244.660156 238.652344 237.808594 C 231.683594 233.382812 224.101562 229.046875 216.378906 224.769531 C 198.917969 214.578125 180.5625 203.40625 169.667969 192.730469 C 157.167969 180.484375 155.425781 164.839844 156.441406 153.085938 C 156.679688 152.773438 156.71875 152.367188 156.539062 152.023438 C 156.777344 149.664062 157.128906 147.472656 157.519531 145.511719 C 176.988281 151.480469 197.984375 154.582031 219.710938 153.582031 C 235.03125 152.871094 246.792969 148.839844 255.585938 143.980469 C 255.820312 144.390625 256.304688 144.601562 256.777344 144.457031 C 256.867188 144.429688 266.121094 141.707031 272.820312 145.929688 C 276.417969 148.1875 278.660156 152.078125 279.507812 157.484375 C 279.851562 159.695312 280.179688 161.976562 280.5 164.257812 C 282.496094 178.210938 284.570312 192.632812 291.515625 196.09375 C 293.113281 196.894531 294.902344 197.089844 296.859375 196.671875 C 293.480469 199.820312 287.101562 203.652344 278.945312 198.882812 C 273.496094 195.691406 272.097656 191.496094 270.742188 187.4375 C 268.992188 182.179688 267.183594 176.75 256.65625 174.890625 C 256.097656 174.785156 255.566406 175.167969 255.46875 175.71875 C 255.371094 176.273438 255.746094 176.8125 256.296875 176.910156 C 265.621094 178.554688 267.09375 182.972656 268.800781 188.078125 C 270.199219 192.28125 271.789062 197.042969 277.875 200.617188 C 278.117188 200.777344 302.035156 216.359375 299.371094 234.667969 C 299.289062 235.230469 299.679688 235.746094 300.242188 235.828125 C 300.292969 235.835938 300.335938 235.835938 300.390625 235.835938 C 300.890625 235.835938 301.324219 235.46875 301.398438 234.960938 C 303.425781 221.046875 291.796875 209.046875 284.515625 203.019531 C 285.195312 203.117188 285.863281 203.152344 286.511719 203.152344 C 295.460938 203.152344 301.160156 194.867188 301.234375 194.765625 C 301.496094 194.375 301.460938 193.851562 301.136719 193.5 C 300.816406 193.148438 300.300781 193.066406 299.890625 193.296875 C 296.898438 194.949219 294.460938 195.257812 292.425781 194.246094 C 286.4375 191.265625 284.449219 177.378906 282.527344 163.949219 C 282.199219 161.65625 281.871094 159.375 281.523438 157.148438 C 280.589844 151.136719 278.027344 146.769531 273.90625 144.179688 C 268.84375 141.003906 262.71875 141.289062 259.152344 141.847656 C 262.046875 140.007812 264.566406 138.109375 266.722656 136.261719 C 274.234375 129.789062 277.414062 123.992188 277.414062 123.992188 C 273.597656 124.882812 269.832031 125.570312 266.113281 126.09375 C 197.199219 135.65625 144.84375 84.46875 124.804688 61 C 130.355469 56.199219 136.5 51.316406 143.761719 46.824219 C 144.042969 47.285156 144.644531 47.449219 145.128906 47.1875 C 145.339844 47.078125 166.175781 35.628906 182.433594 32.625 C 195.066406 30.285156 214.351562 30.394531 234.449219 44.199219 C 251.355469 55.808594 255.789062 69.753906 255.835938 69.890625 C 255.96875 70.332031 256.371094 70.613281 256.8125 70.613281 C 256.910156 70.613281 257.015625 70.601562 257.113281 70.570312 C 257.652344 70.40625 257.957031 69.828125 257.792969 69.292969 C 257.671875 68.902344 255.757812 62.839844 249.664062 55.347656 C 249.425781 50.808594 248.640625 46.636719 247.445312 42.808594 C 247.9375 42.652344 248.246094 42.148438 248.140625 41.625 C 245.726562 30.105469 233.230469 19.074219 232.699219 18.613281 C 232.273438 18.238281 231.628906 18.28125 231.257812 18.707031 C 222.710938 11.261719 213.632812 7.304688 209.851562 5.863281 C 223.113281 3.304688 239.378906 9.046875 239.550781 9.109375 C 239.660156 9.144531 239.78125 9.167969 239.894531 9.167969 C 240.28125 9.167969 240.640625 8.9375 240.8125 8.570312 C 244.828125 10.5 248.296875 12.964844 251.304688 15.761719 C 251.257812 15.808594 251.207031 15.835938 251.175781 15.890625 C 250.871094 16.367188 251.003906 16.996094 251.484375 17.304688 C 265.082031 26.089844 269.164062 54.753906 269.210938 55.039062 C 269.261719 55.40625 269.503906 55.691406 269.816406 55.832031 C 269.121094 59.734375 269.195312 62.980469 269.203125 63.292969 C 269.21875 63.847656 269.675781 64.289062 270.226562 64.289062 C 270.234375 64.289062 270.25 64.289062 270.257812 64.289062 C 270.824219 64.273438 271.265625 63.804688 271.25 63.234375 C 271.246094 63.0625 270.878906 45.910156 280.484375 43.691406 C 288.75 41.777344 296.921875 43.089844 305.472656 47.703125 C 307.121094 48.59375 308.351562 49.617188 309.667969 50.703125 C 313.226562 53.65625 316.90625 56.707031 328.609375 57.042969 C 339.765625 57.367188 344.503906 55.78125 346.425781 54.695312 C 345.320312 58.246094 342.507812 60.503906 338.730469 61.808594 C 338.730469 61.800781 338.730469 61.785156 338.726562 61.777344 C 338.539062 61.246094 337.945312 60.96875 337.417969 61.15625 C 337.339844 61.179688 330.019531 63.75 322.011719 62.253906 C 321.519531 62.171875 321.054688 62.433594 320.878906 62.875 C 315.382812 62.261719 309.894531 61.042969 305.378906 59.691406 C 296.523438 57.035156 289.03125 63.542969 284.515625 69.035156 C 277.332031 68.796875 273.628906 70.046875 273.367188 70.136719 C 272.835938 70.324219 272.554688 70.90625 272.738281 71.445312 C 272.925781 71.976562 273.511719 72.257812 274.046875 72.074219 C 274.152344 72.035156 285.210938 68.320312 307.164062 75.503906 C 329.902344 82.953125 338.449219 105.0625 338.988281 112.269531 C 339.023438 112.808594 339.472656 113.21875 340.003906 113.21875 C 340.027344 113.21875 340.054688 113.21875 340.078125 113.21875 C 340.136719 113.210938 340.199219 113.203125 340.25 113.1875 C 342.957031 124.328125 343.226562 136.652344 342.375 148.707031 C 337.851562 156.59375 331.171875 167.785156 322.386719 181.289062 C 304.503906 208.789062 309.101562 237.675781 326.964844 250.960938 C 339.433594 260.234375 350.320312 265.054688 355.9375 272.691406 Z M 299.320312 260.5625 C 298.4375 242.992188 280.875 236.351562 254.285156 226.300781 C 248.117188 223.96875 241.125 221.328125 233.828125 218.347656 C 197.160156 203.371094 203.128906 178.261719 203.40625 177.199219 C 203.546875 176.65625 203.21875 176.09375 202.671875 175.953125 C 202.125 175.808594 201.566406 176.136719 201.421875 176.683594 C 201.347656 176.960938 194.671875 204.558594 233.058594 220.246094 C 240.378906 223.238281 247.386719 225.882812 253.5625 228.214844 C 280.3125 238.324219 296.464844 244.425781 297.273438 260.660156 C 297.300781 261.207031 297.75 261.632812 298.296875 261.632812 C 298.3125 261.632812 298.332031 261.632812 298.347656 261.632812 C 298.917969 261.609375 299.351562 261.128906 299.320312 260.5625 Z M 112.699219 369.257812 C 110.734375 372.484375 109.148438 374.304688 109.148438 374.304688 C 111.003906 372.742188 112.148438 371.058594 112.699219 369.257812 Z M 112.699219 369.257812 " fill-opacity="1" fill-rule="nonzero"/></g><path fill="#ffffff" d="M 78.851562 88.714844 C 79.578125 88.65625 80.296875 88.605469 81.042969 88.539062 C 98.546875 86.945312 109.375 74.316406 124.804688 61.015625 C 144.84375 84.484375 197.199219 135.671875 266.113281 126.109375 C 269.832031 125.585938 273.597656 124.898438 277.414062 124.007812 C 277.414062 124.007812 274.234375 129.804688 266.71875 136.277344 C 264.566406 138.125 262.046875 140.023438 259.152344 141.863281 C 257.441406 142.132812 256.3125 142.460938 256.179688 142.5 C 255.640625 142.664062 255.332031 143.230469 255.488281 143.777344 C 255.511719 143.851562 255.542969 143.921875 255.578125 143.980469 C 246.792969 148.839844 235.027344 152.871094 219.703125 153.582031 C 197.976562 154.582031 176.980469 151.480469 157.511719 145.511719 C 158.640625 139.816406 160.082031 136.128906 160.128906 136.015625 C 160.335938 135.492188 160.082031 134.894531 159.558594 134.6875 C 159.035156 134.476562 158.4375 134.730469 158.226562 135.253906 C 158.183594 135.367188 156.71875 139.105469 155.550781 144.898438 C 120.335938 133.699219 90.246094 113.167969 70.042969 90.757812 C 74.476562 90.4375 77.664062 89.875 78.015625 89.808594 C 78.546875 89.710938 78.898438 89.234375 78.851562 88.714844 Z M 78.851562 88.714844 " fill-opacity="1" fill-rule="nonzero"/></svg>