<svg xmlns="http://www.w3.org/2000/svg" xmlns:xlink="http://www.w3.org/1999/xlink" width="500" zoomAndPan="magnify" viewBox="0 0 375 374.999991" height="500" preserveAspectRatio="xMidYMid meet" version="1.0"><defs><clipPath id="7f3d80e133"><path d="M 122.234375 123.488281 L 134.234375 123.488281 L 134.234375 130.238281 L 122.234375 130.238281 Z M 122.234375 123.488281 " clip-rule="nonzero"/></clipPath><clipPath id="6b24443184"><path d="M 122.234375 124 L 134 124 L 134 130 L 122.234375 130 Z M 122.234375 124 " clip-rule="nonzero"/></clipPath><clipPath id="5b5f6ad8af"><path d="M 8 37.5 L 370.742188 37.5 L 370.742188 333.75 L 8 333.75 Z M 8 37.5 " clip-rule="nonzero"/></clipPath></defs><g clip-path="url(#7f3d80e133)"><path fill="#353535" d="M 134.257812 127.402344 C 133.507812 127.613281 133.273438 127.035156 133.023438 126.703125 C 132.597656 126.148438 132.105469 126.078125 131.445312 126.148438 C 128.273438 126.464844 125.429688 127.410156 123.25 129.714844 C 122.988281 129.996094 122.628906 130.09375 122.261719 130.179688 L 122.257812 130.179688 C 122.753906 128.820312 123.914062 127.980469 125.117188 127.285156 C 126.960938 126.226562 128.929688 125.402344 131.195312 125.578125 C 131.960938 125.636719 132.527344 125.496094 132.613281 124.585938 C 132.660156 124.039062 133.144531 123.703125 133.929688 123.535156 C 133.105469 124.957031 133.6875 126.152344 134.257812 127.402344 Z M 122.234375 130.210938 L 122.261719 130.179688 C 122.261719 130.179688 122.257812 130.179688 122.257812 130.179688 C 122.261719 130.179688 122.234375 130.210938 122.234375 130.210938 Z M 122.234375 130.210938 " fill-opacity="1" fill-rule="nonzero"/></g><g clip-path="url(#6b24443184)"><path fill="#ffffff" d="M 126.09375 127.09375 C 126.101562 127.09375 126.113281 127.09375 126.121094 127.089844 C 126.121094 127.105469 126.121094 127.125 126.121094 127.140625 C 126.117188 127.140625 126.113281 127.140625 126.105469 127.144531 C 126.101562 127.128906 126.097656 127.113281 126.09375 127.09375 Z M 125.542969 127.15625 C 125.597656 127.152344 125.640625 127.152344 125.695312 127.152344 C 125.609375 127.105469 125.59375 127.105469 125.542969 127.15625 Z M 125.847656 127.667969 C 125.847656 127.671875 125.855469 127.679688 125.863281 127.6875 C 125.871094 127.675781 125.882812 127.671875 125.890625 127.664062 C 125.875 127.652344 125.871094 127.648438 125.863281 127.644531 C 125.855469 127.652344 125.847656 127.660156 125.847656 127.667969 Z M 125.65625 127.703125 C 125.660156 127.703125 125.675781 127.707031 125.675781 127.707031 C 125.679688 127.695312 125.679688 127.675781 125.6875 127.664062 C 125.679688 127.664062 125.671875 127.664062 125.667969 127.660156 C 125.660156 127.671875 125.65625 127.691406 125.65625 127.703125 Z M 125.660156 127.523438 C 125.652344 127.523438 125.640625 127.523438 125.632812 127.523438 C 125.636719 127.542969 125.640625 127.5625 125.640625 127.585938 C 125.652344 127.585938 125.65625 127.585938 125.667969 127.582031 C 125.667969 127.566406 125.667969 127.542969 125.660156 127.523438 Z M 127.734375 126.136719 C 127.738281 126.15625 127.746094 126.179688 127.753906 126.199219 C 127.757812 126.199219 127.761719 126.199219 127.765625 126.195312 C 127.761719 126.171875 127.753906 126.152344 127.746094 126.128906 C 127.742188 126.132812 127.738281 126.136719 127.734375 126.136719 Z M 125.359375 127.898438 C 125.320312 127.902344 125.292969 127.902344 125.269531 127.90625 C 125.292969 127.933594 125.324219 127.949219 125.359375 127.898438 Z M 128.175781 126.722656 C 128.242188 126.730469 128.242188 126.730469 128.277344 126.707031 C 128.265625 126.703125 128.257812 126.695312 128.246094 126.699219 C 128.226562 126.699219 128.207031 126.707031 128.175781 126.722656 Z M 126.992188 126.800781 C 127.03125 126.804688 127.066406 126.808594 127.105469 126.8125 C 127.066406 126.738281 127.0625 126.734375 126.992188 126.800781 Z M 126.464844 126.929688 C 126.492188 126.933594 126.523438 126.933594 126.546875 126.9375 C 126.59375 126.941406 126.585938 126.914062 126.578125 126.875 C 126.542969 126.90625 126.488281 126.863281 126.464844 126.929688 Z M 126.214844 127.007812 C 126.226562 127.011719 126.230469 127.019531 126.234375 127.023438 C 126.25 127.011719 126.257812 126.996094 126.269531 126.984375 C 126.269531 126.984375 126.257812 126.972656 126.253906 126.96875 C 126.246094 126.984375 126.230469 126.992188 126.214844 127.007812 Z M 126.875 127.113281 C 126.890625 127.070312 126.894531 127.042969 126.910156 127 C 126.851562 127.046875 126.851562 127.046875 126.875 127.113281 Z M 123.324219 129.519531 C 123.371094 129.519531 123.378906 129.480469 123.375 129.445312 C 123.328125 129.441406 123.289062 129.433594 123.238281 129.433594 C 123.242188 129.496094 123.285156 129.519531 123.324219 129.519531 Z M 123.398438 128.710938 C 123.402344 128.71875 123.410156 128.726562 123.410156 128.734375 C 123.429688 128.722656 123.449219 128.71875 123.460938 128.710938 C 123.457031 128.699219 123.449219 128.6875 123.449219 128.6875 C 123.433594 128.695312 123.414062 128.699219 123.398438 128.710938 Z M 128.34375 126.679688 C 128.34375 126.691406 128.363281 126.699219 128.371094 126.707031 C 128.378906 126.699219 128.390625 126.691406 128.394531 126.679688 C 128.394531 126.671875 128.382812 126.660156 128.375 126.644531 C 128.359375 126.660156 128.34375 126.671875 128.34375 126.679688 Z M 123.105469 129.789062 C 123.113281 129.789062 123.125 129.789062 123.128906 129.792969 C 123.132812 129.773438 123.140625 129.753906 123.140625 129.734375 C 123.113281 129.738281 123.105469 129.746094 123.101562 129.757812 C 123.101562 129.765625 123.105469 129.78125 123.105469 129.789062 Z M 122.917969 129.328125 C 122.9375 129.339844 122.957031 129.34375 122.980469 129.351562 C 122.980469 129.34375 122.988281 129.339844 122.988281 129.328125 C 122.96875 129.324219 122.949219 129.316406 122.929688 129.3125 C 122.921875 129.316406 122.917969 129.320312 122.917969 129.328125 Z M 122.640625 129.886719 C 122.667969 129.839844 122.6875 129.804688 122.71875 129.761719 C 122.640625 129.773438 122.628906 129.792969 122.640625 129.886719 Z M 124.617188 127.964844 C 124.621094 127.980469 124.628906 127.992188 124.632812 128.007812 C 124.632812 128.007812 124.644531 128.007812 124.652344 128.007812 C 124.648438 127.988281 124.644531 127.96875 124.636719 127.957031 C 124.632812 127.960938 124.621094 127.960938 124.617188 127.964844 Z M 124.441406 128.347656 C 124.460938 128.292969 124.460938 128.292969 124.414062 128.265625 C 124.421875 128.296875 124.433594 128.324219 124.441406 128.347656 Z M 124.769531 128.386719 C 124.78125 128.355469 124.789062 128.328125 124.804688 128.289062 C 124.765625 128.304688 124.734375 128.320312 124.703125 128.332031 C 124.730469 128.351562 124.746094 128.371094 124.769531 128.386719 Z M 124.289062 128.613281 C 124.292969 128.617188 124.292969 128.628906 124.300781 128.632812 C 124.320312 128.621094 124.339844 128.613281 124.359375 128.605469 C 124.355469 128.601562 124.347656 128.59375 124.347656 128.585938 C 124.328125 128.59375 124.308594 128.605469 124.289062 128.613281 Z M 123.90625 128.472656 C 123.914062 128.488281 123.914062 128.507812 123.917969 128.527344 C 123.925781 128.527344 123.933594 128.523438 123.941406 128.523438 C 123.9375 128.503906 123.933594 128.484375 123.933594 128.464844 C 123.921875 128.464844 123.917969 128.472656 123.90625 128.472656 Z M 124.171875 128.367188 C 124.167969 128.367188 124.164062 128.375 124.15625 128.382812 C 124.183594 128.394531 124.207031 128.40625 124.242188 128.425781 C 124.234375 128.367188 124.210938 128.359375 124.171875 128.367188 Z M 132.769531 125.007812 C 132.769531 124.996094 132.773438 124.980469 132.773438 124.964844 C 132.761719 124.964844 132.753906 124.964844 132.75 124.964844 C 132.75 124.976562 132.75 124.992188 132.75 125.003906 C 132.753906 125.003906 132.761719 125.003906 132.769531 125.007812 Z M 133.140625 125.777344 C 133.140625 125.785156 133.148438 125.796875 133.15625 125.808594 C 133.164062 125.804688 133.175781 125.792969 133.195312 125.785156 C 133.179688 125.769531 133.171875 125.761719 133.160156 125.757812 C 133.15625 125.753906 133.140625 125.765625 133.140625 125.777344 Z M 133.058594 125.496094 C 133.046875 125.523438 133.042969 125.550781 133.101562 125.570312 C 133.089844 125.535156 133.085938 125.515625 133.082031 125.492188 C 133.070312 125.492188 133.0625 125.496094 133.058594 125.496094 Z M 133.050781 125.136719 C 133.023438 125.148438 132.992188 125.152344 132.953125 125.160156 C 133 125.203125 133.027344 125.210938 133.050781 125.164062 C 133.058594 125.164062 133.050781 125.152344 133.050781 125.136719 Z M 132.636719 126.183594 C 132.671875 126.179688 132.691406 126.179688 132.714844 126.179688 C 132.710938 126.160156 132.703125 126.144531 132.699219 126.117188 C 132.675781 126.144531 132.660156 126.15625 132.636719 126.183594 Z M 132.75 125.175781 C 132.808594 125.1875 132.851562 125.179688 132.871094 125.105469 C 132.75 125.085938 132.75 125.085938 132.75 125.175781 Z M 133.347656 124.957031 C 133.347656 124.972656 133.347656 124.980469 133.347656 124.996094 C 133.351562 125.007812 133.355469 125.019531 133.359375 125.03125 C 133.367188 125.03125 133.371094 125.027344 133.375 125.027344 C 133.371094 125.003906 133.371094 124.980469 133.367188 124.964844 C 133.359375 124.957031 133.351562 124.957031 133.347656 124.957031 Z M 133.40625 125.691406 C 133.410156 125.699219 133.414062 125.703125 133.417969 125.710938 C 133.4375 125.699219 133.457031 125.679688 133.480469 125.664062 C 133.472656 125.660156 133.464844 125.652344 133.457031 125.648438 C 133.445312 125.660156 133.425781 125.675781 133.40625 125.691406 Z M 133.222656 124.578125 C 133.222656 124.582031 133.222656 124.589844 133.222656 124.59375 C 133.242188 124.59375 133.269531 124.59375 133.308594 124.59375 C 133.277344 124.578125 133.269531 124.566406 133.257812 124.566406 C 133.25 124.566406 133.234375 124.578125 133.222656 124.578125 Z M 129.238281 126.207031 C 129.246094 126.207031 129.25 126.207031 129.261719 126.210938 C 129.261719 126.199219 129.265625 126.179688 129.265625 126.167969 C 129.261719 126.167969 129.25 126.167969 129.246094 126.160156 C 129.242188 126.175781 129.242188 126.195312 129.238281 126.207031 Z M 133.449219 126.546875 C 133.453125 126.546875 133.464844 126.546875 133.46875 126.546875 C 133.472656 126.519531 133.472656 126.488281 133.480469 126.460938 C 133.46875 126.460938 133.457031 126.460938 133.449219 126.460938 C 133.449219 126.492188 133.449219 126.519531 133.449219 126.546875 Z M 133.003906 124.828125 C 133.03125 124.855469 133.050781 124.871094 133.082031 124.898438 C 133.085938 124.835938 133.066406 124.824219 133.003906 124.828125 Z M 129.757812 125.679688 C 129.75 125.714844 129.75 125.75 129.820312 125.777344 C 129.800781 125.730469 129.789062 125.703125 129.777344 125.675781 C 129.769531 125.679688 129.765625 125.679688 129.757812 125.679688 Z M 129.644531 126.03125 C 129.65625 126.042969 129.671875 126.050781 129.6875 126.058594 C 129.6875 126.058594 129.699219 126.046875 129.707031 126.039062 C 129.6875 126.027344 129.675781 126.019531 129.65625 126.019531 C 129.65625 126.015625 129.648438 126.027344 129.644531 126.03125 Z M 129.628906 125.832031 C 129.632812 125.796875 129.636719 125.78125 129.644531 125.742188 C 129.59375 125.78125 129.589844 125.796875 129.628906 125.832031 Z M 129.859375 126.265625 C 129.875 126.289062 129.882812 126.304688 129.898438 126.328125 C 129.914062 126.304688 129.921875 126.28125 129.9375 126.261719 C 129.933594 126.257812 129.925781 126.253906 129.925781 126.25 C 129.902344 126.25 129.878906 126.257812 129.859375 126.265625 Z M 129.203125 125.914062 C 129.230469 125.925781 129.230469 125.980469 129.300781 125.945312 C 129.265625 125.921875 129.238281 125.910156 129.210938 125.894531 C 129.207031 125.902344 129.203125 125.910156 129.203125 125.914062 Z M 129.90625 125.691406 C 129.914062 125.699219 129.917969 125.703125 129.921875 125.707031 C 129.945312 125.691406 129.976562 125.679688 130.019531 125.660156 C 129.984375 125.648438 129.957031 125.628906 129.945312 125.636719 C 129.925781 125.648438 129.921875 125.671875 129.90625 125.691406 Z M 132.453125 125.21875 C 132.453125 125.226562 132.453125 125.234375 132.453125 125.238281 C 132.472656 125.238281 132.492188 125.238281 132.511719 125.238281 C 132.511719 125.234375 132.511719 125.230469 132.511719 125.226562 C 132.492188 125.226562 132.472656 125.226562 132.453125 125.21875 Z M 131.195312 126.039062 C 131.25 126.050781 131.28125 126.058594 131.3125 126.070312 C 131.289062 126.039062 131.265625 126.015625 131.195312 126.039062 Z M 131.382812 125.757812 C 131.441406 125.691406 131.441406 125.691406 131.363281 125.679688 C 131.367188 125.703125 131.371094 125.71875 131.382812 125.757812 Z M 130.367188 126.046875 C 130.398438 126.058594 130.417969 126.070312 130.445312 126.078125 C 130.453125 126.046875 130.457031 126.019531 130.460938 125.992188 C 130.457031 125.988281 130.453125 125.988281 130.445312 125.980469 C 130.417969 126 130.398438 126.019531 130.367188 126.046875 Z M 130.367188 126.046875 " fill-opacity="1" fill-rule="nonzero"/></g><g clip-path="url(#5b5f6ad8af)"><path fill="#372a18" d="M 370.449219 195.949219 C 368.78125 268.722656 340.613281 305.207031 340.332031 305.570312 C 340.144531 305.804688 339.886719 305.929688 339.613281 305.953125 C 339.496094 306.132812 339.441406 306.234375 339.441406 306.234375 C 339.441406 306.234375 339.449219 306.132812 339.464844 305.953125 C 339.265625 305.9375 339.0625 305.875 338.890625 305.742188 C 338.4375 305.382812 338.359375 304.738281 338.71875 304.285156 C 338.75 304.246094 339.070312 303.835938 339.613281 303.046875 C 339.800781 298.046875 339.871094 287.828125 338.132812 277.425781 C 337.847656 278.554688 337.542969 279.652344 337.230469 280.726562 C 335.511719 288.980469 332.527344 297.695312 327.433594 305.160156 C 319.324219 317.050781 313.0625 323.617188 309.316406 324.140625 C 309.144531 324.164062 308.992188 324.171875 308.84375 324.171875 C 308.117188 324.171875 307.707031 323.90625 307.550781 323.78125 C 307.105469 323.414062 307.050781 322.761719 307.417969 322.324219 C 307.574219 322.136719 307.773438 322.027344 307.992188 321.980469 C 301.464844 290.953125 281.847656 267.421875 277.90625 262.617188 C 275.8125 270.40625 274.503906 281.269531 278.171875 292.679688 C 278.34375 293.226562 278.046875 293.8125 277.5 293.980469 C 277.398438 294.011719 277.292969 294.027344 277.183594 294.027344 C 276.746094 294.027344 276.339844 293.75 276.191406 293.3125 C 276.113281 293.078125 276.0625 292.84375 275.984375 292.613281 C 270.859375 290.992188 266.175781 288.878906 261.910156 286.378906 C 262.066406 286.753906 261.988281 287.207031 261.675781 287.511719 C 261.472656 287.710938 261.207031 287.804688 260.941406 287.804688 C 260.679688 287.804688 260.40625 287.703125 260.203125 287.503906 C 258.394531 285.671875 256.730469 283.792969 255.1875 281.878906 C 222.664062 257.167969 217.957031 208.222656 217.3125 197.4375 C 214.398438 207.15625 211.664062 220.257812 213.589844 231.222656 C 213.691406 231.785156 213.308594 232.320312 212.75 232.421875 C 212.726562 232.429688 212.695312 232.429688 212.671875 232.429688 C 214.3125 249.519531 219.984375 266.144531 225.542969 278.980469 C 230.535156 290.5 235.445312 298.972656 237.265625 302.003906 C 237.578125 302.074219 237.890625 302.152344 238.207031 302.207031 C 238.769531 302.316406 239.144531 302.851562 239.035156 303.414062 C 238.941406 303.914062 238.503906 304.253906 238.015625 304.253906 C 237.953125 304.253906 237.882812 304.246094 237.820312 304.238281 C 225.542969 301.910156 215.949219 294.394531 209.5 287.601562 C 214.65625 298.203125 224.21875 312.644531 229.695312 320.617188 C 231.105469 322.683594 232.242188 324.308594 232.953125 325.324219 C 233.550781 325.425781 233.894531 325.472656 233.917969 325.480469 C 234.484375 325.550781 234.882812 326.070312 234.8125 326.640625 C 234.75 327.160156 234.296875 327.542969 233.785156 327.542969 C 233.738281 327.542969 233.699219 327.542969 233.652344 327.535156 C 233.441406 327.503906 212.054688 324.628906 187.660156 308.484375 C 187.046875 308.078125 186.4375 307.667969 185.839844 307.261719 C 187.535156 312.621094 193.417969 319.832031 195.761719 322.574219 C 196.113281 322.605469 196.460938 322.636719 196.8125 322.660156 C 197.382812 322.699219 197.816406 323.195312 197.769531 323.765625 C 197.730469 324.308594 197.28125 324.730469 196.734375 324.730469 C 196.710938 324.730469 196.6875 324.730469 196.664062 324.730469 C 168.261719 322.738281 150.144531 310.523438 149.964844 310.398438 C 149.535156 310.105469 149.414062 309.550781 149.636719 309.09375 C 129.386719 298.90625 116.328125 285.625 107.90625 272.953125 C 107.890625 272.960938 107.882812 272.976562 107.867188 272.984375 C 107.703125 273.085938 107.527344 273.125 107.347656 273.125 C 106.988281 273.125 106.644531 272.945312 106.449219 272.617188 C 98.957031 259.921875 94.644531 246.480469 92.214844 234.253906 C 87.601562 262.289062 96.550781 294.917969 98.625 301.886719 C 98.902344 302.027344 99.183594 302.167969 99.472656 302.300781 C 99.996094 302.542969 100.21875 303.15625 99.980469 303.679688 C 99.800781 304.058594 99.425781 304.277344 99.035156 304.277344 C 98.886719 304.277344 98.742188 304.246094 98.601562 304.183594 C 89.277344 299.863281 83.359375 292.820312 79.613281 285.226562 C 78.101562 292.300781 79.285156 300.097656 81.363281 307.089844 C 84.785156 318.65625 90.648438 328.042969 90.90625 328.453125 C 82.570312 324.886719 78.429688 317.984375 76.472656 313.195312 C 77.222656 318.65625 78.839844 327.089844 82.089844 332.136719 C 82.398438 332.621094 82.261719 333.257812 81.777344 333.570312 C 81.605469 333.679688 81.410156 333.734375 81.214844 333.734375 C 80.875 333.734375 80.539062 333.570312 80.34375 333.257812 C 80.085938 332.863281 79.835938 332.433594 79.605469 332.003906 C 71.996094 328.617188 65.484375 323.84375 59.945312 318.390625 C 59.742188 318.59375 59.488281 318.695312 59.214844 318.695312 C 58.972656 318.695312 58.730469 318.609375 58.535156 318.4375 C 43.410156 305.230469 35.28125 283.21875 31.144531 267.238281 C 26.363281 292.464844 36.480469 314.046875 37.257812 315.671875 C 19.179688 284.167969 10.722656 251.691406 9.539062 220.675781 C 9.523438 220.675781 9.515625 220.675781 9.5 220.675781 C 8.960938 220.675781 8.511719 220.265625 8.464844 219.726562 C 4.617188 171.664062 31.503906 119.347656 31.773438 118.828125 C 32.039062 118.320312 32.664062 118.117188 33.167969 118.382812 C 33.175781 118.382812 33.175781 118.390625 33.183594 118.398438 C 44.835938 96.980469 60 79.136719 76.972656 66.605469 C 76.636719 66.152344 76.722656 65.515625 77.167969 65.171875 C 107.417969 41.910156 139.933594 37.5 161.914062 37.914062 C 183.953125 38.316406 200.085938 43.527344 202.460938 44.332031 C 204.820312 43.769531 219.625 40.632812 240.691406 43.980469 C 261.464844 47.28125 292.378906 57.851562 321.707031 89.433594 C 322.097656 89.855469 322.074219 90.5 321.660156 90.890625 C 327.566406 97.066406 333.507812 103.996094 339.425781 111.800781 C 340.066406 112.636719 340.679688 113.476562 341.289062 114.316406 C 341.726562 114.007812 342.332031 114.0625 342.683594 114.480469 C 342.894531 114.730469 363.703125 139.949219 368.386719 176.144531 C 368.457031 176.695312 368.074219 177.203125 367.519531 177.296875 C 368.457031 183.230469 369.015625 189.109375 369.257812 194.898438 C 369.3125 194.890625 369.367188 194.882812 369.429688 194.890625 C 370.003906 194.90625 370.457031 195.378906 370.449219 195.949219 Z M 370.449219 195.949219 " fill-opacity="1" fill-rule="nonzero"/></g><path fill="#7b5e34" d="M 339.511719 305.960938 C 339.542969 305.960938 339.574219 305.953125 339.605469 305.953125 C 339.488281 306.132812 339.433594 306.234375 339.433594 306.234375 C 339.433594 306.234375 339.441406 306.132812 339.457031 305.953125 C 339.472656 305.953125 339.488281 305.960938 339.511719 305.960938 Z M 368.378906 195.902344 C 366.898438 260.539062 344.40625 296.15625 339.597656 303.039062 C 339.785156 298.039062 339.855469 287.820312 338.117188 277.417969 C 337.832031 278.546875 337.527344 279.644531 337.214844 280.71875 C 340.464844 265.140625 339.21875 251.191406 339.132812 250.3125 C 339.078125 249.742188 338.570312 249.324219 338.003906 249.378906 C 337.433594 249.433594 337.011719 249.9375 337.066406 250.507812 C 337.097656 250.835938 339.980469 283.039062 325.703125 303.984375 C 313.195312 322.339844 309.074219 322.144531 308.734375 322.082031 C 308.5 321.941406 308.234375 321.910156 307.984375 321.964844 C 301.457031 290.9375 281.839844 267.40625 277.898438 262.601562 C 279.800781 255.539062 282.339844 251.011719 282.390625 250.917969 C 282.679688 250.421875 282.507812 249.789062 282.011719 249.503906 C 281.511719 249.214844 280.882812 249.386719 280.601562 249.882812 C 280.484375 250.085938 269.160156 270.21875 275.992188 292.605469 C 270.867188 290.984375 266.183594 288.871094 261.917969 286.371094 C 261.871094 286.25 261.792969 286.132812 261.691406 286.03125 C 239.324219 263.429688 239.066406 232.6875 239.066406 231.386719 C 239.066406 230.816406 238.605469 230.351562 238.03125 230.351562 C 237.453125 230.351562 236.992188 230.816406 236.992188 231.386719 C 236.992188 232.617188 237.21875 259.503906 255.203125 281.863281 C 222.679688 257.152344 217.972656 208.207031 217.328125 197.421875 C 219.773438 189.265625 222.34375 183.488281 222.398438 183.363281 C 222.632812 182.839844 222.398438 182.226562 221.875 181.992188 C 221.355469 181.757812 220.738281 181.992188 220.503906 182.511719 C 219.992188 183.660156 207.902344 210.777344 211.554688 231.566406 C 211.640625 232.070312 212.085938 232.421875 212.578125 232.421875 C 212.609375 232.421875 212.648438 232.414062 212.679688 232.414062 C 214.320312 249.503906 219.992188 266.128906 225.550781 278.964844 C 230.542969 290.484375 235.453125 298.957031 237.273438 301.988281 C 223.535156 299.027344 213.191406 289.042969 207.34375 281.910156 C 206.953125 281.261719 206.726562 280.835938 206.65625 280.703125 C 206.71875 280.898438 206.789062 281.109375 206.859375 281.308594 C 203.667969 277.339844 201.945312 274.394531 201.890625 274.308594 C 201.601562 273.808594 200.972656 273.636719 200.472656 273.925781 C 199.976562 274.214844 199.804688 274.847656 200.089844 275.34375 C 200.363281 275.820312 203.628906 281.402344 209.507812 287.59375 C 214.664062 298.195312 224.226562 312.636719 229.703125 320.609375 C 231.113281 322.675781 232.25 324.300781 232.960938 325.316406 C 228.589844 324.566406 209.898438 320.703125 188.8125 306.738281 C 148.421875 279.992188 148.929688 254.136719 148.9375 253.878906 C 148.960938 253.3125 148.515625 252.828125 147.949219 252.796875 C 147.425781 252.789062 146.898438 253.21875 146.875 253.785156 C 146.828125 254.867188 146.226562 280.226562 185.855469 307.238281 C 187.550781 312.597656 193.433594 319.808594 195.777344 322.550781 C 187.566406 321.894531 180.261719 320.386719 174.0625 318.585938 C 174.007812 318.570312 173.953125 318.554688 173.898438 318.539062 C 173.449219 318.40625 173.011719 318.273438 172.574219 318.140625 C 172.339844 318.070312 172.117188 318 171.882812 317.933594 C 158.875 313.859375 151.273438 308.75 151.164062 308.671875 C 150.691406 308.351562 150.050781 308.46875 149.722656 308.945312 C 149.691406 308.984375 149.691406 309.039062 149.667969 309.078125 C 129.417969 298.890625 116.359375 285.609375 107.9375 272.9375 C 108.398438 272.632812 108.554688 272.027344 108.265625 271.550781 C 86.683594 234.984375 91.910156 191.984375 91.972656 191.554688 C 92.042969 190.988281 91.644531 190.464844 91.078125 190.394531 C 90.5 190.324219 89.984375 190.722656 89.917969 191.292969 C 89.878906 191.578125 87.554688 210.636719 92.246094 234.238281 C 87.632812 262.273438 96.582031 294.902344 98.65625 301.871094 C 71.863281 288.640625 75.632812 250.910156 75.679688 250.523438 C 75.742188 249.953125 75.328125 249.441406 74.757812 249.378906 C 74.175781 249.316406 73.675781 249.726562 73.613281 250.296875 C 73.582031 250.570312 71.722656 269.113281 79.652344 285.203125 C 78.140625 292.277344 79.324219 300.074219 81.402344 307.066406 C 84.824219 318.632812 90.6875 328.019531 90.945312 328.429688 C 82.609375 324.863281 78.46875 317.960938 76.511719 313.171875 C 76.089844 310.113281 75.953125 307.976562 75.945312 307.921875 C 75.90625 307.355469 75.429688 306.917969 74.84375 306.957031 C 74.277344 306.996094 73.839844 307.488281 73.878906 308.054688 C 73.917969 308.710938 74.914062 323.390625 79.652344 331.988281 C 72.042969 328.601562 65.53125 323.828125 59.992188 318.375 C 60.007812 318.359375 60.03125 318.34375 60.046875 318.328125 C 60.421875 317.902344 60.382812 317.246094 59.945312 316.863281 C 34.84375 294.957031 29.4375 247.867188 29.382812 247.398438 C 29.320312 246.832031 28.816406 246.417969 28.238281 246.480469 C 27.671875 246.542969 27.257812 247.054688 27.320312 247.625 C 27.34375 247.820312 28.285156 256.050781 31.183594 267.238281 C 26.402344 292.464844 36.519531 314.046875 37.296875 315.671875 C 19.179688 284.167969 10.722656 251.691406 9.539062 220.675781 C 9.554688 220.675781 9.570312 220.675781 9.585938 220.675781 C 10.15625 220.628906 10.582031 220.132812 10.535156 219.5625 C 7.925781 186.953125 19.671875 152.285156 27.367188 133.625 C 59.019531 155.785156 104.066406 175.996094 162.207031 174.554688 C 167.449219 174.421875 172.472656 174.164062 177.324219 173.804688 C 177.257812 185.808594 178.558594 198.839844 181.828125 212.828125 C 181.9375 213.300781 182.367188 213.628906 182.832031 213.628906 C 182.910156 213.628906 182.988281 213.621094 183.066406 213.605469 C 183.628906 213.472656 183.96875 212.917969 183.835938 212.359375 C 180.589844 198.480469 179.3125 185.550781 179.390625 173.65625 C 289.082031 164.75 298.6875 99.386719 298.6875 99.386719 C 260.421875 103.75 227.898438 102.667969 200.574219 98.523438 C 211.222656 81.09375 222 71.714844 222.125 71.605469 C 222.5625 71.230469 222.609375 70.578125 222.234375 70.140625 C 221.859375 69.707031 221.207031 69.660156 220.769531 70.03125 C 220.636719 70.140625 209.335938 79.96875 198.355469 98.179688 C 179.925781 95.242188 163.914062 90.921875 150.144531 85.960938 C 160.480469 77.632812 175.519531 68.476562 194.101562 65.492188 C 194.671875 65.398438 195.050781 64.867188 194.960938 64.308594 C 194.867188 63.738281 194.335938 63.359375 193.777344 63.453125 C 174.203125 66.589844 158.46875 76.433594 147.894531 85.140625 C 146.726562 84.707031 145.574219 84.261719 144.433594 83.824219 C 165.332031 55.695312 197.574219 51.003906 197.957031 50.957031 C 198.527344 50.878906 198.921875 50.359375 198.84375 49.789062 C 198.769531 49.222656 198.246094 48.824219 197.675781 48.902344 C 197.289062 48.957031 163.859375 53.785156 142.433594 83.039062 C 120.453125 74.230469 104.878906 64.003906 94.871094 56.074219 C 119.527344 42.523438 144.15625 39.679688 161.796875 39.984375 C 185.261719 40.40625 201.890625 46.332031 202.054688 46.386719 C 202.25 46.457031 202.46875 46.464844 202.667969 46.417969 C 202.824219 46.378906 218.253906 42.515625 240.375 46.027344 C 260.820312 49.285156 291.261719 59.695312 320.191406 90.851562 C 320.390625 91.070312 320.671875 91.179688 320.945312 91.179688 C 321.203125 91.179688 321.453125 91.085938 321.65625 90.90625 C 321.65625 90.90625 321.65625 90.898438 321.660156 90.898438 C 327.566406 97.074219 333.507812 104.003906 339.425781 111.808594 C 340.066406 112.644531 340.679688 113.484375 341.289062 114.324219 C 341.265625 114.339844 341.242188 114.339844 341.226562 114.355469 C 340.789062 114.722656 340.726562 115.375 341.09375 115.8125 C 341.296875 116.0625 361.734375 140.835938 366.328125 176.40625 C 366.398438 176.929688 366.84375 177.3125 367.355469 177.3125 C 367.402344 177.3125 367.449219 177.3125 367.488281 177.304688 C 367.496094 177.304688 367.511719 177.296875 367.519531 177.296875 C 368.457031 183.230469 369.015625 189.109375 369.257812 194.898438 C 368.765625 194.960938 368.386719 195.386719 368.378906 195.902344 Z M 322.277344 142.941406 C 322.363281 143.445312 322.800781 143.796875 323.296875 143.796875 C 323.359375 143.796875 323.414062 143.789062 323.476562 143.78125 C 324.039062 143.679688 324.417969 143.144531 324.316406 142.582031 C 316.730469 99.121094 287.875 75.953125 265.007812 64.167969 C 240.289062 51.433594 217.023438 48.902344 216.789062 48.878906 C 216.222656 48.808594 215.714844 49.238281 215.652344 49.804688 C 215.589844 50.375 216.011719 50.878906 216.578125 50.941406 C 216.804688 50.964844 239.6875 53.449219 264.066406 66.011719 C 286.511719 77.578125 314.839844 100.3125 322.277344 142.941406 Z M 322.277344 142.941406 " fill-opacity="1" fill-rule="nonzero"/><path fill="#ffffff" d="M 195.089844 108.328125 C 196.875 104.816406 198.730469 101.542969 200.582031 98.515625 C 227.90625 102.660156 260.429688 103.742188 298.695312 99.378906 C 298.695312 99.378906 289.089844 164.742188 179.398438 173.648438 C 179.59375 145.804688 187.304688 123.640625 195.089844 108.328125 Z M 147.894531 85.125 C 146.726562 84.691406 145.574219 84.246094 144.433594 83.808594 C 141.996094 87.089844 139.714844 90.679688 137.660156 94.628906 C 140.167969 91.996094 143.609375 88.65625 147.894531 85.125 Z M 33.613281 119.785156 C 33.527344 119.949219 30.863281 125.128906 27.367188 133.625 C 59.019531 155.785156 104.066406 175.996094 162.207031 174.554688 C 167.449219 174.421875 172.472656 174.164062 177.324219 173.804688 C 177.488281 145.457031 185.347656 122.886719 193.292969 107.308594 C 194.953125 104.058594 196.65625 101.015625 198.371094 98.171875 C 179.941406 95.234375 163.929688 90.914062 150.160156 85.953125 C 140.175781 93.996094 134.582031 101.265625 134.464844 101.414062 C 134.265625 101.675781 133.953125 101.824219 133.640625 101.824219 C 133.46875 101.824219 133.289062 101.777344 133.125 101.683594 C 132.675781 101.429688 132.488281 100.867188 132.691406 100.382812 C 135.441406 93.804688 138.773438 88.054688 142.457031 83.023438 C 120.476562 74.214844 104.902344 63.988281 94.894531 56.058594 C 89.386719 59.082031 83.878906 62.632812 78.453125 66.808594 C 78 67.160156 77.34375 67.074219 76.996094 66.621094 C 76.996094 66.613281 76.988281 66.605469 76.988281 66.605469 C 60.023438 79.136719 44.851562 96.980469 33.199219 118.398438 C 33.683594 118.664062 33.878906 119.277344 33.613281 119.785156 Z M 33.613281 119.785156 " fill-opacity="1" fill-rule="nonzero"/></svg>