<svg xmlns="http://www.w3.org/2000/svg" xmlns:xlink="http://www.w3.org/1999/xlink" width="500" zoomAndPan="magnify" viewBox="0 0 375 374.999991" height="500" preserveAspectRatio="xMidYMid meet" version="1.0"><defs><clipPath id="27db69f892"><path d="M 98.1875 123.488281 L 110.1875 123.488281 L 110.1875 130.238281 L 98.1875 130.238281 Z M 98.1875 123.488281 " clip-rule="nonzero"/></clipPath><clipPath id="f605be29b1"><path d="M 98.1875 124 L 110 124 L 110 130 L 98.1875 130 Z M 98.1875 124 " clip-rule="nonzero"/></clipPath><clipPath id="d71ad39675"><path d="M 17 5 L 352 5 L 352 371.523438 L 17 371.523438 Z M 17 5 " clip-rule="nonzero"/></clipPath></defs><g clip-path="url(#27db69f892)"><path fill="#353535" d="M 110.210938 127.402344 C 109.460938 127.613281 109.226562 127.035156 108.976562 126.703125 C 108.550781 126.148438 108.0625 126.078125 107.398438 126.148438 C 104.226562 126.464844 101.386719 127.410156 99.207031 129.714844 C 98.941406 129.996094 98.582031 130.09375 98.214844 130.179688 L 98.210938 130.179688 C 98.707031 128.820312 99.867188 127.980469 101.070312 127.285156 C 102.914062 126.226562 104.882812 125.402344 107.148438 125.578125 C 107.914062 125.636719 108.484375 125.496094 108.566406 124.585938 C 108.613281 124.039062 109.101562 123.703125 109.882812 123.535156 C 109.058594 124.957031 109.644531 126.152344 110.210938 127.402344 Z M 98.1875 130.210938 L 98.214844 130.179688 C 98.214844 130.179688 98.210938 130.179688 98.210938 130.179688 C 98.214844 130.179688 98.1875 130.210938 98.1875 130.210938 Z M 98.1875 130.210938 " fill-opacity="1" fill-rule="nonzero"/></g><g clip-path="url(#f605be29b1)"><path fill="#ffffff" d="M 102.046875 127.09375 C 102.054688 127.09375 102.066406 127.09375 102.074219 127.089844 C 102.074219 127.105469 102.074219 127.125 102.074219 127.140625 C 102.070312 127.140625 102.066406 127.140625 102.0625 127.144531 C 102.054688 127.128906 102.050781 127.113281 102.046875 127.09375 Z M 101.496094 127.15625 C 101.550781 127.152344 101.597656 127.152344 101.648438 127.152344 C 101.5625 127.105469 101.546875 127.105469 101.496094 127.15625 Z M 101.800781 127.667969 C 101.800781 127.671875 101.8125 127.679688 101.816406 127.6875 C 101.828125 127.675781 101.835938 127.671875 101.847656 127.664062 C 101.832031 127.652344 101.828125 127.648438 101.816406 127.644531 C 101.8125 127.652344 101.800781 127.660156 101.800781 127.667969 Z M 101.609375 127.703125 C 101.617188 127.703125 101.628906 127.707031 101.628906 127.707031 C 101.636719 127.695312 101.636719 127.675781 101.640625 127.664062 C 101.636719 127.664062 101.625 127.664062 101.621094 127.660156 C 101.617188 127.671875 101.609375 127.691406 101.609375 127.703125 Z M 101.617188 127.523438 C 101.605469 127.523438 101.597656 127.523438 101.585938 127.523438 C 101.589844 127.542969 101.597656 127.5625 101.597656 127.585938 C 101.605469 127.585938 101.609375 127.585938 101.621094 127.582031 C 101.621094 127.566406 101.621094 127.542969 101.617188 127.523438 Z M 103.6875 126.136719 C 103.691406 126.15625 103.703125 126.179688 103.707031 126.199219 C 103.710938 126.199219 103.71875 126.199219 103.722656 126.195312 C 103.71875 126.171875 103.707031 126.152344 103.703125 126.128906 C 103.695312 126.132812 103.691406 126.136719 103.6875 126.136719 Z M 101.3125 127.898438 C 101.273438 127.902344 101.25 127.902344 101.222656 127.90625 C 101.25 127.933594 101.277344 127.949219 101.3125 127.898438 Z M 104.128906 126.722656 C 104.195312 126.730469 104.195312 126.730469 104.230469 126.707031 C 104.222656 126.703125 104.210938 126.695312 104.203125 126.699219 C 104.183594 126.699219 104.164062 126.707031 104.128906 126.722656 Z M 102.949219 126.800781 C 102.988281 126.804688 103.019531 126.808594 103.058594 126.8125 C 103.019531 126.738281 103.015625 126.734375 102.949219 126.800781 Z M 102.417969 126.929688 C 102.449219 126.933594 102.476562 126.933594 102.503906 126.9375 C 102.546875 126.941406 102.542969 126.914062 102.53125 126.875 C 102.496094 126.90625 102.441406 126.863281 102.417969 126.929688 Z M 102.167969 127.007812 C 102.179688 127.011719 102.183594 127.019531 102.1875 127.023438 C 102.203125 127.011719 102.214844 126.996094 102.222656 126.984375 C 102.222656 126.984375 102.214844 126.972656 102.207031 126.96875 C 102.199219 126.984375 102.183594 126.992188 102.167969 127.007812 Z M 102.832031 127.113281 C 102.84375 127.070312 102.851562 127.042969 102.863281 127 C 102.804688 127.046875 102.804688 127.046875 102.832031 127.113281 Z M 99.277344 129.519531 C 99.324219 129.519531 99.332031 129.480469 99.328125 129.445312 C 99.285156 129.441406 99.246094 129.433594 99.191406 129.433594 C 99.195312 129.496094 99.238281 129.519531 99.277344 129.519531 Z M 99.351562 128.710938 C 99.359375 128.71875 99.363281 128.726562 99.363281 128.734375 C 99.382812 128.722656 99.402344 128.71875 99.417969 128.710938 C 99.410156 128.699219 99.402344 128.6875 99.402344 128.6875 C 99.386719 128.695312 99.367188 128.699219 99.351562 128.710938 Z M 104.300781 126.679688 C 104.300781 126.691406 104.320312 126.699219 104.324219 126.707031 C 104.332031 126.699219 104.34375 126.691406 104.347656 126.679688 C 104.347656 126.671875 104.339844 126.660156 104.328125 126.644531 C 104.3125 126.660156 104.300781 126.671875 104.300781 126.679688 Z M 99.058594 129.789062 C 99.070312 129.789062 99.078125 129.789062 99.082031 129.792969 C 99.089844 129.773438 99.09375 129.753906 99.09375 129.734375 C 99.070312 129.738281 99.058594 129.746094 99.054688 129.757812 C 99.054688 129.765625 99.058594 129.78125 99.058594 129.789062 Z M 98.871094 129.328125 C 98.890625 129.339844 98.910156 129.34375 98.9375 129.351562 C 98.9375 129.34375 98.941406 129.339844 98.941406 129.328125 C 98.921875 129.324219 98.902344 129.316406 98.882812 129.3125 C 98.878906 129.316406 98.871094 129.320312 98.871094 129.328125 Z M 98.59375 129.886719 C 98.621094 129.839844 98.640625 129.804688 98.671875 129.761719 C 98.59375 129.773438 98.582031 129.792969 98.59375 129.886719 Z M 100.574219 127.964844 C 100.578125 127.980469 100.582031 127.992188 100.585938 128.007812 C 100.585938 128.007812 100.597656 128.007812 100.605469 128.007812 C 100.601562 127.988281 100.597656 127.96875 100.59375 127.957031 C 100.585938 127.960938 100.578125 127.960938 100.574219 127.964844 Z M 100.394531 128.347656 C 100.414062 128.292969 100.414062 128.292969 100.367188 128.265625 C 100.375 128.296875 100.386719 128.324219 100.394531 128.347656 Z M 100.722656 128.386719 C 100.734375 128.355469 100.742188 128.328125 100.757812 128.289062 C 100.71875 128.304688 100.691406 128.320312 100.65625 128.332031 C 100.683594 128.351562 100.699219 128.371094 100.722656 128.386719 Z M 100.246094 128.613281 C 100.25 128.617188 100.25 128.628906 100.253906 128.632812 C 100.273438 128.621094 100.292969 128.613281 100.3125 128.605469 C 100.308594 128.601562 100.304688 128.59375 100.304688 128.585938 C 100.285156 128.59375 100.265625 128.605469 100.246094 128.613281 Z M 99.863281 128.472656 C 99.867188 128.488281 99.867188 128.507812 99.871094 128.527344 C 99.882812 128.527344 99.886719 128.523438 99.894531 128.523438 C 99.890625 128.503906 99.886719 128.484375 99.886719 128.464844 C 99.875 128.464844 99.871094 128.472656 99.863281 128.472656 Z M 100.125 128.367188 C 100.121094 128.367188 100.117188 128.375 100.113281 128.382812 C 100.136719 128.394531 100.160156 128.40625 100.195312 128.425781 C 100.191406 128.367188 100.164062 128.359375 100.125 128.367188 Z M 108.722656 125.007812 C 108.722656 124.996094 108.726562 124.980469 108.726562 124.964844 C 108.71875 124.964844 108.707031 124.964844 108.703125 124.964844 C 108.703125 124.976562 108.703125 124.992188 108.703125 125.003906 C 108.707031 125.003906 108.71875 125.003906 108.722656 125.007812 Z M 109.09375 125.777344 C 109.09375 125.785156 109.105469 125.796875 109.109375 125.808594 C 109.121094 125.804688 109.128906 125.792969 109.148438 125.785156 C 109.132812 125.769531 109.125 125.761719 109.113281 125.757812 C 109.109375 125.753906 109.09375 125.765625 109.09375 125.777344 Z M 109.011719 125.496094 C 109 125.523438 108.996094 125.550781 109.054688 125.570312 C 109.046875 125.535156 109.039062 125.515625 109.035156 125.492188 C 109.027344 125.492188 109.015625 125.496094 109.011719 125.496094 Z M 109.007812 125.136719 C 108.976562 125.148438 108.949219 125.152344 108.910156 125.160156 C 108.953125 125.203125 108.980469 125.210938 109.007812 125.164062 C 109.011719 125.164062 109.007812 125.152344 109.007812 125.136719 Z M 108.589844 126.183594 C 108.625 126.179688 108.644531 126.179688 108.667969 126.179688 C 108.664062 126.160156 108.660156 126.144531 108.652344 126.117188 C 108.628906 126.144531 108.613281 126.15625 108.589844 126.183594 Z M 108.703125 125.175781 C 108.761719 125.1875 108.804688 125.179688 108.824219 125.105469 C 108.703125 125.085938 108.703125 125.085938 108.703125 125.175781 Z M 109.300781 124.957031 C 109.300781 124.972656 109.300781 124.980469 109.300781 124.996094 C 109.304688 125.007812 109.308594 125.019531 109.316406 125.03125 C 109.320312 125.03125 109.324219 125.027344 109.328125 125.027344 C 109.324219 125.003906 109.324219 124.980469 109.320312 124.964844 C 109.316406 124.957031 109.304688 124.957031 109.300781 124.957031 Z M 109.359375 125.691406 C 109.363281 125.699219 109.367188 125.703125 109.375 125.710938 C 109.394531 125.699219 109.414062 125.679688 109.433594 125.664062 C 109.429688 125.660156 109.417969 125.652344 109.414062 125.648438 C 109.398438 125.660156 109.378906 125.675781 109.359375 125.691406 Z M 109.179688 124.578125 C 109.179688 124.582031 109.179688 124.589844 109.179688 124.59375 C 109.199219 124.59375 109.222656 124.59375 109.261719 124.59375 C 109.230469 124.578125 109.222656 124.566406 109.210938 124.566406 C 109.203125 124.566406 109.1875 124.578125 109.179688 124.578125 Z M 105.191406 126.207031 C 105.199219 126.207031 105.207031 126.207031 105.214844 126.210938 C 105.214844 126.199219 105.21875 126.179688 105.21875 126.167969 C 105.214844 126.167969 105.207031 126.167969 105.199219 126.160156 C 105.195312 126.175781 105.195312 126.195312 105.191406 126.207031 Z M 109.402344 126.546875 C 109.410156 126.546875 109.417969 126.546875 109.421875 126.546875 C 109.429688 126.519531 109.429688 126.488281 109.433594 126.460938 C 109.421875 126.460938 109.414062 126.460938 109.402344 126.460938 C 109.402344 126.492188 109.402344 126.519531 109.402344 126.546875 Z M 108.957031 124.828125 C 108.988281 124.855469 109.007812 124.871094 109.035156 124.898438 C 109.039062 124.835938 109.019531 124.824219 108.957031 124.828125 Z M 105.710938 125.679688 C 105.707031 125.714844 105.707031 125.75 105.773438 125.777344 C 105.753906 125.730469 105.746094 125.703125 105.730469 125.675781 C 105.726562 125.679688 105.71875 125.679688 105.710938 125.679688 Z M 105.597656 126.03125 C 105.613281 126.042969 105.628906 126.050781 105.640625 126.058594 C 105.640625 126.058594 105.652344 126.046875 105.660156 126.039062 C 105.640625 126.027344 105.632812 126.019531 105.613281 126.019531 C 105.613281 126.015625 105.601562 126.027344 105.597656 126.03125 Z M 105.582031 125.832031 C 105.585938 125.796875 105.59375 125.78125 105.597656 125.742188 C 105.546875 125.78125 105.542969 125.796875 105.582031 125.832031 Z M 105.8125 126.265625 C 105.828125 126.289062 105.835938 126.304688 105.851562 126.328125 C 105.867188 126.304688 105.875 126.28125 105.890625 126.261719 C 105.886719 126.257812 105.882812 126.253906 105.882812 126.25 C 105.855469 126.25 105.832031 126.257812 105.8125 126.265625 Z M 105.15625 125.914062 C 105.1875 125.925781 105.1875 125.980469 105.253906 125.945312 C 105.21875 125.921875 105.191406 125.910156 105.167969 125.894531 C 105.160156 125.902344 105.15625 125.910156 105.15625 125.914062 Z M 105.863281 125.691406 C 105.867188 125.699219 105.871094 125.703125 105.875 125.707031 C 105.902344 125.691406 105.929688 125.679688 105.976562 125.660156 C 105.941406 125.648438 105.910156 125.628906 105.902344 125.636719 C 105.882812 125.648438 105.875 125.671875 105.863281 125.691406 Z M 108.410156 125.21875 C 108.410156 125.226562 108.410156 125.234375 108.410156 125.238281 C 108.429688 125.238281 108.449219 125.238281 108.46875 125.238281 C 108.46875 125.234375 108.46875 125.230469 108.46875 125.226562 C 108.449219 125.226562 108.429688 125.226562 108.410156 125.21875 Z M 107.148438 126.039062 C 107.203125 126.050781 107.234375 126.058594 107.269531 126.070312 C 107.242188 126.039062 107.21875 126.015625 107.148438 126.039062 Z M 107.335938 125.757812 C 107.394531 125.691406 107.394531 125.691406 107.316406 125.679688 C 107.320312 125.703125 107.328125 125.71875 107.335938 125.757812 Z M 106.324219 126.046875 C 106.351562 126.058594 106.371094 126.070312 106.402344 126.078125 C 106.40625 126.046875 106.410156 126.019531 106.414062 125.992188 C 106.410156 125.988281 106.40625 125.988281 106.402344 125.980469 C 106.371094 126 106.351562 126.019531 106.324219 126.046875 Z M 106.324219 126.046875 " fill-opacity="1" fill-rule="nonzero"/></g><g clip-path="url(#d71ad39675)"><path fill="#372a18" d="M 344.453125 265.265625 C 344.453125 265.265625 340.179688 291.148438 313.539062 292.507812 C 309.953125 292.695312 306.65625 292.457031 303.625 291.9375 C 307.921875 297.035156 312.214844 303.207031 315.890625 309.695312 C 316.355469 309.4375 316.933594 309.59375 317.203125 310.054688 C 317.769531 311.035156 330.964844 334.191406 326.441406 346.808594 C 326.296875 347.203125 325.925781 347.449219 325.53125 347.449219 C 325.433594 347.449219 325.339844 347.425781 325.234375 347.398438 C 324.773438 348.707031 324.148438 349.914062 323.34375 350.992188 C 320.128906 355.285156 315.9375 357.839844 311.359375 359.253906 C 311.367188 359.292969 311.398438 359.320312 311.402344 359.359375 C 311.492188 359.886719 311.144531 360.386719 310.613281 360.476562 C 306.394531 361.210938 302.496094 361.496094 298.996094 361.496094 C 287.734375 361.496094 280.648438 358.5625 280.269531 358.398438 C 279.820312 358.210938 279.582031 357.722656 279.71875 357.253906 C 279.84375 356.785156 280.296875 356.484375 280.78125 356.550781 C 280.855469 356.558594 288.0625 357.46875 298.824219 352.988281 C 309.117188 348.707031 306.910156 336.945312 306.8125 336.449219 C 306.707031 335.925781 307.042969 335.429688 307.554688 335.316406 C 307.480469 335.011719 307.414062 334.707031 307.324219 334.386719 C 306.433594 331.050781 304.988281 328.394531 303.171875 326.199219 C 303.132812 326.226562 303.113281 326.273438 303.066406 326.296875 C 302.910156 326.390625 302.734375 326.445312 302.554688 326.445312 C 302.234375 326.445312 301.914062 326.28125 301.734375 325.988281 C 298.109375 320.199219 286.1875 316.871094 286.066406 316.835938 C 285.523438 316.683594 273.0625 313.097656 267.890625 303.058594 C 265.671875 306.675781 263.824219 310.105469 262.695312 313.410156 C 263.199219 313.574219 263.476562 314.117188 263.320312 314.625 C 263.191406 315.019531 260.304688 324.417969 267.59375 330.925781 C 269.644531 332.761719 272.386719 333.515625 275.742188 333.171875 C 283.039062 332.429688 290.75 326.867188 293.511719 323.140625 C 293.832031 322.707031 294.433594 322.617188 294.863281 322.9375 C 295.296875 323.257812 295.386719 323.859375 295.066406 324.292969 C 294.679688 324.820312 294.210938 325.355469 293.695312 325.894531 C 292.765625 328.75 290.5625 333.828125 285.925781 337.460938 C 286.199219 337.824219 286.199219 338.339844 285.878906 338.6875 C 282.457031 342.394531 277.582031 343.242188 273.84375 343.242188 C 270.867188 343.242188 268.625 342.707031 268.417969 342.65625 C 267.90625 342.527344 267.585938 342 267.710938 341.488281 C 267.734375 341.414062 267.769531 341.351562 267.808594 341.285156 C 267.144531 341.175781 266.46875 341.054688 265.769531 340.898438 C 257.484375 339.082031 251.894531 334.652344 248.730469 328.789062 C 242.582031 336.054688 232.824219 335.292969 232.824219 335.292969 C 241.90625 331.832031 243.714844 321.992188 241.011719 312.277344 C 239.8125 307.976562 237.730469 303.710938 234.996094 300.027344 C 232.667969 296.871094 229.863281 294.148438 226.726562 292.21875 C 211.699219 282.972656 199.097656 261.613281 215.175781 240.300781 C 224.226562 228.300781 227.710938 215.449219 229.035156 206.5 C 230.078125 199.554688 229.800781 194.964844 229.800781 194.964844 L 229.808594 194.957031 C 227.859375 189.523438 226.875 183.746094 226.578125 177.753906 C 226.5625 177.753906 226.550781 177.753906 226.535156 177.753906 C 226.066406 177.753906 225.648438 177.410156 225.582031 176.929688 C 223.863281 165.25 227.441406 149.113281 231.589844 130.429688 C 232.691406 125.472656 233.820312 120.351562 234.886719 115.167969 C 236.648438 106.566406 237.179688 99.84375 237.140625 94.761719 C 223.652344 87.257812 216.402344 77.511719 213.007812 71.699219 C 212.445312 74.058594 211.617188 78.527344 212.601562 81.703125 C 213.136719 82.21875 213.714844 82.695312 214.34375 83.109375 C 214.789062 83.402344 214.914062 84.003906 214.625 84.445312 C 214.4375 84.726562 214.132812 84.882812 213.8125 84.882812 C 213.636719 84.882812 213.449219 84.832031 213.285156 84.726562 C 206.636719 80.386719 204.851562 70.808594 204.375 65.597656 C 201.070312 71.179688 194.214844 80.050781 182.535156 83.839844 C 182.4375 83.871094 182.335938 83.886719 182.238281 83.886719 C 181.828125 83.886719 181.449219 83.625 181.324219 83.214844 C 181.160156 82.710938 181.433594 82.164062 181.941406 82.003906 C 182.863281 81.703125 183.742188 81.363281 184.605469 81.003906 C 186.90625 78.949219 190.335938 75.355469 192.519531 70.605469 C 192.464844 70.582031 192.414062 70.570312 192.363281 70.53125 C 191.921875 70.234375 191.804688 69.636719 192.09375 69.199219 C 192.109375 69.167969 192.769531 68.136719 193.402344 66.042969 C 192.695312 65.945312 191.4375 65.796875 189.71875 65.699219 C 189.6875 66.238281 189.242188 66.660156 188.707031 66.617188 C 188.542969 66.601562 171.953125 65.886719 158.859375 72.265625 C 158.726562 72.332031 158.574219 72.363281 158.433594 72.363281 C 158.078125 72.363281 157.734375 72.160156 157.5625 71.820312 C 157.554688 71.8125 157.5625 71.796875 157.554688 71.789062 C 157.398438 71.855469 157.25 71.921875 157.09375 71.992188 L 150.46875 76.136719 C 150.460938 76.425781 150.34375 76.710938 150.089844 76.894531 L 144.597656 80.945312 C 144.425781 81.070312 144.226562 81.132812 144.023438 81.132812 C 143.726562 81.132812 143.4375 80.996094 143.25 80.738281 C 143.234375 80.714844 143.234375 80.691406 143.21875 80.667969 L 141.730469 81.601562 C 141.070312 82.136719 140.414062 82.703125 139.757812 83.28125 C 140.085938 83.65625 140.09375 84.21875 139.738281 84.585938 C 139.582031 84.75 124.328125 100.65625 119.667969 111.863281 C 119.878906 113.613281 120.019531 114.855469 120.054688 115.273438 C 120.070312 115.460938 120.117188 115.816406 120.167969 116.339844 C 122.871094 140.746094 122.570312 162.285156 119.347656 176.996094 C 119.253906 177.449219 118.851562 177.753906 118.402344 177.753906 C 118.402344 177.753906 118.394531 177.753906 118.394531 177.753906 C 117.898438 180.515625 117.300781 183.1875 116.601562 185.75 C 115.417969 193.296875 115.070312 205.503906 122.101562 215.699219 C 133.171875 231.726562 156.871094 232.253906 151.527344 255.097656 C 146.183594 277.941406 143.964844 307.992188 164.164062 311.921875 C 164.164062 311.921875 161.34375 313.746094 157.160156 314.199219 C 159.371094 319.5 160.710938 324.097656 160.832031 327.335938 C 161.546875 346.699219 154.019531 361.570312 138.457031 371.527344 C 138.300781 371.632812 138.113281 371.683594 137.933594 371.683594 C 137.660156 371.683594 137.382812 371.566406 137.191406 371.34375 C 136.878906 370.96875 136.894531 370.425781 137.222656 370.070312 C 137.347656 369.9375 149.597656 356.03125 138.246094 326.078125 C 138.0625 325.582031 138.308594 325.023438 138.804688 324.835938 C 138.8125 324.835938 138.820312 324.835938 138.828125 324.828125 C 136.015625 316.953125 133.15625 311.453125 133.15625 311.453125 C 132.589844 324.21875 127.335938 331.585938 120.835938 335.792969 C 121.113281 336.238281 120.988281 336.820312 120.546875 337.109375 C 114.117188 341.300781 106.382812 342.222656 100.824219 342.222656 C 96.660156 342.222656 93.714844 341.703125 93.4375 341.65625 C 93.058594 341.589844 92.753906 341.300781 92.671875 340.921875 C 92.589844 340.542969 92.738281 340.148438 93.050781 339.925781 C 93.183594 339.828125 106.242188 330.246094 106.21875 313.320312 C 106.195312 297.949219 89.136719 277.695312 85.5625 273.625 C 84.78125 274.914062 83.800781 276.125 82.5625 277.175781 C 80.726562 278.738281 77.984375 280.832031 74.808594 283.25 C 65.925781 290.023438 52.515625 300.257812 51.480469 305.148438 C 51.382812 305.601562 50.980469 305.914062 50.535156 305.914062 C 50.46875 305.914062 50.402344 305.90625 50.332031 305.890625 C 50.265625 305.878906 50.214844 305.839844 50.15625 305.816406 C 48.300781 310.375 48.585938 315.332031 52.441406 320.875 C 52.847656 320.570312 53.429688 320.636719 53.757812 321.039062 C 53.816406 321.113281 59.964844 328.683594 64.945312 329.316406 C 65.464844 329.382812 65.832031 329.851562 65.777344 330.375 C 75.929688 330.933594 81.945312 315.40625 81.945312 315.40625 C 81.945312 315.40625 84.046875 326.199219 76.246094 334.625 C 76.617188 334.988281 76.640625 335.578125 76.289062 335.964844 C 68.273438 344.71875 55.699219 344.992188 54.175781 344.992188 C 54.109375 344.992188 54.0625 344.992188 54.039062 344.992188 C 53.535156 344.984375 53.132812 344.582031 53.101562 344.078125 C 46.910156 344.359375 41.75 342.476562 37.71875 339.148438 C 37.53125 339.367188 37.261719 339.484375 36.988281 339.484375 C 36.785156 339.484375 36.585938 339.425781 36.414062 339.292969 C 23.96875 329.996094 24.296875 308.585938 29.351562 296.722656 C 31.679688 291.25 37.65625 284.523438 44.164062 277.90625 C 28.597656 277.109375 17.269531 261.820312 17.269531 261.820312 C 38.402344 263.585938 50.007812 248.304688 54.292969 241.03125 C 48.09375 234.332031 39.933594 225.109375 30.59375 213.550781 C 9.097656 186.9375 33.601562 165.859375 33.855469 165.652344 C 34.242188 165.332031 34.800781 165.367188 35.148438 165.71875 C 36.699219 164.175781 38.34375 162.695312 40.0625 161.257812 C 40.046875 161.238281 40.023438 161.230469 40.007812 161.207031 C 39.703125 160.769531 39.808594 160.164062 40.246094 159.859375 L 56.675781 148.367188 C 57.113281 148.0625 57.71875 148.167969 58.023438 148.605469 C 58.03125 148.621094 58.03125 148.636719 58.046875 148.648438 C 61.023438 146.78125 63.933594 144.988281 66.65625 143.246094 C 66.621094 143.1875 66.582031 143.136719 66.558594 143.074219 C 66.375 142.578125 66.621094 142.019531 67.117188 141.832031 C 67.265625 141.773438 81.730469 136.101562 82.683594 121.132812 C 83.019531 115.921875 83.152344 110.851562 83.277344 105.941406 C 83.539062 95.980469 83.808594 85.6875 85.757812 73.800781 C 85.847656 73.269531 86.335938 72.90625 86.867188 73.003906 C 88.332031 64.316406 90.894531 55.535156 95.457031 47.167969 C 97.71875 43.027344 100.472656 38.992188 103.820312 35.125 C 103.398438 34.8125 103.300781 34.214844 103.613281 33.785156 C 111.621094 22.640625 133.871094 12.210938 134.816406 11.773438 C 135.300781 11.550781 135.875 11.757812 136.097656 12.242188 C 136.113281 12.273438 136.105469 12.300781 136.117188 12.332031 C 136.484375 12.175781 136.855469 12.003906 137.21875 11.855469 C 145.289062 8.46875 153.171875 6.792969 160.675781 6.308594 C 160.667969 6.28125 160.652344 6.25 160.644531 6.214844 C 160.617188 5.683594 161.015625 5.222656 161.546875 5.1875 C 192.5625 3.265625 217.3125 22.484375 220.445312 25.03125 C 223.839844 24.652344 245.382812 22.847656 257.910156 35.949219 C 271.21875 49.855469 270.347656 69.003906 270.300781 69.816406 C 270.273438 70.285156 269.914062 70.644531 269.46875 70.703125 C 269.988281 74.476562 270.511719 78.167969 271.089844 81.75 C 271.15625 82.164062 271.230469 82.582031 271.300781 83 C 271.320312 82.992188 271.34375 82.976562 271.375 82.976562 C 271.902344 82.933594 272.371094 83.328125 272.421875 83.855469 C 272.445312 84.136719 275.035156 112.042969 287.867188 123.285156 C 288.269531 123.632812 288.308594 124.242188 287.957031 124.644531 C 287.925781 124.683594 287.882812 124.699219 287.84375 124.726562 C 292.890625 130.554688 299.496094 135.691406 308.269531 140.054688 C 308.492188 139.605469 309.03125 139.398438 309.5 139.589844 C 310.777344 140.136719 340.976562 153.070312 348.339844 173.28125 C 354.34375 189.761719 350.355469 205.964844 336.488281 221.445312 C 326.789062 232.277344 321.230469 237.742188 321.175781 237.792969 C 320.992188 237.980469 320.746094 238.066406 320.5 238.066406 C 320.253906 238.066406 320 237.972656 319.816406 237.785156 C 313.511719 244.113281 310.800781 248.296875 316.832031 254.925781 C 316.832031 254.925781 310.414062 255.785156 305.367188 253.394531 C 304.703125 257.71875 304.867188 262.484375 306.976562 266.835938 C 312.886719 279.082031 335.246094 280.0625 344.453125 265.265625 Z M 344.453125 265.265625 " fill-opacity="1" fill-rule="nonzero"/></g><path fill="#7b5e34" d="M 50.214844 305.824219 C 48.359375 310.382812 48.644531 315.339844 52.5 320.882812 C 52.484375 320.890625 52.46875 320.890625 52.460938 320.90625 C 52.046875 321.242188 51.980469 321.851562 52.3125 322.261719 C 52.582031 322.59375 59.011719 330.507812 64.757812 331.246094 C 64.804688 331.253906 64.839844 331.253906 64.886719 331.253906 C 65.363281 331.253906 65.777344 330.894531 65.847656 330.410156 C 65.847656 330.402344 65.847656 330.394531 65.847656 330.390625 C 76 330.945312 82.011719 315.421875 82.011719 315.421875 C 82.011719 315.421875 84.113281 326.214844 76.3125 334.640625 C 76.304688 334.632812 76.304688 334.625 76.296875 334.617188 C 75.902344 334.257812 75.292969 334.28125 74.933594 334.675781 C 67.371094 342.9375 54.933594 343.074219 54.175781 343.074219 C 54.121094 343.074219 54.128906 343.074219 54.121094 343.074219 C 53.59375 343.074219 53.164062 343.496094 53.15625 344.023438 C 53.15625 344.046875 53.164062 344.070312 53.167969 344.09375 C 46.976562 344.375 41.816406 342.492188 37.785156 339.164062 C 37.800781 339.140625 37.820312 339.136719 37.835938 339.113281 C 38.15625 338.679688 38.066406 338.078125 37.636719 337.757812 C 26.074219 329.144531 26.449219 308.476562 31.128906 297.472656 C 33.800781 291.191406 41.773438 282.921875 49.589844 275.195312 C 53.476562 271.847656 56.585938 268.691406 59.078125 265.800781 C 61.75 263.085938 64.074219 260.585938 65.6875 258.476562 C 66.597656 257.285156 67.289062 256.105469 67.8125 254.941406 L 84.238281 272.136719 C 83.515625 273.453125 82.585938 274.675781 81.363281 275.710938 C 79.5625 277.234375 76.847656 279.3125 73.691406 281.714844 C 61.1875 291.257812 50.742188 299.582031 49.648438 304.753906 C 49.550781 305.214844 49.804688 305.648438 50.214844 305.824219 Z M 140.09375 325.417969 C 148.371094 347.253906 144.621094 360.78125 141.441406 367.121094 C 153.679688 357.652344 159.550781 344.324219 158.925781 327.441406 C 158.8125 324.382812 157.414062 319.574219 154.914062 313.789062 C 154.316406 312.753906 153.671875 311.722656 152.964844 310.671875 C 144.105469 297.546875 132.894531 282.535156 123.5625 267.371094 C 130.542969 281.089844 136.832031 295.085938 135.324219 308.191406 C 135.261719 308.683594 134.847656 309.046875 134.363281 309.046875 C 134.324219 309.046875 134.289062 309.046875 134.25 309.042969 C 133.722656 308.980469 133.34375 308.503906 133.402344 307.96875 C 135.03125 293.78125 126.972656 278.164062 119.171875 263.0625 C 115.402344 255.769531 111.546875 248.289062 108.808594 240.984375 C 105.058594 243.53125 100.234375 245.972656 94.191406 247.550781 C 101.707031 252.714844 106.894531 258.417969 106.480469 266.890625 C 106.457031 267.402344 106.023438 267.804688 105.519531 267.804688 C 105.503906 267.804688 105.488281 267.804688 105.472656 267.804688 C 104.9375 267.773438 104.527344 267.328125 104.558594 266.792969 C 104.960938 258.664062 99.601562 253.328125 91.628906 248.140625 C 83.910156 249.730469 74.398438 249.894531 62.851562 247.246094 C 66.171875 250.648438 68.054688 252.425781 68.109375 252.480469 L 86.351562 271.570312 C 87.253906 272.554688 108.160156 295.5 108.183594 313.320312 C 108.199219 327.539062 99.773438 336.65625 95.992188 340.035156 C 100.539062 340.480469 111.339844 340.832031 119.527344 335.496094 C 119.972656 335.203125 120.578125 335.332031 120.867188 335.777344 C 120.875 335.785156 120.867188 335.792969 120.875 335.800781 C 127.371094 331.59375 132.628906 324.226562 133.195312 311.460938 C 133.195312 311.460938 136.050781 316.96875 138.867188 324.835938 C 139.363281 324.679688 139.90625 324.925781 140.09375 325.417969 Z M 243.304688 201.195312 C 236.8125 193.90625 235.078125 188.441406 234.9375 184.839844 C 234.757812 180.335938 236.953125 178.066406 237.042969 177.976562 C 237.417969 177.597656 238.035156 177.597656 238.40625 177.96875 C 238.785156 178.34375 238.785156 178.953125 238.421875 179.332031 C 238.347656 179.414062 236.695312 181.191406 236.875 184.871094 C 237.035156 188.265625 238.808594 193.527344 245.46875 200.71875 C 247.957031 200.128906 250.496094 199.382812 252.996094 198.4375 C 256.539062 197.105469 260 195.378906 263.058594 193.125 C 265.925781 191.039062 268.425781 188.503906 270.347656 185.421875 C 266.542969 182.808594 262.992188 180.164062 260.050781 176.847656 C 250.71875 166.328125 261.683594 146.671875 262.152344 145.835938 C 262.410156 145.375 263 145.210938 263.46875 145.472656 C 263.929688 145.734375 264.09375 146.328125 263.832031 146.789062 C 263.722656 146.984375 253.070312 166.074219 261.496094 175.558594 C 264.972656 179.472656 269.421875 182.472656 274.140625 185.660156 C 281.527344 190.640625 289.171875 195.789062 294.375 205.160156 C 301.542969 218.058594 303.285156 229.003906 299.746094 239.871094 C 298.320312 247.671875 301.421875 251.535156 305.367188 253.394531 C 310.421875 255.785156 316.832031 254.925781 316.832031 254.925781 C 310.792969 248.296875 313.511719 244.113281 319.816406 237.785156 C 319.816406 237.785156 319.808594 237.785156 319.808594 237.777344 C 319.433594 237.398438 319.441406 236.789062 319.824219 236.410156 C 319.875 236.355469 325.398438 230.921875 335.050781 220.152344 C 341.230469 213.25 345.375 206.21875 347.480469 199.078125 C 338.898438 206.046875 327.554688 207.519531 324.148438 207.8125 C 324.117188 207.914062 324.09375 208.027344 324.066406 208.128906 C 320.253906 222.167969 316.824219 227.824219 314.550781 231.578125 C 312.46875 235.007812 311.320312 236.90625 311.433594 242.542969 C 311.441406 243.070312 311.023438 243.515625 310.488281 243.523438 C 310.480469 243.523438 310.472656 243.523438 310.464844 243.523438 C 309.9375 243.523438 309.511719 243.105469 309.5 242.578125 C 309.378906 236.386719 310.703125 234.199219 312.894531 230.574219 C 315.109375 226.917969 318.453125 221.394531 322.195312 207.625 C 329.1875 181.878906 302.390625 167.371094 302.113281 167.230469 C 302.085938 167.214844 302.054688 167.199219 302.03125 167.175781 C 301.832031 167.042969 281.785156 153.5625 270.265625 133.539062 C 261.757812 118.757812 260.191406 98.964844 259.960938 89.445312 C 258.949219 89.964844 257.929688 90.457031 256.902344 90.910156 C 250.515625 93.746094 244.160156 95.230469 239.105469 96.011719 C 239.046875 101.050781 238.445312 107.496094 236.792969 115.558594 C 235.726562 120.753906 234.589844 125.886719 233.488281 130.847656 C 229.386719 149.34375 225.84375 165.316406 227.5 176.652344 C 227.578125 177.179688 227.210938 177.671875 226.691406 177.746094 C 226.660156 177.753906 226.625 177.753906 226.59375 177.753906 C 226.890625 183.738281 227.875 189.523438 229.824219 194.957031 C 230.769531 197.589844 231.929688 200.136719 233.367188 202.59375 C 236.234375 202.378906 239.671875 201.945312 243.304688 201.195312 Z M 320.144531 181.804688 C 322.035156 184.847656 323.589844 188.300781 324.480469 192.140625 C 323.691406 188.355469 322.128906 184.898438 320.144531 181.804688 Z M 297.246094 285.175781 C 296.226562 284.230469 295.347656 283.21875 294.605469 282.140625 C 294.605469 282.140625 294.597656 282.148438 294.597656 282.148438 C 294.433594 282.253906 294.253906 282.304688 294.066406 282.304688 C 293.753906 282.304688 293.441406 282.148438 293.257812 281.863281 C 285.507812 269.917969 291.53125 253.28125 295.816406 244.425781 C 296.792969 242.414062 297.558594 240.40625 298.15625 238.394531 C 296.109375 239.019531 292.640625 240.019531 288.160156 241.054688 C 285.6875 241.640625 282.886719 242.222656 279.867188 242.757812 C 278.667969 242.972656 277.425781 243.1875 276.160156 243.390625 C 276.828125 248.226562 276.464844 253.050781 275.074219 257.898438 C 274.953125 258.320312 274.566406 258.597656 274.140625 258.597656 C 274.054688 258.597656 273.964844 258.582031 273.875 258.558594 C 273.359375 258.410156 273.0625 257.875 273.210938 257.363281 C 274.523438 252.804688 274.863281 248.25 274.230469 243.679688 C 270.851562 244.171875 267.265625 244.582031 263.558594 244.835938 C 268.449219 260.199219 264.957031 274.527344 255.734375 286.941406 C 245.566406 300.636719 242.589844 317.421875 248.722656 328.796875 C 251.886719 334.660156 257.476562 339.089844 265.761719 340.90625 C 266.460938 341.0625 267.136719 341.183594 267.800781 341.292969 C 268 340.90625 268.433594 340.683594 268.871094 340.789062 C 268.976562 340.808594 279.070312 343.207031 284.453125 337.386719 C 284.816406 336.992188 285.425781 336.96875 285.8125 337.332031 C 285.859375 337.378906 285.878906 337.429688 285.917969 337.476562 C 290.554688 333.84375 292.757812 328.765625 293.6875 325.90625 C 289.699219 330.105469 282.308594 334.453125 275.929688 335.109375 C 275.332031 335.167969 274.753906 335.199219 274.1875 335.199219 C 271.046875 335.199219 268.394531 334.253906 266.296875 332.375 C 258.058594 325.023438 261.324219 314.480469 261.472656 314.042969 C 261.636719 313.535156 262.179688 313.261719 262.6875 313.417969 C 263.816406 310.113281 265.664062 306.679688 267.882812 303.0625 C 267.785156 302.886719 267.695312 302.707031 267.605469 302.519531 C 262.640625 292.105469 268.621094 273.3125 268.878906 272.515625 C 269.042969 272.011719 269.585938 271.726562 270.09375 271.890625 C 270.597656 272.054688 270.875 272.597656 270.710938 273.105469 C 270.652344 273.289062 264.710938 291.957031 269.339844 301.6875 C 273.941406 311.347656 286.4375 314.945312 286.566406 314.980469 C 287.078125 315.121094 299.339844 318.546875 303.359375 324.96875 C 303.609375 325.378906 303.515625 325.894531 303.15625 326.207031 C 304.972656 328.402344 306.417969 331.058594 307.308594 334.394531 C 307.390625 334.707031 307.464844 335.011719 307.539062 335.324219 C 307.546875 335.324219 307.546875 335.316406 307.554688 335.316406 C 308.085938 335.203125 308.582031 335.546875 308.695312 336.074219 C 308.722656 336.210938 311.328125 349.882812 299.554688 354.78125 C 294.417969 356.917969 290.078125 357.886719 286.839844 358.292969 C 291.984375 359.386719 300.222656 360.328125 310.273438 358.578125 C 310.765625 358.496094 311.210938 358.792969 311.351562 359.253906 C 315.921875 357.839844 320.113281 355.285156 323.335938 350.992188 C 324.140625 349.921875 324.765625 348.714844 325.226562 347.398438 C 325.21875 347.398438 325.203125 347.398438 325.195312 347.390625 C 324.699219 347.210938 324.429688 346.660156 324.617188 346.152344 C 328.835938 334.386719 315.652344 311.25 315.519531 311.019531 C 315.253906 310.558594 315.417969 309.972656 315.878906 309.703125 C 315.878906 309.703125 315.886719 309.703125 315.886719 309.703125 C 312.207031 303.214844 307.914062 297.042969 303.617188 291.945312 C 301.472656 289.382812 299.324219 287.097656 297.246094 285.175781 Z M 261.867188 88.441406 C 262.003906 97.304688 263.3125 117.625 271.929688 132.601562 C 280.007812 146.632812 292.363281 157.394531 298.824219 162.441406 C 309.035156 159.375 314.078125 151.777344 316.570312 145.277344 C 312.042969 142.800781 308.84375 141.429688 308.746094 141.386719 C 308.253906 141.175781 308.023438 140.613281 308.234375 140.121094 C 308.242188 140.097656 308.261719 140.082031 308.269531 140.066406 C 299.496094 135.707031 292.886719 130.570312 287.84375 124.742188 C 287.667969 124.890625 287.457031 124.988281 287.234375 124.988281 C 287.011719 124.988281 286.78125 124.90625 286.59375 124.75 C 273.175781 112.988281 270.597656 85.210938 270.496094 84.035156 C 270.449219 83.527344 270.808594 83.089844 271.300781 83.007812 C 271.230469 82.589844 271.15625 82.171875 271.089844 81.757812 C 268.6875 83.980469 266.097656 85.902344 263.445312 87.511719 C 262.925781 87.832031 262.398438 88.144531 261.867188 88.441406 Z M 211.105469 65.507812 C 211.601562 65.320312 212.160156 65.574219 212.347656 66.074219 C 212.398438 66.199219 216.425781 76.5625 228.066406 86.246094 C 230.875 83.988281 233.34375 81.480469 235.480469 78.777344 C 236.085938 78.011719 236.664062 77.238281 237.238281 76.441406 C 240.832031 71.351562 243.414062 65.773438 245.285156 60.230469 C 247.109375 54.765625 248.246094 49.339844 248.910156 44.472656 L 248.910156 44.457031 C 249.585938 39.648438 249.816406 35.398438 249.871094 32.175781 C 237.082031 24.925781 220.484375 26.988281 220.289062 27.015625 C 220.019531 27.054688 219.738281 26.972656 219.53125 26.792969 C 219.277344 26.578125 193.945312 5.117188 161.679688 7.136719 C 161.195312 7.160156 160.765625 6.808594 160.683594 6.324219 C 153.1875 6.792969 145.296875 8.46875 137.234375 11.855469 C 136.960938 15.398438 136.804688 20.199219 137.152344 25.683594 C 142.230469 22.148438 148.347656 19.113281 155.710938 17.125 C 189.59375 7.953125 214.484375 30.507812 214.738281 30.738281 C 215.132812 31.105469 215.152344 31.714844 214.789062 32.101562 C 214.421875 32.496094 213.8125 32.519531 213.425781 32.152344 C 213.1875 31.929688 189.054688 10.113281 156.214844 18.984375 C 148.640625 21.03125 142.417969 24.226562 137.324219 27.925781 C 137.742188 32.683594 138.554688 37.863281 140.011719 43.140625 C 140.503906 44.898438 141.054688 46.652344 141.6875 48.386719 C 144.707031 56.761719 149.539062 65.082031 157.117188 72.027344 C 157.273438 71.953125 157.429688 71.894531 157.578125 71.828125 C 157.371094 71.351562 157.5625 70.792969 158.03125 70.570312 C 171.578125 63.964844 188.117188 64.6875 188.820312 64.726562 C 189.355469 64.753906 189.765625 65.203125 189.734375 65.738281 C 191.453125 65.835938 192.710938 65.984375 193.417969 66.082031 C 194.238281 63.355469 195.003906 58.851562 194.207031 52.480469 C 194.140625 51.953125 194.519531 51.46875 195.046875 51.402344 C 195.585938 51.335938 196.0625 51.714844 196.128906 52.242188 C 197.640625 64.300781 193.886719 70.070312 193.722656 70.308594 C 193.539062 70.582031 193.230469 70.734375 192.917969 70.734375 C 192.792969 70.734375 192.660156 70.695312 192.539062 70.644531 C 190.359375 75.390625 186.921875 78.988281 184.628906 81.042969 C 199.105469 74.914062 204.992188 60.246094 205.050781 60.089844 C 205.246094 59.589844 205.804688 59.34375 206.304688 59.539062 C 206.800781 59.730469 207.046875 60.289062 206.855469 60.789062 C 206.808594 60.90625 206.578125 61.472656 206.160156 62.351562 C 206.183594 64.109375 206.5625 75.90625 212.621094 81.742188 C 211.640625 78.5625 212.464844 74.097656 213.03125 71.738281 C 211.371094 68.894531 210.636719 66.988281 210.546875 66.757812 C 210.351562 66.25 210.605469 65.695312 211.105469 65.507812 Z M 118.84375 69.667969 C 109.726562 63.765625 100.816406 56.242188 95.464844 47.167969 C 90.898438 55.535156 88.339844 64.316406 86.875 73.003906 C 87.394531 73.09375 87.75 73.582031 87.667969 74.113281 C 85.742188 85.863281 85.472656 96.101562 85.214844 105.992188 C 85.085938 110.917969 84.953125 116.011719 84.617188 121.25 C 83.582031 137.484375 67.96875 143.582031 67.8125 143.640625 C 67.699219 143.6875 67.578125 143.699219 67.46875 143.699219 C 67.140625 143.699219 66.84375 143.53125 66.664062 143.246094 C 63.933594 144.980469 61.023438 146.773438 58.050781 148.648438 C 58.320312 149.082031 58.214844 149.65625 57.800781 149.953125 L 41.363281 161.445312 C 41.191406 161.566406 41 161.617188 40.8125 161.617188 C 40.53125 161.617188 40.253906 161.492188 40.070312 161.257812 C 38.351562 162.695312 36.699219 164.175781 35.15625 165.71875 C 35.179688 165.742188 35.199219 165.746094 35.222656 165.769531 C 35.566406 166.179688 35.515625 166.789062 35.105469 167.132812 C 34.25 167.855469 16.464844 183.195312 26.871094 204.273438 C 31.734375 206.285156 38.238281 208.675781 45.824219 210.699219 C 43.121094 205.667969 42.132812 201.238281 42.75 197.085938 C 44.109375 187.871094 53.429688 181.023438 65.234375 172.335938 C 69.015625 169.550781 72.925781 166.679688 77.046875 163.410156 C 101.707031 143.847656 94.621094 119.859375 94.546875 119.621094 C 94.390625 119.113281 94.675781 118.570312 95.1875 118.414062 C 95.703125 118.257812 96.238281 118.542969 96.394531 119.054688 C 96.476562 119.308594 103.933594 144.550781 78.246094 164.929688 C 74.101562 168.21875 70.171875 171.105469 66.375 173.898438 C 54.488281 182.644531 45.890625 188.957031 44.648438 197.375 C 44.035156 201.519531 45.242188 206.054688 48.414062 211.367188 C 57.425781 213.601562 67.765625 215.21875 78.492188 215.074219 C 76.511719 211.859375 74.777344 208.316406 73.617188 204.347656 C 66.441406 179.800781 95.640625 155.394531 96.890625 154.367188 C 97.300781 154.023438 97.910156 154.085938 98.253906 154.5 C 98.597656 154.910156 98.539062 155.519531 98.121094 155.863281 C 97.824219 156.109375 68.652344 180.484375 75.476562 203.8125 C 76.691406 207.972656 78.597656 211.679688 80.753906 215.023438 C 89.03125 214.71875 97.503906 213.328125 105.742188 210.3125 C 108.003906 199.882812 113.230469 194.121094 113.574219 193.75 C 113.699219 193.617188 113.863281 193.535156 114.035156 193.488281 C 115.03125 191.070312 115.894531 188.488281 116.632812 185.769531 C 117.332031 183.210938 117.925781 180.539062 118.425781 177.777344 C 118.359375 177.777344 118.292969 177.769531 118.234375 177.753906 C 117.710938 177.640625 117.382812 177.128906 117.496094 176.609375 C 120.679688 162.101562 120.957031 140.78125 118.285156 116.585938 C 118.226562 116.039062 118.179688 115.667969 118.164062 115.476562 C 117.949219 113.042969 114.085938 82.070312 114.050781 81.757812 C 113.980469 81.226562 114.363281 80.742188 114.890625 80.675781 C 115.425781 80.609375 115.902344 80.988281 115.96875 81.519531 C 116.089844 82.449219 118.097656 98.601562 119.273438 108.285156 C 125.050781 97.171875 137.792969 83.886719 138.382812 83.273438 C 138.753906 82.894531 139.363281 82.878906 139.742188 83.253906 C 139.765625 83.273438 139.773438 83.296875 139.789062 83.320312 C 140.445312 82.746094 141.097656 82.179688 141.761719 81.636719 C 137.226562 79.71875 131.371094 77.007812 125.246094 73.539062 C 123.121094 72.339844 120.972656 71.054688 118.84375 69.667969 Z M 118.84375 69.667969 " fill-opacity="1" fill-rule="nonzero"/><path fill="#ffffff" d="M 157.117188 72.027344 L 150.492188 76.171875 C 150.5 75.964844 150.453125 75.757812 150.320312 75.585938 C 150.007812 75.152344 149.398438 75.066406 148.972656 75.386719 L 143.480469 79.433594 C 143.070312 79.730469 142.980469 80.289062 143.242188 80.714844 L 141.753906 81.644531 C 137.21875 79.722656 131.363281 77.015625 125.238281 73.546875 C 123.121094 72.339844 120.980469 71.058594 118.851562 69.675781 C 109.730469 63.773438 100.824219 56.246094 95.46875 47.175781 C 97.734375 43.035156 100.488281 39 103.835938 35.128906 C 103.84375 35.128906 103.84375 35.136719 103.84375 35.136719 C 104.015625 35.265625 104.210938 35.316406 104.410156 35.316406 C 104.707031 35.316406 105.003906 35.175781 105.191406 34.914062 C 112.902344 24.1875 135.417969 13.625 135.644531 13.523438 C 136.097656 13.3125 136.296875 12.792969 136.132812 12.332031 C 136.5 12.175781 136.871094 12.003906 137.234375 11.855469 C 136.960938 15.398438 136.804688 20.199219 137.152344 25.683594 C 118.828125 38.441406 114.125 57.722656 114.0625 57.96875 C 113.945312 58.488281 114.265625 59.007812 114.785156 59.128906 C 114.859375 59.144531 114.933594 59.152344 115.003906 59.152344 C 115.441406 59.152344 115.835938 58.851562 115.941406 58.40625 C 115.992188 58.175781 120.367188 40.238281 137.316406 27.933594 C 137.734375 32.6875 138.546875 37.871094 140.003906 43.148438 C 140.496094 44.902344 141.046875 46.660156 141.679688 48.394531 C 144.707031 56.761719 149.539062 65.082031 157.117188 72.027344 Z M 269.28125 70.726562 C 268.753906 70.695312 268.34375 70.242188 268.367188 69.707031 C 268.375 69.519531 269.230469 50.570312 256.53125 37.289062 C 254.535156 35.207031 252.273438 33.515625 249.875 32.160156 C 249.816406 35.390625 249.59375 39.632812 248.917969 44.441406 L 248.917969 44.457031 C 248.246094 49.316406 247.109375 54.75 245.292969 60.214844 C 243.421875 65.761719 240.832031 71.335938 237.246094 76.425781 C 236.679688 77.222656 236.089844 78.003906 235.488281 78.765625 C 233.34375 81.464844 230.882812 83.972656 228.074219 86.230469 C 230.6875 88.402344 233.679688 90.53125 237.105469 92.511719 C 236.785156 85.300781 235.308594 82.097656 235.289062 82.046875 C 235.058594 81.570312 235.257812 80.988281 235.734375 80.757812 C 236.210938 80.527344 236.792969 80.722656 237.023438 81.199219 C 237.15625 81.464844 239.234375 85.878906 239.113281 96.027344 C 244.167969 95.242188 250.523438 93.761719 256.910156 90.925781 C 257.9375 90.472656 258.957031 89.980469 259.96875 89.460938 C 259.886719 86.058594 259.976562 83.96875 259.984375 83.886719 C 260.015625 83.347656 260.46875 82.953125 260.996094 82.96875 C 261.527344 83 261.941406 83.445312 261.914062 83.980469 C 261.914062 84.050781 261.839844 85.703125 261.882812 88.433594 C 262.410156 88.136719 262.941406 87.824219 263.46875 87.503906 C 266.117188 85.894531 268.703125 83.972656 271.113281 81.75 C 270.53125 78.160156 270.011719 74.46875 269.488281 70.703125 C 269.445312 70.710938 269.410156 70.726562 269.355469 70.726562 C 269.320312 70.726562 269.296875 70.726562 269.28125 70.726562 Z M 62.867188 247.253906 C 74.414062 249.894531 83.925781 249.738281 91.644531 248.148438 C 88.675781 246.21875 85.347656 244.304688 81.8125 242.28125 C 71.117188 236.148438 58.992188 229.195312 50.304688 217.613281 C 48.480469 215.179688 46.992188 212.886719 45.816406 210.699219 C 38.238281 208.675781 31.726562 206.285156 26.863281 204.273438 C 28.152344 206.878906 29.863281 209.574219 32.097656 212.335938 C 45.667969 229.128906 56.726562 240.972656 62.867188 247.253906 Z M 82.773438 240.597656 C 86.867188 242.945312 90.78125 245.191406 94.210938 247.550781 C 100.25 245.980469 105.078125 243.53125 108.832031 240.984375 C 107.796875 238.230469 106.917969 235.5 106.269531 232.8125 C 104.113281 223.851562 104.433594 216.3125 105.742188 210.3125 C 97.503906 213.320312 89.03125 214.71875 80.753906 215.023438 C 83.308594 218.984375 86.226562 222.421875 88.800781 225.457031 C 93.320312 230.78125 96.890625 234.988281 96.503906 239.265625 C 96.460938 239.765625 96.035156 240.144531 95.546875 240.144531 C 95.515625 240.144531 95.484375 240.144531 95.457031 240.144531 C 94.925781 240.101562 94.53125 239.625 94.585938 239.09375 C 94.898438 235.625 91.5625 231.695312 87.335938 226.71875 C 84.5 223.375 81.269531 219.554688 78.507812 215.082031 C 67.78125 215.222656 57.441406 213.609375 48.429688 211.375 C 49.394531 213 50.535156 214.6875 51.867188 216.460938 C 60.300781 227.714844 72.238281 234.5625 82.773438 240.597656 Z M 250.964844 208.636719 C 247.867188 205.980469 245.351562 203.5 243.304688 201.199219 C 239.671875 201.945312 236.234375 202.378906 233.351562 202.621094 C 235.464844 206.246094 238.144531 209.679688 241.511719 212.835938 C 253.179688 223.792969 260.261719 234.554688 263.542969 244.847656 L 263.558594 244.847656 C 267.273438 244.589844 270.851562 244.1875 274.230469 243.695312 C 272.660156 232.226562 264.957031 220.652344 250.964844 208.636719 Z M 263.058594 193.125 C 260 195.386719 256.539062 197.105469 252.996094 198.4375 C 250.496094 199.382812 247.949219 200.128906 245.46875 200.71875 C 247.324219 202.71875 249.550781 204.863281 252.230469 207.164062 C 266.601562 219.511719 274.523438 231.464844 276.167969 243.382812 C 277.441406 243.183594 278.675781 242.972656 279.875 242.75 C 282.894531 242.214844 285.695312 241.625 288.164062 241.046875 C 292.648438 240.011719 296.117188 239.011719 298.164062 238.386719 C 301.132812 228.332031 299.367188 218.121094 292.683594 206.097656 C 287.703125 197.136719 280.261719 192.113281 273.0625 187.257812 C 272.148438 186.640625 271.246094 186.03125 270.355469 185.414062 C 268.425781 188.496094 265.925781 191.03125 263.058594 193.125 Z M 346.515625 173.957031 C 341.707031 160.769531 326.148438 150.527344 316.5625 145.277344 C 314.070312 151.777344 309.03125 159.375 298.816406 162.441406 C 301.214844 164.3125 302.800781 165.40625 303.050781 165.570312 C 303.855469 166.007812 313.824219 171.636719 320.136719 181.804688 C 322.121094 184.90625 323.6875 188.355469 324.476562 192.140625 C 325.554688 196.808594 325.644531 202.050781 324.125 207.832031 C 327.535156 207.542969 338.886719 206.0625 347.460938 199.101562 C 349.910156 190.824219 349.605469 182.421875 346.515625 173.957031 Z M 346.515625 173.957031 " fill-opacity="1" fill-rule="nonzero"/></svg>