<svg xmlns="http://www.w3.org/2000/svg" xmlns:xlink="http://www.w3.org/1999/xlink" width="500" zoomAndPan="magnify" viewBox="0 0 375 374.999991" height="500" preserveAspectRatio="xMidYMid meet" version="1.0"><defs><clipPath id="9018619f20"><path d="M 122.234375 123.488281 L 134.234375 123.488281 L 134.234375 130.238281 L 122.234375 130.238281 Z M 122.234375 123.488281 " clip-rule="nonzero"/></clipPath><clipPath id="fdc24ba57d"><path d="M 122.234375 124 L 134 124 L 134 130 L 122.234375 130 Z M 122.234375 124 " clip-rule="nonzero"/></clipPath><clipPath id="869b9e3962"><path d="M 15 2 L 368.507812 2 L 368.507812 375 L 15 375 Z M 15 2 " clip-rule="nonzero"/></clipPath></defs><g clip-path="url(#9018619f20)"><path fill="#353535" d="M 134.257812 127.402344 C 133.507812 127.613281 133.273438 127.035156 133.023438 126.703125 C 132.597656 126.148438 132.105469 126.078125 131.445312 126.148438 C 128.273438 126.464844 125.429688 127.410156 123.25 129.714844 C 122.988281 129.996094 122.628906 130.09375 122.261719 130.179688 L 122.257812 130.179688 C 122.753906 128.820312 123.914062 127.980469 125.117188 127.285156 C 126.960938 126.226562 128.929688 125.402344 131.195312 125.578125 C 131.960938 125.636719 132.527344 125.496094 132.613281 124.585938 C 132.660156 124.039062 133.144531 123.703125 133.929688 123.535156 C 133.105469 124.957031 133.6875 126.152344 134.257812 127.402344 Z M 122.234375 130.210938 L 122.261719 130.179688 C 122.261719 130.179688 122.257812 130.179688 122.257812 130.179688 C 122.261719 130.179688 122.234375 130.210938 122.234375 130.210938 Z M 122.234375 130.210938 " fill-opacity="1" fill-rule="nonzero"/></g><g clip-path="url(#fdc24ba57d)"><path fill="#ffffff" d="M 126.09375 127.09375 C 126.101562 127.09375 126.113281 127.09375 126.121094 127.089844 C 126.121094 127.105469 126.121094 127.125 126.121094 127.140625 C 126.117188 127.140625 126.113281 127.140625 126.105469 127.144531 C 126.101562 127.128906 126.097656 127.113281 126.09375 127.09375 Z M 125.542969 127.15625 C 125.597656 127.152344 125.640625 127.152344 125.695312 127.152344 C 125.609375 127.105469 125.59375 127.105469 125.542969 127.15625 Z M 125.847656 127.667969 C 125.847656 127.671875 125.855469 127.679688 125.863281 127.6875 C 125.871094 127.675781 125.882812 127.671875 125.890625 127.664062 C 125.875 127.652344 125.871094 127.648438 125.863281 127.644531 C 125.855469 127.652344 125.847656 127.660156 125.847656 127.667969 Z M 125.65625 127.703125 C 125.660156 127.703125 125.675781 127.707031 125.675781 127.707031 C 125.679688 127.695312 125.679688 127.675781 125.6875 127.664062 C 125.679688 127.664062 125.671875 127.664062 125.667969 127.660156 C 125.660156 127.671875 125.65625 127.691406 125.65625 127.703125 Z M 125.660156 127.523438 C 125.652344 127.523438 125.640625 127.523438 125.632812 127.523438 C 125.636719 127.542969 125.640625 127.5625 125.640625 127.585938 C 125.652344 127.585938 125.65625 127.585938 125.667969 127.582031 C 125.667969 127.566406 125.667969 127.542969 125.660156 127.523438 Z M 127.734375 126.136719 C 127.738281 126.15625 127.746094 126.179688 127.753906 126.199219 C 127.757812 126.199219 127.761719 126.199219 127.765625 126.195312 C 127.761719 126.171875 127.753906 126.152344 127.746094 126.128906 C 127.742188 126.132812 127.738281 126.136719 127.734375 126.136719 Z M 125.359375 127.898438 C 125.320312 127.902344 125.292969 127.902344 125.269531 127.90625 C 125.292969 127.933594 125.324219 127.949219 125.359375 127.898438 Z M 128.175781 126.722656 C 128.242188 126.730469 128.242188 126.730469 128.277344 126.707031 C 128.265625 126.703125 128.257812 126.695312 128.246094 126.699219 C 128.226562 126.699219 128.207031 126.707031 128.175781 126.722656 Z M 126.992188 126.800781 C 127.03125 126.804688 127.066406 126.808594 127.105469 126.8125 C 127.066406 126.738281 127.0625 126.734375 126.992188 126.800781 Z M 126.464844 126.929688 C 126.492188 126.933594 126.523438 126.933594 126.546875 126.9375 C 126.59375 126.941406 126.585938 126.914062 126.578125 126.875 C 126.542969 126.90625 126.488281 126.863281 126.464844 126.929688 Z M 126.214844 127.007812 C 126.226562 127.011719 126.230469 127.019531 126.234375 127.023438 C 126.25 127.011719 126.257812 126.996094 126.269531 126.984375 C 126.269531 126.984375 126.257812 126.972656 126.253906 126.96875 C 126.246094 126.984375 126.230469 126.992188 126.214844 127.007812 Z M 126.875 127.113281 C 126.890625 127.070312 126.894531 127.042969 126.910156 127 C 126.851562 127.046875 126.851562 127.046875 126.875 127.113281 Z M 123.324219 129.519531 C 123.371094 129.519531 123.378906 129.480469 123.375 129.445312 C 123.328125 129.441406 123.289062 129.433594 123.238281 129.433594 C 123.242188 129.496094 123.285156 129.519531 123.324219 129.519531 Z M 123.398438 128.710938 C 123.402344 128.71875 123.410156 128.726562 123.410156 128.734375 C 123.429688 128.722656 123.449219 128.71875 123.460938 128.710938 C 123.457031 128.699219 123.449219 128.6875 123.449219 128.6875 C 123.433594 128.695312 123.414062 128.699219 123.398438 128.710938 Z M 128.34375 126.679688 C 128.34375 126.691406 128.363281 126.699219 128.371094 126.707031 C 128.378906 126.699219 128.390625 126.691406 128.394531 126.679688 C 128.394531 126.671875 128.382812 126.660156 128.375 126.644531 C 128.359375 126.660156 128.34375 126.671875 128.34375 126.679688 Z M 123.105469 129.789062 C 123.113281 129.789062 123.125 129.789062 123.128906 129.792969 C 123.132812 129.773438 123.140625 129.753906 123.140625 129.734375 C 123.113281 129.738281 123.105469 129.746094 123.101562 129.757812 C 123.101562 129.765625 123.105469 129.78125 123.105469 129.789062 Z M 122.917969 129.328125 C 122.9375 129.339844 122.957031 129.34375 122.980469 129.351562 C 122.980469 129.34375 122.988281 129.339844 122.988281 129.328125 C 122.96875 129.324219 122.949219 129.316406 122.929688 129.3125 C 122.921875 129.316406 122.917969 129.320312 122.917969 129.328125 Z M 122.640625 129.886719 C 122.667969 129.839844 122.6875 129.804688 122.71875 129.761719 C 122.640625 129.773438 122.628906 129.792969 122.640625 129.886719 Z M 124.617188 127.964844 C 124.621094 127.980469 124.628906 127.992188 124.632812 128.007812 C 124.632812 128.007812 124.644531 128.007812 124.652344 128.007812 C 124.648438 127.988281 124.644531 127.96875 124.636719 127.957031 C 124.632812 127.960938 124.621094 127.960938 124.617188 127.964844 Z M 124.441406 128.347656 C 124.460938 128.292969 124.460938 128.292969 124.414062 128.265625 C 124.421875 128.296875 124.433594 128.324219 124.441406 128.347656 Z M 124.769531 128.386719 C 124.78125 128.355469 124.789062 128.328125 124.804688 128.289062 C 124.765625 128.304688 124.734375 128.320312 124.703125 128.332031 C 124.730469 128.351562 124.746094 128.371094 124.769531 128.386719 Z M 124.289062 128.613281 C 124.292969 128.617188 124.292969 128.628906 124.300781 128.632812 C 124.320312 128.621094 124.339844 128.613281 124.359375 128.605469 C 124.355469 128.601562 124.347656 128.59375 124.347656 128.585938 C 124.328125 128.59375 124.308594 128.605469 124.289062 128.613281 Z M 123.90625 128.472656 C 123.914062 128.488281 123.914062 128.507812 123.917969 128.527344 C 123.925781 128.527344 123.933594 128.523438 123.941406 128.523438 C 123.9375 128.503906 123.933594 128.484375 123.933594 128.464844 C 123.921875 128.464844 123.917969 128.472656 123.90625 128.472656 Z M 124.171875 128.367188 C 124.167969 128.367188 124.164062 128.375 124.15625 128.382812 C 124.183594 128.394531 124.207031 128.40625 124.242188 128.425781 C 124.234375 128.367188 124.210938 128.359375 124.171875 128.367188 Z M 132.769531 125.007812 C 132.769531 124.996094 132.773438 124.980469 132.773438 124.964844 C 132.761719 124.964844 132.753906 124.964844 132.75 124.964844 C 132.75 124.976562 132.75 124.992188 132.75 125.003906 C 132.753906 125.003906 132.761719 125.003906 132.769531 125.007812 Z M 133.140625 125.777344 C 133.140625 125.785156 133.148438 125.796875 133.15625 125.808594 C 133.164062 125.804688 133.175781 125.792969 133.195312 125.785156 C 133.179688 125.769531 133.171875 125.761719 133.160156 125.757812 C 133.15625 125.753906 133.140625 125.765625 133.140625 125.777344 Z M 133.058594 125.496094 C 133.046875 125.523438 133.042969 125.550781 133.101562 125.570312 C 133.089844 125.535156 133.085938 125.515625 133.082031 125.492188 C 133.070312 125.492188 133.0625 125.496094 133.058594 125.496094 Z M 133.050781 125.136719 C 133.023438 125.148438 132.992188 125.152344 132.953125 125.160156 C 133 125.203125 133.027344 125.210938 133.050781 125.164062 C 133.058594 125.164062 133.050781 125.152344 133.050781 125.136719 Z M 132.636719 126.183594 C 132.671875 126.179688 132.691406 126.179688 132.714844 126.179688 C 132.710938 126.160156 132.703125 126.144531 132.699219 126.117188 C 132.675781 126.144531 132.660156 126.15625 132.636719 126.183594 Z M 132.75 125.175781 C 132.808594 125.1875 132.851562 125.179688 132.871094 125.105469 C 132.75 125.085938 132.75 125.085938 132.75 125.175781 Z M 133.347656 124.957031 C 133.347656 124.972656 133.347656 124.980469 133.347656 124.996094 C 133.351562 125.007812 133.355469 125.019531 133.359375 125.03125 C 133.367188 125.03125 133.371094 125.027344 133.375 125.027344 C 133.371094 125.003906 133.371094 124.980469 133.367188 124.964844 C 133.359375 124.957031 133.351562 124.957031 133.347656 124.957031 Z M 133.40625 125.691406 C 133.410156 125.699219 133.414062 125.703125 133.417969 125.710938 C 133.4375 125.699219 133.457031 125.679688 133.480469 125.664062 C 133.472656 125.660156 133.464844 125.652344 133.457031 125.648438 C 133.445312 125.660156 133.425781 125.675781 133.40625 125.691406 Z M 133.222656 124.578125 C 133.222656 124.582031 133.222656 124.589844 133.222656 124.59375 C 133.242188 124.59375 133.269531 124.59375 133.308594 124.59375 C 133.277344 124.578125 133.269531 124.566406 133.257812 124.566406 C 133.25 124.566406 133.234375 124.578125 133.222656 124.578125 Z M 129.238281 126.207031 C 129.246094 126.207031 129.25 126.207031 129.261719 126.210938 C 129.261719 126.199219 129.265625 126.179688 129.265625 126.167969 C 129.261719 126.167969 129.25 126.167969 129.246094 126.160156 C 129.242188 126.175781 129.242188 126.195312 129.238281 126.207031 Z M 133.449219 126.546875 C 133.453125 126.546875 133.464844 126.546875 133.46875 126.546875 C 133.472656 126.519531 133.472656 126.488281 133.480469 126.460938 C 133.46875 126.460938 133.457031 126.460938 133.449219 126.460938 C 133.449219 126.492188 133.449219 126.519531 133.449219 126.546875 Z M 133.003906 124.828125 C 133.03125 124.855469 133.050781 124.871094 133.082031 124.898438 C 133.085938 124.835938 133.066406 124.824219 133.003906 124.828125 Z M 129.757812 125.679688 C 129.75 125.714844 129.75 125.75 129.820312 125.777344 C 129.800781 125.730469 129.789062 125.703125 129.777344 125.675781 C 129.769531 125.679688 129.765625 125.679688 129.757812 125.679688 Z M 129.644531 126.03125 C 129.65625 126.042969 129.671875 126.050781 129.6875 126.058594 C 129.6875 126.058594 129.699219 126.046875 129.707031 126.039062 C 129.6875 126.027344 129.675781 126.019531 129.65625 126.019531 C 129.65625 126.015625 129.648438 126.027344 129.644531 126.03125 Z M 129.628906 125.832031 C 129.632812 125.796875 129.636719 125.78125 129.644531 125.742188 C 129.59375 125.78125 129.589844 125.796875 129.628906 125.832031 Z M 129.859375 126.265625 C 129.875 126.289062 129.882812 126.304688 129.898438 126.328125 C 129.914062 126.304688 129.921875 126.28125 129.9375 126.261719 C 129.933594 126.257812 129.925781 126.253906 129.925781 126.25 C 129.902344 126.25 129.878906 126.257812 129.859375 126.265625 Z M 129.203125 125.914062 C 129.230469 125.925781 129.230469 125.980469 129.300781 125.945312 C 129.265625 125.921875 129.238281 125.910156 129.210938 125.894531 C 129.207031 125.902344 129.203125 125.910156 129.203125 125.914062 Z M 129.90625 125.691406 C 129.914062 125.699219 129.917969 125.703125 129.921875 125.707031 C 129.945312 125.691406 129.976562 125.679688 130.019531 125.660156 C 129.984375 125.648438 129.957031 125.628906 129.945312 125.636719 C 129.925781 125.648438 129.921875 125.671875 129.90625 125.691406 Z M 132.453125 125.21875 C 132.453125 125.226562 132.453125 125.234375 132.453125 125.238281 C 132.472656 125.238281 132.492188 125.238281 132.511719 125.238281 C 132.511719 125.234375 132.511719 125.230469 132.511719 125.226562 C 132.492188 125.226562 132.472656 125.226562 132.453125 125.21875 Z M 131.195312 126.039062 C 131.25 126.050781 131.28125 126.058594 131.3125 126.070312 C 131.289062 126.039062 131.265625 126.015625 131.195312 126.039062 Z M 131.382812 125.757812 C 131.441406 125.691406 131.441406 125.691406 131.363281 125.679688 C 131.367188 125.703125 131.371094 125.71875 131.382812 125.757812 Z M 130.367188 126.046875 C 130.398438 126.058594 130.417969 126.070312 130.445312 126.078125 C 130.453125 126.046875 130.457031 126.019531 130.460938 125.992188 C 130.457031 125.988281 130.453125 125.988281 130.445312 125.980469 C 130.417969 126 130.398438 126.019531 130.367188 126.046875 Z M 130.367188 126.046875 " fill-opacity="1" fill-rule="nonzero"/></g><g clip-path="url(#869b9e3962)"><path fill="#723d0d" d="M 108.4375 374.992188 C 108.4375 374.992188 110.039062 373.167969 112.003906 369.925781 C 111.457031 371.734375 110.308594 373.425781 108.4375 374.992188 Z M 368.109375 222.582031 C 355.71875 236.4375 334.5625 225.503906 334.5625 206.539062 C 334.5625 196.226562 340.824219 172.957031 342.542969 148.589844 C 343.398438 136.484375 343.128906 124.125 340.410156 112.941406 C 340.882812 112.824219 341.222656 112.378906 341.183594 111.871094 C 340.515625 102.945312 331.1875 80.816406 307.832031 73.167969 C 297.882812 69.90625 290.101562 68.816406 284.464844 68.628906 C 288.996094 63.113281 296.515625 56.582031 305.402344 59.246094 C 309.925781 60.605469 315.441406 61.820312 320.957031 62.445312 C 320.929688 62.503906 320.914062 62.574219 320.898438 62.648438 C 320.792969 63.203125 321.160156 63.742188 321.714844 63.847656 C 323.683594 64.214844 325.597656 64.359375 327.382812 64.359375 C 333.402344 64.359375 337.992188 62.753906 338.242188 62.664062 C 338.765625 62.476562 339.042969 61.90625 338.871094 61.378906 C 342.660156 60.066406 345.484375 57.808594 346.59375 54.242188 C 347.390625 53.792969 347.703125 53.425781 347.789062 53.3125 C 348.117188 52.871094 348.027344 52.269531 347.601562 51.921875 C 347.179688 51.570312 346.542969 51.636719 346.167969 52.042969 C 346.144531 52.074219 343.351562 54.964844 328.761719 54.542969 C 317.722656 54.226562 314.460938 51.519531 311.007812 48.660156 C 309.671875 47.546875 308.292969 46.40625 306.460938 45.417969 C 297.417969 40.539062 288.742188 39.164062 279.9375 41.199219 C 274.785156 42.394531 272.074219 46.867188 270.648438 51.4375 C 269.230469 43.707031 264.359375 22.699219 252.414062 14.988281 C 251.992188 14.714844 251.453125 14.804688 251.121094 15.160156 C 248.105469 12.351562 244.617188 9.882812 240.59375 7.941406 C 240.609375 7.910156 240.621094 7.886719 240.636719 7.855469 C 240.832031 7.324219 240.546875 6.730469 240.015625 6.542969 C 239.273438 6.273438 221.605469 0.03125 207.429688 3.570312 C 206.882812 3.707031 206.546875 4.269531 206.679688 4.816406 C 206.816406 5.367188 207.378906 5.703125 207.925781 5.566406 C 208.445312 5.441406 208.976562 5.328125 209.507812 5.222656 C 213.304688 6.671875 222.417969 10.640625 230.996094 18.117188 C 230.996094 18.117188 230.996094 18.117188 230.988281 18.117188 C 230.613281 18.542969 230.65625 19.1875 231.085938 19.5625 C 231.210938 19.675781 243.640625 30.648438 245.921875 41.539062 C 246.019531 42.023438 246.453125 42.355469 246.925781 42.355469 C 246.996094 42.355469 247.070312 42.347656 247.136719 42.332031 C 247.175781 42.324219 247.203125 42.308594 247.234375 42.304688 C 248.433594 46.144531 249.214844 50.332031 249.464844 54.886719 C 246.132812 50.789062 241.5625 46.265625 235.355469 42.003906 C 214.605469 27.75 194.671875 27.640625 181.609375 30.054688 C 164.960938 33.132812 143.761719 44.78125 143.550781 44.898438 C 143.058594 45.175781 142.875 45.800781 143.148438 46.296875 C 143.15625 46.308594 143.160156 46.316406 143.167969 46.332031 C 135.882812 50.84375 129.714844 55.742188 124.144531 60.5625 C 108.65625 73.910156 97.789062 86.59375 80.222656 88.183594 C 79.472656 88.253906 78.75 88.304688 78.023438 88.367188 C 78.023438 88.335938 78.023438 88.296875 78.015625 88.269531 C 77.917969 87.710938 77.378906 87.335938 76.820312 87.441406 C 76.671875 87.472656 66.910156 89.207031 57.308594 88.269531 C 47.125 86.886719 40.785156 82.917969 38.488281 75.269531 C 36.742188 67.324219 39.644531 58.21875 39.691406 58.09375 C 39.871094 57.550781 39.570312 56.972656 39.03125 56.792969 C 38.488281 56.613281 37.910156 56.90625 37.730469 57.445312 C 37.679688 57.613281 37.371094 58.566406 37.027344 60.027344 C 29.144531 66.378906 -7.722656 98.835938 45.4375 110.367188 C 37.085938 115.53125 26.203125 123.726562 20.898438 133.871094 C 12.171875 150.5625 15.03125 159.304688 20.222656 175.175781 L 20.898438 177.242188 C 21.042969 177.675781 21.4375 177.953125 21.875 177.953125 C 21.980469 177.953125 22.085938 177.9375 22.1875 177.902344 C 22.210938 177.894531 22.234375 177.878906 22.257812 177.871094 C 22.746094 179.074219 23.261719 180.289062 23.832031 181.527344 C 29.589844 194 34.105469 205.351562 37.386719 215.453125 C 47.425781 246.269531 45.992188 265.382812 33.550781 269.027344 C 17.035156 273.890625 15.089844 302.085938 30.648438 309.867188 C 30.632812 309.816406 30.609375 309.769531 30.609375 309.71875 C 30.046875 307.558594 24.304688 282.890625 50.855469 272.390625 C 47.515625 277.9375 44.214844 286.183594 44.769531 296.660156 C 44.800781 297.207031 45.25 297.636719 45.796875 297.636719 C 45.8125 297.636719 45.835938 297.636719 45.851562 297.636719 C 45.949219 297.628906 46.039062 297.605469 46.128906 297.574219 C 47.285156 305.5 51.691406 314.101562 62.730469 321.53125 C 74.539062 329.476562 117.03125 353.820312 111.996094 369.941406 C 114.984375 365.078125 118.832031 357.019531 119.441406 347.210938 C 119.679688 343.4375 119.441406 339.398438 118.488281 335.1875 C 118.988281 335.070312 119.335938 334.597656 119.269531 334.070312 C 118.089844 324.140625 107.441406 312.1875 97.144531 300.628906 C 96.003906 299.347656 94.863281 298.070312 93.753906 296.8125 C 93.371094 296.375 93.007812 295.933594 92.664062 295.488281 C 93.925781 294.199219 96.574219 291.292969 99.539062 286.933594 C 99.710938 287.046875 99.90625 287.121094 100.101562 287.121094 C 100.386719 287.121094 100.664062 287.007812 100.867188 286.777344 C 111.191406 275.183594 113.152344 254.671875 113.277344 242.050781 C 113.765625 243.476562 114.359375 245.058594 115.082031 246.769531 C 117.277344 252.992188 120.0625 258.769531 123.597656 263.296875 C 132.949219 275.273438 147.265625 281.394531 147.867188 281.652344 C 147.996094 281.703125 148.128906 281.734375 148.265625 281.734375 C 148.671875 281.734375 149.046875 281.5 149.210938 281.105469 C 149.429688 280.578125 149.1875 279.976562 148.664062 279.761719 C 148.632812 279.746094 148.070312 279.503906 147.109375 279.039062 C 142.292969 271.851562 124.0625 242.402344 126.417969 211.84375 C 126.425781 211.84375 126.425781 211.84375 126.433594 211.84375 C 126.457031 211.84375 126.480469 211.84375 126.503906 211.84375 C 127.042969 211.84375 127.492188 211.425781 127.53125 210.882812 C 129.359375 182.597656 147.453125 161.609375 153.667969 155.191406 C 153.054688 167.125 155.433594 182.210938 167.703125 194.230469 C 180.273438 206.554688 202.378906 219.386719 221.875 230.703125 C 239.316406 240.828125 255.78125 250.386719 261.636719 257.441406 C 272.316406 270.304688 273.726562 276.316406 268.832031 288.082031 C 268.613281 288.609375 268.863281 289.207031 269.386719 289.425781 C 269.515625 289.480469 269.648438 289.507812 269.785156 289.507812 C 270.191406 289.507812 270.574219 289.269531 270.730469 288.878906 C 270.957031 288.332031 271.171875 287.796875 271.375 287.265625 C 274.671875 284.625 282.21875 277.914062 285.808594 269.402344 C 286.632812 273.675781 286.574219 278.964844 284.261719 284.945312 C 278.011719 301.125 259.640625 321.75 259.460938 321.949219 C 259.023438 322.4375 248.757812 333.972656 250.703125 342.738281 C 250.804688 343.21875 251.234375 343.542969 251.707031 343.542969 C 251.707031 343.542969 251.714844 343.542969 251.714844 343.542969 C 252.097656 354.722656 262.605469 361.417969 268.808594 364.402344 C 269.921875 365.492188 271.203125 366.429688 272.703125 367.144531 C 272.847656 367.210938 272.996094 367.242188 273.140625 367.242188 C 273.523438 367.242188 273.890625 367.023438 274.070312 366.65625 C 274.316406 366.144531 274.09375 365.53125 273.582031 365.289062 C 267.453125 362.386719 265.273438 355.054688 264.53125 349.417969 C 263.878906 344.449219 268.660156 337.085938 273.035156 334.542969 C 277.710938 331.820312 281.734375 327.96875 281.898438 327.804688 C 282.304688 327.414062 282.316406 326.761719 281.925781 326.347656 C 281.914062 326.332031 281.898438 326.324219 281.882812 326.316406 C 289.785156 317.636719 292.921875 306.117188 293.566406 303.421875 C 293.898438 303.804688 294.210938 304.21875 294.496094 304.675781 C 296.058594 307.195312 296.390625 310.363281 295.488281 314.101562 C 294.453125 318.394531 293.214844 322.550781 292.015625 326.574219 C 289.566406 334.785156 287.25 342.542969 286.761719 350.8125 C 286.085938 362.128906 289.15625 368.261719 296.695312 370.691406 C 296.800781 370.722656 296.90625 370.746094 297.011719 370.746094 C 297.445312 370.746094 297.851562 370.46875 297.988281 370.03125 C 298.023438 369.910156 298.039062 369.792969 298.03125 369.671875 C 303.464844 370.054688 309.011719 367.742188 309.011719 367.742188 C 290.046875 358.273438 306.820312 332.007812 327.238281 310.867188 C 344.183594 293.320312 333.011719 274.769531 328.710938 268.953125 C 327.832031 267.769531 327.238281 267.101562 327.238281 267.101562 C 349.109375 267.101562 347.660156 298.453125 347.660156 298.453125 C 354.757812 289.195312 356.835938 280.617188 356.09375 273.042969 C 354.121094 252.59375 331.613281 239.394531 331.613281 239.394531 C 357.175781 245.195312 368.109375 222.582031 368.109375 222.582031 Z M 368.109375 222.582031 " fill-opacity="1" fill-rule="nonzero"/></g><path fill="#d87416" d="M 38.503906 75.253906 C 40.800781 82.910156 47.140625 86.871094 57.324219 88.253906 C 52.304688 87.765625 47.320312 86.542969 43.792969 83.960938 C 40.808594 81.777344 39.238281 78.617188 38.503906 75.253906 Z M 113.300781 242.035156 C 113.789062 243.460938 114.382812 245.042969 115.101562 246.753906 C 114.449219 244.917969 113.855469 243.039062 113.300781 241.140625 C 113.308594 241.433594 113.308594 241.734375 113.300781 242.035156 Z M 125.511719 210.734375 C 127.605469 178.417969 150.375 155.449219 153.9375 152.035156 C 154.199219 149.371094 154.589844 146.914062 155.027344 144.746094 C 119.679688 133.503906 89.480469 112.898438 69.207031 90.40625 C 67.425781 90.535156 65.460938 90.625 63.390625 90.625 C 56.28125 90.625 48.003906 89.597656 42.578125 85.625 C 33.65625 79.097656 35.691406 65.679688 37.039062 60.027344 C 29.160156 66.378906 -7.707031 98.835938 45.453125 110.367188 C 51.410156 106.683594 56.085938 104.539062 56.539062 104.335938 C 57.054688 104.101562 57.664062 104.335938 57.894531 104.84375 C 58.128906 105.363281 57.894531 105.972656 57.386719 106.203125 C 57.128906 106.324219 31.496094 118.066406 22.738281 134.820312 C 14.40625 150.734375 17.011719 158.691406 22.195312 174.53125 L 22.871094 176.597656 C 23.039062 177.113281 22.773438 177.660156 22.28125 177.863281 C 22.765625 179.066406 23.285156 180.28125 23.855469 181.519531 C 29.613281 193.992188 34.128906 205.347656 37.410156 215.445312 C 37.410156 215.445312 55.164062 226.855469 51.953125 246.175781 C 48.734375 265.449219 21.445312 282.84375 30.625 309.710938 C 30.0625 307.550781 24.320312 282.882812 50.871094 272.382812 C 53.886719 267.378906 56.933594 264.570312 57.199219 264.339844 C 57.617188 263.957031 58.269531 263.992188 58.644531 264.414062 C 59.027344 264.832031 58.992188 265.488281 58.570312 265.871094 C 58.472656 265.960938 50.691406 273.140625 47.824219 285.375 C 50.414062 292.636719 57.957031 306.804688 78.628906 313.816406 C 95.957031 319.683594 110.726562 333.492188 119.460938 347.210938 C 119.703125 343.4375 119.460938 339.398438 118.507812 335.1875 C 118.472656 335.195312 118.433594 335.210938 118.390625 335.210938 C 118.351562 335.21875 118.308594 335.21875 118.269531 335.21875 C 117.757812 335.21875 117.308594 334.835938 117.25 334.3125 C 116.144531 325.019531 105.722656 313.320312 95.636719 301.996094 C 94.488281 300.714844 93.355469 299.429688 92.238281 298.167969 C 81.167969 285.621094 83.53125 268.0625 83.636719 267.324219 C 83.71875 266.761719 84.238281 266.378906 84.800781 266.453125 C 85.363281 266.539062 85.753906 267.054688 85.671875 267.617188 C 85.648438 267.78125 83.515625 283.753906 92.6875 295.496094 C 93.949219 294.207031 96.597656 291.300781 99.5625 286.941406 C 99.523438 286.914062 99.476562 286.90625 99.441406 286.867188 C 99.019531 286.492188 98.976562 285.839844 99.359375 285.417969 C 113.371094 269.6875 111.222656 235.347656 110.945312 231.679688 C 107.539062 215.695312 107.019531 200.910156 106.992188 199.867188 C 106.976562 199.296875 107.417969 198.824219 107.988281 198.808594 C 108.558594 198.75 109.03125 199.238281 109.046875 199.808594 C 109.0625 200.242188 110.554688 243.214844 125.257812 262.042969 C 132.519531 271.339844 143.199219 277.117188 147.15625 279.046875 C 142.335938 271.859375 124.109375 242.410156 126.464844 211.851562 C 125.902344 211.777344 125.472656 211.289062 125.511719 210.734375 Z M 356.140625 273.007812 C 356.882812 280.578125 354.804688 289.15625 347.703125 298.417969 C 347.703125 298.417969 349.152344 267.0625 327.285156 267.0625 C 327.285156 267.0625 327.878906 267.722656 328.757812 268.917969 C 322.578125 263.363281 316.5 260.886719 316.5 260.886719 C 329.851562 289.417969 301.320312 326.679688 295.796875 347.839844 C 290.28125 369.003906 309.054688 367.699219 309.054688 367.699219 C 309.054688 367.699219 303.511719 370 298.078125 369.625 C 298.0625 369.207031 297.792969 368.832031 297.363281 368.6875 C 292.71875 367.1875 288.074219 363.910156 288.847656 350.886719 C 289.328125 342.859375 291.601562 335.210938 294.015625 327.121094 C 295.226562 323.070312 296.480469 318.890625 297.523438 314.542969 C 298.558594 310.25 298.136719 306.558594 296.277344 303.558594 C 293.433594 298.964844 288.261719 297.742188 288.042969 297.695312 C 287.488281 297.5625 286.941406 297.914062 286.8125 298.46875 C 286.6875 299.023438 287.03125 299.570312 287.585938 299.699219 C 287.625 299.707031 291.128906 300.539062 293.597656 303.390625 C 292.953125 306.085938 289.808594 317.605469 281.914062 326.289062 C 281.515625 325.921875 280.898438 325.914062 280.507812 326.296875 C 280.472656 326.332031 276.503906 330.136719 272.035156 332.734375 C 267.097656 335.609375 261.753906 343.796875 262.527344 349.65625 C 263.167969 354.476562 264.808594 360.433594 268.847656 364.382812 C 262.640625 361.394531 252.136719 354.699219 251.753906 343.519531 C 251.820312 343.519531 251.894531 343.511719 251.96875 343.496094 C 252.523438 343.367188 252.871094 342.820312 252.75 342.273438 C 251.039062 334.542969 260.929688 323.421875 261.035156 323.308594 C 261.800781 322.453125 279.839844 302.207031 286.226562 285.675781 C 292.773438 268.734375 282.371094 256.796875 282.265625 256.683594 C 281.890625 256.265625 281.238281 256.226562 280.816406 256.601562 C 280.398438 256.976562 280.359375 257.628906 280.734375 258.050781 C 280.792969 258.117188 284.507812 262.386719 285.859375 269.390625 C 282.265625 277.898438 274.722656 284.609375 271.429688 287.25 C 275.847656 275.722656 273.972656 269 263.273438 256.121094 C 258.988281 250.957031 249.859375 244.871094 238.425781 237.996094 C 231.429688 233.554688 223.820312 229.203125 216.066406 224.910156 C 198.546875 214.679688 180.121094 203.46875 169.1875 192.753906 C 156.640625 180.460938 154.890625 164.761719 155.914062 152.964844 C 156.152344 152.648438 156.191406 152.242188 156.011719 151.898438 C 156.25 149.527344 156.601562 147.328125 156.992188 145.363281 C 176.535156 151.351562 197.605469 154.464844 219.414062 153.460938 C 234.792969 152.746094 246.597656 148.703125 255.421875 143.824219 C 255.65625 144.238281 256.140625 144.445312 256.613281 144.304688 C 256.707031 144.273438 265.996094 141.542969 272.71875 145.78125 C 276.328125 148.046875 278.582031 151.949219 279.429688 157.375 C 279.773438 159.597656 280.105469 161.886719 280.425781 164.175781 C 282.429688 178.179688 284.507812 192.65625 291.480469 196.128906 C 293.085938 196.933594 294.878906 197.128906 296.847656 196.707031 C 293.453125 199.867188 287.054688 203.71875 278.867188 198.929688 C 273.394531 195.726562 271.992188 191.515625 270.632812 187.441406 C 268.878906 182.164062 267.0625 176.714844 256.496094 174.847656 C 255.933594 174.742188 255.398438 175.125 255.300781 175.679688 C 255.203125 176.234375 255.578125 176.777344 256.136719 176.875 C 265.492188 178.523438 266.972656 182.960938 268.683594 188.085938 C 270.085938 192.304688 271.683594 197.082031 277.792969 200.671875 C 278.03125 200.828125 302.039062 216.46875 299.367188 234.847656 C 299.285156 235.410156 299.675781 235.925781 300.238281 236.007812 C 300.292969 236.015625 300.335938 236.015625 300.390625 236.015625 C 300.890625 236.015625 301.328125 235.648438 301.402344 235.136719 C 303.4375 221.171875 291.765625 209.128906 284.457031 203.078125 C 285.140625 203.175781 285.808594 203.214844 286.460938 203.214844 C 295.445312 203.214844 301.160156 194.898438 301.238281 194.792969 C 301.5 194.402344 301.460938 193.878906 301.140625 193.527344 C 300.816406 193.171875 300.300781 193.089844 299.886719 193.324219 C 296.882812 194.980469 294.4375 195.289062 292.398438 194.277344 C 286.386719 191.28125 284.390625 177.347656 282.460938 163.867188 C 282.128906 161.5625 281.800781 159.277344 281.453125 157.039062 C 280.515625 151.003906 277.941406 146.621094 273.808594 144.027344 C 268.726562 140.835938 262.582031 141.121094 259 141.683594 C 261.90625 139.839844 264.433594 137.933594 266.597656 136.078125 C 274.136719 129.582031 277.328125 123.765625 277.328125 123.765625 C 273.5 124.65625 269.71875 125.347656 265.988281 125.871094 C 196.820312 135.472656 144.273438 84.09375 124.160156 60.539062 C 129.730469 55.722656 135.898438 50.820312 143.183594 46.308594 C 143.46875 46.777344 144.070312 46.941406 144.558594 46.679688 C 144.769531 46.566406 165.683594 35.074219 181.996094 32.058594 C 194.679688 29.710938 214.035156 29.824219 234.207031 43.675781 C 251.175781 55.332031 255.625 69.328125 255.667969 69.460938 C 255.804688 69.90625 256.210938 70.191406 256.652344 70.191406 C 256.75 70.191406 256.855469 70.175781 256.953125 70.144531 C 257.492188 69.980469 257.800781 69.402344 257.636719 68.859375 C 257.515625 68.472656 255.59375 62.386719 249.476562 54.867188 C 249.238281 50.308594 248.449219 46.121094 247.25 42.28125 C 247.746094 42.121094 248.050781 41.621094 247.949219 41.09375 C 245.523438 29.53125 232.984375 18.460938 232.449219 17.996094 C 232.023438 17.621094 231.378906 17.664062 231.003906 18.09375 C 222.425781 10.617188 213.3125 6.648438 209.515625 5.199219 C 222.828125 2.632812 239.152344 8.398438 239.324219 8.457031 C 239.4375 8.496094 239.558594 8.515625 239.671875 8.515625 C 240.058594 8.515625 240.421875 8.285156 240.59375 7.917969 C 244.621094 9.851562 248.105469 12.328125 251.121094 15.136719 C 251.078125 15.179688 251.023438 15.210938 250.996094 15.265625 C 250.6875 15.746094 250.820312 16.375 251.300781 16.683594 C 264.953125 25.5 269.050781 54.273438 269.09375 54.558594 C 269.148438 54.925781 269.386719 55.210938 269.703125 55.351562 C 269.003906 59.269531 269.082031 62.527344 269.085938 62.84375 C 269.101562 63.398438 269.558594 63.839844 270.117188 63.839844 C 270.125 63.839844 270.136719 63.839844 270.144531 63.839844 C 270.714844 63.824219 271.160156 63.351562 271.144531 62.78125 C 271.136719 62.609375 270.769531 45.394531 280.410156 43.164062 C 288.703125 41.246094 296.90625 42.566406 305.492188 47.195312 C 307.144531 48.089844 308.382812 49.117188 309.703125 50.203125 C 313.273438 53.167969 316.964844 56.230469 328.710938 56.570312 C 339.90625 56.890625 344.664062 55.300781 346.59375 54.210938 C 345.484375 57.777344 342.660156 60.042969 338.871094 61.347656 C 338.871094 61.339844 338.871094 61.328125 338.863281 61.320312 C 338.675781 60.785156 338.082031 60.507812 337.550781 60.695312 C 337.476562 60.71875 330.128906 63.300781 322.09375 61.800781 C 321.597656 61.71875 321.132812 61.980469 320.953125 62.421875 C 315.433594 61.808594 309.925781 60.582031 305.394531 59.226562 C 296.507812 56.5625 288.988281 63.089844 284.457031 68.605469 C 277.246094 68.367188 273.53125 69.621094 273.265625 69.710938 C 272.734375 69.898438 272.449219 70.480469 272.636719 71.023438 C 272.824219 71.554688 273.410156 71.839844 273.949219 71.652344 C 274.054688 71.617188 285.15625 67.886719 307.1875 75.097656 C 330.007812 82.570312 338.585938 104.761719 339.128906 111.996094 C 339.164062 112.539062 339.613281 112.949219 340.148438 112.949219 C 340.171875 112.949219 340.199219 112.949219 340.222656 112.949219 C 340.28125 112.941406 340.34375 112.933594 340.394531 112.921875 C 343.113281 124.101562 343.382812 136.46875 342.527344 148.566406 C 337.988281 156.484375 331.285156 167.71875 322.46875 181.269531 C 304.515625 208.871094 309.132812 237.863281 327.058594 251.199219 C 339.578125 260.503906 350.503906 265.34375 356.140625 273.007812 Z M 299.316406 260.832031 C 298.429688 243.199219 280.800781 236.535156 254.117188 226.449219 C 247.925781 224.105469 240.90625 221.457031 233.582031 218.464844 C 196.78125 203.433594 202.769531 178.230469 203.046875 177.167969 C 203.191406 176.617188 202.859375 176.054688 202.3125 175.914062 C 201.765625 175.769531 201.203125 176.101562 201.058594 176.648438 C 200.984375 176.925781 194.28125 204.625 232.8125 220.371094 C 240.15625 223.371094 247.1875 226.027344 253.386719 228.371094 C 280.238281 238.515625 296.449219 244.640625 297.257812 260.929688 C 297.289062 261.480469 297.738281 261.90625 298.289062 261.90625 C 298.300781 261.90625 298.324219 261.90625 298.339844 261.90625 C 298.910156 261.882812 299.347656 261.40625 299.316406 260.832031 Z M 112.011719 369.925781 C 110.039062 373.167969 108.445312 374.992188 108.445312 374.992188 C 110.308594 373.425781 111.457031 371.734375 112.011719 369.925781 Z M 112.011719 369.925781 " fill-opacity="1" fill-rule="nonzero"/><path fill="#ffffff" d="M 78.039062 88.359375 C 78.765625 88.296875 79.488281 88.246094 80.238281 88.179688 C 97.804688 86.578125 108.671875 73.90625 124.160156 60.554688 C 144.273438 84.109375 196.820312 135.484375 265.988281 125.886719 C 269.71875 125.363281 273.5 124.671875 277.328125 123.777344 C 277.328125 123.777344 274.136719 129.59375 266.597656 136.09375 C 264.433594 137.949219 261.90625 139.855469 259 141.699219 C 257.28125 141.96875 256.148438 142.300781 256.015625 142.339844 C 255.472656 142.503906 255.167969 143.074219 255.324219 143.621094 C 255.347656 143.695312 255.375 143.765625 255.414062 143.824219 C 246.597656 148.703125 234.785156 152.746094 219.40625 153.460938 C 197.601562 154.464844 176.527344 151.351562 156.984375 145.363281 C 158.117188 139.644531 159.566406 135.945312 159.613281 135.832031 C 159.820312 135.304688 159.566406 134.707031 159.042969 134.496094 C 158.515625 134.285156 157.914062 134.539062 157.707031 135.066406 C 157.660156 135.179688 156.191406 138.929688 155.019531 144.746094 C 119.671875 133.503906 89.476562 112.898438 69.199219 90.40625 C 73.648438 90.085938 76.84375 89.519531 77.199219 89.453125 C 77.730469 89.355469 78.082031 88.875 78.039062 88.359375 Z M 78.039062 88.359375 " fill-opacity="1" fill-rule="nonzero"/></svg>